<?xml version="1.0"?>
<!DOCTYPE svg PUBLIC "-//W3C//DTD SVG 1.1//EN" "http://www.w3.org/Graphics/SVG/1.1/DTD/svg11.dtd">
<svg width="137.7326915957053mm" height="43.94668641243983mm" viewBox="-6.667160 -39.168826 137.732692 43.946686" xmlns="http://www.w3.org/2000/svg" version="1.1">
<g id="Body" transform="scale(1,-1)">
<path id="Body_f0000"  d="M 131.06553128470935 39.16882636060718 L -6.667160310995947 39.16882636060718 L -6.667160310995947 39.16882636060718 L 131.06553128470935 39.16882636060718 L 131.06553128470935 39.16882636060718 Z " stroke="#191919" stroke-width="0.35 px" style="stroke-width:0.35;stroke-miterlimit:4;stroke-dasharray:none;fill:#aaffff;fill-opacity:0.25;fill-rule: evenodd "/>
<path id="Body_f0001"  d="M -6.667160310995947 39.16882636060718 L -6.667160310995947 -4.777860051832654 L -6.667160310995943 -4.777860051832654 L -6.667160310995947 39.16882636060718 L -6.667160310995947 39.16882636060718 Z " stroke="#191919" stroke-width="0.35 px" style="stroke-width:0.35;stroke-miterlimit:4;stroke-dasharray:none;fill:#aaffff;fill-opacity:0.25;fill-rule: evenodd "/>
<path id="Body_f0002"  d="M 131.06553128470935 -4.777860051832654 L 131.06553128470935 39.16882636060718 L 131.06553128470935 39.16882636060718 L 131.06553128470935 -4.777860051832654 L 131.06553128470935 -4.777860051832654 Z " stroke="#191919" stroke-width="0.35 px" style="stroke-width:0.35;stroke-miterlimit:4;stroke-dasharray:none;fill:#aaffff;fill-opacity:0.25;fill-rule: evenodd "/>
<path id="Body_f0003"  d="M -6.667160310995947 39.16882636060718 L 131.06553128470935 39.16882636060718 L 131.06553128470935 -4.777860051832654 L -6.667160310995943 -4.777860051832654 L -6.667160310995947 39.16882636060718 Z M 34.098482043687525 29.16882636060718 L 34.07626804887079 13.607922991484637 L 27.378748611625323 29.16882636060718 L 22.669381710477598 29.16882636060718 L 22.669381710477598 5.000000000000001 L 27.378748611625323 5.000000000000001 L 27.378748611625323 20.50536838208071 L 34.131803035912625 5.000000000000001 L 38.79674194742688 5.000000000000001 L 38.79674194742688 29.16882636060718 L 34.098482043687525 29.16882636060718 Z M 18.80414661236579 21.804887078859682 Q 18.493150684931507 23.226582747130692 17.915586819696408 24.41503146982599 Q 17.382450944094778 25.47019622362088 16.63828211773417 26.336542021473527 Q 15.894113291373564 27.21399481673454 14.916697519437244 27.82487967419474 Q 13.928174750092557 28.469085523880043 12.706405035172159 28.813402443539427 Q 11.484635320251758 29.16882636060718 10.085153646797481 29.16882636060718 Q 8.696778970751573 29.16882636060718 7.508330248056275 28.824509440947796 Q 6.330988522769345 28.491299518696778 5.386893743058127 27.858200666419844 Q 4.420584968530174 27.21399481673454 3.6764161421695665 26.303221029248427 Q 2.9322473158089597 25.403554239170678 2.421325435024065 24.29285449833395 Q 1.888189559422436 23.11551277304702 1.6105146242132542 21.716031099592744 Q 1.3328396890040726 20.327656423546834 1.3328396890040726 18.783783783783782 L 1.332839689004072 15.351721584598296 Q 1.3328396890040726 13.896704924102185 1.5771936319881525 12.586079229914846 Q 1.8215475749722325 11.286560533135876 2.2880414661236577 10.164753794890782 Q 2.798963346908552 8.954091077378749 3.565346168085894 7.987782302850796 Q 4.331728989263236 7.032580525731211 5.298037763791188 6.355053683820807 Q 6.286560533135876 5.710847834135505 7.48611625323954 5.3554239170677524 Q 8.685671973343206 5.0 10.096260644205849 5.0 Q 11.429100333209922 5.0 12.584228063680118 5.310995927434283 Q 13.75046279155868 5.633098852276935 14.716771566086633 6.199555720103666 Q 15.783043317289891 6.843761569788967 16.616068122917437 7.8100703443169195 Q 17.44909292854498 8.776379118844872 18.01554979637171 9.942613846723436 Q 18.54868567197334 11.108848574602 18.826360607182526 12.475009255831173 Q 19.115142539800072 13.841169937060348 19.115142539800072 15.351721584598296 L 19.115142539800072 18.783783783783782 Q 19.115142539800072 20.383191410588672 18.80414661236579 21.804887078859682 Z M 123.06553128470935 5.000000000000004 L 123.06553128470935 5.222139948167349 L 117.8563495001851 15.418363569048504 Q 118.85597926693816 15.862643465383192 119.65568308034061 16.462421325435024 Q 120.46649389115142 17.073306182895223 121.05516475379488 17.884116993706034 Q 121.62162162162161 18.68382080710848 121.92151055164753 19.705664568678266 Q 122.2325064790818 20.727508330248057 122.2325064790818 22.004813032210293 Q 122.2325064790818 23.759718622732322 121.61051462421324 25.092558311736394 Q 120.98852276934468 26.436504998148834 119.83339503887449 27.336171788226583 Q 118.66716031099591 28.23583857830433 117.03443169196592 28.702332469455754 Q 115.40170307293594 29.16882636060718 113.39133654202146 29.16882636060718 L 105.26101443909663 29.168826360607184 L 105.26101443909663 5.000000000000003 L 109.93706034801924 5.000000000000003 L 109.93706034801924 14.241021843761573 L 113.49129951869676 14.241021843761573 L 118.05627545353572 5.000000000000004 L 123.06553128470935 5.000000000000004 Z M 90.28878193261754 25.370233246945578 L 90.28878193261754 8.787486116253241 L 85.67937800814512 8.787486116253241 L 85.67937800814512 5.000000000000003 L 99.70751573491299 5.000000000000003 L 99.70751573491299 8.787486116253241 L 94.97593483894853 8.787486116253241 L 94.97593483894853 25.370233246945578 L 99.70751573491299 25.370233246945578 L 99.70751573491299 29.168826360607184 L 85.67937800814512 29.168826360607184 L 85.67937800814512 25.370233246945578 L 90.28878193261754 25.370233246945578 Z M 82.30285079600148 5.000000000000003 L 74.50573861532766 29.168826360607184 L 70.26286560533136 29.168826360607184 L 62.31025546094039 5.000000000000002 L 67.24176231025547 5.000000000000002 L 68.67456497593484 9.97593483894854 L 75.96075527582377 9.97593483894854 L 77.37134394668641 5.000000000000002 L 82.30285079600148 5.000000000000003 Z " stroke="#191919" stroke-width="0.35 px" style="stroke-width:0.35;stroke-miterlimit:4;stroke-dasharray:none;fill:#aaffff;fill-opacity:0.25;fill-rule: evenodd "/>
<path id="Body_f0005"  d="M -6.667160310995939 -4.777860051832654 L 131.06553128470935 -4.777860051832654 L 131.06553128470935 -4.777860051832654 L -6.667160310995943 -4.777860051832654 L -6.667160310995943 -4.777860051832654 Z " stroke="#191919" stroke-width="0.35 px" style="stroke-width:0.35;stroke-miterlimit:4;stroke-dasharray:none;fill:#aaffff;fill-opacity:0.25;fill-rule: evenodd "/>
<path id="Body_f0006"  d="M 38.79674194742688 5.0 L 34.131803035912625 5.0 L 34.131803035912625 5.000000000000001 L 38.79674194742688 5.000000000000001 L 38.79674194742688 5.000000000000001 Z " stroke="#191919" stroke-width="0.35 px" style="stroke-width:0.35;stroke-miterlimit:4;stroke-dasharray:none;fill:#aaffff;fill-opacity:0.25;fill-rule: evenodd "/>
<path id="Body_f0007"  d="M 34.131803035912625 4.999999999999998 L 27.378748611625323 20.50536838208071 L 27.378748611625323 20.50536838208071 L 34.131803035912625 5.000000000000001 L 34.131803035912625 5.000000000000001 Z " stroke="#191919" stroke-width="0.35 px" style="stroke-width:0.35;stroke-miterlimit:4;stroke-dasharray:none;fill:#aaffff;fill-opacity:0.25;fill-rule: evenodd "/>
<path id="Body_f0008"  d="M 27.378748611625323 20.50536838208071 L 27.378748611625323 5.0 L 27.378748611625323 5.000000000000001 L 27.378748611625323 20.50536838208071 L 27.378748611625323 20.50536838208071 Z " stroke="#191919" stroke-width="0.35 px" style="stroke-width:0.35;stroke-miterlimit:4;stroke-dasharray:none;fill:#aaffff;fill-opacity:0.25;fill-rule: evenodd "/>
<path id="Body_f0009"  d="M 27.37874861162532 5.0 L 22.669381710477598 5.0 L 22.669381710477598 5.000000000000001 L 27.378748611625323 5.000000000000001 L 27.378748611625323 5.000000000000001 Z " stroke="#191919" stroke-width="0.35 px" style="stroke-width:0.35;stroke-miterlimit:4;stroke-dasharray:none;fill:#aaffff;fill-opacity:0.25;fill-rule: evenodd "/>
<path id="Body_f0010"  d="M 22.669381710477598 5.0 L 22.669381710477598 29.16882636060718 L 22.669381710477598 29.16882636060718 L 22.669381710477598 5.000000000000001 L 22.669381710477598 5.000000000000001 Z " stroke="#191919" stroke-width="0.35 px" style="stroke-width:0.35;stroke-miterlimit:4;stroke-dasharray:none;fill:#aaffff;fill-opacity:0.25;fill-rule: evenodd "/>
<path id="Body_f0011"  d="M 22.6693817104776 29.16882636060718 L 27.378748611625323 29.16882636060718 L 27.378748611625323 29.16882636060718 L 22.669381710477598 29.16882636060718 L 22.669381710477598 29.16882636060718 Z " stroke="#191919" stroke-width="0.35 px" style="stroke-width:0.35;stroke-miterlimit:4;stroke-dasharray:none;fill:#aaffff;fill-opacity:0.25;fill-rule: evenodd "/>
<path id="Body_f0012"  d="M 27.378748611625323 29.16882636060718 L 34.07626804887079 13.607922991484635 L 34.07626804887079 13.607922991484637 L 27.378748611625323 29.16882636060718 L 27.378748611625323 29.16882636060718 Z " stroke="#191919" stroke-width="0.35 px" style="stroke-width:0.35;stroke-miterlimit:4;stroke-dasharray:none;fill:#aaffff;fill-opacity:0.25;fill-rule: evenodd "/>
<path id="Body_f0013"  d="M 34.076268048870794 13.607922991484635 L 34.098482043687525 29.16882636060718 L 34.098482043687525 29.16882636060718 L 34.07626804887079 13.607922991484637 L 34.07626804887079 13.607922991484637 Z " stroke="#191919" stroke-width="0.35 px" style="stroke-width:0.35;stroke-miterlimit:4;stroke-dasharray:none;fill:#aaffff;fill-opacity:0.25;fill-rule: evenodd "/>
<path id="Body_f0014"  d="M 34.098482043687525 29.16882636060718 L 38.79674194742688 29.16882636060718 L 38.79674194742688 29.16882636060718 L 34.098482043687525 29.16882636060718 L 34.098482043687525 29.16882636060718 Z " stroke="#191919" stroke-width="0.35 px" style="stroke-width:0.35;stroke-miterlimit:4;stroke-dasharray:none;fill:#aaffff;fill-opacity:0.25;fill-rule: evenodd "/>
<path id="Body_f0015"  d="M 38.79674194742688 29.16882636060718 L 38.79674194742688 5.0 L 38.79674194742688 5.000000000000001 L 38.79674194742688 29.16882636060718 L 38.79674194742688 29.16882636060718 Z " stroke="#191919" stroke-width="0.35 px" style="stroke-width:0.35;stroke-miterlimit:4;stroke-dasharray:none;fill:#aaffff;fill-opacity:0.25;fill-rule: evenodd "/>
<path id="Body_f0016"  d="M 19.115142539800072 15.351721584598296 Q 19.115142539800072 13.841169937060348 18.826360607182526 12.475009255831173 L 18.826360607182526 12.475009255831175 Q 19.115142539800072 13.841169937060348 19.115142539800072 15.351721584598296 L 19.115142539800072 15.351721584598296 Z " stroke="#191919" stroke-width="0.35 px" style="stroke-width:0.35;stroke-miterlimit:4;stroke-dasharray:none;fill:#aaffff;fill-opacity:0.25;fill-rule: evenodd "/>
<path id="Body_f0017"  d="M 18.826360607182526 12.475009255831173 Q 18.54868567197334 11.108848574602 18.01554979637171 9.942613846723436 L 18.01554979637171 9.942613846723436 Q 18.54868567197334 11.108848574602 18.826360607182526 12.475009255831173 L 18.826360607182526 12.475009255831175 Z " stroke="#191919" stroke-width="0.35 px" style="stroke-width:0.35;stroke-miterlimit:4;stroke-dasharray:none;fill:#aaffff;fill-opacity:0.25;fill-rule: evenodd "/>
<path id="Body_f0018"  d="M 18.01554979637171 9.942613846723436 Q 17.44909292854498 8.776379118844872 16.616068122917437 7.8100703443169195 L 16.616068122917437 7.8100703443169195 Q 17.44909292854498 8.776379118844872 18.01554979637171 9.942613846723436 L 18.01554979637171 9.942613846723436 Z " stroke="#191919" stroke-width="0.35 px" style="stroke-width:0.35;stroke-miterlimit:4;stroke-dasharray:none;fill:#aaffff;fill-opacity:0.25;fill-rule: evenodd "/>
<path id="Body_f0019"  d="M 16.616068122917437 7.8100703443169195 Q 15.783043317289891 6.843761569788967 14.716771566086633 6.199555720103666 L 14.716771566086633 6.199555720103666 Q 15.783043317289891 6.843761569788967 16.616068122917437 7.8100703443169195 L 16.616068122917437 7.8100703443169195 Z " stroke="#191919" stroke-width="0.35 px" style="stroke-width:0.35;stroke-miterlimit:4;stroke-dasharray:none;fill:#aaffff;fill-opacity:0.25;fill-rule: evenodd "/>
<path id="Body_f0020"  d="M 14.716771566086633 6.199555720103666 Q 13.75046279155868 5.633098852276935 12.584228063680118 5.310995927434283 L 12.584228063680118 5.310995927434284 Q 13.75046279155868 5.633098852276935 14.716771566086633 6.199555720103666 L 14.716771566086633 6.199555720103666 Z " stroke="#191919" stroke-width="0.35 px" style="stroke-width:0.35;stroke-miterlimit:4;stroke-dasharray:none;fill:#aaffff;fill-opacity:0.25;fill-rule: evenodd "/>
<path id="Body_f0021"  d="M 12.584228063680118 5.310995927434283 Q 11.429100333209922 5.0 10.096260644205849 5.0 L 10.096260644205849 5.0 Q 11.429100333209922 5.0 12.584228063680118 5.310995927434283 L 12.584228063680118 5.310995927434284 Z " stroke="#191919" stroke-width="0.35 px" style="stroke-width:0.35;stroke-miterlimit:4;stroke-dasharray:none;fill:#aaffff;fill-opacity:0.25;fill-rule: evenodd "/>
<path id="Body_f0022"  d="M 10.096260644205849 5.0 Q 8.685671973343206 5.0 7.48611625323954 5.3554239170677524 L 7.48611625323954 5.355423917067753 Q 8.685671973343206 5.0 10.096260644205849 5.0 L 10.096260644205849 5.0 Z " stroke="#191919" stroke-width="0.35 px" style="stroke-width:0.35;stroke-miterlimit:4;stroke-dasharray:none;fill:#aaffff;fill-opacity:0.25;fill-rule: evenodd "/>
<path id="Body_f0023"  d="M 7.48611625323954 5.3554239170677524 Q 6.286560533135876 5.710847834135505 5.298037763791188 6.355053683820807 L 5.298037763791188 6.355053683820807 Q 6.286560533135876 5.710847834135505 7.48611625323954 5.3554239170677524 L 7.48611625323954 5.355423917067753 Z " stroke="#191919" stroke-width="0.35 px" style="stroke-width:0.35;stroke-miterlimit:4;stroke-dasharray:none;fill:#aaffff;fill-opacity:0.25;fill-rule: evenodd "/>
<path id="Body_f0024"  d="M 5.298037763791188 6.355053683820807 Q 4.331728989263236 7.032580525731211 3.565346168085894 7.987782302850796 L 3.565346168085894 7.987782302850796 Q 4.331728989263236 7.032580525731211 5.298037763791188 6.355053683820807 L 5.298037763791188 6.355053683820808 Z " stroke="#191919" stroke-width="0.35 px" style="stroke-width:0.35;stroke-miterlimit:4;stroke-dasharray:none;fill:#aaffff;fill-opacity:0.25;fill-rule: evenodd "/>
<path id="Body_f0025"  d="M 3.565346168085894 7.987782302850796 Q 2.798963346908552 8.954091077378749 2.2880414661236577 10.164753794890782 L 2.288041466123658 10.164753794890782 Q 2.798963346908552 8.954091077378749 3.565346168085894 7.987782302850796 L 3.565346168085894 7.987782302850796 Z " stroke="#191919" stroke-width="0.35 px" style="stroke-width:0.35;stroke-miterlimit:4;stroke-dasharray:none;fill:#aaffff;fill-opacity:0.25;fill-rule: evenodd "/>
<path id="Body_f0026"  d="M 2.2880414661236577 10.164753794890782 Q 1.8215475749722325 11.286560533135876 1.5771936319881525 12.586079229914846 L 1.577193631988152 12.586079229914846 Q 1.8215475749722325 11.286560533135876 2.2880414661236577 10.164753794890782 L 2.2880414661236577 10.164753794890782 Z " stroke="#191919" stroke-width="0.35 px" style="stroke-width:0.35;stroke-miterlimit:4;stroke-dasharray:none;fill:#aaffff;fill-opacity:0.25;fill-rule: evenodd "/>
<path id="Body_f0027"  d="M 1.5771936319881525 12.586079229914846 Q 1.3328396890040726 13.896704924102185 1.3328396890040726 15.351721584598296 L 1.332839689004072 15.351721584598296 Q 1.3328396890040726 13.896704924102185 1.5771936319881525 12.586079229914846 L 1.5771936319881523 12.586079229914846 Z " stroke="#191919" stroke-width="0.35 px" style="stroke-width:0.35;stroke-miterlimit:4;stroke-dasharray:none;fill:#aaffff;fill-opacity:0.25;fill-rule: evenodd "/>
<path id="Body_f0028"  d="M 1.3328396890040726 15.351721584598295 L 1.3328396890040726 18.783783783783782 L 1.332839689004072 18.783783783783782 L 1.332839689004072 15.351721584598296 L 1.3328396890040723 15.351721584598296 Z " stroke="#191919" stroke-width="0.35 px" style="stroke-width:0.35;stroke-miterlimit:4;stroke-dasharray:none;fill:#aaffff;fill-opacity:0.25;fill-rule: evenodd "/>
<path id="Body_f0029"  d="M 1.3328396890040726 18.783783783783782 Q 1.3328396890040726 20.327656423546834 1.6105146242132542 21.716031099592744 L 1.610514624213254 21.716031099592744 Q 1.3328396890040726 20.327656423546834 1.3328396890040726 18.783783783783782 L 1.3328396890040721 18.783783783783782 Z " stroke="#191919" stroke-width="0.35 px" style="stroke-width:0.35;stroke-miterlimit:4;stroke-dasharray:none;fill:#aaffff;fill-opacity:0.25;fill-rule: evenodd "/>
<path id="Body_f0030"  d="M 1.6105146242132542 21.716031099592744 Q 1.888189559422436 23.11551277304702 2.421325435024065 24.29285449833395 L 2.421325435024065 24.29285449833395 Q 1.888189559422436 23.11551277304702 1.6105146242132542 21.716031099592744 L 1.6105146242132538 21.716031099592744 Z " stroke="#191919" stroke-width="0.35 px" style="stroke-width:0.35;stroke-miterlimit:4;stroke-dasharray:none;fill:#aaffff;fill-opacity:0.25;fill-rule: evenodd "/>
<path id="Body_f0031"  d="M 2.421325435024065 24.29285449833395 Q 2.9322473158089597 25.403554239170678 3.6764161421695665 26.303221029248427 L 3.676416142169566 26.303221029248427 Q 2.9322473158089597 25.403554239170678 2.421325435024065 24.29285449833395 L 2.4213254350240647 24.29285449833395 Z " stroke="#191919" stroke-width="0.35 px" style="stroke-width:0.35;stroke-miterlimit:4;stroke-dasharray:none;fill:#aaffff;fill-opacity:0.25;fill-rule: evenodd "/>
<path id="Body_f0032"  d="M 3.6764161421695665 26.303221029248427 Q 4.420584968530174 27.21399481673454 5.386893743058127 27.858200666419844 L 5.386893743058126 27.858200666419844 Q 4.420584968530174 27.21399481673454 3.6764161421695665 26.303221029248427 L 3.676416142169566 26.303221029248427 Z " stroke="#191919" stroke-width="0.35 px" style="stroke-width:0.35;stroke-miterlimit:4;stroke-dasharray:none;fill:#aaffff;fill-opacity:0.25;fill-rule: evenodd "/>
<path id="Body_f0033"  d="M 5.386893743058127 27.858200666419844 Q 6.330988522769345 28.491299518696778 7.508330248056275 28.824509440947796 L 7.508330248056274 28.824509440947796 Q 6.330988522769345 28.491299518696778 5.386893743058127 27.858200666419844 L 5.386893743058126 27.858200666419844 Z " stroke="#191919" stroke-width="0.35 px" style="stroke-width:0.35;stroke-miterlimit:4;stroke-dasharray:none;fill:#aaffff;fill-opacity:0.25;fill-rule: evenodd "/>
<path id="Body_f0034"  d="M 7.508330248056275 28.824509440947796 Q 8.696778970751573 29.16882636060718 10.085153646797481 29.16882636060718 L 10.085153646797481 29.16882636060718 Q 8.696778970751573 29.16882636060718 7.508330248056275 28.824509440947796 L 7.508330248056274 28.824509440947796 Z " stroke="#191919" stroke-width="0.35 px" style="stroke-width:0.35;stroke-miterlimit:4;stroke-dasharray:none;fill:#aaffff;fill-opacity:0.25;fill-rule: evenodd "/>
<path id="Body_f0035"  d="M 10.085153646797481 29.16882636060718 Q 11.484635320251758 29.16882636060718 12.706405035172159 28.813402443539427 L 12.706405035172159 28.813402443539427 Q 11.484635320251758 29.16882636060718 10.085153646797481 29.16882636060718 L 10.085153646797481 29.16882636060718 Z " stroke="#191919" stroke-width="0.35 px" style="stroke-width:0.35;stroke-miterlimit:4;stroke-dasharray:none;fill:#aaffff;fill-opacity:0.25;fill-rule: evenodd "/>
<path id="Body_f0036"  d="M 12.706405035172159 28.813402443539427 Q 13.928174750092557 28.469085523880043 14.916697519437244 27.82487967419474 L 14.916697519437244 27.82487967419474 Q 13.928174750092557 28.469085523880043 12.706405035172159 28.813402443539427 L 12.706405035172159 28.813402443539427 Z " stroke="#191919" stroke-width="0.35 px" style="stroke-width:0.35;stroke-miterlimit:4;stroke-dasharray:none;fill:#aaffff;fill-opacity:0.25;fill-rule: evenodd "/>
<path id="Body_f0037"  d="M 14.916697519437244 27.82487967419474 Q 15.894113291373564 27.21399481673454 16.63828211773417 26.336542021473527 L 16.63828211773417 26.336542021473527 Q 15.894113291373564 27.21399481673454 14.916697519437244 27.82487967419474 L 14.916697519437244 27.82487967419474 Z " stroke="#191919" stroke-width="0.35 px" style="stroke-width:0.35;stroke-miterlimit:4;stroke-dasharray:none;fill:#aaffff;fill-opacity:0.25;fill-rule: evenodd "/>
<path id="Body_f0038"  d="M 16.63828211773417 26.336542021473527 Q 17.382450944094778 25.47019622362088 17.915586819696408 24.41503146982599 L 17.915586819696408 24.41503146982599 Q 17.382450944094778 25.47019622362088 16.63828211773417 26.336542021473527 L 16.63828211773417 26.336542021473527 Z " stroke="#191919" stroke-width="0.35 px" style="stroke-width:0.35;stroke-miterlimit:4;stroke-dasharray:none;fill:#aaffff;fill-opacity:0.25;fill-rule: evenodd "/>
<path id="Body_f0039"  d="M 17.915586819696408 24.41503146982599 Q 18.493150684931507 23.226582747130692 18.80414661236579 21.804887078859682 L 18.80414661236579 21.804887078859682 Q 18.493150684931507 23.226582747130692 17.915586819696408 24.41503146982599 L 17.915586819696408 24.41503146982599 Z " stroke="#191919" stroke-width="0.35 px" style="stroke-width:0.35;stroke-miterlimit:4;stroke-dasharray:none;fill:#aaffff;fill-opacity:0.25;fill-rule: evenodd "/>
<path id="Body_f0040"  d="M 18.80414661236579 21.804887078859682 Q 19.115142539800072 20.383191410588672 19.115142539800072 18.783783783783782 L 19.115142539800072 18.783783783783782 Q 19.115142539800072 20.383191410588672 18.80414661236579 21.804887078859682 L 18.80414661236579 21.804887078859682 Z " stroke="#191919" stroke-width="0.35 px" style="stroke-width:0.35;stroke-miterlimit:4;stroke-dasharray:none;fill:#aaffff;fill-opacity:0.25;fill-rule: evenodd "/>
<path id="Body_f0041"  d="M 19.115142539800072 18.783783783783782 L 19.115142539800072 15.351721584598296 L 19.115142539800072 15.351721584598296 L 19.115142539800072 18.783783783783782 L 19.115142539800072 18.783783783783782 Z " stroke="#191919" stroke-width="0.35 px" style="stroke-width:0.35;stroke-miterlimit:4;stroke-dasharray:none;fill:#aaffff;fill-opacity:0.25;fill-rule: evenodd "/>
<path id="Body_f0042"  d="M 113.49129951869678 14.241021843761569 L 109.93706034801924 14.241021843761569 L 109.93706034801924 14.241021843761573 L 113.49129951869676 14.241021843761573 L 113.49129951869676 14.241021843761573 Z " stroke="#191919" stroke-width="0.35 px" style="stroke-width:0.35;stroke-miterlimit:4;stroke-dasharray:none;fill:#aaffff;fill-opacity:0.25;fill-rule: evenodd "/>
<path id="Body_f0043"  d="M 109.93706034801924 14.241021843761569 L 109.93706034801924 5.0 L 109.93706034801924 5.000000000000003 L 109.93706034801924 14.241021843761573 L 109.93706034801924 14.241021843761573 Z " stroke="#191919" stroke-width="0.35 px" style="stroke-width:0.35;stroke-miterlimit:4;stroke-dasharray:none;fill:#aaffff;fill-opacity:0.25;fill-rule: evenodd "/>
<path id="Body_f0044"  d="M 109.93706034801924 5.0 L 105.26101443909663 5.0 L 105.26101443909663 5.000000000000003 L 109.93706034801924 5.000000000000003 L 109.93706034801924 5.0000000000000036 Z " stroke="#191919" stroke-width="0.35 px" style="stroke-width:0.35;stroke-miterlimit:4;stroke-dasharray:none;fill:#aaffff;fill-opacity:0.25;fill-rule: evenodd "/>
<path id="Body_f0045"  d="M 105.26101443909663 5.0 L 105.26101443909663 29.16882636060718 L 105.26101443909663 29.168826360607184 L 105.26101443909663 5.000000000000003 L 105.26101443909663 5.0000000000000036 Z " stroke="#191919" stroke-width="0.35 px" style="stroke-width:0.35;stroke-miterlimit:4;stroke-dasharray:none;fill:#aaffff;fill-opacity:0.25;fill-rule: evenodd "/>
<path id="Body_f0046"  d="M 105.26101443909663 29.16882636060718 L 113.39133654202146 29.16882636060718 L 113.39133654202146 29.168826360607184 L 105.26101443909663 29.168826360607184 L 105.26101443909663 29.168826360607184 Z " stroke="#191919" stroke-width="0.35 px" style="stroke-width:0.35;stroke-miterlimit:4;stroke-dasharray:none;fill:#aaffff;fill-opacity:0.25;fill-rule: evenodd "/>
<path id="Body_f0047"  d="M 113.39133654202146 29.16882636060718 Q 115.40170307293594 29.16882636060718 117.03443169196592 28.702332469455754 L 117.03443169196592 28.702332469455758 Q 115.40170307293594 29.16882636060718 113.39133654202146 29.16882636060718 L 113.39133654202146 29.168826360607184 Z " stroke="#191919" stroke-width="0.35 px" style="stroke-width:0.35;stroke-miterlimit:4;stroke-dasharray:none;fill:#aaffff;fill-opacity:0.25;fill-rule: evenodd "/>
<path id="Body_f0048"  d="M 117.03443169196592 28.702332469455754 Q 118.66716031099591 28.23583857830433 119.83339503887449 27.336171788226583 L 119.83339503887449 27.336171788226586 Q 118.66716031099591 28.23583857830433 117.03443169196592 28.702332469455754 L 117.03443169196592 28.702332469455758 Z " stroke="#191919" stroke-width="0.35 px" style="stroke-width:0.35;stroke-miterlimit:4;stroke-dasharray:none;fill:#aaffff;fill-opacity:0.25;fill-rule: evenodd "/>
<path id="Body_f0049"  d="M 119.83339503887449 27.336171788226583 Q 120.98852276934468 26.436504998148834 121.61051462421324 25.092558311736394 L 121.61051462421324 25.092558311736397 Q 120.98852276934468 26.436504998148834 119.83339503887449 27.336171788226583 L 119.83339503887449 27.336171788226586 Z " stroke="#191919" stroke-width="0.35 px" style="stroke-width:0.35;stroke-miterlimit:4;stroke-dasharray:none;fill:#aaffff;fill-opacity:0.25;fill-rule: evenodd "/>
<path id="Body_f0050"  d="M 121.61051462421324 25.092558311736394 Q 122.2325064790818 23.759718622732322 122.2325064790818 22.004813032210293 L 122.2325064790818 22.004813032210297 Q 122.2325064790818 23.759718622732322 121.61051462421324 25.092558311736394 L 121.61051462421324 25.092558311736397 Z " stroke="#191919" stroke-width="0.35 px" style="stroke-width:0.35;stroke-miterlimit:4;stroke-dasharray:none;fill:#aaffff;fill-opacity:0.25;fill-rule: evenodd "/>
<path id="Body_f0051"  d="M 122.2325064790818 22.004813032210293 Q 122.2325064790818 20.727508330248057 121.92151055164753 19.705664568678266 L 121.92151055164753 19.70566456867827 Q 122.2325064790818 20.727508330248057 122.2325064790818 22.004813032210293 L 122.2325064790818 22.004813032210297 Z " stroke="#191919" stroke-width="0.35 px" style="stroke-width:0.35;stroke-miterlimit:4;stroke-dasharray:none;fill:#aaffff;fill-opacity:0.25;fill-rule: evenodd "/>
<path id="Body_f0052"  d="M 121.92151055164753 19.705664568678266 Q 121.62162162162161 18.68382080710848 121.05516475379488 17.884116993706034 L 121.05516475379488 17.884116993706037 Q 121.62162162162161 18.68382080710848 121.92151055164753 19.705664568678266 L 121.92151055164753 19.70566456867827 Z " stroke="#191919" stroke-width="0.35 px" style="stroke-width:0.35;stroke-miterlimit:4;stroke-dasharray:none;fill:#aaffff;fill-opacity:0.25;fill-rule: evenodd "/>
<path id="Body_f0053"  d="M 121.05516475379488 17.884116993706034 Q 120.46649389115142 17.073306182895223 119.65568308034061 16.462421325435024 L 119.65568308034061 16.462421325435027 Q 120.46649389115142 17.073306182895223 121.05516475379488 17.884116993706034 L 121.05516475379488 17.884116993706037 Z " stroke="#191919" stroke-width="0.35 px" style="stroke-width:0.35;stroke-miterlimit:4;stroke-dasharray:none;fill:#aaffff;fill-opacity:0.25;fill-rule: evenodd "/>
<path id="Body_f0054"  d="M 119.65568308034061 16.462421325435024 Q 118.85597926693816 15.862643465383192 117.8563495001851 15.4183635690485 L 117.8563495001851 15.418363569048504 Q 118.85597926693816 15.862643465383192 119.65568308034061 16.462421325435024 L 119.65568308034061 16.462421325435027 Z " stroke="#191919" stroke-width="0.35 px" style="stroke-width:0.35;stroke-miterlimit:4;stroke-dasharray:none;fill:#aaffff;fill-opacity:0.25;fill-rule: evenodd "/>
<path id="Body_f0055"  d="M 117.8563495001851 15.418363569048502 L 123.06553128470935 5.222139948167346 L 123.06553128470935 5.222139948167349 L 117.8563495001851 15.418363569048504 L 117.8563495001851 15.418363569048504 Z " stroke="#191919" stroke-width="0.35 px" style="stroke-width:0.35;stroke-miterlimit:4;stroke-dasharray:none;fill:#aaffff;fill-opacity:0.25;fill-rule: evenodd "/>
<path id="Body_f0056"  d="M 123.06553128470935 5.222139948167345 L 123.06553128470935 5.0 L 123.06553128470935 5.0000000000000036 L 123.06553128470935 5.222139948167349 L 123.06553128470935 5.222139948167349 Z " stroke="#191919" stroke-width="0.35 px" style="stroke-width:0.35;stroke-miterlimit:4;stroke-dasharray:none;fill:#aaffff;fill-opacity:0.25;fill-rule: evenodd "/>
<path id="Body_f0057"  d="M 123.06553128470935 5.0 L 118.05627545353572 5.0 L 118.05627545353572 5.0000000000000036 L 123.06553128470935 5.0000000000000036 L 123.06553128470935 5.0000000000000036 Z " stroke="#191919" stroke-width="0.35 px" style="stroke-width:0.35;stroke-miterlimit:4;stroke-dasharray:none;fill:#aaffff;fill-opacity:0.25;fill-rule: evenodd "/>
<path id="Body_f0058"  d="M 118.0562754535357 5.0 L 113.49129951869676 14.241021843761569 L 113.49129951869676 14.241021843761573 L 118.05627545353572 5.0000000000000036 L 118.05627545353572 5.0000000000000036 Z " stroke="#191919" stroke-width="0.35 px" style="stroke-width:0.35;stroke-miterlimit:4;stroke-dasharray:none;fill:#aaffff;fill-opacity:0.25;fill-rule: evenodd "/>
<path id="Body_f0059"  d="M 85.67937800814512 29.16882636060718 L 99.70751573491299 29.16882636060718 L 99.70751573491299 29.168826360607184 L 85.67937800814512 29.168826360607184 L 85.67937800814512 29.168826360607184 Z " stroke="#191919" stroke-width="0.35 px" style="stroke-width:0.35;stroke-miterlimit:4;stroke-dasharray:none;fill:#aaffff;fill-opacity:0.25;fill-rule: evenodd "/>
<path id="Body_f0060"  d="M 99.70751573491299 29.16882636060718 L 99.70751573491299 25.370233246945574 L 99.70751573491299 25.370233246945578 L 99.70751573491299 29.168826360607184 L 99.70751573491299 29.168826360607184 Z " stroke="#191919" stroke-width="0.35 px" style="stroke-width:0.35;stroke-miterlimit:4;stroke-dasharray:none;fill:#aaffff;fill-opacity:0.25;fill-rule: evenodd "/>
<path id="Body_f0061"  d="M 99.70751573491299 25.370233246945574 L 94.97593483894853 25.370233246945574 L 94.97593483894853 25.370233246945578 L 99.70751573491299 25.370233246945578 L 99.70751573491299 25.370233246945578 Z " stroke="#191919" stroke-width="0.35 px" style="stroke-width:0.35;stroke-miterlimit:4;stroke-dasharray:none;fill:#aaffff;fill-opacity:0.25;fill-rule: evenodd "/>
<path id="Body_f0062"  d="M 94.97593483894853 25.370233246945574 L 94.97593483894853 8.78748611625324 L 94.97593483894853 8.787486116253241 L 94.97593483894853 25.370233246945578 L 94.97593483894853 25.370233246945578 Z " stroke="#191919" stroke-width="0.35 px" style="stroke-width:0.35;stroke-miterlimit:4;stroke-dasharray:none;fill:#aaffff;fill-opacity:0.25;fill-rule: evenodd "/>
<path id="Body_f0063"  d="M 94.97593483894853 8.78748611625324 L 99.70751573491299 8.78748611625324 L 99.70751573491299 8.787486116253241 L 94.97593483894853 8.787486116253241 L 94.97593483894853 8.787486116253243 Z " stroke="#191919" stroke-width="0.35 px" style="stroke-width:0.35;stroke-miterlimit:4;stroke-dasharray:none;fill:#aaffff;fill-opacity:0.25;fill-rule: evenodd "/>
<path id="Body_f0064"  d="M 99.70751573491299 8.78748611625324 L 99.70751573491299 5.0 L 99.70751573491299 5.000000000000003 L 99.70751573491299 8.787486116253241 L 99.70751573491299 8.787486116253243 Z " stroke="#191919" stroke-width="0.35 px" style="stroke-width:0.35;stroke-miterlimit:4;stroke-dasharray:none;fill:#aaffff;fill-opacity:0.25;fill-rule: evenodd "/>
<path id="Body_f0065"  d="M 99.70751573491299 5.0 L 85.67937800814512 5.0 L 85.67937800814512 5.000000000000003 L 99.70751573491299 5.000000000000003 L 99.70751573491299 5.000000000000003 Z " stroke="#191919" stroke-width="0.35 px" style="stroke-width:0.35;stroke-miterlimit:4;stroke-dasharray:none;fill:#aaffff;fill-opacity:0.25;fill-rule: evenodd "/>
<path id="Body_f0066"  d="M 85.67937800814512 5.0 L 85.67937800814512 8.78748611625324 L 85.67937800814512 8.787486116253241 L 85.67937800814512 5.000000000000003 L 85.67937800814512 5.000000000000003 Z " stroke="#191919" stroke-width="0.35 px" style="stroke-width:0.35;stroke-miterlimit:4;stroke-dasharray:none;fill:#aaffff;fill-opacity:0.25;fill-rule: evenodd "/>
<path id="Body_f0067"  d="M 85.67937800814512 8.78748611625324 L 90.28878193261754 8.78748611625324 L 90.28878193261754 8.787486116253241 L 85.67937800814512 8.787486116253241 L 85.67937800814512 8.787486116253241 Z " stroke="#191919" stroke-width="0.35 px" style="stroke-width:0.35;stroke-miterlimit:4;stroke-dasharray:none;fill:#aaffff;fill-opacity:0.25;fill-rule: evenodd "/>
<path id="Body_f0068"  d="M 90.28878193261754 8.787486116253238 L 90.28878193261754 25.370233246945574 L 90.28878193261754 25.370233246945578 L 90.28878193261754 8.787486116253241 L 90.28878193261754 8.787486116253241 Z " stroke="#191919" stroke-width="0.35 px" style="stroke-width:0.35;stroke-miterlimit:4;stroke-dasharray:none;fill:#aaffff;fill-opacity:0.25;fill-rule: evenodd "/>
<path id="Body_f0069"  d="M 90.28878193261754 25.370233246945574 L 85.67937800814512 25.370233246945574 L 85.67937800814512 25.370233246945578 L 90.28878193261754 25.370233246945578 L 90.28878193261754 25.370233246945578 Z " stroke="#191919" stroke-width="0.35 px" style="stroke-width:0.35;stroke-miterlimit:4;stroke-dasharray:none;fill:#aaffff;fill-opacity:0.25;fill-rule: evenodd "/>
<path id="Body_f0070"  d="M 85.67937800814512 25.370233246945574 L 85.67937800814512 29.16882636060718 L 85.67937800814512 29.168826360607184 L 85.67937800814512 25.370233246945578 L 85.67937800814512 25.370233246945578 Z " stroke="#191919" stroke-width="0.35 px" style="stroke-width:0.35;stroke-miterlimit:4;stroke-dasharray:none;fill:#aaffff;fill-opacity:0.25;fill-rule: evenodd "/>
<path id="Body_f0071"  d="M 75.96075527582377 9.975934838948538 L 68.67456497593484 9.975934838948538 L 68.67456497593484 9.97593483894854 L 75.96075527582377 9.97593483894854 L 75.96075527582377 9.97593483894854 Z " stroke="#191919" stroke-width="0.35 px" style="stroke-width:0.35;stroke-miterlimit:4;stroke-dasharray:none;fill:#aaffff;fill-opacity:0.25;fill-rule: evenodd "/>
<path id="Body_f0072"  d="M 68.67456497593484 9.975934838948536 L 67.24176231025547 5.0 L 67.24176231025547 5.000000000000002 L 68.67456497593484 9.97593483894854 L 68.67456497593484 9.97593483894854 Z " stroke="#191919" stroke-width="0.35 px" style="stroke-width:0.35;stroke-miterlimit:4;stroke-dasharray:none;fill:#aaffff;fill-opacity:0.25;fill-rule: evenodd "/>
<path id="Body_f0073"  d="M 67.24176231025545 5.0 L 62.31025546094039 5.0 L 62.31025546094039 5.000000000000002 L 67.24176231025547 5.000000000000002 L 67.24176231025547 5.000000000000002 Z " stroke="#191919" stroke-width="0.35 px" style="stroke-width:0.35;stroke-miterlimit:4;stroke-dasharray:none;fill:#aaffff;fill-opacity:0.25;fill-rule: evenodd "/>
<path id="Body_f0074"  d="M 62.31025546094039 4.9999999999999964 L 70.26286560533136 29.16882636060718 L 70.26286560533136 29.168826360607184 L 62.31025546094039 5.000000000000002 L 62.31025546094039 5.000000000000002 Z " stroke="#191919" stroke-width="0.35 px" style="stroke-width:0.35;stroke-miterlimit:4;stroke-dasharray:none;fill:#aaffff;fill-opacity:0.25;fill-rule: evenodd "/>
<path id="Body_f0075"  d="M 70.26286560533136 29.16882636060718 L 74.50573861532766 29.16882636060718 L 74.50573861532766 29.168826360607184 L 70.26286560533136 29.168826360607184 L 70.26286560533136 29.168826360607184 Z " stroke="#191919" stroke-width="0.35 px" style="stroke-width:0.35;stroke-miterlimit:4;stroke-dasharray:none;fill:#aaffff;fill-opacity:0.25;fill-rule: evenodd "/>
<path id="Body_f0076"  d="M 74.50573861532766 29.168826360607184 L 82.30285079600148 5.0 L 82.30285079600148 5.000000000000003 L 74.50573861532766 29.168826360607184 L 74.50573861532766 29.168826360607184 Z " stroke="#191919" stroke-width="0.35 px" style="stroke-width:0.35;stroke-miterlimit:4;stroke-dasharray:none;fill:#aaffff;fill-opacity:0.25;fill-rule: evenodd "/>
<path id="Body_f0077"  d="M 82.30285079600148 5.0 L 77.37134394668641 5.0 L 77.37134394668641 5.000000000000002 L 82.30285079600148 5.000000000000003 L 82.30285079600148 5.000000000000003 Z " stroke="#191919" stroke-width="0.35 px" style="stroke-width:0.35;stroke-miterlimit:4;stroke-dasharray:none;fill:#aaffff;fill-opacity:0.25;fill-rule: evenodd "/>
<path id="Body_f0078"  d="M 77.37134394668641 5.0 L 75.96075527582377 9.975934838948538 L 75.96075527582377 9.97593483894854 L 77.37134394668641 5.000000000000002 L 77.37134394668641 5.000000000000003 Z " stroke="#191919" stroke-width="0.35 px" style="stroke-width:0.35;stroke-miterlimit:4;stroke-dasharray:none;fill:#aaffff;fill-opacity:0.25;fill-rule: evenodd "/>
<path id="Body_f0079"  d="M 38.79674194742688 5.000000000000001 L 38.79674194742688 29.16882636060718 L 34.098482043687525 29.16882636060718 L 34.07626804887079 13.607922991484637 L 27.378748611625323 29.16882636060718 L 22.669381710477598 29.16882636060718 L 22.669381710477598 5.000000000000001 L 27.378748611625323 5.000000000000001 L 27.378748611625323 20.50536838208071 L 34.131803035912625 5.000000000000001 L 38.79674194742688 5.000000000000001 Z " stroke="#191919" stroke-width="0.35 px" style="stroke-width:0.35;stroke-miterlimit:4;stroke-dasharray:none;fill:#aaffff;fill-opacity:0.25;fill-rule: evenodd "/>
<path id="Body_f0080"  d="M 19.115142539800072 15.351721584598296 L 19.115142539800072 18.783783783783782 Q 19.115142539800072 20.383191410588672 18.80414661236579 21.804887078859682 Q 18.493150684931507 23.226582747130692 17.915586819696408 24.41503146982599 Q 17.382450944094778 25.47019622362088 16.63828211773417 26.336542021473527 Q 15.894113291373564 27.21399481673454 14.916697519437244 27.82487967419474 Q 13.928174750092557 28.469085523880043 12.706405035172159 28.813402443539427 Q 11.484635320251758 29.16882636060718 10.085153646797481 29.16882636060718 Q 8.696778970751573 29.16882636060718 7.508330248056275 28.824509440947796 Q 6.330988522769345 28.491299518696778 5.386893743058127 27.858200666419844 Q 4.420584968530174 27.21399481673454 3.6764161421695665 26.303221029248427 Q 2.9322473158089597 25.403554239170678 2.421325435024065 24.29285449833395 Q 1.888189559422436 23.11551277304702 1.6105146242132542 21.716031099592744 Q 1.3328396890040726 20.327656423546834 1.3328396890040726 18.783783783783782 L 1.332839689004072 15.351721584598296 Q 1.3328396890040726 13.896704924102185 1.5771936319881525 12.586079229914846 Q 1.8215475749722325 11.286560533135876 2.2880414661236577 10.164753794890782 Q 2.798963346908552 8.954091077378749 3.565346168085894 7.987782302850796 Q 4.331728989263236 7.032580525731211 5.298037763791188 6.355053683820807 Q 6.286560533135876 5.710847834135505 7.48611625323954 5.3554239170677524 Q 8.685671973343206 5.0 10.096260644205849 5.0 Q 11.429100333209922 5.0 12.584228063680118 5.310995927434283 Q 13.75046279155868 5.633098852276935 14.716771566086633 6.199555720103666 Q 15.783043317289891 6.843761569788967 16.616068122917437 7.8100703443169195 Q 17.44909292854498 8.776379118844872 18.01554979637171 9.942613846723436 Q 18.54868567197334 11.108848574602 18.826360607182526 12.475009255831173 Q 19.115142539800072 13.841169937060348 19.115142539800072 15.351721584598296 Z M 14.361347649018882 18.783783783783782 L 14.361347649018882 15.385042576823398 Q 14.361347649018882 14.529803776379119 14.272491669751943 13.730099962976675 Q 14.183635690485005 12.930396149574232 13.994816734542761 12.263976305072195 Q 13.761569788967048 11.408737504627915 13.372824879674194 10.731210662717512 Q 12.98407997038134 10.053683820807109 12.417623102554609 9.609403924472417 Q 11.96223620881155 9.242873009996298 11.373565346168085 9.054054054054053 Q 10.796001480932988 8.86523509811181 10.096260644205849 8.86523509811181 Q 9.36319881525361 8.86523509811181 8.785634950018512 9.065161051462422 Q 8.21917808219178 9.276194002221398 7.763791188448723 9.664938911514254 Q 7.28619029988893 10.087004813032209 6.9196593854128094 10.775638652350981 Q 6.564235468345057 11.475379489078119 6.386523509811181 12.319511292114033 Q 6.219918548685672 12.985931136616067 6.153276564235468 13.763420955201777 Q 6.086634579785264 14.540910773787486 6.086634579785264 15.385042576823398 L 6.086634579785264 18.783783783783782 Q 6.086634579785264 19.672343576453166 6.153276564235468 20.483154387263976 Q 6.231025546094039 21.293965198074787 6.397630507219548 21.98259903739356 Q 6.6197704553868935 22.87115883006294 7.008515364679748 23.537578674564976 Q 7.397260273972602 24.20399851906701 7.963717141799333 24.648278415401702 Q 8.38578304331729 24.948167345427617 8.907811921510552 25.10366530914476 Q 9.429840799703813 25.27027027027027 10.085153646797481 25.27027027027027 Q 10.762680488707886 25.27027027027027 11.318030359126249 25.092558311736394 Q 11.884487226952979 24.925953350610882 12.32876712328767 24.603850425768233 Q 12.8952239911144 24.17067752684191 13.30618289522399 23.493150684931507 Q 13.728248796741948 22.82673084042947 13.983709737134394 21.960385042576824 Q 14.183635690485005 21.282858200666418 14.272491669751943 20.47204738985561 Q 14.361347649018882 19.672343576453166 14.361347649018882 18.783783783783782 Z " stroke="#191919" stroke-width="0.35 px" style="stroke-width:0.35;stroke-miterlimit:4;stroke-dasharray:none;fill:#aaffff;fill-opacity:0.25;fill-rule: evenodd "/>
<path id="Body_f0081"  d="M 113.49129951869676 14.241021843761573 L 118.05627545353572 5.0000000000000036 L 123.06553128470935 5.0000000000000036 L 123.06553128470935 5.222139948167349 L 117.8563495001851 15.418363569048504 Q 118.85597926693816 15.862643465383192 119.65568308034061 16.462421325435024 Q 120.46649389115142 17.073306182895223 121.05516475379488 17.884116993706034 Q 121.62162162162161 18.68382080710848 121.92151055164753 19.705664568678266 Q 122.2325064790818 20.727508330248057 122.2325064790818 22.004813032210293 Q 122.2325064790818 23.759718622732322 121.61051462421324 25.092558311736394 Q 120.98852276934468 26.436504998148834 119.83339503887449 27.336171788226583 Q 118.66716031099591 28.23583857830433 117.03443169196592 28.702332469455754 Q 115.40170307293594 29.16882636060718 113.39133654202146 29.16882636060718 L 105.26101443909663 29.168826360607184 L 105.26101443909663 5.000000000000003 L 109.93706034801924 5.000000000000003 L 109.93706034801924 14.241021843761573 L 113.49129951869676 14.241021843761573 Z M 109.93706034801924 18.061828952239914 L 109.93706034801924 25.348019252128843 L 113.39133654202146 25.348019252128843 Q 114.35764531654942 25.34801925212884 115.10181414291003 25.125879303961494 Q 115.857089966679 24.90373935579415 116.36801184746389 24.481673454276194 Q 116.95668271010736 24.026286560533133 117.24546464272491 23.31543872639763 Q 117.53424657534245 22.604590892262124 117.53424657534245 21.671603109959275 Q 117.53424657534245 20.905220288781933 117.31210662717511 20.283228433913365 Q 117.08996667900776 19.661236579044797 116.65679378008144 19.216956682710105 Q 116.13476490188818 18.650499814883375 115.312847093669 18.35061088485746 Q 114.49092928544982 18.06182895223991 113.40244353942983 18.06182895223991 L 109.93706034801924 18.061828952239914 Z " stroke="#191919" stroke-width="0.35 px" style="stroke-width:0.35;stroke-miterlimit:4;stroke-dasharray:none;fill:#aaffff;fill-opacity:0.25;fill-rule: evenodd "/>
<path id="Body_f0082"  d="M 85.67937800814512 29.168826360607184 L 85.67937800814512 25.370233246945578 L 90.28878193261754 25.370233246945578 L 90.28878193261754 8.787486116253241 L 85.67937800814512 8.787486116253241 L 85.67937800814512 5.000000000000003 L 99.70751573491299 5.000000000000003 L 99.70751573491299 8.787486116253241 L 94.97593483894853 8.787486116253241 L 94.97593483894853 25.370233246945578 L 99.70751573491299 25.370233246945578 L 99.70751573491299 29.168826360607184 L 85.67937800814512 29.168826360607184 Z " stroke="#191919" stroke-width="0.35 px" style="stroke-width:0.35;stroke-miterlimit:4;stroke-dasharray:none;fill:#aaffff;fill-opacity:0.25;fill-rule: evenodd "/>
<path id="Body_f0083"  d="M 75.96075527582377 9.97593483894854 L 77.37134394668641 5.000000000000002 L 82.30285079600148 5.000000000000003 L 74.50573861532766 29.168826360607184 L 70.26286560533136 29.168826360607184 L 62.31025546094039 5.000000000000002 L 67.24176231025547 5.000000000000002 L 68.67456497593484 9.97593483894854 L 75.96075527582377 9.97593483894854 Z M 69.82969270640504 13.985560903369125 L 72.37319511292114 22.826730840429473 L 74.86116253239541 13.985560903369125 L 69.82969270640504 13.985560903369125 Z " stroke="#191919" stroke-width="0.35 px" style="stroke-width:0.35;stroke-miterlimit:4;stroke-dasharray:none;fill:#aaffff;fill-opacity:0.25;fill-rule: evenodd "/>
<path id="Body_f0084"  d="M 14.361347649018882 15.385042576823398 L 14.361347649018882 18.783783783783782 L 14.361347649018882 18.783783783783782 L 14.361347649018882 15.385042576823398 L 14.361347649018882 15.385042576823398 Z " stroke="#191919" stroke-width="0.35 px" style="stroke-width:0.35;stroke-miterlimit:4;stroke-dasharray:none;fill:#aaffff;fill-opacity:0.25;fill-rule: evenodd "/>
<path id="Body_f0085"  d="M 14.272491669751943 13.730099962976675 Q 14.361347649018882 14.529803776379119 14.361347649018882 15.385042576823398 L 14.361347649018882 15.385042576823398 Q 14.361347649018882 14.529803776379119 14.272491669751943 13.730099962976675 L 14.272491669751943 13.730099962976675 Z " stroke="#191919" stroke-width="0.35 px" style="stroke-width:0.35;stroke-miterlimit:4;stroke-dasharray:none;fill:#aaffff;fill-opacity:0.25;fill-rule: evenodd "/>
<path id="Body_f0086"  d="M 13.994816734542761 12.263976305072195 Q 14.183635690485005 12.930396149574232 14.272491669751943 13.730099962976675 L 14.272491669751943 13.730099962976675 Q 14.183635690485005 12.930396149574232 13.994816734542761 12.263976305072195 L 13.994816734542761 12.263976305072195 Z " stroke="#191919" stroke-width="0.35 px" style="stroke-width:0.35;stroke-miterlimit:4;stroke-dasharray:none;fill:#aaffff;fill-opacity:0.25;fill-rule: evenodd "/>
<path id="Body_f0087"  d="M 13.372824879674194 10.731210662717512 Q 13.761569788967048 11.408737504627915 13.994816734542761 12.263976305072195 L 13.994816734542761 12.263976305072195 Q 13.761569788967048 11.408737504627915 13.372824879674194 10.731210662717512 L 13.372824879674194 10.731210662717512 Z " stroke="#191919" stroke-width="0.35 px" style="stroke-width:0.35;stroke-miterlimit:4;stroke-dasharray:none;fill:#aaffff;fill-opacity:0.25;fill-rule: evenodd "/>
<path id="Body_f0088"  d="M 12.417623102554609 9.609403924472417 Q 12.98407997038134 10.053683820807109 13.372824879674194 10.731210662717512 L 13.372824879674194 10.731210662717512 Q 12.98407997038134 10.053683820807109 12.417623102554609 9.609403924472417 L 12.417623102554609 9.609403924472417 Z " stroke="#191919" stroke-width="0.35 px" style="stroke-width:0.35;stroke-miterlimit:4;stroke-dasharray:none;fill:#aaffff;fill-opacity:0.25;fill-rule: evenodd "/>
<path id="Body_f0089"  d="M 11.373565346168085 9.054054054054053 Q 11.96223620881155 9.242873009996298 12.417623102554609 9.609403924472417 L 12.417623102554609 9.609403924472417 Q 11.96223620881155 9.242873009996298 11.373565346168085 9.054054054054053 L 11.373565346168085 9.054054054054053 Z " stroke="#191919" stroke-width="0.35 px" style="stroke-width:0.35;stroke-miterlimit:4;stroke-dasharray:none;fill:#aaffff;fill-opacity:0.25;fill-rule: evenodd "/>
<path id="Body_f0090"  d="M 10.096260644205849 8.86523509811181 Q 10.796001480932988 8.86523509811181 11.373565346168085 9.054054054054053 L 11.373565346168085 9.054054054054054 Q 10.796001480932988 8.86523509811181 10.096260644205849 8.86523509811181 L 10.096260644205849 8.86523509811181 Z " stroke="#191919" stroke-width="0.35 px" style="stroke-width:0.35;stroke-miterlimit:4;stroke-dasharray:none;fill:#aaffff;fill-opacity:0.25;fill-rule: evenodd "/>
<path id="Body_f0091"  d="M 8.785634950018512 9.065161051462422 Q 9.36319881525361 8.86523509811181 10.096260644205849 8.86523509811181 L 10.096260644205849 8.86523509811181 Q 9.36319881525361 8.86523509811181 8.785634950018512 9.065161051462422 L 8.785634950018512 9.065161051462422 Z " stroke="#191919" stroke-width="0.35 px" style="stroke-width:0.35;stroke-miterlimit:4;stroke-dasharray:none;fill:#aaffff;fill-opacity:0.25;fill-rule: evenodd "/>
<path id="Body_f0092"  d="M 7.763791188448723 9.664938911514254 Q 8.21917808219178 9.276194002221398 8.785634950018512 9.065161051462422 L 8.785634950018512 9.065161051462422 Q 8.21917808219178 9.276194002221398 7.763791188448723 9.664938911514254 L 7.763791188448723 9.664938911514254 Z " stroke="#191919" stroke-width="0.35 px" style="stroke-width:0.35;stroke-miterlimit:4;stroke-dasharray:none;fill:#aaffff;fill-opacity:0.25;fill-rule: evenodd "/>
<path id="Body_f0093"  d="M 6.9196593854128094 10.775638652350981 Q 7.28619029988893 10.087004813032209 7.763791188448723 9.664938911514254 L 7.763791188448723 9.664938911514254 Q 7.28619029988893 10.087004813032209 6.9196593854128094 10.775638652350981 L 6.9196593854128094 10.775638652350981 Z " stroke="#191919" stroke-width="0.35 px" style="stroke-width:0.35;stroke-miterlimit:4;stroke-dasharray:none;fill:#aaffff;fill-opacity:0.25;fill-rule: evenodd "/>
<path id="Body_f0094"  d="M 6.386523509811181 12.319511292114033 Q 6.564235468345057 11.475379489078119 6.9196593854128094 10.775638652350981 L 6.919659385412809 10.775638652350981 Q 6.564235468345057 11.475379489078119 6.386523509811181 12.319511292114033 L 6.386523509811181 12.319511292114033 Z " stroke="#191919" stroke-width="0.35 px" style="stroke-width:0.35;stroke-miterlimit:4;stroke-dasharray:none;fill:#aaffff;fill-opacity:0.25;fill-rule: evenodd "/>
<path id="Body_f0095"  d="M 6.153276564235468 13.763420955201777 Q 6.219918548685672 12.985931136616067 6.386523509811181 12.319511292114033 L 6.386523509811181 12.319511292114033 Q 6.219918548685672 12.985931136616067 6.153276564235468 13.763420955201777 L 6.153276564235468 13.763420955201777 Z " stroke="#191919" stroke-width="0.35 px" style="stroke-width:0.35;stroke-miterlimit:4;stroke-dasharray:none;fill:#aaffff;fill-opacity:0.25;fill-rule: evenodd "/>
<path id="Body_f0096"  d="M 6.086634579785264 15.385042576823398 Q 6.086634579785264 14.540910773787486 6.153276564235468 13.763420955201777 L 6.153276564235468 13.763420955201777 Q 6.086634579785264 14.540910773787486 6.086634579785264 15.385042576823398 L 6.086634579785264 15.385042576823398 Z " stroke="#191919" stroke-width="0.35 px" style="stroke-width:0.35;stroke-miterlimit:4;stroke-dasharray:none;fill:#aaffff;fill-opacity:0.25;fill-rule: evenodd "/>
<path id="Body_f0097"  d="M 6.086634579785264 18.783783783783782 L 6.086634579785264 15.385042576823398 L 6.086634579785264 15.385042576823398 L 6.086634579785264 18.783783783783782 L 6.086634579785264 18.783783783783782 Z " stroke="#191919" stroke-width="0.35 px" style="stroke-width:0.35;stroke-miterlimit:4;stroke-dasharray:none;fill:#aaffff;fill-opacity:0.25;fill-rule: evenodd "/>
<path id="Body_f0098"  d="M 6.153276564235468 20.483154387263976 Q 6.086634579785264 19.672343576453166 6.086634579785264 18.783783783783782 L 6.086634579785264 18.783783783783782 Q 6.086634579785264 19.672343576453166 6.153276564235468 20.483154387263976 L 6.153276564235467 20.483154387263976 Z " stroke="#191919" stroke-width="0.35 px" style="stroke-width:0.35;stroke-miterlimit:4;stroke-dasharray:none;fill:#aaffff;fill-opacity:0.25;fill-rule: evenodd "/>
<path id="Body_f0099"  d="M 6.397630507219548 21.98259903739356 Q 6.231025546094039 21.293965198074787 6.153276564235468 20.483154387263976 L 6.153276564235467 20.483154387263976 Q 6.231025546094039 21.293965198074787 6.397630507219548 21.98259903739356 L 6.397630507219547 21.98259903739356 Z " stroke="#191919" stroke-width="0.35 px" style="stroke-width:0.35;stroke-miterlimit:4;stroke-dasharray:none;fill:#aaffff;fill-opacity:0.25;fill-rule: evenodd "/>
<path id="Body_f0100"  d="M 7.008515364679748 23.537578674564976 Q 6.6197704553868935 22.87115883006294 6.397630507219548 21.98259903739356 L 6.397630507219547 21.98259903739356 Q 6.6197704553868935 22.87115883006294 7.008515364679748 23.537578674564976 L 7.008515364679747 23.537578674564976 Z " stroke="#191919" stroke-width="0.35 px" style="stroke-width:0.35;stroke-miterlimit:4;stroke-dasharray:none;fill:#aaffff;fill-opacity:0.25;fill-rule: evenodd "/>
<path id="Body_f0101"  d="M 7.963717141799333 24.648278415401702 Q 7.397260273972602 24.20399851906701 7.008515364679748 23.537578674564976 L 7.008515364679747 23.537578674564976 Q 7.397260273972602 24.20399851906701 7.963717141799333 24.648278415401702 L 7.963717141799332 24.648278415401702 Z " stroke="#191919" stroke-width="0.35 px" style="stroke-width:0.35;stroke-miterlimit:4;stroke-dasharray:none;fill:#aaffff;fill-opacity:0.25;fill-rule: evenodd "/>
<path id="Body_f0102"  d="M 8.907811921510552 25.10366530914476 Q 8.38578304331729 24.948167345427617 7.963717141799333 24.648278415401702 L 7.963717141799332 24.648278415401702 Q 8.38578304331729 24.948167345427617 8.907811921510552 25.10366530914476 L 8.907811921510552 25.10366530914476 Z " stroke="#191919" stroke-width="0.35 px" style="stroke-width:0.35;stroke-miterlimit:4;stroke-dasharray:none;fill:#aaffff;fill-opacity:0.25;fill-rule: evenodd "/>
<path id="Body_f0103"  d="M 10.085153646797481 25.27027027027027 Q 9.429840799703813 25.27027027027027 8.907811921510552 25.10366530914476 L 8.907811921510552 25.10366530914476 Q 9.429840799703813 25.27027027027027 10.085153646797481 25.27027027027027 L 10.085153646797481 25.27027027027027 Z " stroke="#191919" stroke-width="0.35 px" style="stroke-width:0.35;stroke-miterlimit:4;stroke-dasharray:none;fill:#aaffff;fill-opacity:0.25;fill-rule: evenodd "/>
<path id="Body_f0104"  d="M 11.318030359126249 25.092558311736394 Q 10.762680488707886 25.27027027027027 10.085153646797481 25.27027027027027 L 10.085153646797481 25.27027027027027 Q 10.762680488707886 25.27027027027027 11.318030359126249 25.092558311736394 L 11.318030359126249 25.092558311736394 Z " stroke="#191919" stroke-width="0.35 px" style="stroke-width:0.35;stroke-miterlimit:4;stroke-dasharray:none;fill:#aaffff;fill-opacity:0.25;fill-rule: evenodd "/>
<path id="Body_f0105"  d="M 12.32876712328767 24.603850425768233 Q 11.884487226952979 24.925953350610882 11.318030359126249 25.092558311736394 L 11.318030359126249 25.092558311736394 Q 11.884487226952979 24.925953350610882 12.32876712328767 24.603850425768233 L 12.32876712328767 24.603850425768233 Z " stroke="#191919" stroke-width="0.35 px" style="stroke-width:0.35;stroke-miterlimit:4;stroke-dasharray:none;fill:#aaffff;fill-opacity:0.25;fill-rule: evenodd "/>
<path id="Body_f0106"  d="M 13.30618289522399 23.493150684931507 Q 12.8952239911144 24.17067752684191 12.32876712328767 24.603850425768233 L 12.32876712328767 24.603850425768233 Q 12.8952239911144 24.17067752684191 13.30618289522399 23.493150684931507 L 13.30618289522399 23.493150684931507 Z " stroke="#191919" stroke-width="0.35 px" style="stroke-width:0.35;stroke-miterlimit:4;stroke-dasharray:none;fill:#aaffff;fill-opacity:0.25;fill-rule: evenodd "/>
<path id="Body_f0107"  d="M 13.983709737134394 21.960385042576824 Q 13.728248796741948 22.82673084042947 13.30618289522399 23.493150684931507 L 13.30618289522399 23.493150684931507 Q 13.728248796741948 22.82673084042947 13.983709737134394 21.960385042576824 L 13.983709737134394 21.960385042576824 Z " stroke="#191919" stroke-width="0.35 px" style="stroke-width:0.35;stroke-miterlimit:4;stroke-dasharray:none;fill:#aaffff;fill-opacity:0.25;fill-rule: evenodd "/>
<path id="Body_f0108"  d="M 14.272491669751943 20.47204738985561 Q 14.183635690485005 21.282858200666418 13.983709737134394 21.960385042576824 L 13.983709737134394 21.960385042576824 Q 14.183635690485005 21.282858200666418 14.272491669751943 20.47204738985561 L 14.272491669751943 20.47204738985561 Z " stroke="#191919" stroke-width="0.35 px" style="stroke-width:0.35;stroke-miterlimit:4;stroke-dasharray:none;fill:#aaffff;fill-opacity:0.25;fill-rule: evenodd "/>
<path id="Body_f0109"  d="M 14.361347649018882 18.783783783783782 Q 14.361347649018882 19.672343576453166 14.272491669751943 20.47204738985561 L 14.272491669751943 20.47204738985561 Q 14.361347649018882 19.672343576453166 14.361347649018882 18.783783783783782 L 14.361347649018882 18.783783783783782 Z " stroke="#191919" stroke-width="0.35 px" style="stroke-width:0.35;stroke-miterlimit:4;stroke-dasharray:none;fill:#aaffff;fill-opacity:0.25;fill-rule: evenodd "/>
<path id="Body_f0110"  d="M 109.93706034801924 25.34801925212884 L 109.93706034801924 18.06182895223991 L 109.93706034801924 18.061828952239914 L 109.93706034801924 25.348019252128843 L 109.93706034801924 25.348019252128843 Z " stroke="#191919" stroke-width="0.35 px" style="stroke-width:0.35;stroke-miterlimit:4;stroke-dasharray:none;fill:#aaffff;fill-opacity:0.25;fill-rule: evenodd "/>
<path id="Body_f0111"  d="M 113.39133654202146 25.34801925212884 L 109.93706034801924 25.34801925212884 L 109.93706034801924 25.348019252128843 L 113.39133654202146 25.348019252128843 L 113.39133654202146 25.348019252128843 Z " stroke="#191919" stroke-width="0.35 px" style="stroke-width:0.35;stroke-miterlimit:4;stroke-dasharray:none;fill:#aaffff;fill-opacity:0.25;fill-rule: evenodd "/>
<path id="Body_f0112"  d="M 115.10181414291003 25.125879303961494 Q 114.35764531654942 25.34801925212884 113.39133654202146 25.34801925212884 L 113.39133654202146 25.348019252128843 Q 114.35764531654942 25.34801925212884 115.10181414291003 25.125879303961494 L 115.10181414291003 25.125879303961497 Z " stroke="#191919" stroke-width="0.35 px" style="stroke-width:0.35;stroke-miterlimit:4;stroke-dasharray:none;fill:#aaffff;fill-opacity:0.25;fill-rule: evenodd "/>
<path id="Body_f0113"  d="M 116.36801184746389 24.481673454276194 Q 115.857089966679 24.90373935579415 115.10181414291003 25.125879303961494 L 115.10181414291003 25.125879303961497 Q 115.857089966679 24.90373935579415 116.36801184746389 24.481673454276194 L 116.36801184746389 24.481673454276198 Z " stroke="#191919" stroke-width="0.35 px" style="stroke-width:0.35;stroke-miterlimit:4;stroke-dasharray:none;fill:#aaffff;fill-opacity:0.25;fill-rule: evenodd "/>
<path id="Body_f0114"  d="M 117.24546464272491 23.31543872639763 Q 116.95668271010736 24.026286560533133 116.36801184746389 24.481673454276194 L 116.36801184746389 24.481673454276198 Q 116.95668271010736 24.026286560533133 117.24546464272491 23.31543872639763 L 117.24546464272491 23.315438726397634 Z " stroke="#191919" stroke-width="0.35 px" style="stroke-width:0.35;stroke-miterlimit:4;stroke-dasharray:none;fill:#aaffff;fill-opacity:0.25;fill-rule: evenodd "/>
<path id="Body_f0115"  d="M 117.53424657534245 21.671603109959275 Q 117.53424657534245 22.604590892262124 117.24546464272491 23.31543872639763 L 117.24546464272491 23.315438726397634 Q 117.53424657534245 22.604590892262124 117.53424657534245 21.671603109959275 L 117.53424657534245 21.67160310995928 Z " stroke="#191919" stroke-width="0.35 px" style="stroke-width:0.35;stroke-miterlimit:4;stroke-dasharray:none;fill:#aaffff;fill-opacity:0.25;fill-rule: evenodd "/>
<path id="Body_f0116"  d="M 117.31210662717511 20.283228433913365 Q 117.53424657534245 20.905220288781933 117.53424657534245 21.671603109959275 L 117.53424657534245 21.67160310995928 Q 117.53424657534245 20.905220288781933 117.31210662717511 20.283228433913365 L 117.31210662717511 20.28322843391337 Z " stroke="#191919" stroke-width="0.35 px" style="stroke-width:0.35;stroke-miterlimit:4;stroke-dasharray:none;fill:#aaffff;fill-opacity:0.25;fill-rule: evenodd "/>
<path id="Body_f0117"  d="M 116.65679378008144 19.216956682710105 Q 117.08996667900776 19.661236579044797 117.31210662717511 20.283228433913365 L 117.31210662717511 20.28322843391337 Q 117.08996667900776 19.661236579044797 116.65679378008144 19.216956682710105 L 116.65679378008144 19.216956682710112 Z " stroke="#191919" stroke-width="0.35 px" style="stroke-width:0.35;stroke-miterlimit:4;stroke-dasharray:none;fill:#aaffff;fill-opacity:0.25;fill-rule: evenodd "/>
<path id="Body_f0118"  d="M 115.312847093669 18.35061088485746 Q 116.13476490188818 18.650499814883375 116.65679378008144 19.216956682710105 L 116.65679378008144 19.216956682710112 Q 116.13476490188818 18.650499814883375 115.312847093669 18.35061088485746 L 115.312847093669 18.350610884857463 Z " stroke="#191919" stroke-width="0.35 px" style="stroke-width:0.35;stroke-miterlimit:4;stroke-dasharray:none;fill:#aaffff;fill-opacity:0.25;fill-rule: evenodd "/>
<path id="Body_f0119"  d="M 113.40244353942983 18.06182895223991 Q 114.49092928544982 18.06182895223991 115.312847093669 18.35061088485746 L 115.312847093669 18.350610884857463 Q 114.49092928544982 18.06182895223991 113.40244353942983 18.06182895223991 L 113.40244353942983 18.061828952239914 Z " stroke="#191919" stroke-width="0.35 px" style="stroke-width:0.35;stroke-miterlimit:4;stroke-dasharray:none;fill:#aaffff;fill-opacity:0.25;fill-rule: evenodd "/>
<path id="Body_f0120"  d="M 109.93706034801923 18.06182895223991 L 113.40244353942983 18.06182895223991 L 113.40244353942983 18.061828952239914 L 109.93706034801924 18.061828952239914 L 109.93706034801924 18.061828952239914 Z " stroke="#191919" stroke-width="0.35 px" style="stroke-width:0.35;stroke-miterlimit:4;stroke-dasharray:none;fill:#aaffff;fill-opacity:0.25;fill-rule: evenodd "/>
<path id="Body_f0121"  d="M 72.37319511292115 22.82673084042947 L 69.82969270640504 13.985560903369123 L 69.82969270640504 13.985560903369125 L 72.37319511292114 22.826730840429473 L 72.37319511292114 22.826730840429473 Z " stroke="#191919" stroke-width="0.35 px" style="stroke-width:0.35;stroke-miterlimit:4;stroke-dasharray:none;fill:#aaffff;fill-opacity:0.25;fill-rule: evenodd "/>
<path id="Body_f0122"  d="M 74.86116253239541 13.985560903369121 L 72.37319511292114 22.82673084042947 L 72.37319511292114 22.826730840429473 L 74.86116253239541 13.985560903369125 L 74.86116253239541 13.985560903369125 Z " stroke="#191919" stroke-width="0.35 px" style="stroke-width:0.35;stroke-miterlimit:4;stroke-dasharray:none;fill:#aaffff;fill-opacity:0.25;fill-rule: evenodd "/>
<path id="Body_f0123"  d="M 69.82969270640504 13.985560903369123 L 74.86116253239541 13.985560903369123 L 74.86116253239541 13.985560903369125 L 69.82969270640504 13.985560903369125 L 69.82969270640504 13.985560903369125 Z " stroke="#191919" stroke-width="0.35 px" style="stroke-width:0.35;stroke-miterlimit:4;stroke-dasharray:none;fill:#aaffff;fill-opacity:0.25;fill-rule: evenodd "/>
<path id="Body_f0124"  d="M 14.272491669751943 13.730099962976675 Q 14.183635690485005 12.930396149574232 13.994816734542761 12.263976305072195 Q 13.761569788967048 11.408737504627915 13.372824879674194 10.731210662717512 Q 12.98407997038134 10.053683820807109 12.417623102554609 9.609403924472417 Q 11.96223620881155 9.242873009996298 11.373565346168085 9.054054054054053 Q 10.796001480932988 8.86523509811181 10.096260644205849 8.86523509811181 Q 9.36319881525361 8.86523509811181 8.785634950018512 9.065161051462422 Q 8.21917808219178 9.276194002221398 7.763791188448723 9.664938911514254 Q 7.28619029988893 10.087004813032209 6.9196593854128094 10.775638652350981 Q 6.564235468345057 11.475379489078119 6.386523509811181 12.319511292114033 Q 6.219918548685672 12.985931136616067 6.153276564235468 13.763420955201777 Q 6.086634579785264 14.540910773787486 6.086634579785264 15.385042576823398 L 6.086634579785264 18.783783783783782 Q 6.086634579785264 19.672343576453166 6.153276564235468 20.483154387263976 Q 6.231025546094039 21.293965198074787 6.397630507219548 21.98259903739356 Q 6.6197704553868935 22.87115883006294 7.008515364679748 23.537578674564976 Q 7.397260273972602 24.20399851906701 7.963717141799333 24.648278415401702 Q 8.38578304331729 24.948167345427617 8.907811921510552 25.10366530914476 Q 9.429840799703813 25.27027027027027 10.085153646797481 25.27027027027027 Q 10.762680488707886 25.27027027027027 11.318030359126249 25.092558311736394 Q 11.884487226952979 24.925953350610882 12.32876712328767 24.603850425768233 Q 12.8952239911144 24.17067752684191 13.30618289522399 23.493150684931507 Q 13.728248796741948 22.82673084042947 13.983709737134394 21.960385042576824 Q 14.183635690485005 21.282858200666418 14.272491669751943 20.47204738985561 Q 14.361347649018882 19.672343576453166 14.361347649018882 18.783783783783782 L 14.361347649018882 15.385042576823398 Q 14.361347649018882 14.529803776379119 14.272491669751943 13.730099962976675 Z " stroke="#191919" stroke-width="0.35 px" style="stroke-width:0.35;stroke-miterlimit:4;stroke-dasharray:none;fill:#aaffff;fill-opacity:0.25;fill-rule: evenodd "/>
<path id="Body_f0125"  d="M 113.39133654202146 25.348019252128843 Q 114.35764531654942 25.34801925212884 115.10181414291003 25.125879303961494 Q 115.857089966679 24.90373935579415 116.36801184746389 24.481673454276194 Q 116.95668271010736 24.026286560533133 117.24546464272491 23.31543872639763 Q 117.53424657534245 22.604590892262124 117.53424657534245 21.671603109959275 Q 117.53424657534245 20.905220288781933 117.31210662717511 20.283228433913365 Q 117.08996667900776 19.661236579044797 116.65679378008144 19.216956682710105 Q 116.13476490188818 18.650499814883375 115.312847093669 18.35061088485746 Q 114.49092928544982 18.06182895223991 113.40244353942983 18.06182895223991 L 109.93706034801924 18.061828952239914 L 109.93706034801924 25.348019252128843 L 113.39133654202146 25.348019252128843 Z " stroke="#191919" stroke-width="0.35 px" style="stroke-width:0.35;stroke-miterlimit:4;stroke-dasharray:none;fill:#aaffff;fill-opacity:0.25;fill-rule: evenodd "/>
<path id="Body_f0126"  d="M 74.86116253239541 13.985560903369125 L 69.82969270640504 13.985560903369125 L 72.37319511292114 22.826730840429473 L 74.86116253239541 13.985560903369125 Z " stroke="#191919" stroke-width="0.35 px" style="stroke-width:0.35;stroke-miterlimit:4;stroke-dasharray:none;fill:#aaffff;fill-opacity:0.25;fill-rule: evenodd "/>
<title>b'acylic_words_01'</title>
</g>
</svg>