M48
; DRILL file {KiCad 5.1.8} date Thu Dec  3 18:56:32 2020
; FORMAT={-:-/ absolute / inch / decimal}
; #@! TF.CreationDate,2020-12-03T18:56:32-05:00
; #@! TF.GenerationSoftware,Kicad,Pcbnew,5.1.8
FMAT,2
INCH
T1C0.0236
T2C0.0300
T3C0.0315
T4C0.0335
T5C0.0354
T6C0.0591
%
G90
G05
T2
X-1.2681Y-0.3012
X-1.2681Y-0.4012
X-1.2681Y-0.5012
X-1.2681Y-0.6012
X-1.1681Y-0.3012
X-1.1681Y-0.4012
X-1.1681Y-0.5012
X-1.1681Y-0.6012
T3
X-1.4173Y-2.2835
X-1.2894Y-2.2835
X-0.9252Y-2.565
X-0.9252Y-2.688
X-1.2945Y-2.6575
X-1.1024Y-2.6575
T4
X-0.8547Y-2.7267
X-0.6579Y-2.7267
T5
X-1.3563Y-1.8307
X-1.3563Y-1.9307
X-1.3563Y-2.0307
X-1.3563Y-2.1307
X-1.3563Y-2.4307
X-1.2563Y-1.8307
X-1.2563Y-2.4307
X-1.1563Y-1.8307
X-1.1563Y-2.4307
X-1.0563Y-1.8307
X-1.0563Y-2.4307
X-0.9563Y-1.8307
X-0.9563Y-2.4307
X-0.8563Y-1.8307
X-0.8563Y-2.4307
X-0.7563Y-1.8307
X-0.7563Y-2.4307
X-0.7063Y-1.9307
X-0.6563Y-1.8307
X-0.6563Y-2.4307
X-0.6063Y-1.9307
X-0.5563Y-1.8307
X-0.5563Y-2.4307
X-0.4563Y-1.8307
X-0.4563Y-2.4307
X-0.3563Y-1.8307
X-0.3563Y-2.4307
X-0.2563Y-1.8307
X-0.2563Y-2.4307
X-0.1563Y-1.8807
X-0.1563Y-1.9807
X-0.1563Y-2.0807
X-0.1563Y-2.1807
X-0.1563Y-2.2807
X-0.1563Y-2.3807
T6
X-1.2387Y-1.2291
X-0.432Y-1.2291
T1
G00X-0.8941Y-2.8468
M15
G01X-0.8941Y-2.8192
M16
G05
G00X-0.6185Y-2.8192
M15
G01X-0.6185Y-2.8468
M16
G05
T0
M30
