%TF.GenerationSoftware,KiCad,Pcbnew,5.1.8*%
%TF.CreationDate,2020-12-03T18:56:26-05:00*%
%TF.ProjectId,on_air_remote,6f6e5f61-6972-45f7-9265-6d6f74652e6b,rev?*%
%TF.SameCoordinates,PX93d1cc0PY510ff40*%
%TF.FileFunction,Copper,L1,Top*%
%TF.FilePolarity,Positive*%
%FSLAX46Y46*%
G04 Gerber Fmt 4.6, Leading zero omitted, Abs format (unit mm)*
G04 Created by KiCad (PCBNEW 5.1.8) date 2020-12-03 18:56:26*
%MOMM*%
%LPD*%
G01*
G04 APERTURE LIST*
%TA.AperFunction,ComponentPad*%
%ADD10C,1.500000*%
%TD*%
%TA.AperFunction,ComponentPad*%
%ADD11R,1.800000X1.800000*%
%TD*%
%TA.AperFunction,ComponentPad*%
%ADD12C,1.800000*%
%TD*%
%TA.AperFunction,ComponentPad*%
%ADD13C,3.000000*%
%TD*%
%TA.AperFunction,ComponentPad*%
%ADD14R,3.000000X3.000000*%
%TD*%
%TA.AperFunction,SMDPad,CuDef*%
%ADD15R,1.500000X1.900000*%
%TD*%
%TA.AperFunction,ComponentPad*%
%ADD16C,1.450000*%
%TD*%
%TA.AperFunction,SMDPad,CuDef*%
%ADD17R,0.400000X1.350000*%
%TD*%
%TA.AperFunction,ComponentPad*%
%ADD18O,1.200000X1.900000*%
%TD*%
%TA.AperFunction,SMDPad,CuDef*%
%ADD19R,1.200000X1.900000*%
%TD*%
%TA.AperFunction,SMDPad,CuDef*%
%ADD20R,3.800000X2.000000*%
%TD*%
%TA.AperFunction,SMDPad,CuDef*%
%ADD21R,1.500000X2.000000*%
%TD*%
%TA.AperFunction,SMDPad,CuDef*%
%ADD22R,2.000000X1.400000*%
%TD*%
%TA.AperFunction,ComponentPad*%
%ADD23R,1.524000X1.524000*%
%TD*%
%TA.AperFunction,ComponentPad*%
%ADD24C,1.524000*%
%TD*%
%TA.AperFunction,ViaPad*%
%ADD25C,1.900000*%
%TD*%
%TA.AperFunction,Conductor*%
%ADD26C,0.250000*%
%TD*%
%TA.AperFunction,Conductor*%
%ADD27C,0.500000*%
%TD*%
%TA.AperFunction,Conductor*%
%ADD28C,1.000000*%
%TD*%
%TA.AperFunction,Conductor*%
%ADD29C,0.254000*%
%TD*%
%TA.AperFunction,Conductor*%
%ADD30C,0.100000*%
%TD*%
G04 APERTURE END LIST*
D10*
%TO.P,Y1,1*%
%TO.N,Net-(C1-Pad1)*%
X-28000000Y-67500000D03*
%TO.P,Y1,2*%
%TO.N,Net-(C2-Pad1)*%
X-32880000Y-67500000D03*
%TD*%
D11*
%TO.P,A1,1*%
%TO.N,Net-(A1-Pad1)*%
X-6510000Y-61740000D03*
D12*
%TO.P,A1,2*%
%TO.N,Net-(A1-Pad2)*%
X-9050000Y-61740000D03*
%TO.P,A1,3*%
%TO.N,Net-(A1-Pad3)*%
X-11590000Y-61740000D03*
%TO.P,A1,4*%
%TO.N,GND*%
X-14130000Y-61740000D03*
%TO.P,A1,5*%
%TO.N,/ROLE*%
X-16670000Y-61740000D03*
%TO.P,A1,6*%
%TO.N,/RED*%
X-19210000Y-61740000D03*
%TO.P,A1,7*%
%TO.N,Net-(A1-Pad7)*%
X-21750000Y-61740000D03*
%TO.P,A1,8*%
%TO.N,/GREEN*%
X-24290000Y-61740000D03*
%TO.P,A1,9*%
%TO.N,/BLUE*%
X-26830000Y-61740000D03*
%TO.P,A1,10*%
%TO.N,Net-(A1-Pad10)*%
X-29370000Y-61740000D03*
%TO.P,A1,11*%
%TO.N,Net-(A1-Pad11)*%
X-31910000Y-61740000D03*
%TO.P,A1,12*%
%TO.N,/CE*%
X-34450000Y-61740000D03*
%TO.P,A1,13*%
%TO.N,GND*%
X-34450000Y-54120000D03*
%TO.P,A1,14*%
%TO.N,Net-(A1-Pad14)*%
X-34450000Y-51580000D03*
%TO.P,A1,15*%
%TO.N,Net-(A1-Pad15)*%
X-34450000Y-49040000D03*
%TO.P,A1,16*%
%TO.N,/~CSN*%
X-34450000Y-46500000D03*
%TO.P,A1,17*%
%TO.N,/MOSI*%
X-31910000Y-46500000D03*
%TO.P,A1,18*%
%TO.N,/MISO*%
X-29370000Y-46500000D03*
%TO.P,A1,19*%
%TO.N,/SCK*%
X-26830000Y-46500000D03*
%TO.P,A1,20*%
%TO.N,Net-(A1-Pad20)*%
X-24290000Y-46500000D03*
%TO.P,A1,21*%
%TO.N,Net-(A1-Pad21)*%
X-21750000Y-46500000D03*
%TO.P,A1,22*%
%TO.N,Net-(A1-Pad22)*%
X-19210000Y-46500000D03*
%TO.P,A1,23*%
%TO.N,/SHUTDOWN*%
X-16670000Y-46500000D03*
%TO.P,A1,24*%
%TO.N,N/C*%
X-14130000Y-46500000D03*
%TO.P,A1,25*%
%TO.N,Net-(A1-Pad25)*%
X-11590000Y-46500000D03*
%TO.P,A1,26*%
%TO.N,GND*%
X-9050000Y-46500000D03*
%TO.P,A1,27*%
%TO.N,+5V*%
X-6510000Y-46500000D03*
%TO.P,A1,28*%
%TO.N,GND*%
X-3970000Y-47770000D03*
%TO.P,A1,29*%
X-3970000Y-50310000D03*
%TO.P,A1,30*%
%TO.N,+3V0*%
X-3970000Y-52850000D03*
%TO.P,A1,31*%
%TO.N,/TXD*%
X-3970000Y-55390000D03*
%TO.P,A1,32*%
%TO.N,/RXD*%
X-3970000Y-57930000D03*
%TO.P,A1,33*%
%TO.N,/~DTR*%
X-3970000Y-60470000D03*
%TO.P,A1,34*%
%TO.N,Net-(A1-Pad34)*%
X-17940000Y-49040000D03*
%TO.P,A1,35*%
%TO.N,Net-(A1-Pad35)*%
X-15400000Y-49040000D03*
%TD*%
D13*
%TO.P,BT1,2*%
%TO.N,GND*%
X-10972416Y-31220000D03*
D14*
%TO.P,BT1,1*%
%TO.N,/Vbatt*%
X-31462416Y-31220000D03*
%TD*%
%TO.P,C1,1*%
%TO.N,Net-(C1-Pad1)*%
%TA.AperFunction,SMDPad,CuDef*%
G36*
G01*
X-26912500Y-69525000D02*
X-26912500Y-70475000D01*
G75*
G02*
X-27162500Y-70725000I-250000J0D01*
G01*
X-27837500Y-70725000D01*
G75*
G02*
X-28087500Y-70475000I0J250000D01*
G01*
X-28087500Y-69525000D01*
G75*
G02*
X-27837500Y-69275000I250000J0D01*
G01*
X-27162500Y-69275000D01*
G75*
G02*
X-26912500Y-69525000I0J-250000D01*
G01*
G37*
%TD.AperFunction*%
%TO.P,C1,2*%
%TO.N,GND*%
%TA.AperFunction,SMDPad,CuDef*%
G36*
G01*
X-28987500Y-69525000D02*
X-28987500Y-70475000D01*
G75*
G02*
X-29237500Y-70725000I-250000J0D01*
G01*
X-29912500Y-70725000D01*
G75*
G02*
X-30162500Y-70475000I0J250000D01*
G01*
X-30162500Y-69525000D01*
G75*
G02*
X-29912500Y-69275000I250000J0D01*
G01*
X-29237500Y-69275000D01*
G75*
G02*
X-28987500Y-69525000I0J-250000D01*
G01*
G37*
%TD.AperFunction*%
%TD*%
%TO.P,C2,2*%
%TO.N,GND*%
%TA.AperFunction,SMDPad,CuDef*%
G36*
G01*
X-32050000Y-70475000D02*
X-32050000Y-69525000D01*
G75*
G02*
X-31800000Y-69275000I250000J0D01*
G01*
X-31125000Y-69275000D01*
G75*
G02*
X-30875000Y-69525000I0J-250000D01*
G01*
X-30875000Y-70475000D01*
G75*
G02*
X-31125000Y-70725000I-250000J0D01*
G01*
X-31800000Y-70725000D01*
G75*
G02*
X-32050000Y-70475000I0J250000D01*
G01*
G37*
%TD.AperFunction*%
%TO.P,C2,1*%
%TO.N,Net-(C2-Pad1)*%
%TA.AperFunction,SMDPad,CuDef*%
G36*
G01*
X-34125000Y-70475000D02*
X-34125000Y-69525000D01*
G75*
G02*
X-33875000Y-69275000I250000J0D01*
G01*
X-33200000Y-69275000D01*
G75*
G02*
X-32950000Y-69525000I0J-250000D01*
G01*
X-32950000Y-70475000D01*
G75*
G02*
X-33200000Y-70725000I-250000J0D01*
G01*
X-33875000Y-70725000D01*
G75*
G02*
X-34125000Y-70475000I0J250000D01*
G01*
G37*
%TD.AperFunction*%
%TD*%
%TO.P,C3,1*%
%TO.N,GND*%
%TA.AperFunction,SMDPad,CuDef*%
G36*
G01*
X-10975000Y-56375000D02*
X-10025000Y-56375000D01*
G75*
G02*
X-9775000Y-56625000I0J-250000D01*
G01*
X-9775000Y-57300000D01*
G75*
G02*
X-10025000Y-57550000I-250000J0D01*
G01*
X-10975000Y-57550000D01*
G75*
G02*
X-11225000Y-57300000I0J250000D01*
G01*
X-11225000Y-56625000D01*
G75*
G02*
X-10975000Y-56375000I250000J0D01*
G01*
G37*
%TD.AperFunction*%
%TO.P,C3,2*%
%TO.N,Net-(C3-Pad2)*%
%TA.AperFunction,SMDPad,CuDef*%
G36*
G01*
X-10975000Y-58450000D02*
X-10025000Y-58450000D01*
G75*
G02*
X-9775000Y-58700000I0J-250000D01*
G01*
X-9775000Y-59375000D01*
G75*
G02*
X-10025000Y-59625000I-250000J0D01*
G01*
X-10975000Y-59625000D01*
G75*
G02*
X-11225000Y-59375000I0J250000D01*
G01*
X-11225000Y-58700000D01*
G75*
G02*
X-10975000Y-58450000I250000J0D01*
G01*
G37*
%TD.AperFunction*%
%TD*%
%TO.P,C4,2*%
%TO.N,GND*%
%TA.AperFunction,SMDPad,CuDef*%
G36*
G01*
X-3475000Y-69450000D02*
X-2525000Y-69450000D01*
G75*
G02*
X-2275000Y-69700000I0J-250000D01*
G01*
X-2275000Y-70375000D01*
G75*
G02*
X-2525000Y-70625000I-250000J0D01*
G01*
X-3475000Y-70625000D01*
G75*
G02*
X-3725000Y-70375000I0J250000D01*
G01*
X-3725000Y-69700000D01*
G75*
G02*
X-3475000Y-69450000I250000J0D01*
G01*
G37*
%TD.AperFunction*%
%TO.P,C4,1*%
%TO.N,+3V0*%
%TA.AperFunction,SMDPad,CuDef*%
G36*
G01*
X-3475000Y-67375000D02*
X-2525000Y-67375000D01*
G75*
G02*
X-2275000Y-67625000I0J-250000D01*
G01*
X-2275000Y-68300000D01*
G75*
G02*
X-2525000Y-68550000I-250000J0D01*
G01*
X-3475000Y-68550000D01*
G75*
G02*
X-3725000Y-68300000I0J250000D01*
G01*
X-3725000Y-67625000D01*
G75*
G02*
X-3475000Y-67375000I250000J0D01*
G01*
G37*
%TD.AperFunction*%
%TD*%
D15*
%TO.P,J1,6*%
%TO.N,GND*%
X-18210000Y-71957500D03*
D16*
X-21710000Y-69257500D03*
D17*
%TO.P,J1,2*%
%TO.N,Net-(J1-Pad2)*%
X-19860000Y-69257500D03*
%TO.P,J1,1*%
%TO.N,+5V*%
X-20510000Y-69257500D03*
%TO.P,J1,5*%
%TO.N,GND*%
X-17910000Y-69257500D03*
%TO.P,J1,4*%
%TO.N,Net-(J1-Pad4)*%
X-18560000Y-69257500D03*
%TO.P,J1,3*%
%TO.N,Net-(J1-Pad3)*%
X-19210000Y-69257500D03*
D16*
%TO.P,J1,6*%
%TO.N,GND*%
X-16710000Y-69257500D03*
D15*
X-20210000Y-71957500D03*
D18*
X-22710000Y-71957500D03*
X-15710000Y-71957500D03*
D19*
X-16310000Y-71957500D03*
X-22110000Y-71957500D03*
%TD*%
D20*
%TO.P,Q1,4*%
%TO.N,/Vbatt*%
X-6000000Y-21350000D03*
D21*
%TO.P,Q1,2*%
X-6000000Y-27650000D03*
%TO.P,Q1,3*%
%TO.N,+3V0*%
X-3700000Y-27650000D03*
%TO.P,Q1,1*%
%TO.N,/SHUTDOWN*%
X-8300000Y-27650000D03*
%TD*%
%TO.P,R1,1*%
%TO.N,/SHUTDOWN*%
%TA.AperFunction,SMDPad,CuDef*%
G36*
G01*
X-11450001Y-22900000D02*
X-10549999Y-22900000D01*
G75*
G02*
X-10300000Y-23149999I0J-249999D01*
G01*
X-10300000Y-23850001D01*
G75*
G02*
X-10549999Y-24100000I-249999J0D01*
G01*
X-11450001Y-24100000D01*
G75*
G02*
X-11700000Y-23850001I0J249999D01*
G01*
X-11700000Y-23149999D01*
G75*
G02*
X-11450001Y-22900000I249999J0D01*
G01*
G37*
%TD.AperFunction*%
%TO.P,R1,2*%
%TO.N,GND*%
%TA.AperFunction,SMDPad,CuDef*%
G36*
G01*
X-11450001Y-24900000D02*
X-10549999Y-24900000D01*
G75*
G02*
X-10300000Y-25149999I0J-249999D01*
G01*
X-10300000Y-25850001D01*
G75*
G02*
X-10549999Y-26100000I-249999J0D01*
G01*
X-11450001Y-26100000D01*
G75*
G02*
X-11700000Y-25850001I0J249999D01*
G01*
X-11700000Y-25149999D01*
G75*
G02*
X-11450001Y-24900000I249999J0D01*
G01*
G37*
%TD.AperFunction*%
%TD*%
%TO.P,R2,2*%
%TO.N,Net-(A1-Pad20)*%
%TA.AperFunction,SMDPad,CuDef*%
G36*
G01*
X-24850000Y-51950001D02*
X-24850000Y-51049999D01*
G75*
G02*
X-24600001Y-50800000I249999J0D01*
G01*
X-23899999Y-50800000D01*
G75*
G02*
X-23650000Y-51049999I0J-249999D01*
G01*
X-23650000Y-51950001D01*
G75*
G02*
X-23899999Y-52200000I-249999J0D01*
G01*
X-24600001Y-52200000D01*
G75*
G02*
X-24850000Y-51950001I0J249999D01*
G01*
G37*
%TD.AperFunction*%
%TO.P,R2,1*%
%TO.N,+5V*%
%TA.AperFunction,SMDPad,CuDef*%
G36*
G01*
X-26850000Y-51950001D02*
X-26850000Y-51049999D01*
G75*
G02*
X-26600001Y-50800000I249999J0D01*
G01*
X-25899999Y-50800000D01*
G75*
G02*
X-25650000Y-51049999I0J-249999D01*
G01*
X-25650000Y-51950001D01*
G75*
G02*
X-25899999Y-52200000I-249999J0D01*
G01*
X-26600001Y-52200000D01*
G75*
G02*
X-26850000Y-51950001I0J249999D01*
G01*
G37*
%TD.AperFunction*%
%TD*%
%TO.P,R3,1*%
%TO.N,Net-(A1-Pad20)*%
%TA.AperFunction,SMDPad,CuDef*%
G36*
G01*
X-23650000Y-48549999D02*
X-23650000Y-49450001D01*
G75*
G02*
X-23899999Y-49700000I-249999J0D01*
G01*
X-24600001Y-49700000D01*
G75*
G02*
X-24850000Y-49450001I0J249999D01*
G01*
X-24850000Y-48549999D01*
G75*
G02*
X-24600001Y-48300000I249999J0D01*
G01*
X-23899999Y-48300000D01*
G75*
G02*
X-23650000Y-48549999I0J-249999D01*
G01*
G37*
%TD.AperFunction*%
%TO.P,R3,2*%
%TO.N,GND*%
%TA.AperFunction,SMDPad,CuDef*%
G36*
G01*
X-25650000Y-48549999D02*
X-25650000Y-49450001D01*
G75*
G02*
X-25899999Y-49700000I-249999J0D01*
G01*
X-26600001Y-49700000D01*
G75*
G02*
X-26850000Y-49450001I0J249999D01*
G01*
X-26850000Y-48549999D01*
G75*
G02*
X-26600001Y-48300000I249999J0D01*
G01*
X-25899999Y-48300000D01*
G75*
G02*
X-25650000Y-48549999I0J-249999D01*
G01*
G37*
%TD.AperFunction*%
%TD*%
%TO.P,R4,2*%
%TO.N,/ROLE*%
%TA.AperFunction,SMDPad,CuDef*%
G36*
G01*
X-16950001Y-57400000D02*
X-16049999Y-57400000D01*
G75*
G02*
X-15800000Y-57649999I0J-249999D01*
G01*
X-15800000Y-58350001D01*
G75*
G02*
X-16049999Y-58600000I-249999J0D01*
G01*
X-16950001Y-58600000D01*
G75*
G02*
X-17200000Y-58350001I0J249999D01*
G01*
X-17200000Y-57649999D01*
G75*
G02*
X-16950001Y-57400000I249999J0D01*
G01*
G37*
%TD.AperFunction*%
%TO.P,R4,1*%
%TO.N,GND*%
%TA.AperFunction,SMDPad,CuDef*%
G36*
G01*
X-16950001Y-55400000D02*
X-16049999Y-55400000D01*
G75*
G02*
X-15800000Y-55649999I0J-249999D01*
G01*
X-15800000Y-56350001D01*
G75*
G02*
X-16049999Y-56600000I-249999J0D01*
G01*
X-16950001Y-56600000D01*
G75*
G02*
X-17200000Y-56350001I0J249999D01*
G01*
X-17200000Y-55649999D01*
G75*
G02*
X-16950001Y-55400000I249999J0D01*
G01*
G37*
%TD.AperFunction*%
%TD*%
%TO.P,R5,1*%
%TO.N,GND*%
%TA.AperFunction,SMDPad,CuDef*%
G36*
G01*
X-19450001Y-55400000D02*
X-18549999Y-55400000D01*
G75*
G02*
X-18300000Y-55649999I0J-249999D01*
G01*
X-18300000Y-56350001D01*
G75*
G02*
X-18549999Y-56600000I-249999J0D01*
G01*
X-19450001Y-56600000D01*
G75*
G02*
X-19700000Y-56350001I0J249999D01*
G01*
X-19700000Y-55649999D01*
G75*
G02*
X-19450001Y-55400000I249999J0D01*
G01*
G37*
%TD.AperFunction*%
%TO.P,R5,2*%
%TO.N,/RED*%
%TA.AperFunction,SMDPad,CuDef*%
G36*
G01*
X-19450001Y-57400000D02*
X-18549999Y-57400000D01*
G75*
G02*
X-18300000Y-57649999I0J-249999D01*
G01*
X-18300000Y-58350001D01*
G75*
G02*
X-18549999Y-58600000I-249999J0D01*
G01*
X-19450001Y-58600000D01*
G75*
G02*
X-19700000Y-58350001I0J249999D01*
G01*
X-19700000Y-57649999D01*
G75*
G02*
X-19450001Y-57400000I249999J0D01*
G01*
G37*
%TD.AperFunction*%
%TD*%
%TO.P,R6,2*%
%TO.N,/GREEN*%
%TA.AperFunction,SMDPad,CuDef*%
G36*
G01*
X-21950001Y-57400000D02*
X-21049999Y-57400000D01*
G75*
G02*
X-20800000Y-57649999I0J-249999D01*
G01*
X-20800000Y-58350001D01*
G75*
G02*
X-21049999Y-58600000I-249999J0D01*
G01*
X-21950001Y-58600000D01*
G75*
G02*
X-22200000Y-58350001I0J249999D01*
G01*
X-22200000Y-57649999D01*
G75*
G02*
X-21950001Y-57400000I249999J0D01*
G01*
G37*
%TD.AperFunction*%
%TO.P,R6,1*%
%TO.N,GND*%
%TA.AperFunction,SMDPad,CuDef*%
G36*
G01*
X-21950001Y-55400000D02*
X-21049999Y-55400000D01*
G75*
G02*
X-20800000Y-55649999I0J-249999D01*
G01*
X-20800000Y-56350001D01*
G75*
G02*
X-21049999Y-56600000I-249999J0D01*
G01*
X-21950001Y-56600000D01*
G75*
G02*
X-22200000Y-56350001I0J249999D01*
G01*
X-22200000Y-55649999D01*
G75*
G02*
X-21950001Y-55400000I249999J0D01*
G01*
G37*
%TD.AperFunction*%
%TD*%
%TO.P,R7,1*%
%TO.N,GND*%
%TA.AperFunction,SMDPad,CuDef*%
G36*
G01*
X-24450001Y-55400000D02*
X-23549999Y-55400000D01*
G75*
G02*
X-23300000Y-55649999I0J-249999D01*
G01*
X-23300000Y-56350001D01*
G75*
G02*
X-23549999Y-56600000I-249999J0D01*
G01*
X-24450001Y-56600000D01*
G75*
G02*
X-24700000Y-56350001I0J249999D01*
G01*
X-24700000Y-55649999D01*
G75*
G02*
X-24450001Y-55400000I249999J0D01*
G01*
G37*
%TD.AperFunction*%
%TO.P,R7,2*%
%TO.N,/BLUE*%
%TA.AperFunction,SMDPad,CuDef*%
G36*
G01*
X-24450001Y-57400000D02*
X-23549999Y-57400000D01*
G75*
G02*
X-23300000Y-57649999I0J-249999D01*
G01*
X-23300000Y-58350001D01*
G75*
G02*
X-23549999Y-58600000I-249999J0D01*
G01*
X-24450001Y-58600000D01*
G75*
G02*
X-24700000Y-58350001I0J249999D01*
G01*
X-24700000Y-57649999D01*
G75*
G02*
X-24450001Y-57400000I249999J0D01*
G01*
G37*
%TD.AperFunction*%
%TD*%
D22*
%TO.P,SW1,1*%
%TO.N,/SHUTDOWN*%
X-16710000Y-24200000D03*
X-16710000Y-38200000D03*
%TO.P,SW1,2*%
%TO.N,N/C*%
X-21710000Y-38200000D03*
%TO.N,/Vbatt*%
X-21710000Y-24200000D03*
%TD*%
%TO.P,U1,1*%
%TO.N,GND*%
%TA.AperFunction,SMDPad,CuDef*%
G36*
G01*
X-5205000Y-64050000D02*
X-4905000Y-64050000D01*
G75*
G02*
X-4755000Y-64200000I0J-150000D01*
G01*
X-4755000Y-65850000D01*
G75*
G02*
X-4905000Y-66000000I-150000J0D01*
G01*
X-5205000Y-66000000D01*
G75*
G02*
X-5355000Y-65850000I0J150000D01*
G01*
X-5355000Y-64200000D01*
G75*
G02*
X-5205000Y-64050000I150000J0D01*
G01*
G37*
%TD.AperFunction*%
%TO.P,U1,2*%
%TO.N,/TXD*%
%TA.AperFunction,SMDPad,CuDef*%
G36*
G01*
X-6475000Y-64050000D02*
X-6175000Y-64050000D01*
G75*
G02*
X-6025000Y-64200000I0J-150000D01*
G01*
X-6025000Y-65850000D01*
G75*
G02*
X-6175000Y-66000000I-150000J0D01*
G01*
X-6475000Y-66000000D01*
G75*
G02*
X-6625000Y-65850000I0J150000D01*
G01*
X-6625000Y-64200000D01*
G75*
G02*
X-6475000Y-64050000I150000J0D01*
G01*
G37*
%TD.AperFunction*%
%TO.P,U1,3*%
%TO.N,/RXD*%
%TA.AperFunction,SMDPad,CuDef*%
G36*
G01*
X-7745000Y-64050000D02*
X-7445000Y-64050000D01*
G75*
G02*
X-7295000Y-64200000I0J-150000D01*
G01*
X-7295000Y-65850000D01*
G75*
G02*
X-7445000Y-66000000I-150000J0D01*
G01*
X-7745000Y-66000000D01*
G75*
G02*
X-7895000Y-65850000I0J150000D01*
G01*
X-7895000Y-64200000D01*
G75*
G02*
X-7745000Y-64050000I150000J0D01*
G01*
G37*
%TD.AperFunction*%
%TO.P,U1,4*%
%TO.N,Net-(C3-Pad2)*%
%TA.AperFunction,SMDPad,CuDef*%
G36*
G01*
X-9015000Y-64050000D02*
X-8715000Y-64050000D01*
G75*
G02*
X-8565000Y-64200000I0J-150000D01*
G01*
X-8565000Y-65850000D01*
G75*
G02*
X-8715000Y-66000000I-150000J0D01*
G01*
X-9015000Y-66000000D01*
G75*
G02*
X-9165000Y-65850000I0J150000D01*
G01*
X-9165000Y-64200000D01*
G75*
G02*
X-9015000Y-64050000I150000J0D01*
G01*
G37*
%TD.AperFunction*%
%TO.P,U1,5*%
%TO.N,Net-(J1-Pad3)*%
%TA.AperFunction,SMDPad,CuDef*%
G36*
G01*
X-10285000Y-64050000D02*
X-9985000Y-64050000D01*
G75*
G02*
X-9835000Y-64200000I0J-150000D01*
G01*
X-9835000Y-65850000D01*
G75*
G02*
X-9985000Y-66000000I-150000J0D01*
G01*
X-10285000Y-66000000D01*
G75*
G02*
X-10435000Y-65850000I0J150000D01*
G01*
X-10435000Y-64200000D01*
G75*
G02*
X-10285000Y-64050000I150000J0D01*
G01*
G37*
%TD.AperFunction*%
%TO.P,U1,6*%
%TO.N,Net-(J1-Pad2)*%
%TA.AperFunction,SMDPad,CuDef*%
G36*
G01*
X-11555000Y-64050000D02*
X-11255000Y-64050000D01*
G75*
G02*
X-11105000Y-64200000I0J-150000D01*
G01*
X-11105000Y-65850000D01*
G75*
G02*
X-11255000Y-66000000I-150000J0D01*
G01*
X-11555000Y-66000000D01*
G75*
G02*
X-11705000Y-65850000I0J150000D01*
G01*
X-11705000Y-64200000D01*
G75*
G02*
X-11555000Y-64050000I150000J0D01*
G01*
G37*
%TD.AperFunction*%
%TO.P,U1,7*%
%TO.N,Net-(C1-Pad1)*%
%TA.AperFunction,SMDPad,CuDef*%
G36*
G01*
X-12825000Y-64050000D02*
X-12525000Y-64050000D01*
G75*
G02*
X-12375000Y-64200000I0J-150000D01*
G01*
X-12375000Y-65850000D01*
G75*
G02*
X-12525000Y-66000000I-150000J0D01*
G01*
X-12825000Y-66000000D01*
G75*
G02*
X-12975000Y-65850000I0J150000D01*
G01*
X-12975000Y-64200000D01*
G75*
G02*
X-12825000Y-64050000I150000J0D01*
G01*
G37*
%TD.AperFunction*%
%TO.P,U1,8*%
%TO.N,Net-(C2-Pad1)*%
%TA.AperFunction,SMDPad,CuDef*%
G36*
G01*
X-14095000Y-64050000D02*
X-13795000Y-64050000D01*
G75*
G02*
X-13645000Y-64200000I0J-150000D01*
G01*
X-13645000Y-65850000D01*
G75*
G02*
X-13795000Y-66000000I-150000J0D01*
G01*
X-14095000Y-66000000D01*
G75*
G02*
X-14245000Y-65850000I0J150000D01*
G01*
X-14245000Y-64200000D01*
G75*
G02*
X-14095000Y-64050000I150000J0D01*
G01*
G37*
%TD.AperFunction*%
%TO.P,U1,9*%
%TO.N,GND*%
%TA.AperFunction,SMDPad,CuDef*%
G36*
G01*
X-14095000Y-69000000D02*
X-13795000Y-69000000D01*
G75*
G02*
X-13645000Y-69150000I0J-150000D01*
G01*
X-13645000Y-70800000D01*
G75*
G02*
X-13795000Y-70950000I-150000J0D01*
G01*
X-14095000Y-70950000D01*
G75*
G02*
X-14245000Y-70800000I0J150000D01*
G01*
X-14245000Y-69150000D01*
G75*
G02*
X-14095000Y-69000000I150000J0D01*
G01*
G37*
%TD.AperFunction*%
%TO.P,U1,10*%
%TO.N,Net-(U1-Pad10)*%
%TA.AperFunction,SMDPad,CuDef*%
G36*
G01*
X-12825000Y-69000000D02*
X-12525000Y-69000000D01*
G75*
G02*
X-12375000Y-69150000I0J-150000D01*
G01*
X-12375000Y-70800000D01*
G75*
G02*
X-12525000Y-70950000I-150000J0D01*
G01*
X-12825000Y-70950000D01*
G75*
G02*
X-12975000Y-70800000I0J150000D01*
G01*
X-12975000Y-69150000D01*
G75*
G02*
X-12825000Y-69000000I150000J0D01*
G01*
G37*
%TD.AperFunction*%
%TO.P,U1,11*%
%TO.N,Net-(U1-Pad11)*%
%TA.AperFunction,SMDPad,CuDef*%
G36*
G01*
X-11555000Y-69000000D02*
X-11255000Y-69000000D01*
G75*
G02*
X-11105000Y-69150000I0J-150000D01*
G01*
X-11105000Y-70800000D01*
G75*
G02*
X-11255000Y-70950000I-150000J0D01*
G01*
X-11555000Y-70950000D01*
G75*
G02*
X-11705000Y-70800000I0J150000D01*
G01*
X-11705000Y-69150000D01*
G75*
G02*
X-11555000Y-69000000I150000J0D01*
G01*
G37*
%TD.AperFunction*%
%TO.P,U1,12*%
%TO.N,Net-(U1-Pad12)*%
%TA.AperFunction,SMDPad,CuDef*%
G36*
G01*
X-10285000Y-69000000D02*
X-9985000Y-69000000D01*
G75*
G02*
X-9835000Y-69150000I0J-150000D01*
G01*
X-9835000Y-70800000D01*
G75*
G02*
X-9985000Y-70950000I-150000J0D01*
G01*
X-10285000Y-70950000D01*
G75*
G02*
X-10435000Y-70800000I0J150000D01*
G01*
X-10435000Y-69150000D01*
G75*
G02*
X-10285000Y-69000000I150000J0D01*
G01*
G37*
%TD.AperFunction*%
%TO.P,U1,13*%
%TO.N,/~DTR*%
%TA.AperFunction,SMDPad,CuDef*%
G36*
G01*
X-9015000Y-69000000D02*
X-8715000Y-69000000D01*
G75*
G02*
X-8565000Y-69150000I0J-150000D01*
G01*
X-8565000Y-70800000D01*
G75*
G02*
X-8715000Y-70950000I-150000J0D01*
G01*
X-9015000Y-70950000D01*
G75*
G02*
X-9165000Y-70800000I0J150000D01*
G01*
X-9165000Y-69150000D01*
G75*
G02*
X-9015000Y-69000000I150000J0D01*
G01*
G37*
%TD.AperFunction*%
%TO.P,U1,14*%
%TO.N,Net-(U1-Pad14)*%
%TA.AperFunction,SMDPad,CuDef*%
G36*
G01*
X-7745000Y-69000000D02*
X-7445000Y-69000000D01*
G75*
G02*
X-7295000Y-69150000I0J-150000D01*
G01*
X-7295000Y-70800000D01*
G75*
G02*
X-7445000Y-70950000I-150000J0D01*
G01*
X-7745000Y-70950000D01*
G75*
G02*
X-7895000Y-70800000I0J150000D01*
G01*
X-7895000Y-69150000D01*
G75*
G02*
X-7745000Y-69000000I150000J0D01*
G01*
G37*
%TD.AperFunction*%
%TO.P,U1,15*%
%TO.N,Net-(U1-Pad15)*%
%TA.AperFunction,SMDPad,CuDef*%
G36*
G01*
X-6475000Y-69000000D02*
X-6175000Y-69000000D01*
G75*
G02*
X-6025000Y-69150000I0J-150000D01*
G01*
X-6025000Y-70800000D01*
G75*
G02*
X-6175000Y-70950000I-150000J0D01*
G01*
X-6475000Y-70950000D01*
G75*
G02*
X-6625000Y-70800000I0J150000D01*
G01*
X-6625000Y-69150000D01*
G75*
G02*
X-6475000Y-69000000I150000J0D01*
G01*
G37*
%TD.AperFunction*%
%TO.P,U1,16*%
%TO.N,+3V0*%
%TA.AperFunction,SMDPad,CuDef*%
G36*
G01*
X-5205000Y-69000000D02*
X-4905000Y-69000000D01*
G75*
G02*
X-4755000Y-69150000I0J-150000D01*
G01*
X-4755000Y-70800000D01*
G75*
G02*
X-4905000Y-70950000I-150000J0D01*
G01*
X-5205000Y-70950000D01*
G75*
G02*
X-5355000Y-70800000I0J150000D01*
G01*
X-5355000Y-69150000D01*
G75*
G02*
X-5205000Y-69000000I150000J0D01*
G01*
G37*
%TD.AperFunction*%
%TD*%
D23*
%TO.P,U2,1*%
%TO.N,GND*%
X-32210000Y-15270000D03*
D24*
%TO.P,U2,2*%
%TO.N,+3V0*%
X-29670000Y-15270000D03*
%TO.P,U2,3*%
%TO.N,/CE*%
X-32210000Y-12730000D03*
%TO.P,U2,4*%
%TO.N,/~CSN*%
X-29670000Y-12730000D03*
%TO.P,U2,5*%
%TO.N,/SCK*%
X-32210000Y-10190000D03*
%TO.P,U2,6*%
%TO.N,/MOSI*%
X-29670000Y-10190000D03*
%TO.P,U2,7*%
%TO.N,/MISO*%
X-32210000Y-7650000D03*
%TO.P,U2,8*%
%TO.N,Net-(U2-Pad8)*%
X-29670000Y-7650000D03*
%TD*%
D25*
%TO.N,GND*%
X-36000004Y-58000000D03*
X-32749996Y-58000000D03*
%TO.N,+5V*%
X-23500000Y-68275000D03*
X-23500000Y-65149999D03*
%TD*%
D26*
%TO.N,GND*%
X-17910000Y-69257500D02*
X-16710000Y-69257500D01*
X-12904999Y-62965001D02*
X-14130000Y-61740000D01*
X-10548231Y-62965001D02*
X-12904999Y-62965001D01*
X-9509990Y-64003242D02*
X-10548231Y-62965001D01*
X-9509990Y-66026778D02*
X-9509990Y-64003242D01*
X-5055000Y-66000000D02*
X-5380010Y-66325010D01*
X-9211758Y-66325010D02*
X-9509990Y-66026778D01*
X-5380010Y-66325010D02*
X-9211758Y-66325010D01*
X-5055000Y-65025000D02*
X-5055000Y-66000000D01*
%TO.N,/ROLE*%
X-16670000Y-58170000D02*
X-16500000Y-58000000D01*
X-16670000Y-61740000D02*
X-16670000Y-58170000D01*
%TO.N,/RED*%
X-19210000Y-58210000D02*
X-19000000Y-58000000D01*
X-19210000Y-61740000D02*
X-19210000Y-58210000D01*
D27*
%TO.N,/SHUTDOWN*%
X-16670000Y-38240000D02*
X-16710000Y-38200000D01*
X-16670000Y-46500000D02*
X-16670000Y-38240000D01*
X-16010000Y-23500000D02*
X-16710000Y-24200000D01*
X-11000000Y-23500000D02*
X-16010000Y-23500000D01*
X-11000000Y-23500000D02*
X-9000000Y-23500000D01*
X-8300000Y-24200000D02*
X-8300000Y-27650000D01*
X-9000000Y-23500000D02*
X-8300000Y-24200000D01*
D26*
%TO.N,/GREEN*%
X-21500000Y-58950000D02*
X-21500000Y-58000000D01*
X-24290000Y-61740000D02*
X-21500000Y-58950000D01*
%TO.N,/BLUE*%
X-24000000Y-58910000D02*
X-24000000Y-58000000D01*
X-26830000Y-61740000D02*
X-24000000Y-58910000D01*
%TO.N,/CE*%
X-29148239Y-13817001D02*
X-31122999Y-13817001D01*
X-28132989Y-12801751D02*
X-29148239Y-13817001D01*
X-31122999Y-13817001D02*
X-32210000Y-12730000D01*
X-33104561Y-5662978D02*
X-29411849Y-5662978D01*
X-37000000Y-9558417D02*
X-33104561Y-5662978D01*
X-37000000Y-54500000D02*
X-37000000Y-9558417D01*
X-28132988Y-6941839D02*
X-28132989Y-12801751D01*
X-29411849Y-5662978D02*
X-28132988Y-6941839D01*
X-34450000Y-57050000D02*
X-37000000Y-54500000D01*
X-34450000Y-61740000D02*
X-34450000Y-57050000D01*
%TO.N,/~CSN*%
X-28582999Y-7128239D02*
X-28582999Y-11642999D01*
X-29598249Y-6112989D02*
X-28582999Y-7128239D01*
X-32918161Y-6112989D02*
X-29598249Y-6112989D01*
X-36500000Y-9694828D02*
X-32918161Y-6112989D01*
X-28582999Y-11642999D02*
X-29670000Y-12730000D01*
X-36500000Y-44450000D02*
X-36500000Y-9694828D01*
X-34450000Y-46500000D02*
X-36500000Y-44450000D01*
%TO.N,/MOSI*%
X-31688239Y-6562999D02*
X-30757001Y-7494237D01*
X-32731761Y-6562999D02*
X-31688239Y-6562999D01*
X-30757001Y-9102999D02*
X-29670000Y-10190000D01*
X-36000000Y-9831238D02*
X-32731761Y-6562999D01*
X-36000000Y-42410000D02*
X-36000000Y-9831238D01*
X-30757001Y-7494237D02*
X-30757001Y-9102999D01*
X-31910000Y-46500000D02*
X-36000000Y-42410000D01*
%TO.N,/MISO*%
X-35500000Y-10940000D02*
X-32210000Y-7650000D01*
X-35500000Y-40370000D02*
X-35500000Y-10940000D01*
X-29370000Y-46500000D02*
X-35500000Y-40370000D01*
%TO.N,/SCK*%
X-35000000Y-12980000D02*
X-32210000Y-10190000D01*
X-35000000Y-38330000D02*
X-35000000Y-12980000D01*
X-26830000Y-46500000D02*
X-35000000Y-38330000D01*
D27*
%TO.N,Net-(A1-Pad20)*%
X-24250000Y-51500000D02*
X-24250000Y-49000000D01*
X-24500000Y-46710000D02*
X-24290000Y-46500000D01*
X-24040000Y-48790000D02*
X-24250000Y-49000000D01*
X-24250000Y-46540000D02*
X-24290000Y-46500000D01*
X-24250000Y-49000000D02*
X-24250000Y-46540000D01*
D26*
%TO.N,+3V0*%
X-5055000Y-69975000D02*
X-5055000Y-68555000D01*
X-4462500Y-67962500D02*
X-3000000Y-67962500D01*
X-5055000Y-68555000D02*
X-4462500Y-67962500D01*
D27*
X-2619999Y-51499999D02*
X-3970000Y-52850000D01*
X-2619999Y-28730001D02*
X-2619999Y-51499999D01*
X-3700000Y-27650000D02*
X-2619999Y-28730001D01*
X-2169989Y-61169989D02*
X-3000000Y-62000000D01*
X-2169989Y-54650011D02*
X-2169989Y-61169989D01*
X-3970000Y-52850000D02*
X-2169989Y-54650011D01*
X-3000000Y-62000000D02*
X-3000000Y-67962500D01*
X-3889998Y-19750000D02*
X-25190000Y-19750000D01*
X-25190000Y-19750000D02*
X-29670000Y-15270000D01*
X-3250000Y-20389998D02*
X-3889998Y-19750000D01*
X-3250000Y-27200000D02*
X-3250000Y-20389998D01*
X-3700000Y-27650000D02*
X-3250000Y-27200000D01*
%TO.N,+5V*%
X-12660010Y-52650010D02*
X-6510000Y-46500000D01*
X-25099990Y-52650010D02*
X-12660010Y-52650010D01*
X-26250000Y-51500000D02*
X-25099990Y-52650010D01*
D26*
X-26100001Y-65149999D02*
X-23500000Y-65149999D01*
X-28144999Y-63105001D02*
X-26100001Y-65149999D01*
X-28144999Y-60605001D02*
X-28144999Y-63105001D01*
D27*
X-26250000Y-58710002D02*
X-28144999Y-60605001D01*
X-26250000Y-51500000D02*
X-26250000Y-58710002D01*
D26*
X-23225000Y-68000000D02*
X-23500000Y-68275000D01*
X-20842500Y-68000000D02*
X-23225000Y-68000000D01*
X-20510000Y-68332500D02*
X-20842500Y-68000000D01*
X-20510000Y-69257500D02*
X-20510000Y-68332500D01*
%TO.N,/TXD*%
X-2744999Y-56615001D02*
X-3970000Y-55390000D01*
X-2744999Y-58518001D02*
X-2744999Y-56615001D01*
X-3381999Y-59155001D02*
X-2744999Y-58518001D01*
X-4468003Y-59155001D02*
X-3381999Y-59155001D01*
X-5195001Y-59881999D02*
X-4468003Y-59155001D01*
X-5195001Y-62920001D02*
X-5195001Y-59881999D01*
X-6325000Y-64050000D02*
X-5195001Y-62920001D01*
X-6325000Y-65025000D02*
X-6325000Y-64050000D01*
%TO.N,/RXD*%
X-5085002Y-57930000D02*
X-3970000Y-57930000D01*
X-7735001Y-60579999D02*
X-5085002Y-57930000D01*
X-7735001Y-64884999D02*
X-7735001Y-60579999D01*
X-7595000Y-65025000D02*
X-7735001Y-64884999D01*
%TO.N,/~DTR*%
X-3970000Y-66470000D02*
X-3970000Y-60470000D01*
X-5000000Y-67500000D02*
X-3970000Y-66470000D01*
X-7365000Y-67500000D02*
X-5000000Y-67500000D01*
X-8865000Y-69000000D02*
X-7365000Y-67500000D01*
X-8865000Y-69975000D02*
X-8865000Y-69000000D01*
D28*
%TO.N,/Vbatt*%
X-31462416Y-31220000D02*
X-31462416Y-25462416D01*
X-30200000Y-24200000D02*
X-21710000Y-24200000D01*
X-31462416Y-25462416D02*
X-30200000Y-24200000D01*
X-21710000Y-24200000D02*
X-21710000Y-22710000D01*
X-20350000Y-21350000D02*
X-6000000Y-21350000D01*
X-21710000Y-22710000D02*
X-20350000Y-21350000D01*
X-6000000Y-27650000D02*
X-6000000Y-21350000D01*
D26*
%TO.N,Net-(C1-Pad1)*%
X-13675000Y-67000000D02*
X-12675000Y-66000000D01*
X-27500000Y-67000000D02*
X-13675000Y-67000000D01*
X-12675000Y-66000000D02*
X-12675000Y-65025000D01*
X-28000000Y-67500000D02*
X-27500000Y-67000000D01*
X-28000000Y-69500000D02*
X-27500000Y-70000000D01*
X-28000000Y-67500000D02*
X-28000000Y-69500000D01*
%TO.N,Net-(C2-Pad1)*%
X-15344999Y-66424999D02*
X-13945000Y-65025000D01*
X-31804999Y-66424999D02*
X-15344999Y-66424999D01*
X-32880000Y-67500000D02*
X-31804999Y-66424999D01*
X-32880000Y-69342500D02*
X-33537500Y-70000000D01*
X-32880000Y-67500000D02*
X-32880000Y-69342500D01*
%TO.N,Net-(C3-Pad2)*%
X-10364999Y-59172501D02*
X-10500000Y-59037500D01*
X-8865000Y-63738002D02*
X-10364999Y-62238003D01*
X-10364999Y-62238003D02*
X-10364999Y-59172501D01*
X-8865000Y-65025000D02*
X-8865000Y-63738002D01*
%TO.N,Net-(J1-Pad2)*%
X-11405000Y-66000000D02*
X-11405000Y-65025000D01*
X-12855010Y-67450010D02*
X-11405000Y-66000000D01*
X-18862512Y-67450010D02*
X-12855010Y-67450010D01*
X-19860000Y-68447498D02*
X-18862512Y-67450010D01*
X-19860000Y-69257500D02*
X-19860000Y-68447498D01*
%TO.N,Net-(J1-Pad3)*%
X-10135000Y-66000000D02*
X-10135000Y-65025000D01*
X-12035020Y-67900020D02*
X-10135000Y-66000000D01*
X-18662522Y-67900020D02*
X-12035020Y-67900020D01*
X-19210000Y-68447498D02*
X-18662522Y-67900020D01*
X-19210000Y-69257500D02*
X-19210000Y-68447498D01*
%TD*%
D29*
%TO.N,GND*%
X-35209999Y-57364803D02*
X-35210000Y-60401687D01*
X-35428505Y-60547688D01*
X-35642312Y-60761495D01*
X-35810299Y-61012905D01*
X-35926011Y-61292257D01*
X-35985000Y-61588816D01*
X-35985000Y-61891184D01*
X-35926011Y-62187743D01*
X-35810299Y-62467095D01*
X-35642312Y-62718505D01*
X-35428505Y-62932312D01*
X-35177095Y-63100299D01*
X-34897743Y-63216011D01*
X-34601184Y-63275000D01*
X-34298816Y-63275000D01*
X-34002257Y-63216011D01*
X-33722905Y-63100299D01*
X-33471495Y-62932312D01*
X-33257688Y-62718505D01*
X-33180000Y-62602237D01*
X-33102312Y-62718505D01*
X-32888505Y-62932312D01*
X-32637095Y-63100299D01*
X-32357743Y-63216011D01*
X-32061184Y-63275000D01*
X-31758816Y-63275000D01*
X-31462257Y-63216011D01*
X-31182905Y-63100299D01*
X-30931495Y-62932312D01*
X-30717688Y-62718505D01*
X-30640000Y-62602237D01*
X-30562312Y-62718505D01*
X-30348505Y-62932312D01*
X-30097095Y-63100299D01*
X-29817743Y-63216011D01*
X-29521184Y-63275000D01*
X-29218816Y-63275000D01*
X-28922257Y-63216011D01*
X-28898702Y-63206254D01*
X-28894001Y-63253987D01*
X-28884192Y-63286323D01*
X-28850545Y-63397247D01*
X-28779973Y-63529277D01*
X-28722904Y-63598815D01*
X-28684999Y-63645002D01*
X-28656001Y-63668800D01*
X-26663800Y-65661002D01*
X-26660520Y-65664999D01*
X-31767677Y-65664999D01*
X-31804999Y-65661323D01*
X-31842322Y-65664999D01*
X-31842332Y-65664999D01*
X-31953985Y-65675996D01*
X-32097246Y-65719453D01*
X-32229276Y-65790025D01*
X-32284109Y-65835026D01*
X-32345000Y-65884998D01*
X-32368798Y-65913996D01*
X-32598635Y-66143833D01*
X-32743589Y-66115000D01*
X-33016411Y-66115000D01*
X-33283989Y-66168225D01*
X-33536043Y-66272629D01*
X-33762886Y-66424201D01*
X-33955799Y-66617114D01*
X-34107371Y-66843957D01*
X-34211775Y-67096011D01*
X-34265000Y-67363589D01*
X-34265000Y-67636411D01*
X-34211775Y-67903989D01*
X-34107371Y-68156043D01*
X-33955799Y-68382886D01*
X-33762886Y-68575799D01*
X-33671400Y-68636928D01*
X-33875000Y-68636928D01*
X-34048254Y-68653992D01*
X-34214850Y-68704528D01*
X-34368386Y-68786595D01*
X-34502962Y-68897038D01*
X-34613405Y-69031614D01*
X-34695472Y-69185150D01*
X-34746008Y-69351746D01*
X-34763072Y-69525000D01*
X-34763072Y-70475000D01*
X-34746008Y-70648254D01*
X-34695472Y-70814850D01*
X-34613405Y-70968386D01*
X-34502962Y-71102962D01*
X-34368386Y-71213405D01*
X-34214850Y-71295472D01*
X-34048254Y-71346008D01*
X-33875000Y-71363072D01*
X-33200000Y-71363072D01*
X-33026746Y-71346008D01*
X-32860150Y-71295472D01*
X-32706614Y-71213405D01*
X-32572038Y-71102962D01*
X-32566658Y-71096406D01*
X-32501185Y-71176185D01*
X-32404494Y-71255537D01*
X-32294180Y-71314502D01*
X-32174482Y-71350812D01*
X-32050000Y-71363072D01*
X-31748250Y-71360000D01*
X-31589500Y-71201250D01*
X-31589500Y-70127000D01*
X-31335500Y-70127000D01*
X-31335500Y-71201250D01*
X-31176750Y-71360000D01*
X-30875000Y-71363072D01*
X-30750518Y-71350812D01*
X-30630820Y-71314502D01*
X-30520506Y-71255537D01*
X-30518750Y-71254096D01*
X-30516994Y-71255537D01*
X-30406680Y-71314502D01*
X-30286982Y-71350812D01*
X-30162500Y-71363072D01*
X-29860750Y-71360000D01*
X-29702000Y-71201250D01*
X-29702000Y-70127000D01*
X-31335500Y-70127000D01*
X-31589500Y-70127000D01*
X-31609500Y-70127000D01*
X-31609500Y-69873000D01*
X-31589500Y-69873000D01*
X-31589500Y-68798750D01*
X-31335500Y-68798750D01*
X-31335500Y-69873000D01*
X-29702000Y-69873000D01*
X-29702000Y-68798750D01*
X-29860750Y-68640000D01*
X-30162500Y-68636928D01*
X-30286982Y-68649188D01*
X-30406680Y-68685498D01*
X-30516994Y-68744463D01*
X-30518750Y-68745904D01*
X-30520506Y-68744463D01*
X-30630820Y-68685498D01*
X-30750518Y-68649188D01*
X-30875000Y-68636928D01*
X-31176750Y-68640000D01*
X-31335500Y-68798750D01*
X-31589500Y-68798750D01*
X-31748250Y-68640000D01*
X-32050000Y-68636928D01*
X-32095273Y-68641387D01*
X-31997114Y-68575799D01*
X-31804201Y-68382886D01*
X-31652629Y-68156043D01*
X-31548225Y-67903989D01*
X-31495000Y-67636411D01*
X-31495000Y-67363589D01*
X-31523833Y-67218635D01*
X-31490197Y-67184999D01*
X-29349476Y-67184999D01*
X-29385000Y-67363589D01*
X-29385000Y-67636411D01*
X-29331775Y-67903989D01*
X-29227371Y-68156043D01*
X-29075799Y-68382886D01*
X-28882886Y-68575799D01*
X-28759999Y-68657909D01*
X-28759999Y-68680438D01*
X-28863018Y-68649188D01*
X-28987500Y-68636928D01*
X-29289250Y-68640000D01*
X-29448000Y-68798750D01*
X-29448000Y-69873000D01*
X-29428000Y-69873000D01*
X-29428000Y-70127000D01*
X-29448000Y-70127000D01*
X-29448000Y-71201250D01*
X-29289250Y-71360000D01*
X-28987500Y-71363072D01*
X-28863018Y-71350812D01*
X-28743320Y-71314502D01*
X-28633006Y-71255537D01*
X-28536315Y-71176185D01*
X-28470842Y-71096406D01*
X-28465462Y-71102962D01*
X-28330886Y-71213405D01*
X-28177350Y-71295472D01*
X-28010754Y-71346008D01*
X-27837500Y-71363072D01*
X-27162500Y-71363072D01*
X-26989246Y-71346008D01*
X-26822650Y-71295472D01*
X-26669114Y-71213405D01*
X-26534538Y-71102962D01*
X-26424095Y-70968386D01*
X-26342028Y-70814850D01*
X-26291492Y-70648254D01*
X-26274428Y-70475000D01*
X-26274428Y-69525000D01*
X-26291492Y-69351746D01*
X-26342028Y-69185150D01*
X-26424095Y-69031614D01*
X-26534538Y-68897038D01*
X-26669114Y-68786595D01*
X-26822650Y-68704528D01*
X-26989246Y-68653992D01*
X-27162500Y-68636928D01*
X-27208600Y-68636928D01*
X-27117114Y-68575799D01*
X-26924201Y-68382886D01*
X-26772629Y-68156043D01*
X-26668225Y-67903989D01*
X-26639584Y-67760000D01*
X-25002271Y-67760000D01*
X-25024089Y-67812673D01*
X-25085000Y-68118891D01*
X-25085000Y-68431109D01*
X-25024089Y-68737327D01*
X-24904609Y-69025779D01*
X-24731150Y-69285379D01*
X-24510379Y-69506150D01*
X-24250779Y-69679609D01*
X-23962327Y-69799089D01*
X-23656109Y-69860000D01*
X-23343891Y-69860000D01*
X-23037673Y-69799089D01*
X-22970351Y-69771203D01*
X-22942609Y-69847600D01*
X-22885450Y-69954535D01*
X-22649133Y-70017028D01*
X-21889605Y-69257500D01*
X-21903747Y-69243358D01*
X-21724142Y-69063753D01*
X-21710000Y-69077895D01*
X-21695857Y-69063753D01*
X-21516252Y-69243358D01*
X-21530395Y-69257500D01*
X-21516252Y-69271643D01*
X-21695857Y-69451248D01*
X-21710000Y-69437105D01*
X-22469528Y-70196633D01*
X-22423091Y-70372233D01*
X-22710000Y-70369428D01*
X-22741192Y-70372500D01*
X-22837002Y-70372500D01*
X-22837002Y-70382452D01*
X-22954180Y-70417998D01*
X-22991265Y-70437821D01*
X-23027609Y-70414038D01*
X-23065282Y-70417909D01*
X-23290533Y-70510079D01*
X-23493474Y-70644422D01*
X-23666307Y-70815775D01*
X-23802390Y-71017554D01*
X-23896493Y-71242004D01*
X-23945000Y-71480500D01*
X-23945000Y-71830500D01*
X-20337000Y-71830500D01*
X-20337000Y-71810500D01*
X-20083000Y-71810500D01*
X-20083000Y-71830500D01*
X-18337000Y-71830500D01*
X-18337000Y-71810500D01*
X-18083000Y-71810500D01*
X-18083000Y-71830500D01*
X-14475000Y-71830500D01*
X-14475000Y-71543803D01*
X-14369482Y-71575812D01*
X-14245000Y-71588072D01*
X-14230750Y-71585000D01*
X-14072000Y-71426250D01*
X-14072000Y-70102000D01*
X-14721250Y-70102000D01*
X-14880000Y-70260750D01*
X-14881907Y-70688659D01*
X-14926526Y-70644422D01*
X-15129467Y-70510079D01*
X-15354718Y-70417909D01*
X-15392391Y-70414038D01*
X-15428735Y-70437821D01*
X-15465820Y-70417998D01*
X-15582998Y-70382452D01*
X-15582998Y-70372500D01*
X-15678808Y-70372500D01*
X-15710000Y-70369428D01*
X-15996909Y-70372233D01*
X-15950472Y-70196633D01*
X-16710000Y-69437105D01*
X-16724142Y-69451248D01*
X-16903747Y-69271643D01*
X-16889605Y-69257500D01*
X-16903747Y-69243358D01*
X-16724142Y-69063753D01*
X-16710000Y-69077895D01*
X-16695857Y-69063753D01*
X-16516252Y-69243358D01*
X-16530395Y-69257500D01*
X-15770867Y-70017028D01*
X-15534550Y-69954535D01*
X-15421150Y-69711822D01*
X-15357281Y-69451651D01*
X-15345396Y-69184018D01*
X-15385952Y-68919209D01*
X-15477391Y-68667400D01*
X-15481336Y-68660020D01*
X-14783295Y-68660020D01*
X-14834502Y-68755820D01*
X-14870812Y-68875518D01*
X-14883072Y-69000000D01*
X-14880000Y-69689250D01*
X-14721250Y-69848000D01*
X-14072000Y-69848000D01*
X-14072000Y-69828000D01*
X-13818000Y-69828000D01*
X-13818000Y-69848000D01*
X-13798000Y-69848000D01*
X-13798000Y-70102000D01*
X-13818000Y-70102000D01*
X-13818000Y-71426250D01*
X-13659250Y-71585000D01*
X-13645000Y-71588072D01*
X-13520518Y-71575812D01*
X-13400820Y-71539502D01*
X-13290506Y-71480537D01*
X-13260936Y-71456270D01*
X-13126582Y-71528084D01*
X-12978745Y-71572929D01*
X-12825000Y-71588072D01*
X-12525000Y-71588072D01*
X-12371255Y-71572929D01*
X-12223418Y-71528084D01*
X-12087171Y-71455258D01*
X-12040000Y-71416546D01*
X-11992829Y-71455258D01*
X-11856582Y-71528084D01*
X-11708745Y-71572929D01*
X-11555000Y-71588072D01*
X-11255000Y-71588072D01*
X-11101255Y-71572929D01*
X-10953418Y-71528084D01*
X-10817171Y-71455258D01*
X-10770000Y-71416546D01*
X-10722829Y-71455258D01*
X-10586582Y-71528084D01*
X-10438745Y-71572929D01*
X-10285000Y-71588072D01*
X-9985000Y-71588072D01*
X-9831255Y-71572929D01*
X-9683418Y-71528084D01*
X-9547171Y-71455258D01*
X-9500000Y-71416546D01*
X-9452829Y-71455258D01*
X-9316582Y-71528084D01*
X-9168745Y-71572929D01*
X-9015000Y-71588072D01*
X-8715000Y-71588072D01*
X-8561255Y-71572929D01*
X-8413418Y-71528084D01*
X-8277171Y-71455258D01*
X-8230000Y-71416546D01*
X-8182829Y-71455258D01*
X-8046582Y-71528084D01*
X-7898745Y-71572929D01*
X-7745000Y-71588072D01*
X-7445000Y-71588072D01*
X-7291255Y-71572929D01*
X-7143418Y-71528084D01*
X-7007171Y-71455258D01*
X-6960000Y-71416546D01*
X-6912829Y-71455258D01*
X-6776582Y-71528084D01*
X-6628745Y-71572929D01*
X-6475000Y-71588072D01*
X-6175000Y-71588072D01*
X-6021255Y-71572929D01*
X-5873418Y-71528084D01*
X-5737171Y-71455258D01*
X-5690000Y-71416546D01*
X-5642829Y-71455258D01*
X-5506582Y-71528084D01*
X-5358745Y-71572929D01*
X-5205000Y-71588072D01*
X-4905000Y-71588072D01*
X-4751255Y-71572929D01*
X-4603418Y-71528084D01*
X-4467171Y-71455258D01*
X-4347749Y-71357251D01*
X-4249742Y-71237829D01*
X-4176916Y-71101582D01*
X-4170602Y-71080767D01*
X-4079494Y-71155537D01*
X-3969180Y-71214502D01*
X-3849482Y-71250812D01*
X-3725000Y-71263072D01*
X-3285750Y-71260000D01*
X-3127000Y-71101250D01*
X-3127000Y-70164500D01*
X-3147000Y-70164500D01*
X-3147000Y-69910500D01*
X-3127000Y-69910500D01*
X-3127000Y-69890500D01*
X-2873000Y-69890500D01*
X-2873000Y-69910500D01*
X-2853000Y-69910500D01*
X-2853000Y-70164500D01*
X-2873000Y-70164500D01*
X-2873000Y-71101250D01*
X-2714250Y-71260000D01*
X-2275000Y-71263072D01*
X-2150518Y-71250812D01*
X-2030820Y-71214502D01*
X-1920506Y-71155537D01*
X-1823815Y-71076185D01*
X-1744463Y-70979494D01*
X-1685498Y-70869180D01*
X-1660000Y-70785124D01*
X-1660000Y-72467721D01*
X-1669580Y-72565424D01*
X-1688580Y-72628357D01*
X-1719446Y-72686406D01*
X-1760989Y-72737343D01*
X-1811644Y-72779248D01*
X-1869471Y-72810515D01*
X-1932272Y-72829956D01*
X-2027835Y-72840000D01*
X-14593525Y-72840000D01*
X-14523507Y-72672996D01*
X-14475000Y-72434500D01*
X-14475000Y-72084500D01*
X-18083000Y-72084500D01*
X-18083000Y-72104500D01*
X-18337000Y-72104500D01*
X-18337000Y-72084500D01*
X-20083000Y-72084500D01*
X-20083000Y-72104500D01*
X-20337000Y-72104500D01*
X-20337000Y-72084500D01*
X-23945000Y-72084500D01*
X-23945000Y-72434500D01*
X-23896493Y-72672996D01*
X-23826475Y-72840000D01*
X-36467721Y-72840000D01*
X-36565424Y-72830420D01*
X-36628357Y-72811420D01*
X-36686406Y-72780554D01*
X-36737343Y-72739011D01*
X-36779248Y-72688356D01*
X-36810515Y-72630529D01*
X-36829956Y-72567728D01*
X-36840000Y-72472165D01*
X-36840000Y-55734801D01*
X-35209999Y-57364803D01*
%TA.AperFunction,Conductor*%
D30*
G36*
X-35209999Y-57364803D02*
G01*
X-35210000Y-60401687D01*
X-35428505Y-60547688D01*
X-35642312Y-60761495D01*
X-35810299Y-61012905D01*
X-35926011Y-61292257D01*
X-35985000Y-61588816D01*
X-35985000Y-61891184D01*
X-35926011Y-62187743D01*
X-35810299Y-62467095D01*
X-35642312Y-62718505D01*
X-35428505Y-62932312D01*
X-35177095Y-63100299D01*
X-34897743Y-63216011D01*
X-34601184Y-63275000D01*
X-34298816Y-63275000D01*
X-34002257Y-63216011D01*
X-33722905Y-63100299D01*
X-33471495Y-62932312D01*
X-33257688Y-62718505D01*
X-33180000Y-62602237D01*
X-33102312Y-62718505D01*
X-32888505Y-62932312D01*
X-32637095Y-63100299D01*
X-32357743Y-63216011D01*
X-32061184Y-63275000D01*
X-31758816Y-63275000D01*
X-31462257Y-63216011D01*
X-31182905Y-63100299D01*
X-30931495Y-62932312D01*
X-30717688Y-62718505D01*
X-30640000Y-62602237D01*
X-30562312Y-62718505D01*
X-30348505Y-62932312D01*
X-30097095Y-63100299D01*
X-29817743Y-63216011D01*
X-29521184Y-63275000D01*
X-29218816Y-63275000D01*
X-28922257Y-63216011D01*
X-28898702Y-63206254D01*
X-28894001Y-63253987D01*
X-28884192Y-63286323D01*
X-28850545Y-63397247D01*
X-28779973Y-63529277D01*
X-28722904Y-63598815D01*
X-28684999Y-63645002D01*
X-28656001Y-63668800D01*
X-26663800Y-65661002D01*
X-26660520Y-65664999D01*
X-31767677Y-65664999D01*
X-31804999Y-65661323D01*
X-31842322Y-65664999D01*
X-31842332Y-65664999D01*
X-31953985Y-65675996D01*
X-32097246Y-65719453D01*
X-32229276Y-65790025D01*
X-32284109Y-65835026D01*
X-32345000Y-65884998D01*
X-32368798Y-65913996D01*
X-32598635Y-66143833D01*
X-32743589Y-66115000D01*
X-33016411Y-66115000D01*
X-33283989Y-66168225D01*
X-33536043Y-66272629D01*
X-33762886Y-66424201D01*
X-33955799Y-66617114D01*
X-34107371Y-66843957D01*
X-34211775Y-67096011D01*
X-34265000Y-67363589D01*
X-34265000Y-67636411D01*
X-34211775Y-67903989D01*
X-34107371Y-68156043D01*
X-33955799Y-68382886D01*
X-33762886Y-68575799D01*
X-33671400Y-68636928D01*
X-33875000Y-68636928D01*
X-34048254Y-68653992D01*
X-34214850Y-68704528D01*
X-34368386Y-68786595D01*
X-34502962Y-68897038D01*
X-34613405Y-69031614D01*
X-34695472Y-69185150D01*
X-34746008Y-69351746D01*
X-34763072Y-69525000D01*
X-34763072Y-70475000D01*
X-34746008Y-70648254D01*
X-34695472Y-70814850D01*
X-34613405Y-70968386D01*
X-34502962Y-71102962D01*
X-34368386Y-71213405D01*
X-34214850Y-71295472D01*
X-34048254Y-71346008D01*
X-33875000Y-71363072D01*
X-33200000Y-71363072D01*
X-33026746Y-71346008D01*
X-32860150Y-71295472D01*
X-32706614Y-71213405D01*
X-32572038Y-71102962D01*
X-32566658Y-71096406D01*
X-32501185Y-71176185D01*
X-32404494Y-71255537D01*
X-32294180Y-71314502D01*
X-32174482Y-71350812D01*
X-32050000Y-71363072D01*
X-31748250Y-71360000D01*
X-31589500Y-71201250D01*
X-31589500Y-70127000D01*
X-31335500Y-70127000D01*
X-31335500Y-71201250D01*
X-31176750Y-71360000D01*
X-30875000Y-71363072D01*
X-30750518Y-71350812D01*
X-30630820Y-71314502D01*
X-30520506Y-71255537D01*
X-30518750Y-71254096D01*
X-30516994Y-71255537D01*
X-30406680Y-71314502D01*
X-30286982Y-71350812D01*
X-30162500Y-71363072D01*
X-29860750Y-71360000D01*
X-29702000Y-71201250D01*
X-29702000Y-70127000D01*
X-31335500Y-70127000D01*
X-31589500Y-70127000D01*
X-31609500Y-70127000D01*
X-31609500Y-69873000D01*
X-31589500Y-69873000D01*
X-31589500Y-68798750D01*
X-31335500Y-68798750D01*
X-31335500Y-69873000D01*
X-29702000Y-69873000D01*
X-29702000Y-68798750D01*
X-29860750Y-68640000D01*
X-30162500Y-68636928D01*
X-30286982Y-68649188D01*
X-30406680Y-68685498D01*
X-30516994Y-68744463D01*
X-30518750Y-68745904D01*
X-30520506Y-68744463D01*
X-30630820Y-68685498D01*
X-30750518Y-68649188D01*
X-30875000Y-68636928D01*
X-31176750Y-68640000D01*
X-31335500Y-68798750D01*
X-31589500Y-68798750D01*
X-31748250Y-68640000D01*
X-32050000Y-68636928D01*
X-32095273Y-68641387D01*
X-31997114Y-68575799D01*
X-31804201Y-68382886D01*
X-31652629Y-68156043D01*
X-31548225Y-67903989D01*
X-31495000Y-67636411D01*
X-31495000Y-67363589D01*
X-31523833Y-67218635D01*
X-31490197Y-67184999D01*
X-29349476Y-67184999D01*
X-29385000Y-67363589D01*
X-29385000Y-67636411D01*
X-29331775Y-67903989D01*
X-29227371Y-68156043D01*
X-29075799Y-68382886D01*
X-28882886Y-68575799D01*
X-28759999Y-68657909D01*
X-28759999Y-68680438D01*
X-28863018Y-68649188D01*
X-28987500Y-68636928D01*
X-29289250Y-68640000D01*
X-29448000Y-68798750D01*
X-29448000Y-69873000D01*
X-29428000Y-69873000D01*
X-29428000Y-70127000D01*
X-29448000Y-70127000D01*
X-29448000Y-71201250D01*
X-29289250Y-71360000D01*
X-28987500Y-71363072D01*
X-28863018Y-71350812D01*
X-28743320Y-71314502D01*
X-28633006Y-71255537D01*
X-28536315Y-71176185D01*
X-28470842Y-71096406D01*
X-28465462Y-71102962D01*
X-28330886Y-71213405D01*
X-28177350Y-71295472D01*
X-28010754Y-71346008D01*
X-27837500Y-71363072D01*
X-27162500Y-71363072D01*
X-26989246Y-71346008D01*
X-26822650Y-71295472D01*
X-26669114Y-71213405D01*
X-26534538Y-71102962D01*
X-26424095Y-70968386D01*
X-26342028Y-70814850D01*
X-26291492Y-70648254D01*
X-26274428Y-70475000D01*
X-26274428Y-69525000D01*
X-26291492Y-69351746D01*
X-26342028Y-69185150D01*
X-26424095Y-69031614D01*
X-26534538Y-68897038D01*
X-26669114Y-68786595D01*
X-26822650Y-68704528D01*
X-26989246Y-68653992D01*
X-27162500Y-68636928D01*
X-27208600Y-68636928D01*
X-27117114Y-68575799D01*
X-26924201Y-68382886D01*
X-26772629Y-68156043D01*
X-26668225Y-67903989D01*
X-26639584Y-67760000D01*
X-25002271Y-67760000D01*
X-25024089Y-67812673D01*
X-25085000Y-68118891D01*
X-25085000Y-68431109D01*
X-25024089Y-68737327D01*
X-24904609Y-69025779D01*
X-24731150Y-69285379D01*
X-24510379Y-69506150D01*
X-24250779Y-69679609D01*
X-23962327Y-69799089D01*
X-23656109Y-69860000D01*
X-23343891Y-69860000D01*
X-23037673Y-69799089D01*
X-22970351Y-69771203D01*
X-22942609Y-69847600D01*
X-22885450Y-69954535D01*
X-22649133Y-70017028D01*
X-21889605Y-69257500D01*
X-21903747Y-69243358D01*
X-21724142Y-69063753D01*
X-21710000Y-69077895D01*
X-21695857Y-69063753D01*
X-21516252Y-69243358D01*
X-21530395Y-69257500D01*
X-21516252Y-69271643D01*
X-21695857Y-69451248D01*
X-21710000Y-69437105D01*
X-22469528Y-70196633D01*
X-22423091Y-70372233D01*
X-22710000Y-70369428D01*
X-22741192Y-70372500D01*
X-22837002Y-70372500D01*
X-22837002Y-70382452D01*
X-22954180Y-70417998D01*
X-22991265Y-70437821D01*
X-23027609Y-70414038D01*
X-23065282Y-70417909D01*
X-23290533Y-70510079D01*
X-23493474Y-70644422D01*
X-23666307Y-70815775D01*
X-23802390Y-71017554D01*
X-23896493Y-71242004D01*
X-23945000Y-71480500D01*
X-23945000Y-71830500D01*
X-20337000Y-71830500D01*
X-20337000Y-71810500D01*
X-20083000Y-71810500D01*
X-20083000Y-71830500D01*
X-18337000Y-71830500D01*
X-18337000Y-71810500D01*
X-18083000Y-71810500D01*
X-18083000Y-71830500D01*
X-14475000Y-71830500D01*
X-14475000Y-71543803D01*
X-14369482Y-71575812D01*
X-14245000Y-71588072D01*
X-14230750Y-71585000D01*
X-14072000Y-71426250D01*
X-14072000Y-70102000D01*
X-14721250Y-70102000D01*
X-14880000Y-70260750D01*
X-14881907Y-70688659D01*
X-14926526Y-70644422D01*
X-15129467Y-70510079D01*
X-15354718Y-70417909D01*
X-15392391Y-70414038D01*
X-15428735Y-70437821D01*
X-15465820Y-70417998D01*
X-15582998Y-70382452D01*
X-15582998Y-70372500D01*
X-15678808Y-70372500D01*
X-15710000Y-70369428D01*
X-15996909Y-70372233D01*
X-15950472Y-70196633D01*
X-16710000Y-69437105D01*
X-16724142Y-69451248D01*
X-16903747Y-69271643D01*
X-16889605Y-69257500D01*
X-16903747Y-69243358D01*
X-16724142Y-69063753D01*
X-16710000Y-69077895D01*
X-16695857Y-69063753D01*
X-16516252Y-69243358D01*
X-16530395Y-69257500D01*
X-15770867Y-70017028D01*
X-15534550Y-69954535D01*
X-15421150Y-69711822D01*
X-15357281Y-69451651D01*
X-15345396Y-69184018D01*
X-15385952Y-68919209D01*
X-15477391Y-68667400D01*
X-15481336Y-68660020D01*
X-14783295Y-68660020D01*
X-14834502Y-68755820D01*
X-14870812Y-68875518D01*
X-14883072Y-69000000D01*
X-14880000Y-69689250D01*
X-14721250Y-69848000D01*
X-14072000Y-69848000D01*
X-14072000Y-69828000D01*
X-13818000Y-69828000D01*
X-13818000Y-69848000D01*
X-13798000Y-69848000D01*
X-13798000Y-70102000D01*
X-13818000Y-70102000D01*
X-13818000Y-71426250D01*
X-13659250Y-71585000D01*
X-13645000Y-71588072D01*
X-13520518Y-71575812D01*
X-13400820Y-71539502D01*
X-13290506Y-71480537D01*
X-13260936Y-71456270D01*
X-13126582Y-71528084D01*
X-12978745Y-71572929D01*
X-12825000Y-71588072D01*
X-12525000Y-71588072D01*
X-12371255Y-71572929D01*
X-12223418Y-71528084D01*
X-12087171Y-71455258D01*
X-12040000Y-71416546D01*
X-11992829Y-71455258D01*
X-11856582Y-71528084D01*
X-11708745Y-71572929D01*
X-11555000Y-71588072D01*
X-11255000Y-71588072D01*
X-11101255Y-71572929D01*
X-10953418Y-71528084D01*
X-10817171Y-71455258D01*
X-10770000Y-71416546D01*
X-10722829Y-71455258D01*
X-10586582Y-71528084D01*
X-10438745Y-71572929D01*
X-10285000Y-71588072D01*
X-9985000Y-71588072D01*
X-9831255Y-71572929D01*
X-9683418Y-71528084D01*
X-9547171Y-71455258D01*
X-9500000Y-71416546D01*
X-9452829Y-71455258D01*
X-9316582Y-71528084D01*
X-9168745Y-71572929D01*
X-9015000Y-71588072D01*
X-8715000Y-71588072D01*
X-8561255Y-71572929D01*
X-8413418Y-71528084D01*
X-8277171Y-71455258D01*
X-8230000Y-71416546D01*
X-8182829Y-71455258D01*
X-8046582Y-71528084D01*
X-7898745Y-71572929D01*
X-7745000Y-71588072D01*
X-7445000Y-71588072D01*
X-7291255Y-71572929D01*
X-7143418Y-71528084D01*
X-7007171Y-71455258D01*
X-6960000Y-71416546D01*
X-6912829Y-71455258D01*
X-6776582Y-71528084D01*
X-6628745Y-71572929D01*
X-6475000Y-71588072D01*
X-6175000Y-71588072D01*
X-6021255Y-71572929D01*
X-5873418Y-71528084D01*
X-5737171Y-71455258D01*
X-5690000Y-71416546D01*
X-5642829Y-71455258D01*
X-5506582Y-71528084D01*
X-5358745Y-71572929D01*
X-5205000Y-71588072D01*
X-4905000Y-71588072D01*
X-4751255Y-71572929D01*
X-4603418Y-71528084D01*
X-4467171Y-71455258D01*
X-4347749Y-71357251D01*
X-4249742Y-71237829D01*
X-4176916Y-71101582D01*
X-4170602Y-71080767D01*
X-4079494Y-71155537D01*
X-3969180Y-71214502D01*
X-3849482Y-71250812D01*
X-3725000Y-71263072D01*
X-3285750Y-71260000D01*
X-3127000Y-71101250D01*
X-3127000Y-70164500D01*
X-3147000Y-70164500D01*
X-3147000Y-69910500D01*
X-3127000Y-69910500D01*
X-3127000Y-69890500D01*
X-2873000Y-69890500D01*
X-2873000Y-69910500D01*
X-2853000Y-69910500D01*
X-2853000Y-70164500D01*
X-2873000Y-70164500D01*
X-2873000Y-71101250D01*
X-2714250Y-71260000D01*
X-2275000Y-71263072D01*
X-2150518Y-71250812D01*
X-2030820Y-71214502D01*
X-1920506Y-71155537D01*
X-1823815Y-71076185D01*
X-1744463Y-70979494D01*
X-1685498Y-70869180D01*
X-1660000Y-70785124D01*
X-1660000Y-72467721D01*
X-1669580Y-72565424D01*
X-1688580Y-72628357D01*
X-1719446Y-72686406D01*
X-1760989Y-72737343D01*
X-1811644Y-72779248D01*
X-1869471Y-72810515D01*
X-1932272Y-72829956D01*
X-2027835Y-72840000D01*
X-14593525Y-72840000D01*
X-14523507Y-72672996D01*
X-14475000Y-72434500D01*
X-14475000Y-72084500D01*
X-18083000Y-72084500D01*
X-18083000Y-72104500D01*
X-18337000Y-72104500D01*
X-18337000Y-72084500D01*
X-20083000Y-72084500D01*
X-20083000Y-72104500D01*
X-20337000Y-72104500D01*
X-20337000Y-72084500D01*
X-23945000Y-72084500D01*
X-23945000Y-72434500D01*
X-23896493Y-72672996D01*
X-23826475Y-72840000D01*
X-36467721Y-72840000D01*
X-36565424Y-72830420D01*
X-36628357Y-72811420D01*
X-36686406Y-72780554D01*
X-36737343Y-72739011D01*
X-36779248Y-72688356D01*
X-36810515Y-72630529D01*
X-36829956Y-72567728D01*
X-36840000Y-72472165D01*
X-36840000Y-55734801D01*
X-35209999Y-57364803D01*
G37*
%TD.AperFunction*%
D29*
X-4928000Y-64898000D02*
X-4908000Y-64898000D01*
X-4908000Y-65152000D01*
X-4928000Y-65152000D01*
X-4928000Y-65172000D01*
X-5182000Y-65172000D01*
X-5182000Y-65152000D01*
X-5202000Y-65152000D01*
X-5202000Y-64898000D01*
X-5182000Y-64898000D01*
X-5182000Y-64878000D01*
X-4928000Y-64878000D01*
X-4928000Y-64898000D01*
%TA.AperFunction,Conductor*%
D30*
G36*
X-4928000Y-64898000D02*
G01*
X-4908000Y-64898000D01*
X-4908000Y-65152000D01*
X-4928000Y-65152000D01*
X-4928000Y-65172000D01*
X-5182000Y-65172000D01*
X-5182000Y-65152000D01*
X-5202000Y-65152000D01*
X-5202000Y-64898000D01*
X-5182000Y-64898000D01*
X-5182000Y-64878000D01*
X-4928000Y-64878000D01*
X-4928000Y-64898000D01*
G37*
%TD.AperFunction*%
D29*
X-3776252Y-47755858D02*
X-3790395Y-47770000D01*
X-3776252Y-47784143D01*
X-3955857Y-47963748D01*
X-3970000Y-47949605D01*
X-4854475Y-48834080D01*
X-4786681Y-49040000D01*
X-4854475Y-49245920D01*
X-3970000Y-50130395D01*
X-3955857Y-50116253D01*
X-3776252Y-50295858D01*
X-3790395Y-50310000D01*
X-3776252Y-50324143D01*
X-3955857Y-50503748D01*
X-3970000Y-50489605D01*
X-4854475Y-51374080D01*
X-4794895Y-51555049D01*
X-4948505Y-51657688D01*
X-5162312Y-51871495D01*
X-5330299Y-52122905D01*
X-5446011Y-52402257D01*
X-5505000Y-52698816D01*
X-5505000Y-53001184D01*
X-5446011Y-53297743D01*
X-5330299Y-53577095D01*
X-5162312Y-53828505D01*
X-4948505Y-54042312D01*
X-4832237Y-54120000D01*
X-4948505Y-54197688D01*
X-5162312Y-54411495D01*
X-5330299Y-54662905D01*
X-5446011Y-54942257D01*
X-5505000Y-55238816D01*
X-5505000Y-55541184D01*
X-5446011Y-55837743D01*
X-5330299Y-56117095D01*
X-5162312Y-56368505D01*
X-4948505Y-56582312D01*
X-4832237Y-56660000D01*
X-4948505Y-56737688D01*
X-5162312Y-56951495D01*
X-5330299Y-57202905D01*
X-5333761Y-57211262D01*
X-5377249Y-57224454D01*
X-5509278Y-57295026D01*
X-5625003Y-57389999D01*
X-5648801Y-57418997D01*
X-8246003Y-60016200D01*
X-8275001Y-60039998D01*
X-8298799Y-60068996D01*
X-8298800Y-60068997D01*
X-8369975Y-60155723D01*
X-8440547Y-60287753D01*
X-8452193Y-60326148D01*
X-8602257Y-60263989D01*
X-8898816Y-60205000D01*
X-9201184Y-60205000D01*
X-9497743Y-60263989D01*
X-9604999Y-60308416D01*
X-9604999Y-60152630D01*
X-9531614Y-60113405D01*
X-9397038Y-60002962D01*
X-9286595Y-59868386D01*
X-9204528Y-59714850D01*
X-9153992Y-59548254D01*
X-9136928Y-59375000D01*
X-9136928Y-58700000D01*
X-9153992Y-58526746D01*
X-9204528Y-58360150D01*
X-9286595Y-58206614D01*
X-9397038Y-58072038D01*
X-9403594Y-58066658D01*
X-9323815Y-58001185D01*
X-9244463Y-57904494D01*
X-9185498Y-57794180D01*
X-9149188Y-57674482D01*
X-9136928Y-57550000D01*
X-9140000Y-57248250D01*
X-9298750Y-57089500D01*
X-10373000Y-57089500D01*
X-10373000Y-57109500D01*
X-10627000Y-57109500D01*
X-10627000Y-57089500D01*
X-11701250Y-57089500D01*
X-11860000Y-57248250D01*
X-11863072Y-57550000D01*
X-11850812Y-57674482D01*
X-11814502Y-57794180D01*
X-11755537Y-57904494D01*
X-11676185Y-58001185D01*
X-11596406Y-58066658D01*
X-11602962Y-58072038D01*
X-11713405Y-58206614D01*
X-11795472Y-58360150D01*
X-11846008Y-58526746D01*
X-11863072Y-58700000D01*
X-11863072Y-59375000D01*
X-11846008Y-59548254D01*
X-11795472Y-59714850D01*
X-11713405Y-59868386D01*
X-11602962Y-60002962D01*
X-11468386Y-60113405D01*
X-11314850Y-60195472D01*
X-11148254Y-60246008D01*
X-11124998Y-60248298D01*
X-11124998Y-60271138D01*
X-11142257Y-60263989D01*
X-11438816Y-60205000D01*
X-11741184Y-60205000D01*
X-12037743Y-60263989D01*
X-12317095Y-60379701D01*
X-12568505Y-60547688D01*
X-12782312Y-60761495D01*
X-12884951Y-60915105D01*
X-13065920Y-60855525D01*
X-13950395Y-61740000D01*
X-13936252Y-61754143D01*
X-14055110Y-61873000D01*
X-14204890Y-61873000D01*
X-14323747Y-61754143D01*
X-14309605Y-61740000D01*
X-15194080Y-60855525D01*
X-15375049Y-60915105D01*
X-15477688Y-60761495D01*
X-15563263Y-60675920D01*
X-15014475Y-60675920D01*
X-14130000Y-61560395D01*
X-13245525Y-60675920D01*
X-13329208Y-60421739D01*
X-13601775Y-60290842D01*
X-13894642Y-60215635D01*
X-14196553Y-60199009D01*
X-14495907Y-60241603D01*
X-14781199Y-60341778D01*
X-14930792Y-60421739D01*
X-15014475Y-60675920D01*
X-15563263Y-60675920D01*
X-15691495Y-60547688D01*
X-15910000Y-60401687D01*
X-15910000Y-59224283D01*
X-15876745Y-59221008D01*
X-15710149Y-59170472D01*
X-15556613Y-59088405D01*
X-15422038Y-58977962D01*
X-15311595Y-58843387D01*
X-15229528Y-58689851D01*
X-15178992Y-58523255D01*
X-15161928Y-58350001D01*
X-15161928Y-57649999D01*
X-15178992Y-57476745D01*
X-15229528Y-57310149D01*
X-15311595Y-57156613D01*
X-15378276Y-57075363D01*
X-15348815Y-57051185D01*
X-15269463Y-56954494D01*
X-15210498Y-56844180D01*
X-15174188Y-56724482D01*
X-15161928Y-56600000D01*
X-15164127Y-56375000D01*
X-11863072Y-56375000D01*
X-11860000Y-56676750D01*
X-11701250Y-56835500D01*
X-10627000Y-56835500D01*
X-10627000Y-55898750D01*
X-10373000Y-55898750D01*
X-10373000Y-56835500D01*
X-9298750Y-56835500D01*
X-9140000Y-56676750D01*
X-9136928Y-56375000D01*
X-9149188Y-56250518D01*
X-9185498Y-56130820D01*
X-9244463Y-56020506D01*
X-9323815Y-55923815D01*
X-9420506Y-55844463D01*
X-9530820Y-55785498D01*
X-9650518Y-55749188D01*
X-9775000Y-55736928D01*
X-10214250Y-55740000D01*
X-10373000Y-55898750D01*
X-10627000Y-55898750D01*
X-10785750Y-55740000D01*
X-11225000Y-55736928D01*
X-11349482Y-55749188D01*
X-11469180Y-55785498D01*
X-11579494Y-55844463D01*
X-11676185Y-55923815D01*
X-11755537Y-56020506D01*
X-11814502Y-56130820D01*
X-11850812Y-56250518D01*
X-11863072Y-56375000D01*
X-15164127Y-56375000D01*
X-15165000Y-56285750D01*
X-15323750Y-56127000D01*
X-16373000Y-56127000D01*
X-16373000Y-56147000D01*
X-16627000Y-56147000D01*
X-16627000Y-56127000D01*
X-17676250Y-56127000D01*
X-17750000Y-56200750D01*
X-17823750Y-56127000D01*
X-18873000Y-56127000D01*
X-18873000Y-56147000D01*
X-19127000Y-56147000D01*
X-19127000Y-56127000D01*
X-20176250Y-56127000D01*
X-20250000Y-56200750D01*
X-20323750Y-56127000D01*
X-21373000Y-56127000D01*
X-21373000Y-56147000D01*
X-21627000Y-56147000D01*
X-21627000Y-56127000D01*
X-22676250Y-56127000D01*
X-22750000Y-56200750D01*
X-22823750Y-56127000D01*
X-23873000Y-56127000D01*
X-23873000Y-56147000D01*
X-24127000Y-56147000D01*
X-24127000Y-56127000D01*
X-24720081Y-56127000D01*
X-24725224Y-56125440D01*
X-24750000Y-56123000D01*
X-25365000Y-56123000D01*
X-25365000Y-55400000D01*
X-25338072Y-55400000D01*
X-25335000Y-55714250D01*
X-25176250Y-55873000D01*
X-24127000Y-55873000D01*
X-24127000Y-54923750D01*
X-23873000Y-54923750D01*
X-23873000Y-55873000D01*
X-22823750Y-55873000D01*
X-22750000Y-55799250D01*
X-22676250Y-55873000D01*
X-21627000Y-55873000D01*
X-21627000Y-54923750D01*
X-21373000Y-54923750D01*
X-21373000Y-55873000D01*
X-20323750Y-55873000D01*
X-20250000Y-55799250D01*
X-20176250Y-55873000D01*
X-19127000Y-55873000D01*
X-19127000Y-54923750D01*
X-18873000Y-54923750D01*
X-18873000Y-55873000D01*
X-17823750Y-55873000D01*
X-17750000Y-55799250D01*
X-17676250Y-55873000D01*
X-16627000Y-55873000D01*
X-16627000Y-54923750D01*
X-16373000Y-54923750D01*
X-16373000Y-55873000D01*
X-15323750Y-55873000D01*
X-15165000Y-55714250D01*
X-15161928Y-55400000D01*
X-15174188Y-55275518D01*
X-15210498Y-55155820D01*
X-15269463Y-55045506D01*
X-15348815Y-54948815D01*
X-15445506Y-54869463D01*
X-15555820Y-54810498D01*
X-15675518Y-54774188D01*
X-15800000Y-54761928D01*
X-16214250Y-54765000D01*
X-16373000Y-54923750D01*
X-16627000Y-54923750D01*
X-16785750Y-54765000D01*
X-17200000Y-54761928D01*
X-17324482Y-54774188D01*
X-17444180Y-54810498D01*
X-17554494Y-54869463D01*
X-17651185Y-54948815D01*
X-17730537Y-55045506D01*
X-17750000Y-55081918D01*
X-17769463Y-55045506D01*
X-17848815Y-54948815D01*
X-17945506Y-54869463D01*
X-18055820Y-54810498D01*
X-18175518Y-54774188D01*
X-18300000Y-54761928D01*
X-18714250Y-54765000D01*
X-18873000Y-54923750D01*
X-19127000Y-54923750D01*
X-19285750Y-54765000D01*
X-19700000Y-54761928D01*
X-19824482Y-54774188D01*
X-19944180Y-54810498D01*
X-20054494Y-54869463D01*
X-20151185Y-54948815D01*
X-20230537Y-55045506D01*
X-20250000Y-55081918D01*
X-20269463Y-55045506D01*
X-20348815Y-54948815D01*
X-20445506Y-54869463D01*
X-20555820Y-54810498D01*
X-20675518Y-54774188D01*
X-20800000Y-54761928D01*
X-21214250Y-54765000D01*
X-21373000Y-54923750D01*
X-21627000Y-54923750D01*
X-21785750Y-54765000D01*
X-22200000Y-54761928D01*
X-22324482Y-54774188D01*
X-22444180Y-54810498D01*
X-22554494Y-54869463D01*
X-22651185Y-54948815D01*
X-22730537Y-55045506D01*
X-22750000Y-55081918D01*
X-22769463Y-55045506D01*
X-22848815Y-54948815D01*
X-22945506Y-54869463D01*
X-23055820Y-54810498D01*
X-23175518Y-54774188D01*
X-23300000Y-54761928D01*
X-23714250Y-54765000D01*
X-23873000Y-54923750D01*
X-24127000Y-54923750D01*
X-24285750Y-54765000D01*
X-24700000Y-54761928D01*
X-24824482Y-54774188D01*
X-24944180Y-54810498D01*
X-25054494Y-54869463D01*
X-25151185Y-54948815D01*
X-25230537Y-55045506D01*
X-25289502Y-55155820D01*
X-25325812Y-55275518D01*
X-25338072Y-55400000D01*
X-25365000Y-55400000D01*
X-25365000Y-53494442D01*
X-25273480Y-53522205D01*
X-25143467Y-53535010D01*
X-25143459Y-53535010D01*
X-25099990Y-53539291D01*
X-25056521Y-53535010D01*
X-12703479Y-53535010D01*
X-12660010Y-53539291D01*
X-12616541Y-53535010D01*
X-12616533Y-53535010D01*
X-12486520Y-53522205D01*
X-12319697Y-53471599D01*
X-12165951Y-53389421D01*
X-12031193Y-53278827D01*
X-12003476Y-53245054D01*
X-9134975Y-50376553D01*
X-5510991Y-50376553D01*
X-5468397Y-50675907D01*
X-5368222Y-50961199D01*
X-5288261Y-51110792D01*
X-5034080Y-51194475D01*
X-4149605Y-50310000D01*
X-5034080Y-49425525D01*
X-5288261Y-49509208D01*
X-5419158Y-49781775D01*
X-5494365Y-50074642D01*
X-5510991Y-50376553D01*
X-9134975Y-50376553D01*
X-6771482Y-48013061D01*
X-6661184Y-48035000D01*
X-6358816Y-48035000D01*
X-6062257Y-47976011D01*
X-5782905Y-47860299D01*
X-5531495Y-47692312D01*
X-5501390Y-47662207D01*
X-5510991Y-47836553D01*
X-5468397Y-48135907D01*
X-5368222Y-48421199D01*
X-5288261Y-48570792D01*
X-5034080Y-48654475D01*
X-4149605Y-47770000D01*
X-4163747Y-47755858D01*
X-3984142Y-47576253D01*
X-3970000Y-47590395D01*
X-3955857Y-47576253D01*
X-3776252Y-47755858D01*
%TA.AperFunction,Conductor*%
D30*
G36*
X-3776252Y-47755858D02*
G01*
X-3790395Y-47770000D01*
X-3776252Y-47784143D01*
X-3955857Y-47963748D01*
X-3970000Y-47949605D01*
X-4854475Y-48834080D01*
X-4786681Y-49040000D01*
X-4854475Y-49245920D01*
X-3970000Y-50130395D01*
X-3955857Y-50116253D01*
X-3776252Y-50295858D01*
X-3790395Y-50310000D01*
X-3776252Y-50324143D01*
X-3955857Y-50503748D01*
X-3970000Y-50489605D01*
X-4854475Y-51374080D01*
X-4794895Y-51555049D01*
X-4948505Y-51657688D01*
X-5162312Y-51871495D01*
X-5330299Y-52122905D01*
X-5446011Y-52402257D01*
X-5505000Y-52698816D01*
X-5505000Y-53001184D01*
X-5446011Y-53297743D01*
X-5330299Y-53577095D01*
X-5162312Y-53828505D01*
X-4948505Y-54042312D01*
X-4832237Y-54120000D01*
X-4948505Y-54197688D01*
X-5162312Y-54411495D01*
X-5330299Y-54662905D01*
X-5446011Y-54942257D01*
X-5505000Y-55238816D01*
X-5505000Y-55541184D01*
X-5446011Y-55837743D01*
X-5330299Y-56117095D01*
X-5162312Y-56368505D01*
X-4948505Y-56582312D01*
X-4832237Y-56660000D01*
X-4948505Y-56737688D01*
X-5162312Y-56951495D01*
X-5330299Y-57202905D01*
X-5333761Y-57211262D01*
X-5377249Y-57224454D01*
X-5509278Y-57295026D01*
X-5625003Y-57389999D01*
X-5648801Y-57418997D01*
X-8246003Y-60016200D01*
X-8275001Y-60039998D01*
X-8298799Y-60068996D01*
X-8298800Y-60068997D01*
X-8369975Y-60155723D01*
X-8440547Y-60287753D01*
X-8452193Y-60326148D01*
X-8602257Y-60263989D01*
X-8898816Y-60205000D01*
X-9201184Y-60205000D01*
X-9497743Y-60263989D01*
X-9604999Y-60308416D01*
X-9604999Y-60152630D01*
X-9531614Y-60113405D01*
X-9397038Y-60002962D01*
X-9286595Y-59868386D01*
X-9204528Y-59714850D01*
X-9153992Y-59548254D01*
X-9136928Y-59375000D01*
X-9136928Y-58700000D01*
X-9153992Y-58526746D01*
X-9204528Y-58360150D01*
X-9286595Y-58206614D01*
X-9397038Y-58072038D01*
X-9403594Y-58066658D01*
X-9323815Y-58001185D01*
X-9244463Y-57904494D01*
X-9185498Y-57794180D01*
X-9149188Y-57674482D01*
X-9136928Y-57550000D01*
X-9140000Y-57248250D01*
X-9298750Y-57089500D01*
X-10373000Y-57089500D01*
X-10373000Y-57109500D01*
X-10627000Y-57109500D01*
X-10627000Y-57089500D01*
X-11701250Y-57089500D01*
X-11860000Y-57248250D01*
X-11863072Y-57550000D01*
X-11850812Y-57674482D01*
X-11814502Y-57794180D01*
X-11755537Y-57904494D01*
X-11676185Y-58001185D01*
X-11596406Y-58066658D01*
X-11602962Y-58072038D01*
X-11713405Y-58206614D01*
X-11795472Y-58360150D01*
X-11846008Y-58526746D01*
X-11863072Y-58700000D01*
X-11863072Y-59375000D01*
X-11846008Y-59548254D01*
X-11795472Y-59714850D01*
X-11713405Y-59868386D01*
X-11602962Y-60002962D01*
X-11468386Y-60113405D01*
X-11314850Y-60195472D01*
X-11148254Y-60246008D01*
X-11124998Y-60248298D01*
X-11124998Y-60271138D01*
X-11142257Y-60263989D01*
X-11438816Y-60205000D01*
X-11741184Y-60205000D01*
X-12037743Y-60263989D01*
X-12317095Y-60379701D01*
X-12568505Y-60547688D01*
X-12782312Y-60761495D01*
X-12884951Y-60915105D01*
X-13065920Y-60855525D01*
X-13950395Y-61740000D01*
X-13936252Y-61754143D01*
X-14055110Y-61873000D01*
X-14204890Y-61873000D01*
X-14323747Y-61754143D01*
X-14309605Y-61740000D01*
X-15194080Y-60855525D01*
X-15375049Y-60915105D01*
X-15477688Y-60761495D01*
X-15563263Y-60675920D01*
X-15014475Y-60675920D01*
X-14130000Y-61560395D01*
X-13245525Y-60675920D01*
X-13329208Y-60421739D01*
X-13601775Y-60290842D01*
X-13894642Y-60215635D01*
X-14196553Y-60199009D01*
X-14495907Y-60241603D01*
X-14781199Y-60341778D01*
X-14930792Y-60421739D01*
X-15014475Y-60675920D01*
X-15563263Y-60675920D01*
X-15691495Y-60547688D01*
X-15910000Y-60401687D01*
X-15910000Y-59224283D01*
X-15876745Y-59221008D01*
X-15710149Y-59170472D01*
X-15556613Y-59088405D01*
X-15422038Y-58977962D01*
X-15311595Y-58843387D01*
X-15229528Y-58689851D01*
X-15178992Y-58523255D01*
X-15161928Y-58350001D01*
X-15161928Y-57649999D01*
X-15178992Y-57476745D01*
X-15229528Y-57310149D01*
X-15311595Y-57156613D01*
X-15378276Y-57075363D01*
X-15348815Y-57051185D01*
X-15269463Y-56954494D01*
X-15210498Y-56844180D01*
X-15174188Y-56724482D01*
X-15161928Y-56600000D01*
X-15164127Y-56375000D01*
X-11863072Y-56375000D01*
X-11860000Y-56676750D01*
X-11701250Y-56835500D01*
X-10627000Y-56835500D01*
X-10627000Y-55898750D01*
X-10373000Y-55898750D01*
X-10373000Y-56835500D01*
X-9298750Y-56835500D01*
X-9140000Y-56676750D01*
X-9136928Y-56375000D01*
X-9149188Y-56250518D01*
X-9185498Y-56130820D01*
X-9244463Y-56020506D01*
X-9323815Y-55923815D01*
X-9420506Y-55844463D01*
X-9530820Y-55785498D01*
X-9650518Y-55749188D01*
X-9775000Y-55736928D01*
X-10214250Y-55740000D01*
X-10373000Y-55898750D01*
X-10627000Y-55898750D01*
X-10785750Y-55740000D01*
X-11225000Y-55736928D01*
X-11349482Y-55749188D01*
X-11469180Y-55785498D01*
X-11579494Y-55844463D01*
X-11676185Y-55923815D01*
X-11755537Y-56020506D01*
X-11814502Y-56130820D01*
X-11850812Y-56250518D01*
X-11863072Y-56375000D01*
X-15164127Y-56375000D01*
X-15165000Y-56285750D01*
X-15323750Y-56127000D01*
X-16373000Y-56127000D01*
X-16373000Y-56147000D01*
X-16627000Y-56147000D01*
X-16627000Y-56127000D01*
X-17676250Y-56127000D01*
X-17750000Y-56200750D01*
X-17823750Y-56127000D01*
X-18873000Y-56127000D01*
X-18873000Y-56147000D01*
X-19127000Y-56147000D01*
X-19127000Y-56127000D01*
X-20176250Y-56127000D01*
X-20250000Y-56200750D01*
X-20323750Y-56127000D01*
X-21373000Y-56127000D01*
X-21373000Y-56147000D01*
X-21627000Y-56147000D01*
X-21627000Y-56127000D01*
X-22676250Y-56127000D01*
X-22750000Y-56200750D01*
X-22823750Y-56127000D01*
X-23873000Y-56127000D01*
X-23873000Y-56147000D01*
X-24127000Y-56147000D01*
X-24127000Y-56127000D01*
X-24720081Y-56127000D01*
X-24725224Y-56125440D01*
X-24750000Y-56123000D01*
X-25365000Y-56123000D01*
X-25365000Y-55400000D01*
X-25338072Y-55400000D01*
X-25335000Y-55714250D01*
X-25176250Y-55873000D01*
X-24127000Y-55873000D01*
X-24127000Y-54923750D01*
X-23873000Y-54923750D01*
X-23873000Y-55873000D01*
X-22823750Y-55873000D01*
X-22750000Y-55799250D01*
X-22676250Y-55873000D01*
X-21627000Y-55873000D01*
X-21627000Y-54923750D01*
X-21373000Y-54923750D01*
X-21373000Y-55873000D01*
X-20323750Y-55873000D01*
X-20250000Y-55799250D01*
X-20176250Y-55873000D01*
X-19127000Y-55873000D01*
X-19127000Y-54923750D01*
X-18873000Y-54923750D01*
X-18873000Y-55873000D01*
X-17823750Y-55873000D01*
X-17750000Y-55799250D01*
X-17676250Y-55873000D01*
X-16627000Y-55873000D01*
X-16627000Y-54923750D01*
X-16373000Y-54923750D01*
X-16373000Y-55873000D01*
X-15323750Y-55873000D01*
X-15165000Y-55714250D01*
X-15161928Y-55400000D01*
X-15174188Y-55275518D01*
X-15210498Y-55155820D01*
X-15269463Y-55045506D01*
X-15348815Y-54948815D01*
X-15445506Y-54869463D01*
X-15555820Y-54810498D01*
X-15675518Y-54774188D01*
X-15800000Y-54761928D01*
X-16214250Y-54765000D01*
X-16373000Y-54923750D01*
X-16627000Y-54923750D01*
X-16785750Y-54765000D01*
X-17200000Y-54761928D01*
X-17324482Y-54774188D01*
X-17444180Y-54810498D01*
X-17554494Y-54869463D01*
X-17651185Y-54948815D01*
X-17730537Y-55045506D01*
X-17750000Y-55081918D01*
X-17769463Y-55045506D01*
X-17848815Y-54948815D01*
X-17945506Y-54869463D01*
X-18055820Y-54810498D01*
X-18175518Y-54774188D01*
X-18300000Y-54761928D01*
X-18714250Y-54765000D01*
X-18873000Y-54923750D01*
X-19127000Y-54923750D01*
X-19285750Y-54765000D01*
X-19700000Y-54761928D01*
X-19824482Y-54774188D01*
X-19944180Y-54810498D01*
X-20054494Y-54869463D01*
X-20151185Y-54948815D01*
X-20230537Y-55045506D01*
X-20250000Y-55081918D01*
X-20269463Y-55045506D01*
X-20348815Y-54948815D01*
X-20445506Y-54869463D01*
X-20555820Y-54810498D01*
X-20675518Y-54774188D01*
X-20800000Y-54761928D01*
X-21214250Y-54765000D01*
X-21373000Y-54923750D01*
X-21627000Y-54923750D01*
X-21785750Y-54765000D01*
X-22200000Y-54761928D01*
X-22324482Y-54774188D01*
X-22444180Y-54810498D01*
X-22554494Y-54869463D01*
X-22651185Y-54948815D01*
X-22730537Y-55045506D01*
X-22750000Y-55081918D01*
X-22769463Y-55045506D01*
X-22848815Y-54948815D01*
X-22945506Y-54869463D01*
X-23055820Y-54810498D01*
X-23175518Y-54774188D01*
X-23300000Y-54761928D01*
X-23714250Y-54765000D01*
X-23873000Y-54923750D01*
X-24127000Y-54923750D01*
X-24285750Y-54765000D01*
X-24700000Y-54761928D01*
X-24824482Y-54774188D01*
X-24944180Y-54810498D01*
X-25054494Y-54869463D01*
X-25151185Y-54948815D01*
X-25230537Y-55045506D01*
X-25289502Y-55155820D01*
X-25325812Y-55275518D01*
X-25338072Y-55400000D01*
X-25365000Y-55400000D01*
X-25365000Y-53494442D01*
X-25273480Y-53522205D01*
X-25143467Y-53535010D01*
X-25143459Y-53535010D01*
X-25099990Y-53539291D01*
X-25056521Y-53535010D01*
X-12703479Y-53535010D01*
X-12660010Y-53539291D01*
X-12616541Y-53535010D01*
X-12616533Y-53535010D01*
X-12486520Y-53522205D01*
X-12319697Y-53471599D01*
X-12165951Y-53389421D01*
X-12031193Y-53278827D01*
X-12003476Y-53245054D01*
X-9134975Y-50376553D01*
X-5510991Y-50376553D01*
X-5468397Y-50675907D01*
X-5368222Y-50961199D01*
X-5288261Y-51110792D01*
X-5034080Y-51194475D01*
X-4149605Y-50310000D01*
X-5034080Y-49425525D01*
X-5288261Y-49509208D01*
X-5419158Y-49781775D01*
X-5494365Y-50074642D01*
X-5510991Y-50376553D01*
X-9134975Y-50376553D01*
X-6771482Y-48013061D01*
X-6661184Y-48035000D01*
X-6358816Y-48035000D01*
X-6062257Y-47976011D01*
X-5782905Y-47860299D01*
X-5531495Y-47692312D01*
X-5501390Y-47662207D01*
X-5510991Y-47836553D01*
X-5468397Y-48135907D01*
X-5368222Y-48421199D01*
X-5288261Y-48570792D01*
X-5034080Y-48654475D01*
X-4149605Y-47770000D01*
X-4163747Y-47755858D01*
X-3984142Y-47576253D01*
X-3970000Y-47590395D01*
X-3955857Y-47576253D01*
X-3776252Y-47755858D01*
G37*
%TD.AperFunction*%
D29*
X-35933731Y-46091070D02*
X-35985000Y-46348816D01*
X-35985000Y-46651184D01*
X-35926011Y-46947743D01*
X-35810299Y-47227095D01*
X-35642312Y-47478505D01*
X-35428505Y-47692312D01*
X-35312237Y-47770000D01*
X-35428505Y-47847688D01*
X-35642312Y-48061495D01*
X-35810299Y-48312905D01*
X-35926011Y-48592257D01*
X-35985000Y-48888816D01*
X-35985000Y-49191184D01*
X-35926011Y-49487743D01*
X-35810299Y-49767095D01*
X-35642312Y-50018505D01*
X-35428505Y-50232312D01*
X-35312237Y-50310000D01*
X-35428505Y-50387688D01*
X-35642312Y-50601495D01*
X-35810299Y-50852905D01*
X-35926011Y-51132257D01*
X-35985000Y-51428816D01*
X-35985000Y-51731184D01*
X-35926011Y-52027743D01*
X-35810299Y-52307095D01*
X-35642312Y-52558505D01*
X-35428505Y-52772312D01*
X-35274895Y-52874951D01*
X-35334475Y-53055920D01*
X-34450000Y-53940395D01*
X-33565525Y-53055920D01*
X-33625105Y-52874951D01*
X-33471495Y-52772312D01*
X-33257688Y-52558505D01*
X-33089701Y-52307095D01*
X-32973989Y-52027743D01*
X-32915000Y-51731184D01*
X-32915000Y-51428816D01*
X-32973989Y-51132257D01*
X-33089701Y-50852905D01*
X-33257688Y-50601495D01*
X-33471495Y-50387688D01*
X-33587763Y-50310000D01*
X-33471495Y-50232312D01*
X-33257688Y-50018505D01*
X-33089701Y-49767095D01*
X-32973989Y-49487743D01*
X-32915000Y-49191184D01*
X-32915000Y-48888816D01*
X-32973989Y-48592257D01*
X-33089701Y-48312905D01*
X-33257688Y-48061495D01*
X-33471495Y-47847688D01*
X-33587763Y-47770000D01*
X-33471495Y-47692312D01*
X-33257688Y-47478505D01*
X-33180000Y-47362237D01*
X-33102312Y-47478505D01*
X-32888505Y-47692312D01*
X-32637095Y-47860299D01*
X-32357743Y-47976011D01*
X-32061184Y-48035000D01*
X-31758816Y-48035000D01*
X-31462257Y-47976011D01*
X-31182905Y-47860299D01*
X-30931495Y-47692312D01*
X-30717688Y-47478505D01*
X-30640000Y-47362237D01*
X-30562312Y-47478505D01*
X-30348505Y-47692312D01*
X-30097095Y-47860299D01*
X-29817743Y-47976011D01*
X-29521184Y-48035000D01*
X-29218816Y-48035000D01*
X-28922257Y-47976011D01*
X-28642905Y-47860299D01*
X-28391495Y-47692312D01*
X-28177688Y-47478505D01*
X-28100000Y-47362237D01*
X-28022312Y-47478505D01*
X-27808505Y-47692312D01*
X-27557095Y-47860299D01*
X-27373142Y-47936495D01*
X-27380537Y-47945506D01*
X-27439502Y-48055820D01*
X-27475812Y-48175518D01*
X-27488072Y-48300000D01*
X-27485000Y-48714250D01*
X-27326250Y-48873000D01*
X-26377000Y-48873000D01*
X-26377000Y-48853000D01*
X-26123000Y-48853000D01*
X-26123000Y-48873000D01*
X-26103000Y-48873000D01*
X-26103000Y-49127000D01*
X-26123000Y-49127000D01*
X-26123000Y-49147000D01*
X-26377000Y-49147000D01*
X-26377000Y-49127000D01*
X-27326250Y-49127000D01*
X-27485000Y-49285750D01*
X-27488072Y-49700000D01*
X-27475812Y-49824482D01*
X-27439502Y-49944180D01*
X-27380537Y-50054494D01*
X-27301185Y-50151185D01*
X-27204494Y-50230537D01*
X-27094180Y-50289502D01*
X-27067306Y-50297654D01*
X-27093387Y-50311595D01*
X-27227962Y-50422038D01*
X-27338405Y-50556613D01*
X-27420472Y-50710149D01*
X-27471008Y-50876745D01*
X-27488072Y-51049999D01*
X-27488072Y-51950001D01*
X-27471008Y-52123255D01*
X-27420472Y-52289851D01*
X-27338405Y-52443387D01*
X-27227962Y-52577962D01*
X-27135000Y-52654254D01*
X-27134999Y-58343422D01*
X-28801531Y-60009955D01*
X-28884409Y-60110942D01*
X-28961989Y-60256086D01*
X-29218816Y-60205000D01*
X-29521184Y-60205000D01*
X-29817743Y-60263989D01*
X-30097095Y-60379701D01*
X-30348505Y-60547688D01*
X-30562312Y-60761495D01*
X-30640000Y-60877763D01*
X-30717688Y-60761495D01*
X-30931495Y-60547688D01*
X-31182905Y-60379701D01*
X-31462257Y-60263989D01*
X-31758816Y-60205000D01*
X-32061184Y-60205000D01*
X-32357743Y-60263989D01*
X-32637095Y-60379701D01*
X-32888505Y-60547688D01*
X-33102312Y-60761495D01*
X-33180000Y-60877763D01*
X-33257688Y-60761495D01*
X-33471495Y-60547688D01*
X-33690000Y-60401687D01*
X-33690000Y-57087333D01*
X-33686323Y-57050000D01*
X-33700997Y-56901014D01*
X-33744454Y-56757753D01*
X-33815026Y-56625724D01*
X-33886201Y-56538997D01*
X-33909999Y-56509999D01*
X-33938997Y-56486201D01*
X-34813822Y-55611376D01*
X-34685358Y-55644365D01*
X-34383447Y-55660991D01*
X-34084093Y-55618397D01*
X-33798801Y-55518222D01*
X-33649208Y-55438261D01*
X-33565525Y-55184080D01*
X-34450000Y-54299605D01*
X-34464142Y-54313748D01*
X-34643747Y-54134143D01*
X-34629605Y-54120000D01*
X-34270395Y-54120000D01*
X-33385920Y-55004475D01*
X-33131739Y-54920792D01*
X-33000842Y-54648225D01*
X-32925635Y-54355358D01*
X-32909009Y-54053447D01*
X-32951603Y-53754093D01*
X-33051778Y-53468801D01*
X-33131739Y-53319208D01*
X-33385920Y-53235525D01*
X-34270395Y-54120000D01*
X-34629605Y-54120000D01*
X-35514080Y-53235525D01*
X-35768261Y-53319208D01*
X-35899158Y-53591775D01*
X-35974365Y-53884642D01*
X-35990991Y-54186553D01*
X-35949907Y-54475291D01*
X-36240000Y-54185199D01*
X-36240000Y-45784801D01*
X-35933731Y-46091070D01*
%TA.AperFunction,Conductor*%
D30*
G36*
X-35933731Y-46091070D02*
G01*
X-35985000Y-46348816D01*
X-35985000Y-46651184D01*
X-35926011Y-46947743D01*
X-35810299Y-47227095D01*
X-35642312Y-47478505D01*
X-35428505Y-47692312D01*
X-35312237Y-47770000D01*
X-35428505Y-47847688D01*
X-35642312Y-48061495D01*
X-35810299Y-48312905D01*
X-35926011Y-48592257D01*
X-35985000Y-48888816D01*
X-35985000Y-49191184D01*
X-35926011Y-49487743D01*
X-35810299Y-49767095D01*
X-35642312Y-50018505D01*
X-35428505Y-50232312D01*
X-35312237Y-50310000D01*
X-35428505Y-50387688D01*
X-35642312Y-50601495D01*
X-35810299Y-50852905D01*
X-35926011Y-51132257D01*
X-35985000Y-51428816D01*
X-35985000Y-51731184D01*
X-35926011Y-52027743D01*
X-35810299Y-52307095D01*
X-35642312Y-52558505D01*
X-35428505Y-52772312D01*
X-35274895Y-52874951D01*
X-35334475Y-53055920D01*
X-34450000Y-53940395D01*
X-33565525Y-53055920D01*
X-33625105Y-52874951D01*
X-33471495Y-52772312D01*
X-33257688Y-52558505D01*
X-33089701Y-52307095D01*
X-32973989Y-52027743D01*
X-32915000Y-51731184D01*
X-32915000Y-51428816D01*
X-32973989Y-51132257D01*
X-33089701Y-50852905D01*
X-33257688Y-50601495D01*
X-33471495Y-50387688D01*
X-33587763Y-50310000D01*
X-33471495Y-50232312D01*
X-33257688Y-50018505D01*
X-33089701Y-49767095D01*
X-32973989Y-49487743D01*
X-32915000Y-49191184D01*
X-32915000Y-48888816D01*
X-32973989Y-48592257D01*
X-33089701Y-48312905D01*
X-33257688Y-48061495D01*
X-33471495Y-47847688D01*
X-33587763Y-47770000D01*
X-33471495Y-47692312D01*
X-33257688Y-47478505D01*
X-33180000Y-47362237D01*
X-33102312Y-47478505D01*
X-32888505Y-47692312D01*
X-32637095Y-47860299D01*
X-32357743Y-47976011D01*
X-32061184Y-48035000D01*
X-31758816Y-48035000D01*
X-31462257Y-47976011D01*
X-31182905Y-47860299D01*
X-30931495Y-47692312D01*
X-30717688Y-47478505D01*
X-30640000Y-47362237D01*
X-30562312Y-47478505D01*
X-30348505Y-47692312D01*
X-30097095Y-47860299D01*
X-29817743Y-47976011D01*
X-29521184Y-48035000D01*
X-29218816Y-48035000D01*
X-28922257Y-47976011D01*
X-28642905Y-47860299D01*
X-28391495Y-47692312D01*
X-28177688Y-47478505D01*
X-28100000Y-47362237D01*
X-28022312Y-47478505D01*
X-27808505Y-47692312D01*
X-27557095Y-47860299D01*
X-27373142Y-47936495D01*
X-27380537Y-47945506D01*
X-27439502Y-48055820D01*
X-27475812Y-48175518D01*
X-27488072Y-48300000D01*
X-27485000Y-48714250D01*
X-27326250Y-48873000D01*
X-26377000Y-48873000D01*
X-26377000Y-48853000D01*
X-26123000Y-48853000D01*
X-26123000Y-48873000D01*
X-26103000Y-48873000D01*
X-26103000Y-49127000D01*
X-26123000Y-49127000D01*
X-26123000Y-49147000D01*
X-26377000Y-49147000D01*
X-26377000Y-49127000D01*
X-27326250Y-49127000D01*
X-27485000Y-49285750D01*
X-27488072Y-49700000D01*
X-27475812Y-49824482D01*
X-27439502Y-49944180D01*
X-27380537Y-50054494D01*
X-27301185Y-50151185D01*
X-27204494Y-50230537D01*
X-27094180Y-50289502D01*
X-27067306Y-50297654D01*
X-27093387Y-50311595D01*
X-27227962Y-50422038D01*
X-27338405Y-50556613D01*
X-27420472Y-50710149D01*
X-27471008Y-50876745D01*
X-27488072Y-51049999D01*
X-27488072Y-51950001D01*
X-27471008Y-52123255D01*
X-27420472Y-52289851D01*
X-27338405Y-52443387D01*
X-27227962Y-52577962D01*
X-27135000Y-52654254D01*
X-27134999Y-58343422D01*
X-28801531Y-60009955D01*
X-28884409Y-60110942D01*
X-28961989Y-60256086D01*
X-29218816Y-60205000D01*
X-29521184Y-60205000D01*
X-29817743Y-60263989D01*
X-30097095Y-60379701D01*
X-30348505Y-60547688D01*
X-30562312Y-60761495D01*
X-30640000Y-60877763D01*
X-30717688Y-60761495D01*
X-30931495Y-60547688D01*
X-31182905Y-60379701D01*
X-31462257Y-60263989D01*
X-31758816Y-60205000D01*
X-32061184Y-60205000D01*
X-32357743Y-60263989D01*
X-32637095Y-60379701D01*
X-32888505Y-60547688D01*
X-33102312Y-60761495D01*
X-33180000Y-60877763D01*
X-33257688Y-60761495D01*
X-33471495Y-60547688D01*
X-33690000Y-60401687D01*
X-33690000Y-57087333D01*
X-33686323Y-57050000D01*
X-33700997Y-56901014D01*
X-33744454Y-56757753D01*
X-33815026Y-56625724D01*
X-33886201Y-56538997D01*
X-33909999Y-56509999D01*
X-33938997Y-56486201D01*
X-34813822Y-55611376D01*
X-34685358Y-55644365D01*
X-34383447Y-55660991D01*
X-34084093Y-55618397D01*
X-33798801Y-55518222D01*
X-33649208Y-55438261D01*
X-33565525Y-55184080D01*
X-34450000Y-54299605D01*
X-34464142Y-54313748D01*
X-34643747Y-54134143D01*
X-34629605Y-54120000D01*
X-34270395Y-54120000D01*
X-33385920Y-55004475D01*
X-33131739Y-54920792D01*
X-33000842Y-54648225D01*
X-32925635Y-54355358D01*
X-32909009Y-54053447D01*
X-32951603Y-53754093D01*
X-33051778Y-53468801D01*
X-33131739Y-53319208D01*
X-33385920Y-53235525D01*
X-34270395Y-54120000D01*
X-34629605Y-54120000D01*
X-35514080Y-53235525D01*
X-35768261Y-53319208D01*
X-35899158Y-53591775D01*
X-35974365Y-53884642D01*
X-35990991Y-54186553D01*
X-35949907Y-54475291D01*
X-36240000Y-54185199D01*
X-36240000Y-45784801D01*
X-35933731Y-46091070D01*
G37*
%TD.AperFunction*%
D29*
X-33607000Y-12867592D02*
X-33553314Y-13137490D01*
X-33448005Y-13391727D01*
X-33295120Y-13620535D01*
X-33100535Y-13815120D01*
X-33012535Y-13873920D01*
X-33096482Y-13882188D01*
X-33216180Y-13918498D01*
X-33326494Y-13977463D01*
X-33423185Y-14056815D01*
X-33502537Y-14153506D01*
X-33561502Y-14263820D01*
X-33597812Y-14383518D01*
X-33610072Y-14508000D01*
X-33607000Y-14984250D01*
X-33448250Y-15143000D01*
X-32337000Y-15143000D01*
X-32337000Y-15123000D01*
X-32083000Y-15123000D01*
X-32083000Y-15143000D01*
X-32063000Y-15143000D01*
X-32063000Y-15397000D01*
X-32083000Y-15397000D01*
X-32083000Y-16508250D01*
X-31924250Y-16667000D01*
X-31448000Y-16670072D01*
X-31323518Y-16657812D01*
X-31203820Y-16621502D01*
X-31093506Y-16562537D01*
X-30996815Y-16483185D01*
X-30917463Y-16386494D01*
X-30858498Y-16276180D01*
X-30822188Y-16156482D01*
X-30813920Y-16072535D01*
X-30755120Y-16160535D01*
X-30560535Y-16355120D01*
X-30331727Y-16508005D01*
X-30077490Y-16613314D01*
X-29807592Y-16667000D01*
X-29532408Y-16667000D01*
X-29525877Y-16665701D01*
X-25846530Y-20345049D01*
X-25818817Y-20378817D01*
X-25785049Y-20406530D01*
X-25785047Y-20406532D01*
X-25684059Y-20489411D01*
X-25530313Y-20571589D01*
X-25363490Y-20622195D01*
X-25233477Y-20635000D01*
X-25233469Y-20635000D01*
X-25190000Y-20639281D01*
X-25146531Y-20635000D01*
X-21240132Y-20635000D01*
X-22473140Y-21868009D01*
X-22516448Y-21903551D01*
X-22658283Y-22076377D01*
X-22677935Y-22113144D01*
X-22763676Y-22273554D01*
X-22786866Y-22350000D01*
X-22828577Y-22487501D01*
X-22839084Y-22594180D01*
X-22850491Y-22710000D01*
X-22845000Y-22765751D01*
X-22845000Y-22877379D01*
X-22954180Y-22910498D01*
X-23064494Y-22969463D01*
X-23161185Y-23048815D01*
X-23174468Y-23065000D01*
X-30144248Y-23065000D01*
X-30200000Y-23059509D01*
X-30255752Y-23065000D01*
X-30422499Y-23081423D01*
X-30636447Y-23146324D01*
X-30833623Y-23251716D01*
X-31006449Y-23393551D01*
X-31041992Y-23436860D01*
X-32225556Y-24620425D01*
X-32268864Y-24655967D01*
X-32410699Y-24828793D01*
X-32467032Y-24934186D01*
X-32516092Y-25025970D01*
X-32580993Y-25239918D01*
X-32602907Y-25462416D01*
X-32597415Y-25518177D01*
X-32597416Y-29081928D01*
X-32962416Y-29081928D01*
X-33086898Y-29094188D01*
X-33206596Y-29130498D01*
X-33316910Y-29189463D01*
X-33413601Y-29268815D01*
X-33492953Y-29365506D01*
X-33551918Y-29475820D01*
X-33588228Y-29595518D01*
X-33600488Y-29720000D01*
X-33600488Y-32720000D01*
X-33588228Y-32844482D01*
X-33551918Y-32964180D01*
X-33492953Y-33074494D01*
X-33413601Y-33171185D01*
X-33316910Y-33250537D01*
X-33206596Y-33309502D01*
X-33086898Y-33345812D01*
X-32962416Y-33358072D01*
X-29962416Y-33358072D01*
X-29837934Y-33345812D01*
X-29718236Y-33309502D01*
X-29607922Y-33250537D01*
X-29511231Y-33171185D01*
X-29431879Y-33074494D01*
X-29372914Y-32964180D01*
X-29336604Y-32844482D01*
X-29324344Y-32720000D01*
X-29324344Y-32711653D01*
X-12284464Y-32711653D01*
X-12128454Y-33027214D01*
X-11753671Y-33218020D01*
X-11348865Y-33332044D01*
X-10929592Y-33364902D01*
X-10511965Y-33315334D01*
X-10112033Y-33185243D01*
X-9816378Y-33027214D01*
X-9660368Y-32711653D01*
X-10972416Y-31399605D01*
X-12284464Y-32711653D01*
X-29324344Y-32711653D01*
X-29324344Y-31262824D01*
X-13117318Y-31262824D01*
X-13067750Y-31680451D01*
X-12937659Y-32080383D01*
X-12779630Y-32376038D01*
X-12464069Y-32532048D01*
X-11152021Y-31220000D01*
X-10792811Y-31220000D01*
X-9480763Y-32532048D01*
X-9165202Y-32376038D01*
X-8974396Y-32001255D01*
X-8860372Y-31596449D01*
X-8827514Y-31177176D01*
X-8877082Y-30759549D01*
X-9007173Y-30359617D01*
X-9165202Y-30063962D01*
X-9480763Y-29907952D01*
X-10792811Y-31220000D01*
X-11152021Y-31220000D01*
X-12464069Y-29907952D01*
X-12779630Y-30063962D01*
X-12970436Y-30438745D01*
X-13084460Y-30843551D01*
X-13117318Y-31262824D01*
X-29324344Y-31262824D01*
X-29324344Y-29728347D01*
X-12284464Y-29728347D01*
X-10972416Y-31040395D01*
X-9660368Y-29728347D01*
X-9816378Y-29412786D01*
X-10191161Y-29221980D01*
X-10595967Y-29107956D01*
X-11015240Y-29075098D01*
X-11432867Y-29124666D01*
X-11832799Y-29254757D01*
X-12128454Y-29412786D01*
X-12284464Y-29728347D01*
X-29324344Y-29728347D01*
X-29324344Y-29720000D01*
X-29336604Y-29595518D01*
X-29372914Y-29475820D01*
X-29431879Y-29365506D01*
X-29511231Y-29268815D01*
X-29607922Y-29189463D01*
X-29718236Y-29130498D01*
X-29837934Y-29094188D01*
X-29962416Y-29081928D01*
X-30327416Y-29081928D01*
X-30327416Y-26100000D01*
X-12338072Y-26100000D01*
X-12325812Y-26224482D01*
X-12289502Y-26344180D01*
X-12230537Y-26454494D01*
X-12151185Y-26551185D01*
X-12054494Y-26630537D01*
X-11944180Y-26689502D01*
X-11824482Y-26725812D01*
X-11700000Y-26738072D01*
X-11285750Y-26735000D01*
X-11127000Y-26576250D01*
X-11127000Y-25627000D01*
X-10873000Y-25627000D01*
X-10873000Y-26576250D01*
X-10714250Y-26735000D01*
X-10300000Y-26738072D01*
X-10175518Y-26725812D01*
X-10055820Y-26689502D01*
X-9945506Y-26630537D01*
X-9848815Y-26551185D01*
X-9769463Y-26454494D01*
X-9710498Y-26344180D01*
X-9674188Y-26224482D01*
X-9661928Y-26100000D01*
X-9665000Y-25785750D01*
X-9823750Y-25627000D01*
X-10873000Y-25627000D01*
X-11127000Y-25627000D01*
X-12176250Y-25627000D01*
X-12335000Y-25785750D01*
X-12338072Y-26100000D01*
X-30327416Y-26100000D01*
X-30327416Y-25932547D01*
X-29729868Y-25335000D01*
X-23174468Y-25335000D01*
X-23161185Y-25351185D01*
X-23064494Y-25430537D01*
X-22954180Y-25489502D01*
X-22834482Y-25525812D01*
X-22710000Y-25538072D01*
X-20710000Y-25538072D01*
X-20585518Y-25525812D01*
X-20465820Y-25489502D01*
X-20355506Y-25430537D01*
X-20258815Y-25351185D01*
X-20179463Y-25254494D01*
X-20120498Y-25144180D01*
X-20084188Y-25024482D01*
X-20071928Y-24900000D01*
X-20071928Y-23500000D01*
X-20084188Y-23375518D01*
X-20120498Y-23255820D01*
X-20179463Y-23145506D01*
X-20258815Y-23048815D01*
X-20355506Y-22969463D01*
X-20361257Y-22966389D01*
X-19879868Y-22485000D01*
X-12032831Y-22485000D01*
X-12077962Y-22522038D01*
X-12154254Y-22615000D01*
X-15966535Y-22615000D01*
X-16010001Y-22610719D01*
X-16053467Y-22615000D01*
X-16053477Y-22615000D01*
X-16183490Y-22627805D01*
X-16350313Y-22678411D01*
X-16504059Y-22760589D01*
X-16504061Y-22760590D01*
X-16504060Y-22760590D01*
X-16605047Y-22843468D01*
X-16605049Y-22843470D01*
X-16627540Y-22861928D01*
X-17710000Y-22861928D01*
X-17834482Y-22874188D01*
X-17954180Y-22910498D01*
X-18064494Y-22969463D01*
X-18161185Y-23048815D01*
X-18240537Y-23145506D01*
X-18299502Y-23255820D01*
X-18335812Y-23375518D01*
X-18348072Y-23500000D01*
X-18348072Y-24900000D01*
X-18335812Y-25024482D01*
X-18299502Y-25144180D01*
X-18240537Y-25254494D01*
X-18161185Y-25351185D01*
X-18064494Y-25430537D01*
X-17954180Y-25489502D01*
X-17834482Y-25525812D01*
X-17710000Y-25538072D01*
X-15710000Y-25538072D01*
X-15585518Y-25525812D01*
X-15465820Y-25489502D01*
X-15355506Y-25430537D01*
X-15258815Y-25351185D01*
X-15179463Y-25254494D01*
X-15120498Y-25144180D01*
X-15084188Y-25024482D01*
X-15071928Y-24900000D01*
X-15071928Y-24385000D01*
X-12154254Y-24385000D01*
X-12121724Y-24424637D01*
X-12151185Y-24448815D01*
X-12230537Y-24545506D01*
X-12289502Y-24655820D01*
X-12325812Y-24775518D01*
X-12338072Y-24900000D01*
X-12335000Y-25214250D01*
X-12176250Y-25373000D01*
X-11127000Y-25373000D01*
X-11127000Y-25353000D01*
X-10873000Y-25353000D01*
X-10873000Y-25373000D01*
X-9823750Y-25373000D01*
X-9665000Y-25214250D01*
X-9661928Y-24900000D01*
X-9674188Y-24775518D01*
X-9710498Y-24655820D01*
X-9769463Y-24545506D01*
X-9848815Y-24448815D01*
X-9878276Y-24424637D01*
X-9845746Y-24385000D01*
X-9366578Y-24385000D01*
X-9185000Y-24566579D01*
X-9184999Y-26027378D01*
X-9294180Y-26060498D01*
X-9404494Y-26119463D01*
X-9501185Y-26198815D01*
X-9580537Y-26295506D01*
X-9639502Y-26405820D01*
X-9675812Y-26525518D01*
X-9688072Y-26650000D01*
X-9688072Y-28650000D01*
X-9675812Y-28774482D01*
X-9639502Y-28894180D01*
X-9580537Y-29004494D01*
X-9501185Y-29101185D01*
X-9404494Y-29180537D01*
X-9294180Y-29239502D01*
X-9174482Y-29275812D01*
X-9050000Y-29288072D01*
X-7550000Y-29288072D01*
X-7425518Y-29275812D01*
X-7305820Y-29239502D01*
X-7195506Y-29180537D01*
X-7150000Y-29143191D01*
X-7104494Y-29180537D01*
X-6994180Y-29239502D01*
X-6874482Y-29275812D01*
X-6750000Y-29288072D01*
X-5250000Y-29288072D01*
X-5125518Y-29275812D01*
X-5005820Y-29239502D01*
X-4895506Y-29180537D01*
X-4850000Y-29143191D01*
X-4804494Y-29180537D01*
X-4694180Y-29239502D01*
X-4574482Y-29275812D01*
X-4450000Y-29288072D01*
X-3504999Y-29288072D01*
X-3504998Y-46304607D01*
X-3734642Y-46245635D01*
X-4036553Y-46229009D01*
X-4335907Y-46271603D01*
X-4621199Y-46371778D01*
X-4770792Y-46451739D01*
X-4854474Y-46705918D01*
X-4970422Y-46589970D01*
X-4975000Y-46594548D01*
X-4975000Y-46348816D01*
X-5033989Y-46052257D01*
X-5149701Y-45772905D01*
X-5317688Y-45521495D01*
X-5531495Y-45307688D01*
X-5782905Y-45139701D01*
X-6062257Y-45023989D01*
X-6358816Y-44965000D01*
X-6661184Y-44965000D01*
X-6957743Y-45023989D01*
X-7237095Y-45139701D01*
X-7488505Y-45307688D01*
X-7702312Y-45521495D01*
X-7804951Y-45675105D01*
X-7985920Y-45615525D01*
X-8870395Y-46500000D01*
X-8856252Y-46514143D01*
X-9035857Y-46693748D01*
X-9050000Y-46679605D01*
X-9064142Y-46693748D01*
X-9243747Y-46514143D01*
X-9229605Y-46500000D01*
X-10114080Y-45615525D01*
X-10295049Y-45675105D01*
X-10397688Y-45521495D01*
X-10483263Y-45435920D01*
X-9934475Y-45435920D01*
X-9050000Y-46320395D01*
X-8165525Y-45435920D01*
X-8249208Y-45181739D01*
X-8521775Y-45050842D01*
X-8814642Y-44975635D01*
X-9116553Y-44959009D01*
X-9415907Y-45001603D01*
X-9701199Y-45101778D01*
X-9850792Y-45181739D01*
X-9934475Y-45435920D01*
X-10483263Y-45435920D01*
X-10611495Y-45307688D01*
X-10862905Y-45139701D01*
X-11142257Y-45023989D01*
X-11438816Y-44965000D01*
X-11741184Y-44965000D01*
X-12037743Y-45023989D01*
X-12317095Y-45139701D01*
X-12568505Y-45307688D01*
X-12782312Y-45521495D01*
X-12860000Y-45637763D01*
X-12937688Y-45521495D01*
X-13151495Y-45307688D01*
X-13402905Y-45139701D01*
X-13682257Y-45023989D01*
X-13978816Y-44965000D01*
X-14281184Y-44965000D01*
X-14577743Y-45023989D01*
X-14857095Y-45139701D01*
X-15108505Y-45307688D01*
X-15322312Y-45521495D01*
X-15400000Y-45637763D01*
X-15477688Y-45521495D01*
X-15691495Y-45307688D01*
X-15785000Y-45245210D01*
X-15785000Y-39538072D01*
X-15710000Y-39538072D01*
X-15585518Y-39525812D01*
X-15465820Y-39489502D01*
X-15355506Y-39430537D01*
X-15258815Y-39351185D01*
X-15179463Y-39254494D01*
X-15120498Y-39144180D01*
X-15084188Y-39024482D01*
X-15071928Y-38900000D01*
X-15071928Y-37500000D01*
X-15084188Y-37375518D01*
X-15120498Y-37255820D01*
X-15179463Y-37145506D01*
X-15258815Y-37048815D01*
X-15355506Y-36969463D01*
X-15465820Y-36910498D01*
X-15585518Y-36874188D01*
X-15710000Y-36861928D01*
X-17710000Y-36861928D01*
X-17834482Y-36874188D01*
X-17954180Y-36910498D01*
X-18064494Y-36969463D01*
X-18161185Y-37048815D01*
X-18240537Y-37145506D01*
X-18299502Y-37255820D01*
X-18335812Y-37375518D01*
X-18348072Y-37500000D01*
X-18348072Y-38900000D01*
X-18335812Y-39024482D01*
X-18299502Y-39144180D01*
X-18240537Y-39254494D01*
X-18161185Y-39351185D01*
X-18064494Y-39430537D01*
X-17954180Y-39489502D01*
X-17834482Y-39525812D01*
X-17710000Y-39538072D01*
X-17554999Y-39538072D01*
X-17555000Y-45245210D01*
X-17648505Y-45307688D01*
X-17862312Y-45521495D01*
X-17940000Y-45637763D01*
X-18017688Y-45521495D01*
X-18231495Y-45307688D01*
X-18482905Y-45139701D01*
X-18762257Y-45023989D01*
X-19058816Y-44965000D01*
X-19361184Y-44965000D01*
X-19657743Y-45023989D01*
X-19937095Y-45139701D01*
X-20188505Y-45307688D01*
X-20402312Y-45521495D01*
X-20480000Y-45637763D01*
X-20557688Y-45521495D01*
X-20771495Y-45307688D01*
X-21022905Y-45139701D01*
X-21302257Y-45023989D01*
X-21598816Y-44965000D01*
X-21901184Y-44965000D01*
X-22197743Y-45023989D01*
X-22477095Y-45139701D01*
X-22728505Y-45307688D01*
X-22942312Y-45521495D01*
X-23020000Y-45637763D01*
X-23097688Y-45521495D01*
X-23311495Y-45307688D01*
X-23562905Y-45139701D01*
X-23842257Y-45023989D01*
X-24138816Y-44965000D01*
X-24441184Y-44965000D01*
X-24737743Y-45023989D01*
X-25017095Y-45139701D01*
X-25268505Y-45307688D01*
X-25482312Y-45521495D01*
X-25560000Y-45637763D01*
X-25637688Y-45521495D01*
X-25851495Y-45307688D01*
X-26102905Y-45139701D01*
X-26382257Y-45023989D01*
X-26678816Y-44965000D01*
X-26981184Y-44965000D01*
X-27238930Y-45016269D01*
X-34240000Y-38015199D01*
X-34240000Y-37500000D01*
X-23348072Y-37500000D01*
X-23348072Y-38900000D01*
X-23335812Y-39024482D01*
X-23299502Y-39144180D01*
X-23240537Y-39254494D01*
X-23161185Y-39351185D01*
X-23064494Y-39430537D01*
X-22954180Y-39489502D01*
X-22834482Y-39525812D01*
X-22710000Y-39538072D01*
X-20710000Y-39538072D01*
X-20585518Y-39525812D01*
X-20465820Y-39489502D01*
X-20355506Y-39430537D01*
X-20258815Y-39351185D01*
X-20179463Y-39254494D01*
X-20120498Y-39144180D01*
X-20084188Y-39024482D01*
X-20071928Y-38900000D01*
X-20071928Y-37500000D01*
X-20084188Y-37375518D01*
X-20120498Y-37255820D01*
X-20179463Y-37145506D01*
X-20258815Y-37048815D01*
X-20355506Y-36969463D01*
X-20465820Y-36910498D01*
X-20585518Y-36874188D01*
X-20710000Y-36861928D01*
X-22710000Y-36861928D01*
X-22834482Y-36874188D01*
X-22954180Y-36910498D01*
X-23064494Y-36969463D01*
X-23161185Y-37048815D01*
X-23240537Y-37145506D01*
X-23299502Y-37255820D01*
X-23335812Y-37375518D01*
X-23348072Y-37500000D01*
X-34240000Y-37500000D01*
X-34240000Y-16032000D01*
X-33610072Y-16032000D01*
X-33597812Y-16156482D01*
X-33561502Y-16276180D01*
X-33502537Y-16386494D01*
X-33423185Y-16483185D01*
X-33326494Y-16562537D01*
X-33216180Y-16621502D01*
X-33096482Y-16657812D01*
X-32972000Y-16670072D01*
X-32495750Y-16667000D01*
X-32337000Y-16508250D01*
X-32337000Y-15397000D01*
X-33448250Y-15397000D01*
X-33607000Y-15555750D01*
X-33610072Y-16032000D01*
X-34240000Y-16032000D01*
X-34240000Y-13294801D01*
X-33607000Y-12661801D01*
X-33607000Y-12867592D01*
%TA.AperFunction,Conductor*%
D30*
G36*
X-33607000Y-12867592D02*
G01*
X-33553314Y-13137490D01*
X-33448005Y-13391727D01*
X-33295120Y-13620535D01*
X-33100535Y-13815120D01*
X-33012535Y-13873920D01*
X-33096482Y-13882188D01*
X-33216180Y-13918498D01*
X-33326494Y-13977463D01*
X-33423185Y-14056815D01*
X-33502537Y-14153506D01*
X-33561502Y-14263820D01*
X-33597812Y-14383518D01*
X-33610072Y-14508000D01*
X-33607000Y-14984250D01*
X-33448250Y-15143000D01*
X-32337000Y-15143000D01*
X-32337000Y-15123000D01*
X-32083000Y-15123000D01*
X-32083000Y-15143000D01*
X-32063000Y-15143000D01*
X-32063000Y-15397000D01*
X-32083000Y-15397000D01*
X-32083000Y-16508250D01*
X-31924250Y-16667000D01*
X-31448000Y-16670072D01*
X-31323518Y-16657812D01*
X-31203820Y-16621502D01*
X-31093506Y-16562537D01*
X-30996815Y-16483185D01*
X-30917463Y-16386494D01*
X-30858498Y-16276180D01*
X-30822188Y-16156482D01*
X-30813920Y-16072535D01*
X-30755120Y-16160535D01*
X-30560535Y-16355120D01*
X-30331727Y-16508005D01*
X-30077490Y-16613314D01*
X-29807592Y-16667000D01*
X-29532408Y-16667000D01*
X-29525877Y-16665701D01*
X-25846530Y-20345049D01*
X-25818817Y-20378817D01*
X-25785049Y-20406530D01*
X-25785047Y-20406532D01*
X-25684059Y-20489411D01*
X-25530313Y-20571589D01*
X-25363490Y-20622195D01*
X-25233477Y-20635000D01*
X-25233469Y-20635000D01*
X-25190000Y-20639281D01*
X-25146531Y-20635000D01*
X-21240132Y-20635000D01*
X-22473140Y-21868009D01*
X-22516448Y-21903551D01*
X-22658283Y-22076377D01*
X-22677935Y-22113144D01*
X-22763676Y-22273554D01*
X-22786866Y-22350000D01*
X-22828577Y-22487501D01*
X-22839084Y-22594180D01*
X-22850491Y-22710000D01*
X-22845000Y-22765751D01*
X-22845000Y-22877379D01*
X-22954180Y-22910498D01*
X-23064494Y-22969463D01*
X-23161185Y-23048815D01*
X-23174468Y-23065000D01*
X-30144248Y-23065000D01*
X-30200000Y-23059509D01*
X-30255752Y-23065000D01*
X-30422499Y-23081423D01*
X-30636447Y-23146324D01*
X-30833623Y-23251716D01*
X-31006449Y-23393551D01*
X-31041992Y-23436860D01*
X-32225556Y-24620425D01*
X-32268864Y-24655967D01*
X-32410699Y-24828793D01*
X-32467032Y-24934186D01*
X-32516092Y-25025970D01*
X-32580993Y-25239918D01*
X-32602907Y-25462416D01*
X-32597415Y-25518177D01*
X-32597416Y-29081928D01*
X-32962416Y-29081928D01*
X-33086898Y-29094188D01*
X-33206596Y-29130498D01*
X-33316910Y-29189463D01*
X-33413601Y-29268815D01*
X-33492953Y-29365506D01*
X-33551918Y-29475820D01*
X-33588228Y-29595518D01*
X-33600488Y-29720000D01*
X-33600488Y-32720000D01*
X-33588228Y-32844482D01*
X-33551918Y-32964180D01*
X-33492953Y-33074494D01*
X-33413601Y-33171185D01*
X-33316910Y-33250537D01*
X-33206596Y-33309502D01*
X-33086898Y-33345812D01*
X-32962416Y-33358072D01*
X-29962416Y-33358072D01*
X-29837934Y-33345812D01*
X-29718236Y-33309502D01*
X-29607922Y-33250537D01*
X-29511231Y-33171185D01*
X-29431879Y-33074494D01*
X-29372914Y-32964180D01*
X-29336604Y-32844482D01*
X-29324344Y-32720000D01*
X-29324344Y-32711653D01*
X-12284464Y-32711653D01*
X-12128454Y-33027214D01*
X-11753671Y-33218020D01*
X-11348865Y-33332044D01*
X-10929592Y-33364902D01*
X-10511965Y-33315334D01*
X-10112033Y-33185243D01*
X-9816378Y-33027214D01*
X-9660368Y-32711653D01*
X-10972416Y-31399605D01*
X-12284464Y-32711653D01*
X-29324344Y-32711653D01*
X-29324344Y-31262824D01*
X-13117318Y-31262824D01*
X-13067750Y-31680451D01*
X-12937659Y-32080383D01*
X-12779630Y-32376038D01*
X-12464069Y-32532048D01*
X-11152021Y-31220000D01*
X-10792811Y-31220000D01*
X-9480763Y-32532048D01*
X-9165202Y-32376038D01*
X-8974396Y-32001255D01*
X-8860372Y-31596449D01*
X-8827514Y-31177176D01*
X-8877082Y-30759549D01*
X-9007173Y-30359617D01*
X-9165202Y-30063962D01*
X-9480763Y-29907952D01*
X-10792811Y-31220000D01*
X-11152021Y-31220000D01*
X-12464069Y-29907952D01*
X-12779630Y-30063962D01*
X-12970436Y-30438745D01*
X-13084460Y-30843551D01*
X-13117318Y-31262824D01*
X-29324344Y-31262824D01*
X-29324344Y-29728347D01*
X-12284464Y-29728347D01*
X-10972416Y-31040395D01*
X-9660368Y-29728347D01*
X-9816378Y-29412786D01*
X-10191161Y-29221980D01*
X-10595967Y-29107956D01*
X-11015240Y-29075098D01*
X-11432867Y-29124666D01*
X-11832799Y-29254757D01*
X-12128454Y-29412786D01*
X-12284464Y-29728347D01*
X-29324344Y-29728347D01*
X-29324344Y-29720000D01*
X-29336604Y-29595518D01*
X-29372914Y-29475820D01*
X-29431879Y-29365506D01*
X-29511231Y-29268815D01*
X-29607922Y-29189463D01*
X-29718236Y-29130498D01*
X-29837934Y-29094188D01*
X-29962416Y-29081928D01*
X-30327416Y-29081928D01*
X-30327416Y-26100000D01*
X-12338072Y-26100000D01*
X-12325812Y-26224482D01*
X-12289502Y-26344180D01*
X-12230537Y-26454494D01*
X-12151185Y-26551185D01*
X-12054494Y-26630537D01*
X-11944180Y-26689502D01*
X-11824482Y-26725812D01*
X-11700000Y-26738072D01*
X-11285750Y-26735000D01*
X-11127000Y-26576250D01*
X-11127000Y-25627000D01*
X-10873000Y-25627000D01*
X-10873000Y-26576250D01*
X-10714250Y-26735000D01*
X-10300000Y-26738072D01*
X-10175518Y-26725812D01*
X-10055820Y-26689502D01*
X-9945506Y-26630537D01*
X-9848815Y-26551185D01*
X-9769463Y-26454494D01*
X-9710498Y-26344180D01*
X-9674188Y-26224482D01*
X-9661928Y-26100000D01*
X-9665000Y-25785750D01*
X-9823750Y-25627000D01*
X-10873000Y-25627000D01*
X-11127000Y-25627000D01*
X-12176250Y-25627000D01*
X-12335000Y-25785750D01*
X-12338072Y-26100000D01*
X-30327416Y-26100000D01*
X-30327416Y-25932547D01*
X-29729868Y-25335000D01*
X-23174468Y-25335000D01*
X-23161185Y-25351185D01*
X-23064494Y-25430537D01*
X-22954180Y-25489502D01*
X-22834482Y-25525812D01*
X-22710000Y-25538072D01*
X-20710000Y-25538072D01*
X-20585518Y-25525812D01*
X-20465820Y-25489502D01*
X-20355506Y-25430537D01*
X-20258815Y-25351185D01*
X-20179463Y-25254494D01*
X-20120498Y-25144180D01*
X-20084188Y-25024482D01*
X-20071928Y-24900000D01*
X-20071928Y-23500000D01*
X-20084188Y-23375518D01*
X-20120498Y-23255820D01*
X-20179463Y-23145506D01*
X-20258815Y-23048815D01*
X-20355506Y-22969463D01*
X-20361257Y-22966389D01*
X-19879868Y-22485000D01*
X-12032831Y-22485000D01*
X-12077962Y-22522038D01*
X-12154254Y-22615000D01*
X-15966535Y-22615000D01*
X-16010001Y-22610719D01*
X-16053467Y-22615000D01*
X-16053477Y-22615000D01*
X-16183490Y-22627805D01*
X-16350313Y-22678411D01*
X-16504059Y-22760589D01*
X-16504061Y-22760590D01*
X-16504060Y-22760590D01*
X-16605047Y-22843468D01*
X-16605049Y-22843470D01*
X-16627540Y-22861928D01*
X-17710000Y-22861928D01*
X-17834482Y-22874188D01*
X-17954180Y-22910498D01*
X-18064494Y-22969463D01*
X-18161185Y-23048815D01*
X-18240537Y-23145506D01*
X-18299502Y-23255820D01*
X-18335812Y-23375518D01*
X-18348072Y-23500000D01*
X-18348072Y-24900000D01*
X-18335812Y-25024482D01*
X-18299502Y-25144180D01*
X-18240537Y-25254494D01*
X-18161185Y-25351185D01*
X-18064494Y-25430537D01*
X-17954180Y-25489502D01*
X-17834482Y-25525812D01*
X-17710000Y-25538072D01*
X-15710000Y-25538072D01*
X-15585518Y-25525812D01*
X-15465820Y-25489502D01*
X-15355506Y-25430537D01*
X-15258815Y-25351185D01*
X-15179463Y-25254494D01*
X-15120498Y-25144180D01*
X-15084188Y-25024482D01*
X-15071928Y-24900000D01*
X-15071928Y-24385000D01*
X-12154254Y-24385000D01*
X-12121724Y-24424637D01*
X-12151185Y-24448815D01*
X-12230537Y-24545506D01*
X-12289502Y-24655820D01*
X-12325812Y-24775518D01*
X-12338072Y-24900000D01*
X-12335000Y-25214250D01*
X-12176250Y-25373000D01*
X-11127000Y-25373000D01*
X-11127000Y-25353000D01*
X-10873000Y-25353000D01*
X-10873000Y-25373000D01*
X-9823750Y-25373000D01*
X-9665000Y-25214250D01*
X-9661928Y-24900000D01*
X-9674188Y-24775518D01*
X-9710498Y-24655820D01*
X-9769463Y-24545506D01*
X-9848815Y-24448815D01*
X-9878276Y-24424637D01*
X-9845746Y-24385000D01*
X-9366578Y-24385000D01*
X-9185000Y-24566579D01*
X-9184999Y-26027378D01*
X-9294180Y-26060498D01*
X-9404494Y-26119463D01*
X-9501185Y-26198815D01*
X-9580537Y-26295506D01*
X-9639502Y-26405820D01*
X-9675812Y-26525518D01*
X-9688072Y-26650000D01*
X-9688072Y-28650000D01*
X-9675812Y-28774482D01*
X-9639502Y-28894180D01*
X-9580537Y-29004494D01*
X-9501185Y-29101185D01*
X-9404494Y-29180537D01*
X-9294180Y-29239502D01*
X-9174482Y-29275812D01*
X-9050000Y-29288072D01*
X-7550000Y-29288072D01*
X-7425518Y-29275812D01*
X-7305820Y-29239502D01*
X-7195506Y-29180537D01*
X-7150000Y-29143191D01*
X-7104494Y-29180537D01*
X-6994180Y-29239502D01*
X-6874482Y-29275812D01*
X-6750000Y-29288072D01*
X-5250000Y-29288072D01*
X-5125518Y-29275812D01*
X-5005820Y-29239502D01*
X-4895506Y-29180537D01*
X-4850000Y-29143191D01*
X-4804494Y-29180537D01*
X-4694180Y-29239502D01*
X-4574482Y-29275812D01*
X-4450000Y-29288072D01*
X-3504999Y-29288072D01*
X-3504998Y-46304607D01*
X-3734642Y-46245635D01*
X-4036553Y-46229009D01*
X-4335907Y-46271603D01*
X-4621199Y-46371778D01*
X-4770792Y-46451739D01*
X-4854474Y-46705918D01*
X-4970422Y-46589970D01*
X-4975000Y-46594548D01*
X-4975000Y-46348816D01*
X-5033989Y-46052257D01*
X-5149701Y-45772905D01*
X-5317688Y-45521495D01*
X-5531495Y-45307688D01*
X-5782905Y-45139701D01*
X-6062257Y-45023989D01*
X-6358816Y-44965000D01*
X-6661184Y-44965000D01*
X-6957743Y-45023989D01*
X-7237095Y-45139701D01*
X-7488505Y-45307688D01*
X-7702312Y-45521495D01*
X-7804951Y-45675105D01*
X-7985920Y-45615525D01*
X-8870395Y-46500000D01*
X-8856252Y-46514143D01*
X-9035857Y-46693748D01*
X-9050000Y-46679605D01*
X-9064142Y-46693748D01*
X-9243747Y-46514143D01*
X-9229605Y-46500000D01*
X-10114080Y-45615525D01*
X-10295049Y-45675105D01*
X-10397688Y-45521495D01*
X-10483263Y-45435920D01*
X-9934475Y-45435920D01*
X-9050000Y-46320395D01*
X-8165525Y-45435920D01*
X-8249208Y-45181739D01*
X-8521775Y-45050842D01*
X-8814642Y-44975635D01*
X-9116553Y-44959009D01*
X-9415907Y-45001603D01*
X-9701199Y-45101778D01*
X-9850792Y-45181739D01*
X-9934475Y-45435920D01*
X-10483263Y-45435920D01*
X-10611495Y-45307688D01*
X-10862905Y-45139701D01*
X-11142257Y-45023989D01*
X-11438816Y-44965000D01*
X-11741184Y-44965000D01*
X-12037743Y-45023989D01*
X-12317095Y-45139701D01*
X-12568505Y-45307688D01*
X-12782312Y-45521495D01*
X-12860000Y-45637763D01*
X-12937688Y-45521495D01*
X-13151495Y-45307688D01*
X-13402905Y-45139701D01*
X-13682257Y-45023989D01*
X-13978816Y-44965000D01*
X-14281184Y-44965000D01*
X-14577743Y-45023989D01*
X-14857095Y-45139701D01*
X-15108505Y-45307688D01*
X-15322312Y-45521495D01*
X-15400000Y-45637763D01*
X-15477688Y-45521495D01*
X-15691495Y-45307688D01*
X-15785000Y-45245210D01*
X-15785000Y-39538072D01*
X-15710000Y-39538072D01*
X-15585518Y-39525812D01*
X-15465820Y-39489502D01*
X-15355506Y-39430537D01*
X-15258815Y-39351185D01*
X-15179463Y-39254494D01*
X-15120498Y-39144180D01*
X-15084188Y-39024482D01*
X-15071928Y-38900000D01*
X-15071928Y-37500000D01*
X-15084188Y-37375518D01*
X-15120498Y-37255820D01*
X-15179463Y-37145506D01*
X-15258815Y-37048815D01*
X-15355506Y-36969463D01*
X-15465820Y-36910498D01*
X-15585518Y-36874188D01*
X-15710000Y-36861928D01*
X-17710000Y-36861928D01*
X-17834482Y-36874188D01*
X-17954180Y-36910498D01*
X-18064494Y-36969463D01*
X-18161185Y-37048815D01*
X-18240537Y-37145506D01*
X-18299502Y-37255820D01*
X-18335812Y-37375518D01*
X-18348072Y-37500000D01*
X-18348072Y-38900000D01*
X-18335812Y-39024482D01*
X-18299502Y-39144180D01*
X-18240537Y-39254494D01*
X-18161185Y-39351185D01*
X-18064494Y-39430537D01*
X-17954180Y-39489502D01*
X-17834482Y-39525812D01*
X-17710000Y-39538072D01*
X-17554999Y-39538072D01*
X-17555000Y-45245210D01*
X-17648505Y-45307688D01*
X-17862312Y-45521495D01*
X-17940000Y-45637763D01*
X-18017688Y-45521495D01*
X-18231495Y-45307688D01*
X-18482905Y-45139701D01*
X-18762257Y-45023989D01*
X-19058816Y-44965000D01*
X-19361184Y-44965000D01*
X-19657743Y-45023989D01*
X-19937095Y-45139701D01*
X-20188505Y-45307688D01*
X-20402312Y-45521495D01*
X-20480000Y-45637763D01*
X-20557688Y-45521495D01*
X-20771495Y-45307688D01*
X-21022905Y-45139701D01*
X-21302257Y-45023989D01*
X-21598816Y-44965000D01*
X-21901184Y-44965000D01*
X-22197743Y-45023989D01*
X-22477095Y-45139701D01*
X-22728505Y-45307688D01*
X-22942312Y-45521495D01*
X-23020000Y-45637763D01*
X-23097688Y-45521495D01*
X-23311495Y-45307688D01*
X-23562905Y-45139701D01*
X-23842257Y-45023989D01*
X-24138816Y-44965000D01*
X-24441184Y-44965000D01*
X-24737743Y-45023989D01*
X-25017095Y-45139701D01*
X-25268505Y-45307688D01*
X-25482312Y-45521495D01*
X-25560000Y-45637763D01*
X-25637688Y-45521495D01*
X-25851495Y-45307688D01*
X-26102905Y-45139701D01*
X-26382257Y-45023989D01*
X-26678816Y-44965000D01*
X-26981184Y-44965000D01*
X-27238930Y-45016269D01*
X-34240000Y-38015199D01*
X-34240000Y-37500000D01*
X-23348072Y-37500000D01*
X-23348072Y-38900000D01*
X-23335812Y-39024482D01*
X-23299502Y-39144180D01*
X-23240537Y-39254494D01*
X-23161185Y-39351185D01*
X-23064494Y-39430537D01*
X-22954180Y-39489502D01*
X-22834482Y-39525812D01*
X-22710000Y-39538072D01*
X-20710000Y-39538072D01*
X-20585518Y-39525812D01*
X-20465820Y-39489502D01*
X-20355506Y-39430537D01*
X-20258815Y-39351185D01*
X-20179463Y-39254494D01*
X-20120498Y-39144180D01*
X-20084188Y-39024482D01*
X-20071928Y-38900000D01*
X-20071928Y-37500000D01*
X-20084188Y-37375518D01*
X-20120498Y-37255820D01*
X-20179463Y-37145506D01*
X-20258815Y-37048815D01*
X-20355506Y-36969463D01*
X-20465820Y-36910498D01*
X-20585518Y-36874188D01*
X-20710000Y-36861928D01*
X-22710000Y-36861928D01*
X-22834482Y-36874188D01*
X-22954180Y-36910498D01*
X-23064494Y-36969463D01*
X-23161185Y-37048815D01*
X-23240537Y-37145506D01*
X-23299502Y-37255820D01*
X-23335812Y-37375518D01*
X-23348072Y-37500000D01*
X-34240000Y-37500000D01*
X-34240000Y-16032000D01*
X-33610072Y-16032000D01*
X-33597812Y-16156482D01*
X-33561502Y-16276180D01*
X-33502537Y-16386494D01*
X-33423185Y-16483185D01*
X-33326494Y-16562537D01*
X-33216180Y-16621502D01*
X-33096482Y-16657812D01*
X-32972000Y-16670072D01*
X-32495750Y-16667000D01*
X-32337000Y-16508250D01*
X-32337000Y-15397000D01*
X-33448250Y-15397000D01*
X-33607000Y-15555750D01*
X-33610072Y-16032000D01*
X-34240000Y-16032000D01*
X-34240000Y-13294801D01*
X-33607000Y-12661801D01*
X-33607000Y-12867592D01*
G37*
%TD.AperFunction*%
%TD*%
M02*
