%TF.GenerationSoftware,KiCad,Pcbnew,5.1.8*%
%TF.CreationDate,2020-11-22T08:43:44-05:00*%
%TF.ProjectId,on_air_sign,6f6e5f61-6972-45f7-9369-676e2e6b6963,rev?*%
%TF.SameCoordinates,PXb864970PY2cdc600*%
%TF.FileFunction,Copper,L2,Bot*%
%TF.FilePolarity,Positive*%
%FSLAX46Y46*%
G04 Gerber Fmt 4.6, Leading zero omitted, Abs format (unit mm)*
G04 Created by KiCad (PCBNEW 5.1.8) date 2020-11-22 08:43:44*
%MOMM*%
%LPD*%
G01*
G04 APERTURE LIST*
%TA.AperFunction,SMDPad,CuDef*%
%ADD10R,1.700000X1.700000*%
%TD*%
%TA.AperFunction,SMDPad,CuDef*%
%ADD11O,1.700000X1.700000*%
%TD*%
%TA.AperFunction,ComponentPad*%
%ADD12O,1.050000X1.500000*%
%TD*%
%TA.AperFunction,ComponentPad*%
%ADD13R,1.050000X1.500000*%
%TD*%
%TA.AperFunction,ComponentPad*%
%ADD14O,1.400000X1.400000*%
%TD*%
%TA.AperFunction,ComponentPad*%
%ADD15C,1.400000*%
%TD*%
%TA.AperFunction,ComponentPad*%
%ADD16C,1.800000*%
%TD*%
%TA.AperFunction,SMDPad,CuDef*%
%ADD17R,2.500000X2.500000*%
%TD*%
%TA.AperFunction,ComponentPad*%
%ADD18C,1.600000*%
%TD*%
%TA.AperFunction,SMDPad,CuDef*%
%ADD19R,1.750000X1.900000*%
%TD*%
%TA.AperFunction,SMDPad,CuDef*%
%ADD20R,0.400000X1.400000*%
%TD*%
%TA.AperFunction,ComponentPad*%
%ADD21O,1.050000X1.900000*%
%TD*%
%TA.AperFunction,SMDPad,CuDef*%
%ADD22R,1.150000X1.450000*%
%TD*%
%TA.AperFunction,ComponentPad*%
%ADD23C,1.500000*%
%TD*%
%TA.AperFunction,Conductor*%
%ADD24C,0.250000*%
%TD*%
%TA.AperFunction,Conductor*%
%ADD25C,0.800000*%
%TD*%
%TA.AperFunction,Conductor*%
%ADD26C,0.600000*%
%TD*%
%TA.AperFunction,Conductor*%
%ADD27C,0.254000*%
%TD*%
%TA.AperFunction,Conductor*%
%ADD28C,0.100000*%
%TD*%
G04 APERTURE END LIST*
D10*
%TO.P,J2,1*%
%TO.N,GND*%
X-90450000Y-26560000D03*
D11*
%TO.P,J2,2*%
%TO.N,/~CTS*%
X-87910000Y-26560000D03*
%TO.P,J2,3*%
%TO.N,+3V3*%
X-85370000Y-26560000D03*
%TO.P,J2,4*%
%TO.N,/TDX*%
X-82830000Y-26560000D03*
%TO.P,J2,5*%
%TO.N,/RXD*%
X-80290000Y-26560000D03*
%TO.P,J2,6*%
%TO.N,/~DTR*%
X-77750000Y-26560000D03*
%TD*%
D12*
%TO.P,Q1,2*%
%TO.N,Net-(Q1-Pad2)*%
X-42440000Y-23760000D03*
%TO.P,Q1,3*%
%TO.N,/RED*%
X-41170000Y-23760000D03*
D13*
%TO.P,Q1,1*%
%TO.N,GND*%
X-43710000Y-23760000D03*
%TD*%
%TO.P,Q2,1*%
%TO.N,GND*%
X-30550000Y-23760000D03*
D12*
%TO.P,Q2,3*%
%TO.N,/GRN*%
X-28010000Y-23760000D03*
%TO.P,Q2,2*%
%TO.N,Net-(Q2-Pad2)*%
X-29280000Y-23760000D03*
%TD*%
%TO.P,Q3,2*%
%TO.N,Net-(Q3-Pad2)*%
X-15980000Y-23760000D03*
%TO.P,Q3,3*%
%TO.N,/BLU*%
X-14710000Y-23760000D03*
D13*
%TO.P,Q3,1*%
%TO.N,GND*%
X-17250000Y-23760000D03*
%TD*%
D14*
%TO.P,R3,2*%
%TO.N,/RED_PIN*%
X-38630000Y-26860000D03*
D15*
%TO.P,R3,1*%
%TO.N,Net-(Q1-Pad2)*%
X-46250000Y-26860000D03*
%TD*%
D14*
%TO.P,R4,2*%
%TO.N,/GRN_PIN*%
X-25470000Y-26860000D03*
D15*
%TO.P,R4,1*%
%TO.N,Net-(Q2-Pad2)*%
X-33090000Y-26860000D03*
%TD*%
%TO.P,R5,1*%
%TO.N,Net-(Q3-Pad2)*%
X-19790000Y-26860000D03*
D14*
%TO.P,R5,2*%
%TO.N,/BLU_PIN*%
X-12170000Y-26860000D03*
%TD*%
%TO.P,D1,1*%
%TO.N,Net-(D1-Pad1)*%
%TA.AperFunction,ComponentPad*%
G36*
G01*
X-139817500Y-15150000D02*
X-139817500Y-14250000D01*
G75*
G02*
X-139367500Y-13800000I450000J0D01*
G01*
X-138467500Y-13800000D01*
G75*
G02*
X-138017500Y-14250000I0J-450000D01*
G01*
X-138017500Y-15150000D01*
G75*
G02*
X-138467500Y-15600000I-450000J0D01*
G01*
X-139367500Y-15600000D01*
G75*
G02*
X-139817500Y-15150000I0J450000D01*
G01*
G37*
%TD.AperFunction*%
D16*
%TO.P,D1,2*%
%TO.N,+5V*%
X-137139500Y-16224000D03*
%TO.P,D1,3*%
%TO.N,Net-(D1-Pad3)*%
X-135615500Y-14700000D03*
%TO.P,D1,4*%
%TO.N,Net-(D1-Pad4)*%
X-134091500Y-16224000D03*
%TD*%
%TO.P,D2,1*%
%TO.N,Net-(D2-Pad1)*%
%TA.AperFunction,ComponentPad*%
G36*
G01*
X-128326250Y-15150000D02*
X-128326250Y-14250000D01*
G75*
G02*
X-127876250Y-13800000I450000J0D01*
G01*
X-126976250Y-13800000D01*
G75*
G02*
X-126526250Y-14250000I0J-450000D01*
G01*
X-126526250Y-15150000D01*
G75*
G02*
X-126976250Y-15600000I-450000J0D01*
G01*
X-127876250Y-15600000D01*
G75*
G02*
X-128326250Y-15150000I0J450000D01*
G01*
G37*
%TD.AperFunction*%
%TO.P,D2,2*%
%TO.N,+5V*%
X-125648250Y-16224000D03*
%TO.P,D2,3*%
%TO.N,Net-(D2-Pad3)*%
X-124124250Y-14700000D03*
%TO.P,D2,4*%
%TO.N,Net-(D2-Pad4)*%
X-122600250Y-16224000D03*
%TD*%
%TO.P,D3,4*%
%TO.N,Net-(D3-Pad4)*%
X-111119000Y-16224000D03*
%TO.P,D3,3*%
%TO.N,Net-(D3-Pad3)*%
X-112643000Y-14700000D03*
%TO.P,D3,2*%
%TO.N,+5V*%
X-114167000Y-16224000D03*
%TO.P,D3,1*%
%TO.N,Net-(D3-Pad1)*%
%TA.AperFunction,ComponentPad*%
G36*
G01*
X-116845000Y-15150000D02*
X-116845000Y-14250000D01*
G75*
G02*
X-116395000Y-13800000I450000J0D01*
G01*
X-115495000Y-13800000D01*
G75*
G02*
X-115045000Y-14250000I0J-450000D01*
G01*
X-115045000Y-15150000D01*
G75*
G02*
X-115495000Y-15600000I-450000J0D01*
G01*
X-116395000Y-15600000D01*
G75*
G02*
X-116845000Y-15150000I0J450000D01*
G01*
G37*
%TD.AperFunction*%
%TD*%
%TO.P,D4,4*%
%TO.N,Net-(D4-Pad4)*%
X-99637750Y-16224000D03*
%TO.P,D4,3*%
%TO.N,Net-(D4-Pad3)*%
X-101161750Y-14700000D03*
%TO.P,D4,2*%
%TO.N,+5V*%
X-102685750Y-16224000D03*
%TO.P,D4,1*%
%TO.N,Net-(D4-Pad1)*%
%TA.AperFunction,ComponentPad*%
G36*
G01*
X-105363750Y-15150000D02*
X-105363750Y-14250000D01*
G75*
G02*
X-104913750Y-13800000I450000J0D01*
G01*
X-104013750Y-13800000D01*
G75*
G02*
X-103563750Y-14250000I0J-450000D01*
G01*
X-103563750Y-15150000D01*
G75*
G02*
X-104013750Y-15600000I-450000J0D01*
G01*
X-104913750Y-15600000D01*
G75*
G02*
X-105363750Y-15150000I0J450000D01*
G01*
G37*
%TD.AperFunction*%
%TD*%
%TO.P,D5,1*%
%TO.N,Net-(D5-Pad1)*%
%TA.AperFunction,ComponentPad*%
G36*
G01*
X-93882500Y-15150000D02*
X-93882500Y-14250000D01*
G75*
G02*
X-93432500Y-13800000I450000J0D01*
G01*
X-92532500Y-13800000D01*
G75*
G02*
X-92082500Y-14250000I0J-450000D01*
G01*
X-92082500Y-15150000D01*
G75*
G02*
X-92532500Y-15600000I-450000J0D01*
G01*
X-93432500Y-15600000D01*
G75*
G02*
X-93882500Y-15150000I0J450000D01*
G01*
G37*
%TD.AperFunction*%
%TO.P,D5,2*%
%TO.N,+5V*%
X-91204500Y-16224000D03*
%TO.P,D5,3*%
%TO.N,Net-(D5-Pad3)*%
X-89680500Y-14700000D03*
%TO.P,D5,4*%
%TO.N,Net-(D5-Pad4)*%
X-88156500Y-16224000D03*
%TD*%
%TO.P,D6,4*%
%TO.N,Net-(D6-Pad4)*%
X-76675250Y-16224000D03*
%TO.P,D6,3*%
%TO.N,Net-(D6-Pad3)*%
X-78199250Y-14700000D03*
%TO.P,D6,2*%
%TO.N,+5V*%
X-79723250Y-16224000D03*
%TO.P,D6,1*%
%TO.N,Net-(D6-Pad1)*%
%TA.AperFunction,ComponentPad*%
G36*
G01*
X-82401250Y-15150000D02*
X-82401250Y-14250000D01*
G75*
G02*
X-81951250Y-13800000I450000J0D01*
G01*
X-81051250Y-13800000D01*
G75*
G02*
X-80601250Y-14250000I0J-450000D01*
G01*
X-80601250Y-15150000D01*
G75*
G02*
X-81051250Y-15600000I-450000J0D01*
G01*
X-81951250Y-15600000D01*
G75*
G02*
X-82401250Y-15150000I0J450000D01*
G01*
G37*
%TD.AperFunction*%
%TD*%
%TO.P,D7,4*%
%TO.N,Net-(D7-Pad4)*%
X-65194000Y-16224000D03*
%TO.P,D7,3*%
%TO.N,Net-(D7-Pad3)*%
X-66718000Y-14700000D03*
%TO.P,D7,2*%
%TO.N,+5V*%
X-68242000Y-16224000D03*
%TO.P,D7,1*%
%TO.N,Net-(D7-Pad1)*%
%TA.AperFunction,ComponentPad*%
G36*
G01*
X-70920000Y-15150000D02*
X-70920000Y-14250000D01*
G75*
G02*
X-70470000Y-13800000I450000J0D01*
G01*
X-69570000Y-13800000D01*
G75*
G02*
X-69120000Y-14250000I0J-450000D01*
G01*
X-69120000Y-15150000D01*
G75*
G02*
X-69570000Y-15600000I-450000J0D01*
G01*
X-70470000Y-15600000D01*
G75*
G02*
X-70920000Y-15150000I0J450000D01*
G01*
G37*
%TD.AperFunction*%
%TD*%
%TO.P,D8,1*%
%TO.N,Net-(D8-Pad1)*%
%TA.AperFunction,ComponentPad*%
G36*
G01*
X-59438750Y-15150000D02*
X-59438750Y-14250000D01*
G75*
G02*
X-58988750Y-13800000I450000J0D01*
G01*
X-58088750Y-13800000D01*
G75*
G02*
X-57638750Y-14250000I0J-450000D01*
G01*
X-57638750Y-15150000D01*
G75*
G02*
X-58088750Y-15600000I-450000J0D01*
G01*
X-58988750Y-15600000D01*
G75*
G02*
X-59438750Y-15150000I0J450000D01*
G01*
G37*
%TD.AperFunction*%
%TO.P,D8,2*%
%TO.N,+5V*%
X-56760750Y-16224000D03*
%TO.P,D8,3*%
%TO.N,Net-(D8-Pad3)*%
X-55236750Y-14700000D03*
%TO.P,D8,4*%
%TO.N,Net-(D8-Pad4)*%
X-53712750Y-16224000D03*
%TD*%
%TO.P,D9,4*%
%TO.N,Net-(D9-Pad4)*%
X-42231500Y-16224000D03*
%TO.P,D9,3*%
%TO.N,Net-(D9-Pad3)*%
X-43755500Y-14700000D03*
%TO.P,D9,2*%
%TO.N,+5V*%
X-45279500Y-16224000D03*
%TO.P,D9,1*%
%TO.N,Net-(D9-Pad1)*%
%TA.AperFunction,ComponentPad*%
G36*
G01*
X-47957500Y-15150000D02*
X-47957500Y-14250000D01*
G75*
G02*
X-47507500Y-13800000I450000J0D01*
G01*
X-46607500Y-13800000D01*
G75*
G02*
X-46157500Y-14250000I0J-450000D01*
G01*
X-46157500Y-15150000D01*
G75*
G02*
X-46607500Y-15600000I-450000J0D01*
G01*
X-47507500Y-15600000D01*
G75*
G02*
X-47957500Y-15150000I0J450000D01*
G01*
G37*
%TD.AperFunction*%
%TD*%
%TO.P,D10,4*%
%TO.N,Net-(D10-Pad4)*%
X-30750250Y-16224000D03*
%TO.P,D10,3*%
%TO.N,Net-(D10-Pad3)*%
X-32274250Y-14700000D03*
%TO.P,D10,2*%
%TO.N,+5V*%
X-33798250Y-16224000D03*
%TO.P,D10,1*%
%TO.N,Net-(D10-Pad1)*%
%TA.AperFunction,ComponentPad*%
G36*
G01*
X-36476250Y-15150000D02*
X-36476250Y-14250000D01*
G75*
G02*
X-36026250Y-13800000I450000J0D01*
G01*
X-35126250Y-13800000D01*
G75*
G02*
X-34676250Y-14250000I0J-450000D01*
G01*
X-34676250Y-15150000D01*
G75*
G02*
X-35126250Y-15600000I-450000J0D01*
G01*
X-36026250Y-15600000D01*
G75*
G02*
X-36476250Y-15150000I0J450000D01*
G01*
G37*
%TD.AperFunction*%
%TD*%
%TO.P,D11,1*%
%TO.N,Net-(D11-Pad1)*%
%TA.AperFunction,ComponentPad*%
G36*
G01*
X-24995000Y-15150000D02*
X-24995000Y-14250000D01*
G75*
G02*
X-24545000Y-13800000I450000J0D01*
G01*
X-23645000Y-13800000D01*
G75*
G02*
X-23195000Y-14250000I0J-450000D01*
G01*
X-23195000Y-15150000D01*
G75*
G02*
X-23645000Y-15600000I-450000J0D01*
G01*
X-24545000Y-15600000D01*
G75*
G02*
X-24995000Y-15150000I0J450000D01*
G01*
G37*
%TD.AperFunction*%
%TO.P,D11,2*%
%TO.N,+5V*%
X-22317000Y-16224000D03*
%TO.P,D11,3*%
%TO.N,Net-(D11-Pad3)*%
X-20793000Y-14700000D03*
%TO.P,D11,4*%
%TO.N,Net-(D11-Pad4)*%
X-19269000Y-16224000D03*
%TD*%
%TO.P,D12,1*%
%TO.N,Net-(D12-Pad1)*%
%TA.AperFunction,ComponentPad*%
G36*
G01*
X-13513750Y-15150000D02*
X-13513750Y-14250000D01*
G75*
G02*
X-13063750Y-13800000I450000J0D01*
G01*
X-12163750Y-13800000D01*
G75*
G02*
X-11713750Y-14250000I0J-450000D01*
G01*
X-11713750Y-15150000D01*
G75*
G02*
X-12163750Y-15600000I-450000J0D01*
G01*
X-13063750Y-15600000D01*
G75*
G02*
X-13513750Y-15150000I0J450000D01*
G01*
G37*
%TD.AperFunction*%
%TO.P,D12,2*%
%TO.N,+5V*%
X-10835750Y-16224000D03*
%TO.P,D12,3*%
%TO.N,Net-(D12-Pad3)*%
X-9311750Y-14700000D03*
%TO.P,D12,4*%
%TO.N,Net-(D12-Pad4)*%
X-7787750Y-16224000D03*
%TD*%
D17*
%TO.P,J4,1*%
%TO.N,/RED_PIN*%
X-37950000Y-24060000D03*
%TD*%
%TO.P,J5,1*%
%TO.N,/GRN_PIN*%
X-24750000Y-24060000D03*
%TD*%
%TO.P,J6,1*%
%TO.N,/BLU_PIN*%
X-11450000Y-24060000D03*
%TD*%
D15*
%TO.P,R1,1*%
%TO.N,Net-(D1-Pad1)*%
X-140317500Y-11110000D03*
D14*
%TO.P,R1,2*%
%TO.N,/RED*%
X-132697500Y-11110000D03*
%TD*%
%TO.P,R2,2*%
%TO.N,/GRN*%
X-132697500Y-8960000D03*
D15*
%TO.P,R2,1*%
%TO.N,Net-(D1-Pad3)*%
X-140317500Y-8960000D03*
%TD*%
D14*
%TO.P,R6,2*%
%TO.N,/BLU*%
X-132697500Y-6820000D03*
D15*
%TO.P,R6,1*%
%TO.N,Net-(D1-Pad4)*%
X-140317500Y-6820000D03*
%TD*%
%TO.P,R7,1*%
%TO.N,Net-(D2-Pad1)*%
X-128826250Y-11110000D03*
D14*
%TO.P,R7,2*%
%TO.N,/RED*%
X-121206250Y-11110000D03*
%TD*%
D15*
%TO.P,R8,1*%
%TO.N,Net-(D2-Pad3)*%
X-128826250Y-8960000D03*
D14*
%TO.P,R8,2*%
%TO.N,/GRN*%
X-121206250Y-8960000D03*
%TD*%
%TO.P,R9,2*%
%TO.N,/BLU*%
X-121206250Y-6810000D03*
D15*
%TO.P,R9,1*%
%TO.N,Net-(D2-Pad4)*%
X-128826250Y-6810000D03*
%TD*%
D14*
%TO.P,R10,2*%
%TO.N,/RED*%
X-109725000Y-11120000D03*
D15*
%TO.P,R10,1*%
%TO.N,Net-(D3-Pad1)*%
X-117345000Y-11120000D03*
%TD*%
%TO.P,R11,1*%
%TO.N,Net-(D3-Pad3)*%
X-117345000Y-8970000D03*
D14*
%TO.P,R11,2*%
%TO.N,/GRN*%
X-109725000Y-8970000D03*
%TD*%
%TO.P,R12,2*%
%TO.N,/BLU*%
X-109725000Y-6820000D03*
D15*
%TO.P,R12,1*%
%TO.N,Net-(D3-Pad4)*%
X-117345000Y-6820000D03*
%TD*%
%TO.P,R13,1*%
%TO.N,Net-(D4-Pad1)*%
X-105863750Y-11100000D03*
D14*
%TO.P,R13,2*%
%TO.N,/RED*%
X-98243750Y-11100000D03*
%TD*%
%TO.P,R14,2*%
%TO.N,/GRN*%
X-98243750Y-8950000D03*
D15*
%TO.P,R14,1*%
%TO.N,Net-(D4-Pad3)*%
X-105863750Y-8950000D03*
%TD*%
%TO.P,R15,1*%
%TO.N,Net-(D4-Pad4)*%
X-105863750Y-6810000D03*
D14*
%TO.P,R15,2*%
%TO.N,/BLU*%
X-98243750Y-6810000D03*
%TD*%
D15*
%TO.P,R16,1*%
%TO.N,Net-(D5-Pad1)*%
X-94382500Y-11110000D03*
D14*
%TO.P,R16,2*%
%TO.N,/RED*%
X-86762500Y-11110000D03*
%TD*%
%TO.P,R17,2*%
%TO.N,/GRN*%
X-86762500Y-8960000D03*
D15*
%TO.P,R17,1*%
%TO.N,Net-(D5-Pad3)*%
X-94382500Y-8960000D03*
%TD*%
%TO.P,R18,1*%
%TO.N,Net-(D5-Pad4)*%
X-94382500Y-6810000D03*
D14*
%TO.P,R18,2*%
%TO.N,/BLU*%
X-86762500Y-6810000D03*
%TD*%
%TO.P,R19,2*%
%TO.N,/RED*%
X-75281250Y-11110000D03*
D15*
%TO.P,R19,1*%
%TO.N,Net-(D6-Pad1)*%
X-82901250Y-11110000D03*
%TD*%
%TO.P,R20,1*%
%TO.N,Net-(D6-Pad3)*%
X-82901250Y-8960000D03*
D14*
%TO.P,R20,2*%
%TO.N,/GRN*%
X-75281250Y-8960000D03*
%TD*%
%TO.P,R21,2*%
%TO.N,/BLU*%
X-75281250Y-6810000D03*
D15*
%TO.P,R21,1*%
%TO.N,Net-(D6-Pad4)*%
X-82901250Y-6810000D03*
%TD*%
%TO.P,R22,1*%
%TO.N,Net-(D7-Pad1)*%
X-71420000Y-11110000D03*
D14*
%TO.P,R22,2*%
%TO.N,/RED*%
X-63800000Y-11110000D03*
%TD*%
%TO.P,R23,2*%
%TO.N,/GRN*%
X-63800000Y-8960000D03*
D15*
%TO.P,R23,1*%
%TO.N,Net-(D7-Pad3)*%
X-71420000Y-8960000D03*
%TD*%
D14*
%TO.P,R24,2*%
%TO.N,/BLU*%
X-63800000Y-6810000D03*
D15*
%TO.P,R24,1*%
%TO.N,Net-(D7-Pad4)*%
X-71420000Y-6810000D03*
%TD*%
%TO.P,R25,1*%
%TO.N,Net-(D8-Pad1)*%
X-59938750Y-11110000D03*
D14*
%TO.P,R25,2*%
%TO.N,/RED*%
X-52318750Y-11110000D03*
%TD*%
D15*
%TO.P,R26,1*%
%TO.N,Net-(D8-Pad3)*%
X-59938750Y-8960000D03*
D14*
%TO.P,R26,2*%
%TO.N,/GRN*%
X-52318750Y-8960000D03*
%TD*%
%TO.P,R27,2*%
%TO.N,/BLU*%
X-52318750Y-6810000D03*
D15*
%TO.P,R27,1*%
%TO.N,Net-(D8-Pad4)*%
X-59938750Y-6810000D03*
%TD*%
%TO.P,R28,1*%
%TO.N,Net-(D9-Pad1)*%
X-48457500Y-11110000D03*
D14*
%TO.P,R28,2*%
%TO.N,/RED*%
X-40837500Y-11110000D03*
%TD*%
%TO.P,R29,2*%
%TO.N,/GRN*%
X-40837500Y-8960000D03*
D15*
%TO.P,R29,1*%
%TO.N,Net-(D9-Pad3)*%
X-48457500Y-8960000D03*
%TD*%
%TO.P,R30,1*%
%TO.N,Net-(D9-Pad4)*%
X-48457500Y-6810000D03*
D14*
%TO.P,R30,2*%
%TO.N,/BLU*%
X-40837500Y-6810000D03*
%TD*%
%TO.P,R31,2*%
%TO.N,/RED*%
X-29356250Y-11110000D03*
D15*
%TO.P,R31,1*%
%TO.N,Net-(D10-Pad1)*%
X-36976250Y-11110000D03*
%TD*%
%TO.P,R32,1*%
%TO.N,Net-(D10-Pad3)*%
X-36976250Y-8960000D03*
D14*
%TO.P,R32,2*%
%TO.N,/GRN*%
X-29356250Y-8960000D03*
%TD*%
%TO.P,R33,2*%
%TO.N,/BLU*%
X-29356250Y-6810000D03*
D15*
%TO.P,R33,1*%
%TO.N,Net-(D10-Pad4)*%
X-36976250Y-6810000D03*
%TD*%
%TO.P,R34,1*%
%TO.N,Net-(D11-Pad1)*%
X-25495000Y-11110000D03*
D14*
%TO.P,R34,2*%
%TO.N,/RED*%
X-17875000Y-11110000D03*
%TD*%
%TO.P,R35,2*%
%TO.N,/GRN*%
X-17875000Y-8960000D03*
D15*
%TO.P,R35,1*%
%TO.N,Net-(D11-Pad3)*%
X-25495000Y-8960000D03*
%TD*%
%TO.P,R36,1*%
%TO.N,Net-(D11-Pad4)*%
X-25495000Y-6810000D03*
D14*
%TO.P,R36,2*%
%TO.N,/BLU*%
X-17875000Y-6810000D03*
%TD*%
%TO.P,R37,2*%
%TO.N,/RED*%
X-6393750Y-11110000D03*
D15*
%TO.P,R37,1*%
%TO.N,Net-(D12-Pad1)*%
X-14013750Y-11110000D03*
%TD*%
%TO.P,R38,1*%
%TO.N,Net-(D12-Pad3)*%
X-14013750Y-8960000D03*
D14*
%TO.P,R38,2*%
%TO.N,/GRN*%
X-6393750Y-8960000D03*
%TD*%
%TO.P,R39,2*%
%TO.N,/BLU*%
X-6393750Y-6810000D03*
D15*
%TO.P,R39,1*%
%TO.N,Net-(D12-Pad4)*%
X-14013750Y-6810000D03*
%TD*%
D18*
%TO.P,C1,2*%
%TO.N,GND*%
X-125650000Y-25860000D03*
%TO.P,C1,1*%
%TO.N,Net-(C1-Pad1)*%
X-125650000Y-23360000D03*
%TD*%
%TO.P,C2,1*%
%TO.N,Net-(C2-Pad1)*%
X-110350000Y-23360000D03*
%TO.P,C2,2*%
%TO.N,GND*%
X-110350000Y-25860000D03*
%TD*%
%TO.P,C4,1*%
%TO.N,GND*%
%TA.AperFunction,SMDPad,CuDef*%
G36*
G01*
X-103850000Y-28997500D02*
X-103850000Y-28522500D01*
G75*
G02*
X-103612500Y-28285000I237500J0D01*
G01*
X-103012500Y-28285000D01*
G75*
G02*
X-102775000Y-28522500I0J-237500D01*
G01*
X-102775000Y-28997500D01*
G75*
G02*
X-103012500Y-29235000I-237500J0D01*
G01*
X-103612500Y-29235000D01*
G75*
G02*
X-103850000Y-28997500I0J237500D01*
G01*
G37*
%TD.AperFunction*%
%TO.P,C4,2*%
%TO.N,Net-(C4-Pad2)*%
%TA.AperFunction,SMDPad,CuDef*%
G36*
G01*
X-102125000Y-28997500D02*
X-102125000Y-28522500D01*
G75*
G02*
X-101887500Y-28285000I237500J0D01*
G01*
X-101287500Y-28285000D01*
G75*
G02*
X-101050000Y-28522500I0J-237500D01*
G01*
X-101050000Y-28997500D01*
G75*
G02*
X-101287500Y-29235000I-237500J0D01*
G01*
X-101887500Y-29235000D01*
G75*
G02*
X-102125000Y-28997500I0J237500D01*
G01*
G37*
%TD.AperFunction*%
%TD*%
D19*
%TO.P,J1,6*%
%TO.N,GND*%
X-133175000Y-29460000D03*
D20*
%TO.P,J1,2*%
%TO.N,Net-(J1-Pad2)*%
X-131400000Y-26810000D03*
%TO.P,J1,1*%
%TO.N,+5V*%
X-130750000Y-26810000D03*
%TO.P,J1,5*%
%TO.N,GND*%
X-133350000Y-26810000D03*
%TO.P,J1,4*%
%TO.N,Net-(J1-Pad4)*%
X-132700000Y-26810000D03*
%TO.P,J1,3*%
%TO.N,Net-(J1-Pad3)*%
X-132050000Y-26810000D03*
D19*
%TO.P,J1,6*%
%TO.N,GND*%
X-130925000Y-29460000D03*
D21*
X-128475000Y-29460000D03*
X-135625000Y-29460000D03*
D22*
X-134370000Y-27230000D03*
X-129730000Y-27230000D03*
%TD*%
%TO.P,U1,1*%
%TO.N,GND*%
%TA.AperFunction,SMDPad,CuDef*%
G36*
G01*
X-97555000Y-27510000D02*
X-97855000Y-27510000D01*
G75*
G02*
X-98005000Y-27360000I0J150000D01*
G01*
X-98005000Y-25710000D01*
G75*
G02*
X-97855000Y-25560000I150000J0D01*
G01*
X-97555000Y-25560000D01*
G75*
G02*
X-97405000Y-25710000I0J-150000D01*
G01*
X-97405000Y-27360000D01*
G75*
G02*
X-97555000Y-27510000I-150000J0D01*
G01*
G37*
%TD.AperFunction*%
%TO.P,U1,2*%
%TO.N,/TDX*%
%TA.AperFunction,SMDPad,CuDef*%
G36*
G01*
X-98825000Y-27510000D02*
X-99125000Y-27510000D01*
G75*
G02*
X-99275000Y-27360000I0J150000D01*
G01*
X-99275000Y-25710000D01*
G75*
G02*
X-99125000Y-25560000I150000J0D01*
G01*
X-98825000Y-25560000D01*
G75*
G02*
X-98675000Y-25710000I0J-150000D01*
G01*
X-98675000Y-27360000D01*
G75*
G02*
X-98825000Y-27510000I-150000J0D01*
G01*
G37*
%TD.AperFunction*%
%TO.P,U1,3*%
%TO.N,/RXD*%
%TA.AperFunction,SMDPad,CuDef*%
G36*
G01*
X-100095000Y-27510000D02*
X-100395000Y-27510000D01*
G75*
G02*
X-100545000Y-27360000I0J150000D01*
G01*
X-100545000Y-25710000D01*
G75*
G02*
X-100395000Y-25560000I150000J0D01*
G01*
X-100095000Y-25560000D01*
G75*
G02*
X-99945000Y-25710000I0J-150000D01*
G01*
X-99945000Y-27360000D01*
G75*
G02*
X-100095000Y-27510000I-150000J0D01*
G01*
G37*
%TD.AperFunction*%
%TO.P,U1,4*%
%TO.N,Net-(C4-Pad2)*%
%TA.AperFunction,SMDPad,CuDef*%
G36*
G01*
X-101365000Y-27510000D02*
X-101665000Y-27510000D01*
G75*
G02*
X-101815000Y-27360000I0J150000D01*
G01*
X-101815000Y-25710000D01*
G75*
G02*
X-101665000Y-25560000I150000J0D01*
G01*
X-101365000Y-25560000D01*
G75*
G02*
X-101215000Y-25710000I0J-150000D01*
G01*
X-101215000Y-27360000D01*
G75*
G02*
X-101365000Y-27510000I-150000J0D01*
G01*
G37*
%TD.AperFunction*%
%TO.P,U1,5*%
%TO.N,/D+*%
%TA.AperFunction,SMDPad,CuDef*%
G36*
G01*
X-102635000Y-27510000D02*
X-102935000Y-27510000D01*
G75*
G02*
X-103085000Y-27360000I0J150000D01*
G01*
X-103085000Y-25710000D01*
G75*
G02*
X-102935000Y-25560000I150000J0D01*
G01*
X-102635000Y-25560000D01*
G75*
G02*
X-102485000Y-25710000I0J-150000D01*
G01*
X-102485000Y-27360000D01*
G75*
G02*
X-102635000Y-27510000I-150000J0D01*
G01*
G37*
%TD.AperFunction*%
%TO.P,U1,6*%
%TO.N,/D-*%
%TA.AperFunction,SMDPad,CuDef*%
G36*
G01*
X-103905000Y-27510000D02*
X-104205000Y-27510000D01*
G75*
G02*
X-104355000Y-27360000I0J150000D01*
G01*
X-104355000Y-25710000D01*
G75*
G02*
X-104205000Y-25560000I150000J0D01*
G01*
X-103905000Y-25560000D01*
G75*
G02*
X-103755000Y-25710000I0J-150000D01*
G01*
X-103755000Y-27360000D01*
G75*
G02*
X-103905000Y-27510000I-150000J0D01*
G01*
G37*
%TD.AperFunction*%
%TO.P,U1,7*%
%TO.N,Net-(C1-Pad1)*%
%TA.AperFunction,SMDPad,CuDef*%
G36*
G01*
X-105175000Y-27510000D02*
X-105475000Y-27510000D01*
G75*
G02*
X-105625000Y-27360000I0J150000D01*
G01*
X-105625000Y-25710000D01*
G75*
G02*
X-105475000Y-25560000I150000J0D01*
G01*
X-105175000Y-25560000D01*
G75*
G02*
X-105025000Y-25710000I0J-150000D01*
G01*
X-105025000Y-27360000D01*
G75*
G02*
X-105175000Y-27510000I-150000J0D01*
G01*
G37*
%TD.AperFunction*%
%TO.P,U1,8*%
%TO.N,Net-(C2-Pad1)*%
%TA.AperFunction,SMDPad,CuDef*%
G36*
G01*
X-106445000Y-27510000D02*
X-106745000Y-27510000D01*
G75*
G02*
X-106895000Y-27360000I0J150000D01*
G01*
X-106895000Y-25710000D01*
G75*
G02*
X-106745000Y-25560000I150000J0D01*
G01*
X-106445000Y-25560000D01*
G75*
G02*
X-106295000Y-25710000I0J-150000D01*
G01*
X-106295000Y-27360000D01*
G75*
G02*
X-106445000Y-27510000I-150000J0D01*
G01*
G37*
%TD.AperFunction*%
%TO.P,U1,9*%
%TO.N,/~CTS*%
%TA.AperFunction,SMDPad,CuDef*%
G36*
G01*
X-106445000Y-22560000D02*
X-106745000Y-22560000D01*
G75*
G02*
X-106895000Y-22410000I0J150000D01*
G01*
X-106895000Y-20760000D01*
G75*
G02*
X-106745000Y-20610000I150000J0D01*
G01*
X-106445000Y-20610000D01*
G75*
G02*
X-106295000Y-20760000I0J-150000D01*
G01*
X-106295000Y-22410000D01*
G75*
G02*
X-106445000Y-22560000I-150000J0D01*
G01*
G37*
%TD.AperFunction*%
%TO.P,U1,10*%
%TO.N,Net-(U1-Pad10)*%
%TA.AperFunction,SMDPad,CuDef*%
G36*
G01*
X-105175000Y-22560000D02*
X-105475000Y-22560000D01*
G75*
G02*
X-105625000Y-22410000I0J150000D01*
G01*
X-105625000Y-20760000D01*
G75*
G02*
X-105475000Y-20610000I150000J0D01*
G01*
X-105175000Y-20610000D01*
G75*
G02*
X-105025000Y-20760000I0J-150000D01*
G01*
X-105025000Y-22410000D01*
G75*
G02*
X-105175000Y-22560000I-150000J0D01*
G01*
G37*
%TD.AperFunction*%
%TO.P,U1,11*%
%TO.N,Net-(U1-Pad11)*%
%TA.AperFunction,SMDPad,CuDef*%
G36*
G01*
X-103905000Y-22560000D02*
X-104205000Y-22560000D01*
G75*
G02*
X-104355000Y-22410000I0J150000D01*
G01*
X-104355000Y-20760000D01*
G75*
G02*
X-104205000Y-20610000I150000J0D01*
G01*
X-103905000Y-20610000D01*
G75*
G02*
X-103755000Y-20760000I0J-150000D01*
G01*
X-103755000Y-22410000D01*
G75*
G02*
X-103905000Y-22560000I-150000J0D01*
G01*
G37*
%TD.AperFunction*%
%TO.P,U1,12*%
%TO.N,Net-(U1-Pad12)*%
%TA.AperFunction,SMDPad,CuDef*%
G36*
G01*
X-102635000Y-22560000D02*
X-102935000Y-22560000D01*
G75*
G02*
X-103085000Y-22410000I0J150000D01*
G01*
X-103085000Y-20760000D01*
G75*
G02*
X-102935000Y-20610000I150000J0D01*
G01*
X-102635000Y-20610000D01*
G75*
G02*
X-102485000Y-20760000I0J-150000D01*
G01*
X-102485000Y-22410000D01*
G75*
G02*
X-102635000Y-22560000I-150000J0D01*
G01*
G37*
%TD.AperFunction*%
%TO.P,U1,13*%
%TO.N,/~DTR*%
%TA.AperFunction,SMDPad,CuDef*%
G36*
G01*
X-101365000Y-22560000D02*
X-101665000Y-22560000D01*
G75*
G02*
X-101815000Y-22410000I0J150000D01*
G01*
X-101815000Y-20760000D01*
G75*
G02*
X-101665000Y-20610000I150000J0D01*
G01*
X-101365000Y-20610000D01*
G75*
G02*
X-101215000Y-20760000I0J-150000D01*
G01*
X-101215000Y-22410000D01*
G75*
G02*
X-101365000Y-22560000I-150000J0D01*
G01*
G37*
%TD.AperFunction*%
%TO.P,U1,14*%
%TO.N,Net-(U1-Pad14)*%
%TA.AperFunction,SMDPad,CuDef*%
G36*
G01*
X-100095000Y-22560000D02*
X-100395000Y-22560000D01*
G75*
G02*
X-100545000Y-22410000I0J150000D01*
G01*
X-100545000Y-20760000D01*
G75*
G02*
X-100395000Y-20610000I150000J0D01*
G01*
X-100095000Y-20610000D01*
G75*
G02*
X-99945000Y-20760000I0J-150000D01*
G01*
X-99945000Y-22410000D01*
G75*
G02*
X-100095000Y-22560000I-150000J0D01*
G01*
G37*
%TD.AperFunction*%
%TO.P,U1,15*%
%TO.N,Net-(U1-Pad15)*%
%TA.AperFunction,SMDPad,CuDef*%
G36*
G01*
X-98825000Y-22560000D02*
X-99125000Y-22560000D01*
G75*
G02*
X-99275000Y-22410000I0J150000D01*
G01*
X-99275000Y-20760000D01*
G75*
G02*
X-99125000Y-20610000I150000J0D01*
G01*
X-98825000Y-20610000D01*
G75*
G02*
X-98675000Y-20760000I0J-150000D01*
G01*
X-98675000Y-22410000D01*
G75*
G02*
X-98825000Y-22560000I-150000J0D01*
G01*
G37*
%TD.AperFunction*%
%TO.P,U1,16*%
%TO.N,+3V3*%
%TA.AperFunction,SMDPad,CuDef*%
G36*
G01*
X-97555000Y-22560000D02*
X-97855000Y-22560000D01*
G75*
G02*
X-98005000Y-22410000I0J150000D01*
G01*
X-98005000Y-20760000D01*
G75*
G02*
X-97855000Y-20610000I150000J0D01*
G01*
X-97555000Y-20610000D01*
G75*
G02*
X-97405000Y-20760000I0J-150000D01*
G01*
X-97405000Y-22410000D01*
G75*
G02*
X-97555000Y-22560000I-150000J0D01*
G01*
G37*
%TD.AperFunction*%
%TD*%
D23*
%TO.P,Y1,1*%
%TO.N,Net-(C1-Pad1)*%
X-120450000Y-23360000D03*
%TO.P,Y1,2*%
%TO.N,Net-(C2-Pad1)*%
X-115570000Y-23360000D03*
%TD*%
%TO.P,R40,2*%
%TO.N,/D-*%
%TA.AperFunction,SMDPad,CuDef*%
G36*
G01*
X-130350000Y-25010001D02*
X-130350000Y-24109999D01*
G75*
G02*
X-130100001Y-23860000I249999J0D01*
G01*
X-129399999Y-23860000D01*
G75*
G02*
X-129150000Y-24109999I0J-249999D01*
G01*
X-129150000Y-25010001D01*
G75*
G02*
X-129399999Y-25260000I-249999J0D01*
G01*
X-130100001Y-25260000D01*
G75*
G02*
X-130350000Y-25010001I0J249999D01*
G01*
G37*
%TD.AperFunction*%
%TO.P,R40,1*%
%TO.N,Net-(J1-Pad2)*%
%TA.AperFunction,SMDPad,CuDef*%
G36*
G01*
X-132350000Y-25010001D02*
X-132350000Y-24109999D01*
G75*
G02*
X-132100001Y-23860000I249999J0D01*
G01*
X-131399999Y-23860000D01*
G75*
G02*
X-131150000Y-24109999I0J-249999D01*
G01*
X-131150000Y-25010001D01*
G75*
G02*
X-131399999Y-25260000I-249999J0D01*
G01*
X-132100001Y-25260000D01*
G75*
G02*
X-132350000Y-25010001I0J249999D01*
G01*
G37*
%TD.AperFunction*%
%TD*%
%TO.P,R41,1*%
%TO.N,Net-(J1-Pad3)*%
%TA.AperFunction,SMDPad,CuDef*%
G36*
G01*
X-132350000Y-23110001D02*
X-132350000Y-22209999D01*
G75*
G02*
X-132100001Y-21960000I249999J0D01*
G01*
X-131399999Y-21960000D01*
G75*
G02*
X-131150000Y-22209999I0J-249999D01*
G01*
X-131150000Y-23110001D01*
G75*
G02*
X-131399999Y-23360000I-249999J0D01*
G01*
X-132100001Y-23360000D01*
G75*
G02*
X-132350000Y-23110001I0J249999D01*
G01*
G37*
%TD.AperFunction*%
%TO.P,R41,2*%
%TO.N,/D+*%
%TA.AperFunction,SMDPad,CuDef*%
G36*
G01*
X-130350000Y-23110001D02*
X-130350000Y-22209999D01*
G75*
G02*
X-130100001Y-21960000I249999J0D01*
G01*
X-129399999Y-21960000D01*
G75*
G02*
X-129150000Y-22209999I0J-249999D01*
G01*
X-129150000Y-23110001D01*
G75*
G02*
X-129399999Y-23360000I-249999J0D01*
G01*
X-130100001Y-23360000D01*
G75*
G02*
X-130350000Y-23110001I0J249999D01*
G01*
G37*
%TD.AperFunction*%
%TD*%
D18*
%TO.P,C5,1*%
%TO.N,GND*%
X-95450000Y-26560000D03*
%TO.P,C5,2*%
%TO.N,+3V3*%
X-95450000Y-21560000D03*
%TD*%
D24*
%TO.N,+5V*%
X-130750000Y-26810000D02*
X-130750000Y-17560000D01*
X-129414000Y-16224000D02*
X-125648250Y-16224000D01*
X-130750000Y-17560000D02*
X-129414000Y-16224000D01*
%TO.N,GND*%
X-133950000Y-26810000D02*
X-134370000Y-27230000D01*
X-133350000Y-26810000D02*
X-133950000Y-26810000D01*
D25*
%TO.N,Net-(D1-Pad1)*%
X-138917500Y-12510000D02*
X-140317500Y-11110000D01*
X-138917500Y-14700000D02*
X-138917500Y-12510000D01*
%TO.N,Net-(D1-Pad3)*%
X-135615500Y-13662000D02*
X-140317500Y-8960000D01*
X-135615500Y-14700000D02*
X-135615500Y-13662000D01*
%TO.N,Net-(D1-Pad4)*%
X-134091500Y-13046000D02*
X-140317500Y-6820000D01*
X-134091500Y-16224000D02*
X-134091500Y-13046000D01*
%TO.N,Net-(D2-Pad4)*%
X-122600250Y-13036000D02*
X-128826250Y-6810000D01*
X-122600250Y-16224000D02*
X-122600250Y-13036000D01*
%TO.N,Net-(D2-Pad3)*%
X-124124250Y-13662000D02*
X-128826250Y-8960000D01*
X-124124250Y-14700000D02*
X-124124250Y-13662000D01*
%TO.N,Net-(D2-Pad1)*%
X-127426250Y-12510000D02*
X-128826250Y-11110000D01*
X-127426250Y-14700000D02*
X-127426250Y-12510000D01*
%TO.N,Net-(D3-Pad1)*%
X-115945000Y-12520000D02*
X-117345000Y-11120000D01*
X-115945000Y-14700000D02*
X-115945000Y-12520000D01*
%TO.N,Net-(D3-Pad3)*%
X-112643000Y-13672000D02*
X-117345000Y-8970000D01*
X-112643000Y-14700000D02*
X-112643000Y-13672000D01*
%TO.N,Net-(D3-Pad4)*%
X-111119000Y-13046000D02*
X-117345000Y-6820000D01*
X-111119000Y-16224000D02*
X-111119000Y-13046000D01*
%TO.N,Net-(D4-Pad1)*%
X-104463750Y-12500000D02*
X-105863750Y-11100000D01*
X-104463750Y-14700000D02*
X-104463750Y-12500000D01*
%TO.N,Net-(D4-Pad3)*%
X-101161750Y-13652000D02*
X-105863750Y-8950000D01*
X-101161750Y-14700000D02*
X-101161750Y-13652000D01*
%TO.N,Net-(D4-Pad4)*%
X-99637750Y-13036000D02*
X-105863750Y-6810000D01*
X-99637750Y-16224000D02*
X-99637750Y-13036000D01*
%TO.N,Net-(D5-Pad1)*%
X-92982500Y-12510000D02*
X-94382500Y-11110000D01*
X-92982500Y-14700000D02*
X-92982500Y-12510000D01*
%TO.N,Net-(D5-Pad3)*%
X-89680500Y-13662000D02*
X-94382500Y-8960000D01*
X-89680500Y-14700000D02*
X-89680500Y-13662000D01*
%TO.N,Net-(D5-Pad4)*%
X-88156500Y-13036000D02*
X-94382500Y-6810000D01*
X-88156500Y-16224000D02*
X-88156500Y-13036000D01*
%TO.N,Net-(D6-Pad4)*%
X-76675250Y-13036000D02*
X-82901250Y-6810000D01*
X-76675250Y-16224000D02*
X-76675250Y-13036000D01*
%TO.N,Net-(D6-Pad3)*%
X-78199250Y-13662000D02*
X-82901250Y-8960000D01*
X-78199250Y-14700000D02*
X-78199250Y-13662000D01*
%TO.N,Net-(D6-Pad1)*%
X-81501250Y-12510000D02*
X-82901250Y-11110000D01*
X-81501250Y-14700000D02*
X-81501250Y-12510000D01*
%TO.N,Net-(D7-Pad4)*%
X-65194000Y-16224000D02*
X-65194000Y-13036000D01*
X-65194000Y-13036000D02*
X-71420000Y-6810000D01*
%TO.N,Net-(D7-Pad3)*%
X-66718000Y-14700000D02*
X-66718000Y-13662000D01*
X-66718000Y-13662000D02*
X-71420000Y-8960000D01*
%TO.N,Net-(D7-Pad1)*%
X-70020000Y-14700000D02*
X-70020000Y-12510000D01*
X-70020000Y-12510000D02*
X-71420000Y-11110000D01*
%TO.N,Net-(D8-Pad4)*%
X-53712750Y-13036000D02*
X-59938750Y-6810000D01*
X-53712750Y-16224000D02*
X-53712750Y-13036000D01*
%TO.N,Net-(D8-Pad3)*%
X-55236750Y-13662000D02*
X-59938750Y-8960000D01*
X-55236750Y-14700000D02*
X-55236750Y-13662000D01*
%TO.N,Net-(D8-Pad1)*%
X-58538750Y-12510000D02*
X-59938750Y-11110000D01*
X-58538750Y-14700000D02*
X-58538750Y-12510000D01*
%TO.N,Net-(D9-Pad4)*%
X-42231500Y-13036000D02*
X-48457500Y-6810000D01*
X-42231500Y-16224000D02*
X-42231500Y-13036000D01*
%TO.N,Net-(D9-Pad3)*%
X-43755500Y-13662000D02*
X-48457500Y-8960000D01*
X-43755500Y-14700000D02*
X-43755500Y-13662000D01*
%TO.N,Net-(D9-Pad1)*%
X-47057500Y-12510000D02*
X-48457500Y-11110000D01*
X-47057500Y-14700000D02*
X-47057500Y-12510000D01*
%TO.N,Net-(D10-Pad1)*%
X-35576250Y-12510000D02*
X-36976250Y-11110000D01*
X-35576250Y-14700000D02*
X-35576250Y-12510000D01*
%TO.N,Net-(D10-Pad3)*%
X-32274250Y-13662000D02*
X-36976250Y-8960000D01*
X-32274250Y-14700000D02*
X-32274250Y-13662000D01*
%TO.N,Net-(D10-Pad4)*%
X-30750250Y-13036000D02*
X-36976250Y-6810000D01*
X-30750250Y-16224000D02*
X-30750250Y-13036000D01*
%TO.N,Net-(D11-Pad4)*%
X-19269000Y-13036000D02*
X-25495000Y-6810000D01*
X-19269000Y-16224000D02*
X-19269000Y-13036000D01*
%TO.N,Net-(D11-Pad3)*%
X-20793000Y-13662000D02*
X-25495000Y-8960000D01*
X-20793000Y-14700000D02*
X-20793000Y-13662000D01*
%TO.N,Net-(D11-Pad1)*%
X-24095000Y-12510000D02*
X-25495000Y-11110000D01*
X-24095000Y-14700000D02*
X-24095000Y-12510000D01*
%TO.N,Net-(D12-Pad1)*%
X-12613750Y-12510000D02*
X-14013750Y-11110000D01*
X-12613750Y-14700000D02*
X-12613750Y-12510000D01*
%TO.N,Net-(D12-Pad3)*%
X-9311750Y-13662000D02*
X-14013750Y-8960000D01*
X-9311750Y-14700000D02*
X-9311750Y-13662000D01*
%TO.N,Net-(D12-Pad4)*%
X-7787750Y-13036000D02*
X-14013750Y-6810000D01*
X-7787750Y-16224000D02*
X-7787750Y-13036000D01*
D26*
%TO.N,Net-(Q1-Pad2)*%
X-42440000Y-24665002D02*
X-42440000Y-23760000D01*
X-44634998Y-26860000D02*
X-42440000Y-24665002D01*
X-46250000Y-26860000D02*
X-44634998Y-26860000D01*
%TO.N,/RED*%
X-129402251Y-5609999D02*
X-126706251Y-5609999D01*
X-126706251Y-5609999D02*
X-121206250Y-11110000D01*
X-130026251Y-6233999D02*
X-129402251Y-5609999D01*
X-130026251Y-8438751D02*
X-130026251Y-6233999D01*
X-132697500Y-11110000D02*
X-130026251Y-8438751D01*
X-117911001Y-5609999D02*
X-115235001Y-5609999D01*
X-115235001Y-5609999D02*
X-109725000Y-11120000D01*
X-118545001Y-6243999D02*
X-117911001Y-5609999D01*
X-118545001Y-8448751D02*
X-118545001Y-6243999D01*
X-121206250Y-11110000D02*
X-118545001Y-8448751D01*
X-103733751Y-5609999D02*
X-98243750Y-11100000D01*
X-106439751Y-5609999D02*
X-103733751Y-5609999D01*
X-107063751Y-8458751D02*
X-107063751Y-6233999D01*
X-107063751Y-6233999D02*
X-106439751Y-5609999D01*
X-109725000Y-11120000D02*
X-107063751Y-8458751D01*
X-92262501Y-5609999D02*
X-86762500Y-11110000D01*
X-94958501Y-5609999D02*
X-92262501Y-5609999D01*
X-95582501Y-6233999D02*
X-94958501Y-5609999D01*
X-95582501Y-8438751D02*
X-95582501Y-6233999D01*
X-98243750Y-11100000D02*
X-95582501Y-8438751D01*
X-80781251Y-5609999D02*
X-75281250Y-11110000D01*
X-83477251Y-5609999D02*
X-80781251Y-5609999D01*
X-84101251Y-6233999D02*
X-83477251Y-5609999D01*
X-84101251Y-8448751D02*
X-84101251Y-6233999D01*
X-86762500Y-11110000D02*
X-84101251Y-8448751D01*
X-46337501Y-5609999D02*
X-40837500Y-11110000D01*
X-49033501Y-5609999D02*
X-46337501Y-5609999D01*
X-49657501Y-6233999D02*
X-49033501Y-5609999D01*
X-49657501Y-8448751D02*
X-49657501Y-6233999D01*
X-52318750Y-11110000D02*
X-49657501Y-8448751D01*
X-34856251Y-5609999D02*
X-29356250Y-11110000D01*
X-37552251Y-5609999D02*
X-34856251Y-5609999D01*
X-38176251Y-6233999D02*
X-37552251Y-5609999D01*
X-38176251Y-8448751D02*
X-38176251Y-6233999D01*
X-40837500Y-11110000D02*
X-38176251Y-8448751D01*
X-23375001Y-5609999D02*
X-17875000Y-11110000D01*
X-26071001Y-5609999D02*
X-23375001Y-5609999D01*
X-26695001Y-6233999D02*
X-26071001Y-5609999D01*
X-26695001Y-8448751D02*
X-26695001Y-6233999D01*
X-29356250Y-11110000D02*
X-26695001Y-8448751D01*
X-11893751Y-5609999D02*
X-6393750Y-11110000D01*
X-14589751Y-5609999D02*
X-11893751Y-5609999D01*
X-15213751Y-6233999D02*
X-14589751Y-5609999D01*
X-15213751Y-8448751D02*
X-15213751Y-6233999D01*
X-17875000Y-11110000D02*
X-15213751Y-8448751D01*
X-63800000Y-11110000D02*
X-61138751Y-8448751D01*
X-61138751Y-6233999D02*
X-60514751Y-5609999D01*
X-60514751Y-5609999D02*
X-57818751Y-5609999D01*
X-57818751Y-5609999D02*
X-52318750Y-11110000D01*
X-61138751Y-8448751D02*
X-61138751Y-6233999D01*
X-75281250Y-11110000D02*
X-72620001Y-8448751D01*
X-72620001Y-8448751D02*
X-72620001Y-6233999D01*
X-72620001Y-6233999D02*
X-71996001Y-5609999D01*
X-71996001Y-5609999D02*
X-69300001Y-5609999D01*
X-69300001Y-5609999D02*
X-63800000Y-11110000D01*
X-5693751Y-11809999D02*
X-6393750Y-11110000D01*
X-5693751Y-16202003D02*
X-5693751Y-11809999D01*
X-9151748Y-19660000D02*
X-5693751Y-16202003D01*
X-41170000Y-22880000D02*
X-41170000Y-23760000D01*
X-37950000Y-19660000D02*
X-41170000Y-22880000D01*
X-9151748Y-19660000D02*
X-37950000Y-19660000D01*
%TO.N,/GRN*%
X-125356261Y-4809989D02*
X-121206250Y-8960000D01*
X-129733625Y-4809989D02*
X-125356261Y-4809989D01*
X-130826261Y-5902625D02*
X-129733625Y-4809989D01*
X-130826261Y-7088761D02*
X-130826261Y-5902625D01*
X-132697500Y-8960000D02*
X-130826261Y-7088761D01*
X-113885011Y-4809989D02*
X-109725000Y-8970000D01*
X-118242375Y-4809989D02*
X-113885011Y-4809989D01*
X-119345011Y-5912625D02*
X-118242375Y-4809989D01*
X-119345011Y-7098761D02*
X-119345011Y-5912625D01*
X-121206250Y-8960000D02*
X-119345011Y-7098761D01*
X-102383761Y-4809989D02*
X-98243750Y-8950000D01*
X-106771125Y-4809989D02*
X-102383761Y-4809989D01*
X-107863761Y-5902625D02*
X-106771125Y-4809989D01*
X-107863761Y-7108761D02*
X-107863761Y-5902625D01*
X-109725000Y-8970000D02*
X-107863761Y-7108761D01*
X-90912511Y-4809989D02*
X-86762500Y-8960000D01*
X-95289875Y-4809989D02*
X-90912511Y-4809989D01*
X-96382511Y-5902625D02*
X-95289875Y-4809989D01*
X-96382511Y-7088761D02*
X-96382511Y-5902625D01*
X-98243750Y-8950000D02*
X-96382511Y-7088761D01*
X-79431261Y-4809989D02*
X-75281250Y-8960000D01*
X-84901261Y-5902625D02*
X-83808625Y-4809989D01*
X-84901261Y-7098761D02*
X-84901261Y-5902625D01*
X-83808625Y-4809989D02*
X-79431261Y-4809989D01*
X-86762500Y-8960000D02*
X-84901261Y-7098761D01*
X-41137500Y-8660000D02*
X-40837500Y-8960000D01*
X-46006127Y-4809989D02*
X-42156116Y-8660000D01*
X-49364875Y-4809989D02*
X-46006127Y-4809989D01*
X-50457511Y-5902625D02*
X-49364875Y-4809989D01*
X-50457511Y-7098761D02*
X-50457511Y-5902625D01*
X-42156116Y-8660000D02*
X-41137500Y-8660000D01*
X-52318750Y-8960000D02*
X-50457511Y-7098761D01*
X-33506261Y-4809989D02*
X-29356250Y-8960000D01*
X-37883625Y-4809989D02*
X-33506261Y-4809989D01*
X-38976261Y-5902625D02*
X-37883625Y-4809989D01*
X-38976261Y-7098761D02*
X-38976261Y-5902625D01*
X-40837500Y-8960000D02*
X-38976261Y-7098761D01*
X-22025011Y-4809989D02*
X-17875000Y-8960000D01*
X-26402375Y-4809989D02*
X-22025011Y-4809989D01*
X-27495011Y-5902625D02*
X-26402375Y-4809989D01*
X-27495011Y-7098761D02*
X-27495011Y-5902625D01*
X-29356250Y-8960000D02*
X-27495011Y-7098761D01*
X-14921125Y-4809989D02*
X-10543761Y-4809989D01*
X-10543761Y-4809989D02*
X-6393750Y-8960000D01*
X-16013761Y-5902625D02*
X-14921125Y-4809989D01*
X-16013761Y-7098761D02*
X-16013761Y-5902625D01*
X-17875000Y-8960000D02*
X-16013761Y-7098761D01*
X-63800000Y-8960000D02*
X-61938761Y-7098761D01*
X-61938761Y-7098761D02*
X-61938761Y-5902625D01*
X-61938761Y-5902625D02*
X-60846125Y-4809989D01*
X-60846125Y-4809989D02*
X-56468761Y-4809989D01*
X-56468761Y-4809989D02*
X-52318750Y-8960000D01*
X-75281250Y-8960000D02*
X-73420011Y-7098761D01*
X-73420011Y-7098761D02*
X-73420011Y-5902625D01*
X-63900000Y-8860000D02*
X-63800000Y-8960000D01*
X-73420011Y-5902625D02*
X-72327375Y-4809989D01*
X-68968627Y-4809989D02*
X-64918616Y-8860000D01*
X-72327375Y-4809989D02*
X-68968627Y-4809989D01*
X-64918616Y-8860000D02*
X-63900000Y-8860000D01*
X-4893743Y-10460007D02*
X-6393750Y-8960000D01*
X-4893743Y-16533379D02*
X-4893743Y-10460007D01*
X-8820364Y-20460000D02*
X-4893743Y-16533379D01*
X-8820364Y-20460000D02*
X-26650000Y-20460000D01*
X-28010000Y-21820000D02*
X-28010000Y-23760000D01*
X-26650000Y-20460000D02*
X-28010000Y-21820000D01*
%TO.N,Net-(Q2-Pad2)*%
X-29280000Y-25110000D02*
X-29280000Y-23760000D01*
X-31030000Y-26860000D02*
X-29280000Y-25110000D01*
X-33090000Y-26860000D02*
X-31030000Y-26860000D01*
%TO.N,Net-(Q3-Pad2)*%
X-15980000Y-25110000D02*
X-15980000Y-23760000D01*
X-17730000Y-26860000D02*
X-15980000Y-25110000D01*
X-19790000Y-26860000D02*
X-17730000Y-26860000D01*
%TO.N,/BLU*%
X-124006271Y-4009979D02*
X-121206250Y-6810000D01*
X-130877428Y-4009979D02*
X-124006271Y-4009979D01*
X-132697500Y-5830051D02*
X-130877428Y-4009979D01*
X-132697500Y-6820000D02*
X-132697500Y-5830051D01*
X-112535021Y-4009979D02*
X-109725000Y-6820000D01*
X-119396178Y-4009979D02*
X-112535021Y-4009979D01*
X-121206250Y-5820051D02*
X-119396178Y-4009979D01*
X-121206250Y-6810000D02*
X-121206250Y-5820051D01*
X-101043769Y-4009981D02*
X-98243750Y-6810000D01*
X-107904930Y-4009981D02*
X-101043769Y-4009981D01*
X-109725000Y-5830051D02*
X-107904930Y-4009981D01*
X-109725000Y-6820000D02*
X-109725000Y-5830051D01*
X-89562519Y-4009981D02*
X-86762500Y-6810000D01*
X-96433680Y-4009981D02*
X-89562519Y-4009981D01*
X-98243750Y-5820051D02*
X-96433680Y-4009981D01*
X-98243750Y-6810000D02*
X-98243750Y-5820051D01*
X-78081269Y-4009981D02*
X-75281250Y-6810000D01*
X-84952430Y-4009981D02*
X-78081269Y-4009981D01*
X-86762500Y-5820051D02*
X-84952430Y-4009981D01*
X-86762500Y-6810000D02*
X-86762500Y-5820051D01*
X-43637521Y-4009979D02*
X-40837500Y-6810000D01*
X-50508678Y-4009979D02*
X-43637521Y-4009979D01*
X-52318750Y-5820051D02*
X-50508678Y-4009979D01*
X-52318750Y-6810000D02*
X-52318750Y-5820051D01*
X-29806250Y-6360000D02*
X-29356250Y-6810000D01*
X-33174887Y-4009979D02*
X-30824866Y-6360000D01*
X-39027428Y-4009979D02*
X-33174887Y-4009979D01*
X-40837500Y-5820051D02*
X-39027428Y-4009979D01*
X-30824866Y-6360000D02*
X-29806250Y-6360000D01*
X-40837500Y-6810000D02*
X-40837500Y-5820051D01*
X-20675021Y-4009979D02*
X-17875000Y-6810000D01*
X-27546178Y-4009979D02*
X-20675021Y-4009979D01*
X-29356250Y-5820051D02*
X-27546178Y-4009979D01*
X-29356250Y-6810000D02*
X-29356250Y-5820051D01*
X-9193769Y-4009981D02*
X-6393750Y-6810000D01*
X-16064930Y-4009981D02*
X-9193769Y-4009981D01*
X-17875000Y-5820051D02*
X-16064930Y-4009981D01*
X-17875000Y-6810000D02*
X-17875000Y-5820051D01*
X-63800000Y-6810000D02*
X-63800000Y-5820051D01*
X-63800000Y-5820051D02*
X-61989928Y-4009979D01*
X-61989928Y-4009979D02*
X-55118771Y-4009979D01*
X-55118771Y-4009979D02*
X-52318750Y-6810000D01*
X-75281250Y-6810000D02*
X-75281250Y-5820051D01*
X-64150000Y-6460000D02*
X-63800000Y-6810000D01*
X-75281250Y-5820051D02*
X-73471178Y-4009979D01*
X-73471178Y-4009979D02*
X-68637253Y-4009979D01*
X-68637253Y-4009979D02*
X-66187232Y-6460000D01*
X-66187232Y-6460000D02*
X-64150000Y-6460000D01*
X-14710000Y-22220000D02*
X-14710000Y-23760000D01*
X-13750000Y-21260000D02*
X-14710000Y-22220000D01*
X-8488980Y-21260000D02*
X-13750000Y-21260000D01*
X-4093733Y-16864753D02*
X-8488980Y-21260000D01*
X-4093733Y-9110017D02*
X-4093733Y-16864753D01*
X-6393750Y-6810000D02*
X-4093733Y-9110017D01*
%TO.N,/RED_PIN*%
X-37950000Y-26180000D02*
X-38630000Y-26860000D01*
X-37950000Y-24060000D02*
X-37950000Y-26180000D01*
%TO.N,/GRN_PIN*%
X-24750000Y-26140000D02*
X-25470000Y-26860000D01*
X-24750000Y-24060000D02*
X-24750000Y-26140000D01*
%TO.N,/BLU_PIN*%
X-11450000Y-26140000D02*
X-12170000Y-26860000D01*
X-11450000Y-24060000D02*
X-11450000Y-26140000D01*
D24*
%TO.N,Net-(J1-Pad2)*%
X-131400000Y-24910000D02*
X-131750000Y-24560000D01*
X-131400000Y-26810000D02*
X-131400000Y-24910000D01*
%TO.N,Net-(J1-Pad3)*%
X-132675010Y-23585010D02*
X-131750000Y-22660000D01*
X-132675010Y-25349988D02*
X-132675010Y-23585010D01*
X-132050000Y-25974998D02*
X-132675010Y-25349988D01*
X-132050000Y-26810000D02*
X-132050000Y-25974998D01*
%TO.N,Net-(C1-Pad1)*%
X-125650000Y-23360000D02*
X-120450000Y-23360000D01*
X-119324999Y-24485001D02*
X-120450000Y-23360000D01*
X-110124999Y-24485001D02*
X-119324999Y-24485001D01*
X-109224999Y-25385001D02*
X-110124999Y-24485001D01*
X-109224999Y-25551769D02*
X-109224999Y-25385001D01*
X-106941758Y-27835010D02*
X-109224999Y-25551769D01*
X-105650010Y-27835010D02*
X-106941758Y-27835010D01*
X-105325000Y-27510000D02*
X-105650010Y-27835010D01*
X-105325000Y-26535000D02*
X-105325000Y-27510000D01*
%TO.N,Net-(C2-Pad1)*%
X-115470000Y-23360000D02*
X-115570000Y-23360000D01*
X-110350000Y-23360000D02*
X-115570000Y-23360000D01*
X-107175000Y-26535000D02*
X-110350000Y-23360000D01*
X-106595000Y-26535000D02*
X-107175000Y-26535000D01*
%TO.N,Net-(C4-Pad2)*%
X-101587500Y-26607500D02*
X-101515000Y-26535000D01*
X-101587500Y-28760000D02*
X-101587500Y-26607500D01*
%TO.N,+3V3*%
X-97680000Y-21560000D02*
X-97705000Y-21585000D01*
X-95450000Y-21560000D02*
X-97680000Y-21560000D01*
X-90370000Y-21560000D02*
X-85370000Y-26560000D01*
X-95450000Y-21560000D02*
X-90370000Y-21560000D01*
%TO.N,/D-*%
X-104055000Y-25560000D02*
X-104455000Y-25160000D01*
X-104055000Y-26535000D02*
X-104055000Y-25560000D01*
X-127424999Y-22234999D02*
X-129750000Y-24560000D01*
X-109809999Y-22234999D02*
X-127424999Y-22234999D01*
X-106884998Y-25160000D02*
X-109809999Y-22234999D01*
X-104455000Y-25160000D02*
X-106884998Y-25160000D01*
%TO.N,/D+*%
X-128874989Y-21784989D02*
X-129750000Y-22660000D01*
X-109623599Y-21784989D02*
X-128874989Y-21784989D01*
X-106698598Y-24709990D02*
X-109623599Y-21784989D01*
X-103635010Y-24709990D02*
X-106698598Y-24709990D01*
X-102785000Y-25560000D02*
X-103635010Y-24709990D01*
X-102785000Y-26535000D02*
X-102785000Y-25560000D01*
%TO.N,/TDX*%
X-98975000Y-25560000D02*
X-98975000Y-26535000D01*
X-100987819Y-24360000D02*
X-100175000Y-24360000D01*
X-102012799Y-23335020D02*
X-100987819Y-24360000D01*
X-106491749Y-23335019D02*
X-102012799Y-23335020D01*
X-107450000Y-20560000D02*
X-107450000Y-22376768D01*
X-106950000Y-20060000D02*
X-107450000Y-20560000D01*
X-107450000Y-22376768D02*
X-106491749Y-23335019D01*
X-81630000Y-25360000D02*
X-79586410Y-25360000D01*
X-91050000Y-20060000D02*
X-106950000Y-20060000D01*
X-79586410Y-25360000D02*
X-79000000Y-25946410D01*
X-78161008Y-24409990D02*
X-86700010Y-24409990D01*
X-100175000Y-24360000D02*
X-98975000Y-25560000D01*
X-82830000Y-26560000D02*
X-81630000Y-25360000D01*
X-79000000Y-25946410D02*
X-79000000Y-27049002D01*
X-79000000Y-27049002D02*
X-78239002Y-27810000D01*
X-78239002Y-27810000D02*
X-77260998Y-27810000D01*
X-77260998Y-27810000D02*
X-76500000Y-27049002D01*
X-76500000Y-27049002D02*
X-76500000Y-26070998D01*
X-86700010Y-24409990D02*
X-91050000Y-20060000D01*
X-76500000Y-26070998D02*
X-78161008Y-24409990D01*
%TO.N,/RXD*%
X-90800011Y-19609989D02*
X-107199989Y-19609989D01*
X-77974608Y-23959979D02*
X-86450021Y-23959979D01*
X-80290000Y-26560000D02*
X-78589989Y-28260011D01*
X-76049989Y-25884598D02*
X-77974608Y-23959979D01*
X-107900011Y-22809989D02*
X-106924970Y-23785030D01*
X-78589989Y-28260011D02*
X-77074598Y-28260011D01*
X-77074598Y-28260011D02*
X-76049989Y-27235402D01*
X-76049989Y-27235402D02*
X-76049989Y-25884598D01*
X-86450021Y-23959979D02*
X-90800011Y-19609989D01*
X-107900011Y-20310011D02*
X-107900011Y-22809989D01*
X-106924970Y-23785030D02*
X-102199200Y-23785030D01*
X-100245000Y-25739228D02*
X-100245000Y-26535000D01*
X-107199989Y-19609989D02*
X-107900011Y-20310011D01*
X-102199200Y-23785030D02*
X-100245000Y-25739228D01*
%TO.N,/~CTS*%
X-106595000Y-21961768D02*
X-106595000Y-21585000D01*
X-105671758Y-22885010D02*
X-106595000Y-21961768D01*
X-101826400Y-22885010D02*
X-105671758Y-22885010D01*
X-100851410Y-23860000D02*
X-101826400Y-22885010D01*
X-90610000Y-23860000D02*
X-100851410Y-23860000D01*
X-87910000Y-26560000D02*
X-90610000Y-23860000D01*
%TO.N,/~DTR*%
X-83550000Y-24860000D02*
X-79450000Y-24860000D01*
X-84100000Y-25410000D02*
X-83550000Y-24860000D01*
X-84805999Y-27735001D02*
X-84100000Y-27029002D01*
X-79450000Y-24860000D02*
X-77750000Y-26560000D01*
X-85934001Y-27735001D02*
X-84805999Y-27735001D01*
X-84100000Y-27029002D02*
X-84100000Y-25410000D01*
X-86650000Y-27019002D02*
X-85934001Y-27735001D01*
X-86650000Y-26080998D02*
X-86650000Y-27019002D01*
X-89370998Y-23360000D02*
X-86650000Y-26080998D01*
X-100715000Y-23360000D02*
X-89370998Y-23360000D01*
X-101515000Y-22560000D02*
X-100715000Y-23360000D01*
X-101515000Y-21585000D02*
X-101515000Y-22560000D01*
%TD*%
D27*
%TO.N,+5V*%
X-13668250Y-16054699D02*
X-13480137Y-16155247D01*
X-13276022Y-16217165D01*
X-13063750Y-16238072D01*
X-12373851Y-16238072D01*
X-12376741Y-16290553D01*
X-12334147Y-16589907D01*
X-12233972Y-16875199D01*
X-12154011Y-17024792D01*
X-11899830Y-17108475D01*
X-11015355Y-16224000D01*
X-11029497Y-16209858D01*
X-10849892Y-16030253D01*
X-10835750Y-16044395D01*
X-10821607Y-16030253D01*
X-10642002Y-16209858D01*
X-10656145Y-16224000D01*
X-9771670Y-17108475D01*
X-9517489Y-17024792D01*
X-9386592Y-16752225D01*
X-9311385Y-16459358D01*
X-9310219Y-16438182D01*
X-9263761Y-16671743D01*
X-9148049Y-16951095D01*
X-8980062Y-17202505D01*
X-8766255Y-17416312D01*
X-8514845Y-17584299D01*
X-8432461Y-17618424D01*
X-9539037Y-18725000D01*
X-37904065Y-18725000D01*
X-37950000Y-18720476D01*
X-38133292Y-18738528D01*
X-38309541Y-18791993D01*
X-38314895Y-18794855D01*
X-142173000Y-18832953D01*
X-142173000Y-17288080D01*
X-138023975Y-17288080D01*
X-137940292Y-17542261D01*
X-137667725Y-17673158D01*
X-137374858Y-17748365D01*
X-137072947Y-17764991D01*
X-136773593Y-17722397D01*
X-136488301Y-17622222D01*
X-136338708Y-17542261D01*
X-136255025Y-17288080D01*
X-137139500Y-16403605D01*
X-138023975Y-17288080D01*
X-142173000Y-17288080D01*
X-142173000Y-15986953D01*
X-140055495Y-15986176D01*
X-139972000Y-16054699D01*
X-139783887Y-16155247D01*
X-139579772Y-16217165D01*
X-139367500Y-16238072D01*
X-138677601Y-16238072D01*
X-138680491Y-16290553D01*
X-138637897Y-16589907D01*
X-138537722Y-16875199D01*
X-138457761Y-17024792D01*
X-138203580Y-17108475D01*
X-137319105Y-16224000D01*
X-137333247Y-16209858D01*
X-137153642Y-16030253D01*
X-137139500Y-16044395D01*
X-137125357Y-16030253D01*
X-136945752Y-16209858D01*
X-136959895Y-16224000D01*
X-136075420Y-17108475D01*
X-135821239Y-17024792D01*
X-135690342Y-16752225D01*
X-135615135Y-16459358D01*
X-135613969Y-16438182D01*
X-135567511Y-16671743D01*
X-135451799Y-16951095D01*
X-135283812Y-17202505D01*
X-135070005Y-17416312D01*
X-134818595Y-17584299D01*
X-134539243Y-17700011D01*
X-134242684Y-17759000D01*
X-133940316Y-17759000D01*
X-133643757Y-17700011D01*
X-133364405Y-17584299D01*
X-133112995Y-17416312D01*
X-132984763Y-17288080D01*
X-126532725Y-17288080D01*
X-126449042Y-17542261D01*
X-126176475Y-17673158D01*
X-125883608Y-17748365D01*
X-125581697Y-17764991D01*
X-125282343Y-17722397D01*
X-124997051Y-17622222D01*
X-124847458Y-17542261D01*
X-124763775Y-17288080D01*
X-125648250Y-16403605D01*
X-126532725Y-17288080D01*
X-132984763Y-17288080D01*
X-132899188Y-17202505D01*
X-132731201Y-16951095D01*
X-132615489Y-16671743D01*
X-132556500Y-16375184D01*
X-132556500Y-16072816D01*
X-132574280Y-15983432D01*
X-128569379Y-15981963D01*
X-128480750Y-16054699D01*
X-128292637Y-16155247D01*
X-128088522Y-16217165D01*
X-127876250Y-16238072D01*
X-127186351Y-16238072D01*
X-127189241Y-16290553D01*
X-127146647Y-16589907D01*
X-127046472Y-16875199D01*
X-126966511Y-17024792D01*
X-126712330Y-17108475D01*
X-125827855Y-16224000D01*
X-125841997Y-16209858D01*
X-125662392Y-16030253D01*
X-125648250Y-16044395D01*
X-125634107Y-16030253D01*
X-125454502Y-16209858D01*
X-125468645Y-16224000D01*
X-124584170Y-17108475D01*
X-124329989Y-17024792D01*
X-124199092Y-16752225D01*
X-124123885Y-16459358D01*
X-124122719Y-16438182D01*
X-124076261Y-16671743D01*
X-123960549Y-16951095D01*
X-123792562Y-17202505D01*
X-123578755Y-17416312D01*
X-123327345Y-17584299D01*
X-123047993Y-17700011D01*
X-122751434Y-17759000D01*
X-122449066Y-17759000D01*
X-122152507Y-17700011D01*
X-121873155Y-17584299D01*
X-121621745Y-17416312D01*
X-121493513Y-17288080D01*
X-115051475Y-17288080D01*
X-114967792Y-17542261D01*
X-114695225Y-17673158D01*
X-114402358Y-17748365D01*
X-114100447Y-17764991D01*
X-113801093Y-17722397D01*
X-113515801Y-17622222D01*
X-113366208Y-17542261D01*
X-113282525Y-17288080D01*
X-114167000Y-16403605D01*
X-115051475Y-17288080D01*
X-121493513Y-17288080D01*
X-121407938Y-17202505D01*
X-121239951Y-16951095D01*
X-121124239Y-16671743D01*
X-121065250Y-16375184D01*
X-121065250Y-16072816D01*
X-121083868Y-15979217D01*
X-117093259Y-15977753D01*
X-116999500Y-16054699D01*
X-116811387Y-16155247D01*
X-116607272Y-16217165D01*
X-116395000Y-16238072D01*
X-115705101Y-16238072D01*
X-115707991Y-16290553D01*
X-115665397Y-16589907D01*
X-115565222Y-16875199D01*
X-115485261Y-17024792D01*
X-115231080Y-17108475D01*
X-114346605Y-16224000D01*
X-114360747Y-16209858D01*
X-114181142Y-16030253D01*
X-114167000Y-16044395D01*
X-114152857Y-16030253D01*
X-113973252Y-16209858D01*
X-113987395Y-16224000D01*
X-113102920Y-17108475D01*
X-112848739Y-17024792D01*
X-112717842Y-16752225D01*
X-112642635Y-16459358D01*
X-112641469Y-16438182D01*
X-112595011Y-16671743D01*
X-112479299Y-16951095D01*
X-112311312Y-17202505D01*
X-112097505Y-17416312D01*
X-111846095Y-17584299D01*
X-111566743Y-17700011D01*
X-111270184Y-17759000D01*
X-110967816Y-17759000D01*
X-110671257Y-17700011D01*
X-110391905Y-17584299D01*
X-110140495Y-17416312D01*
X-110012263Y-17288080D01*
X-103570225Y-17288080D01*
X-103486542Y-17542261D01*
X-103213975Y-17673158D01*
X-102921108Y-17748365D01*
X-102619197Y-17764991D01*
X-102319843Y-17722397D01*
X-102034551Y-17622222D01*
X-101884958Y-17542261D01*
X-101801275Y-17288080D01*
X-102685750Y-16403605D01*
X-103570225Y-17288080D01*
X-110012263Y-17288080D01*
X-109926688Y-17202505D01*
X-109758701Y-16951095D01*
X-109642989Y-16671743D01*
X-109584000Y-16375184D01*
X-109584000Y-16072816D01*
X-109603456Y-15975005D01*
X-105617139Y-15973543D01*
X-105518250Y-16054699D01*
X-105330137Y-16155247D01*
X-105126022Y-16217165D01*
X-104913750Y-16238072D01*
X-104223851Y-16238072D01*
X-104226741Y-16290553D01*
X-104184147Y-16589907D01*
X-104083972Y-16875199D01*
X-104004011Y-17024792D01*
X-103749830Y-17108475D01*
X-102865355Y-16224000D01*
X-102879497Y-16209858D01*
X-102699892Y-16030253D01*
X-102685750Y-16044395D01*
X-102671607Y-16030253D01*
X-102492002Y-16209858D01*
X-102506145Y-16224000D01*
X-101621670Y-17108475D01*
X-101367489Y-17024792D01*
X-101236592Y-16752225D01*
X-101161385Y-16459358D01*
X-101160219Y-16438182D01*
X-101113761Y-16671743D01*
X-100998049Y-16951095D01*
X-100830062Y-17202505D01*
X-100616255Y-17416312D01*
X-100364845Y-17584299D01*
X-100085493Y-17700011D01*
X-99788934Y-17759000D01*
X-99486566Y-17759000D01*
X-99190007Y-17700011D01*
X-98910655Y-17584299D01*
X-98659245Y-17416312D01*
X-98531013Y-17288080D01*
X-92088975Y-17288080D01*
X-92005292Y-17542261D01*
X-91732725Y-17673158D01*
X-91439858Y-17748365D01*
X-91137947Y-17764991D01*
X-90838593Y-17722397D01*
X-90553301Y-17622222D01*
X-90403708Y-17542261D01*
X-90320025Y-17288080D01*
X-91204500Y-16403605D01*
X-92088975Y-17288080D01*
X-98531013Y-17288080D01*
X-98445438Y-17202505D01*
X-98277451Y-16951095D01*
X-98161739Y-16671743D01*
X-98102750Y-16375184D01*
X-98102750Y-16072816D01*
X-98123043Y-15970794D01*
X-94141018Y-15969333D01*
X-94037000Y-16054699D01*
X-93848887Y-16155247D01*
X-93644772Y-16217165D01*
X-93432500Y-16238072D01*
X-92742601Y-16238072D01*
X-92745491Y-16290553D01*
X-92702897Y-16589907D01*
X-92602722Y-16875199D01*
X-92522761Y-17024792D01*
X-92268580Y-17108475D01*
X-91384105Y-16224000D01*
X-91398247Y-16209858D01*
X-91218642Y-16030253D01*
X-91204500Y-16044395D01*
X-91190357Y-16030253D01*
X-91010752Y-16209858D01*
X-91024895Y-16224000D01*
X-90140420Y-17108475D01*
X-89886239Y-17024792D01*
X-89755342Y-16752225D01*
X-89680135Y-16459358D01*
X-89678969Y-16438182D01*
X-89632511Y-16671743D01*
X-89516799Y-16951095D01*
X-89348812Y-17202505D01*
X-89135005Y-17416312D01*
X-88883595Y-17584299D01*
X-88604243Y-17700011D01*
X-88307684Y-17759000D01*
X-88005316Y-17759000D01*
X-87708757Y-17700011D01*
X-87429405Y-17584299D01*
X-87177995Y-17416312D01*
X-87049763Y-17288080D01*
X-80607725Y-17288080D01*
X-80524042Y-17542261D01*
X-80251475Y-17673158D01*
X-79958608Y-17748365D01*
X-79656697Y-17764991D01*
X-79357343Y-17722397D01*
X-79072051Y-17622222D01*
X-78922458Y-17542261D01*
X-78838775Y-17288080D01*
X-79723250Y-16403605D01*
X-80607725Y-17288080D01*
X-87049763Y-17288080D01*
X-86964188Y-17202505D01*
X-86796201Y-16951095D01*
X-86680489Y-16671743D01*
X-86621500Y-16375184D01*
X-86621500Y-16072816D01*
X-86642631Y-15966583D01*
X-82664898Y-15965124D01*
X-82555750Y-16054699D01*
X-82367637Y-16155247D01*
X-82163522Y-16217165D01*
X-81951250Y-16238072D01*
X-81261351Y-16238072D01*
X-81264241Y-16290553D01*
X-81221647Y-16589907D01*
X-81121472Y-16875199D01*
X-81041511Y-17024792D01*
X-80787330Y-17108475D01*
X-79902855Y-16224000D01*
X-79916997Y-16209858D01*
X-79737392Y-16030253D01*
X-79723250Y-16044395D01*
X-79709107Y-16030253D01*
X-79529502Y-16209858D01*
X-79543645Y-16224000D01*
X-78659170Y-17108475D01*
X-78404989Y-17024792D01*
X-78274092Y-16752225D01*
X-78198885Y-16459358D01*
X-78197719Y-16438182D01*
X-78151261Y-16671743D01*
X-78035549Y-16951095D01*
X-77867562Y-17202505D01*
X-77653755Y-17416312D01*
X-77402345Y-17584299D01*
X-77122993Y-17700011D01*
X-76826434Y-17759000D01*
X-76524066Y-17759000D01*
X-76227507Y-17700011D01*
X-75948155Y-17584299D01*
X-75696745Y-17416312D01*
X-75568513Y-17288080D01*
X-69126475Y-17288080D01*
X-69042792Y-17542261D01*
X-68770225Y-17673158D01*
X-68477358Y-17748365D01*
X-68175447Y-17764991D01*
X-67876093Y-17722397D01*
X-67590801Y-17622222D01*
X-67441208Y-17542261D01*
X-67357525Y-17288080D01*
X-68242000Y-16403605D01*
X-69126475Y-17288080D01*
X-75568513Y-17288080D01*
X-75482938Y-17202505D01*
X-75314951Y-16951095D01*
X-75199239Y-16671743D01*
X-75140250Y-16375184D01*
X-75140250Y-16072816D01*
X-75162219Y-15962371D01*
X-71188778Y-15960914D01*
X-71074500Y-16054699D01*
X-70886387Y-16155247D01*
X-70682272Y-16217165D01*
X-70470000Y-16238072D01*
X-69780101Y-16238072D01*
X-69782991Y-16290553D01*
X-69740397Y-16589907D01*
X-69640222Y-16875199D01*
X-69560261Y-17024792D01*
X-69306080Y-17108475D01*
X-68421605Y-16224000D01*
X-68435747Y-16209858D01*
X-68256142Y-16030253D01*
X-68242000Y-16044395D01*
X-68227857Y-16030253D01*
X-68048252Y-16209858D01*
X-68062395Y-16224000D01*
X-67177920Y-17108475D01*
X-66923739Y-17024792D01*
X-66792842Y-16752225D01*
X-66717635Y-16459358D01*
X-66716469Y-16438182D01*
X-66670011Y-16671743D01*
X-66554299Y-16951095D01*
X-66386312Y-17202505D01*
X-66172505Y-17416312D01*
X-65921095Y-17584299D01*
X-65641743Y-17700011D01*
X-65345184Y-17759000D01*
X-65042816Y-17759000D01*
X-64746257Y-17700011D01*
X-64466905Y-17584299D01*
X-64215495Y-17416312D01*
X-64087263Y-17288080D01*
X-57645225Y-17288080D01*
X-57561542Y-17542261D01*
X-57288975Y-17673158D01*
X-56996108Y-17748365D01*
X-56694197Y-17764991D01*
X-56394843Y-17722397D01*
X-56109551Y-17622222D01*
X-55959958Y-17542261D01*
X-55876275Y-17288080D01*
X-56760750Y-16403605D01*
X-57645225Y-17288080D01*
X-64087263Y-17288080D01*
X-64001688Y-17202505D01*
X-63833701Y-16951095D01*
X-63717989Y-16671743D01*
X-63659000Y-16375184D01*
X-63659000Y-16072816D01*
X-63681806Y-15958160D01*
X-59712657Y-15956704D01*
X-59593250Y-16054699D01*
X-59405137Y-16155247D01*
X-59201022Y-16217165D01*
X-58988750Y-16238072D01*
X-58298851Y-16238072D01*
X-58301741Y-16290553D01*
X-58259147Y-16589907D01*
X-58158972Y-16875199D01*
X-58079011Y-17024792D01*
X-57824830Y-17108475D01*
X-56940355Y-16224000D01*
X-56954497Y-16209858D01*
X-56774892Y-16030253D01*
X-56760750Y-16044395D01*
X-56746607Y-16030253D01*
X-56567002Y-16209858D01*
X-56581145Y-16224000D01*
X-55696670Y-17108475D01*
X-55442489Y-17024792D01*
X-55311592Y-16752225D01*
X-55236385Y-16459358D01*
X-55235219Y-16438182D01*
X-55188761Y-16671743D01*
X-55073049Y-16951095D01*
X-54905062Y-17202505D01*
X-54691255Y-17416312D01*
X-54439845Y-17584299D01*
X-54160493Y-17700011D01*
X-53863934Y-17759000D01*
X-53561566Y-17759000D01*
X-53265007Y-17700011D01*
X-52985655Y-17584299D01*
X-52734245Y-17416312D01*
X-52606013Y-17288080D01*
X-46163975Y-17288080D01*
X-46080292Y-17542261D01*
X-45807725Y-17673158D01*
X-45514858Y-17748365D01*
X-45212947Y-17764991D01*
X-44913593Y-17722397D01*
X-44628301Y-17622222D01*
X-44478708Y-17542261D01*
X-44395025Y-17288080D01*
X-45279500Y-16403605D01*
X-46163975Y-17288080D01*
X-52606013Y-17288080D01*
X-52520438Y-17202505D01*
X-52352451Y-16951095D01*
X-52236739Y-16671743D01*
X-52177750Y-16375184D01*
X-52177750Y-16072816D01*
X-52201394Y-15953949D01*
X-48236537Y-15952494D01*
X-48112000Y-16054699D01*
X-47923887Y-16155247D01*
X-47719772Y-16217165D01*
X-47507500Y-16238072D01*
X-46817601Y-16238072D01*
X-46820491Y-16290553D01*
X-46777897Y-16589907D01*
X-46677722Y-16875199D01*
X-46597761Y-17024792D01*
X-46343580Y-17108475D01*
X-45459105Y-16224000D01*
X-45473247Y-16209858D01*
X-45293642Y-16030253D01*
X-45279500Y-16044395D01*
X-45265357Y-16030253D01*
X-45085752Y-16209858D01*
X-45099895Y-16224000D01*
X-44215420Y-17108475D01*
X-43961239Y-17024792D01*
X-43830342Y-16752225D01*
X-43755135Y-16459358D01*
X-43753969Y-16438182D01*
X-43707511Y-16671743D01*
X-43591799Y-16951095D01*
X-43423812Y-17202505D01*
X-43210005Y-17416312D01*
X-42958595Y-17584299D01*
X-42679243Y-17700011D01*
X-42382684Y-17759000D01*
X-42080316Y-17759000D01*
X-41783757Y-17700011D01*
X-41504405Y-17584299D01*
X-41252995Y-17416312D01*
X-41124763Y-17288080D01*
X-34682725Y-17288080D01*
X-34599042Y-17542261D01*
X-34326475Y-17673158D01*
X-34033608Y-17748365D01*
X-33731697Y-17764991D01*
X-33432343Y-17722397D01*
X-33147051Y-17622222D01*
X-32997458Y-17542261D01*
X-32913775Y-17288080D01*
X-33798250Y-16403605D01*
X-34682725Y-17288080D01*
X-41124763Y-17288080D01*
X-41039188Y-17202505D01*
X-40871201Y-16951095D01*
X-40755489Y-16671743D01*
X-40696500Y-16375184D01*
X-40696500Y-16072816D01*
X-40720982Y-15949737D01*
X-36760417Y-15948284D01*
X-36630750Y-16054699D01*
X-36442637Y-16155247D01*
X-36238522Y-16217165D01*
X-36026250Y-16238072D01*
X-35336351Y-16238072D01*
X-35339241Y-16290553D01*
X-35296647Y-16589907D01*
X-35196472Y-16875199D01*
X-35116511Y-17024792D01*
X-34862330Y-17108475D01*
X-33977855Y-16224000D01*
X-33991997Y-16209858D01*
X-33812392Y-16030253D01*
X-33798250Y-16044395D01*
X-33784107Y-16030253D01*
X-33604502Y-16209858D01*
X-33618645Y-16224000D01*
X-32734170Y-17108475D01*
X-32479989Y-17024792D01*
X-32349092Y-16752225D01*
X-32273885Y-16459358D01*
X-32272719Y-16438182D01*
X-32226261Y-16671743D01*
X-32110549Y-16951095D01*
X-31942562Y-17202505D01*
X-31728755Y-17416312D01*
X-31477345Y-17584299D01*
X-31197993Y-17700011D01*
X-30901434Y-17759000D01*
X-30599066Y-17759000D01*
X-30302507Y-17700011D01*
X-30023155Y-17584299D01*
X-29771745Y-17416312D01*
X-29643513Y-17288080D01*
X-23201475Y-17288080D01*
X-23117792Y-17542261D01*
X-22845225Y-17673158D01*
X-22552358Y-17748365D01*
X-22250447Y-17764991D01*
X-21951093Y-17722397D01*
X-21665801Y-17622222D01*
X-21516208Y-17542261D01*
X-21432525Y-17288080D01*
X-22317000Y-16403605D01*
X-23201475Y-17288080D01*
X-29643513Y-17288080D01*
X-29557938Y-17202505D01*
X-29389951Y-16951095D01*
X-29274239Y-16671743D01*
X-29215250Y-16375184D01*
X-29215250Y-16072816D01*
X-29240569Y-15945526D01*
X-25284296Y-15944075D01*
X-25149500Y-16054699D01*
X-24961387Y-16155247D01*
X-24757272Y-16217165D01*
X-24545000Y-16238072D01*
X-23855101Y-16238072D01*
X-23857991Y-16290553D01*
X-23815397Y-16589907D01*
X-23715222Y-16875199D01*
X-23635261Y-17024792D01*
X-23381080Y-17108475D01*
X-22496605Y-16224000D01*
X-22510747Y-16209858D01*
X-22331142Y-16030253D01*
X-22317000Y-16044395D01*
X-22302857Y-16030253D01*
X-22123252Y-16209858D01*
X-22137395Y-16224000D01*
X-21252920Y-17108475D01*
X-20998739Y-17024792D01*
X-20867842Y-16752225D01*
X-20792635Y-16459358D01*
X-20791469Y-16438182D01*
X-20745011Y-16671743D01*
X-20629299Y-16951095D01*
X-20461312Y-17202505D01*
X-20247505Y-17416312D01*
X-19996095Y-17584299D01*
X-19716743Y-17700011D01*
X-19420184Y-17759000D01*
X-19117816Y-17759000D01*
X-18821257Y-17700011D01*
X-18541905Y-17584299D01*
X-18290495Y-17416312D01*
X-18162263Y-17288080D01*
X-11720225Y-17288080D01*
X-11636542Y-17542261D01*
X-11363975Y-17673158D01*
X-11071108Y-17748365D01*
X-10769197Y-17764991D01*
X-10469843Y-17722397D01*
X-10184551Y-17622222D01*
X-10034958Y-17542261D01*
X-9951275Y-17288080D01*
X-10835750Y-16403605D01*
X-11720225Y-17288080D01*
X-18162263Y-17288080D01*
X-18076688Y-17202505D01*
X-17908701Y-16951095D01*
X-17792989Y-16671743D01*
X-17734000Y-16375184D01*
X-17734000Y-16072816D01*
X-17760157Y-15941314D01*
X-13808176Y-15939865D01*
X-13668250Y-16054699D01*
%TA.AperFunction,Conductor*%
D28*
G36*
X-13668250Y-16054699D02*
G01*
X-13480137Y-16155247D01*
X-13276022Y-16217165D01*
X-13063750Y-16238072D01*
X-12373851Y-16238072D01*
X-12376741Y-16290553D01*
X-12334147Y-16589907D01*
X-12233972Y-16875199D01*
X-12154011Y-17024792D01*
X-11899830Y-17108475D01*
X-11015355Y-16224000D01*
X-11029497Y-16209858D01*
X-10849892Y-16030253D01*
X-10835750Y-16044395D01*
X-10821607Y-16030253D01*
X-10642002Y-16209858D01*
X-10656145Y-16224000D01*
X-9771670Y-17108475D01*
X-9517489Y-17024792D01*
X-9386592Y-16752225D01*
X-9311385Y-16459358D01*
X-9310219Y-16438182D01*
X-9263761Y-16671743D01*
X-9148049Y-16951095D01*
X-8980062Y-17202505D01*
X-8766255Y-17416312D01*
X-8514845Y-17584299D01*
X-8432461Y-17618424D01*
X-9539037Y-18725000D01*
X-37904065Y-18725000D01*
X-37950000Y-18720476D01*
X-38133292Y-18738528D01*
X-38309541Y-18791993D01*
X-38314895Y-18794855D01*
X-142173000Y-18832953D01*
X-142173000Y-17288080D01*
X-138023975Y-17288080D01*
X-137940292Y-17542261D01*
X-137667725Y-17673158D01*
X-137374858Y-17748365D01*
X-137072947Y-17764991D01*
X-136773593Y-17722397D01*
X-136488301Y-17622222D01*
X-136338708Y-17542261D01*
X-136255025Y-17288080D01*
X-137139500Y-16403605D01*
X-138023975Y-17288080D01*
X-142173000Y-17288080D01*
X-142173000Y-15986953D01*
X-140055495Y-15986176D01*
X-139972000Y-16054699D01*
X-139783887Y-16155247D01*
X-139579772Y-16217165D01*
X-139367500Y-16238072D01*
X-138677601Y-16238072D01*
X-138680491Y-16290553D01*
X-138637897Y-16589907D01*
X-138537722Y-16875199D01*
X-138457761Y-17024792D01*
X-138203580Y-17108475D01*
X-137319105Y-16224000D01*
X-137333247Y-16209858D01*
X-137153642Y-16030253D01*
X-137139500Y-16044395D01*
X-137125357Y-16030253D01*
X-136945752Y-16209858D01*
X-136959895Y-16224000D01*
X-136075420Y-17108475D01*
X-135821239Y-17024792D01*
X-135690342Y-16752225D01*
X-135615135Y-16459358D01*
X-135613969Y-16438182D01*
X-135567511Y-16671743D01*
X-135451799Y-16951095D01*
X-135283812Y-17202505D01*
X-135070005Y-17416312D01*
X-134818595Y-17584299D01*
X-134539243Y-17700011D01*
X-134242684Y-17759000D01*
X-133940316Y-17759000D01*
X-133643757Y-17700011D01*
X-133364405Y-17584299D01*
X-133112995Y-17416312D01*
X-132984763Y-17288080D01*
X-126532725Y-17288080D01*
X-126449042Y-17542261D01*
X-126176475Y-17673158D01*
X-125883608Y-17748365D01*
X-125581697Y-17764991D01*
X-125282343Y-17722397D01*
X-124997051Y-17622222D01*
X-124847458Y-17542261D01*
X-124763775Y-17288080D01*
X-125648250Y-16403605D01*
X-126532725Y-17288080D01*
X-132984763Y-17288080D01*
X-132899188Y-17202505D01*
X-132731201Y-16951095D01*
X-132615489Y-16671743D01*
X-132556500Y-16375184D01*
X-132556500Y-16072816D01*
X-132574280Y-15983432D01*
X-128569379Y-15981963D01*
X-128480750Y-16054699D01*
X-128292637Y-16155247D01*
X-128088522Y-16217165D01*
X-127876250Y-16238072D01*
X-127186351Y-16238072D01*
X-127189241Y-16290553D01*
X-127146647Y-16589907D01*
X-127046472Y-16875199D01*
X-126966511Y-17024792D01*
X-126712330Y-17108475D01*
X-125827855Y-16224000D01*
X-125841997Y-16209858D01*
X-125662392Y-16030253D01*
X-125648250Y-16044395D01*
X-125634107Y-16030253D01*
X-125454502Y-16209858D01*
X-125468645Y-16224000D01*
X-124584170Y-17108475D01*
X-124329989Y-17024792D01*
X-124199092Y-16752225D01*
X-124123885Y-16459358D01*
X-124122719Y-16438182D01*
X-124076261Y-16671743D01*
X-123960549Y-16951095D01*
X-123792562Y-17202505D01*
X-123578755Y-17416312D01*
X-123327345Y-17584299D01*
X-123047993Y-17700011D01*
X-122751434Y-17759000D01*
X-122449066Y-17759000D01*
X-122152507Y-17700011D01*
X-121873155Y-17584299D01*
X-121621745Y-17416312D01*
X-121493513Y-17288080D01*
X-115051475Y-17288080D01*
X-114967792Y-17542261D01*
X-114695225Y-17673158D01*
X-114402358Y-17748365D01*
X-114100447Y-17764991D01*
X-113801093Y-17722397D01*
X-113515801Y-17622222D01*
X-113366208Y-17542261D01*
X-113282525Y-17288080D01*
X-114167000Y-16403605D01*
X-115051475Y-17288080D01*
X-121493513Y-17288080D01*
X-121407938Y-17202505D01*
X-121239951Y-16951095D01*
X-121124239Y-16671743D01*
X-121065250Y-16375184D01*
X-121065250Y-16072816D01*
X-121083868Y-15979217D01*
X-117093259Y-15977753D01*
X-116999500Y-16054699D01*
X-116811387Y-16155247D01*
X-116607272Y-16217165D01*
X-116395000Y-16238072D01*
X-115705101Y-16238072D01*
X-115707991Y-16290553D01*
X-115665397Y-16589907D01*
X-115565222Y-16875199D01*
X-115485261Y-17024792D01*
X-115231080Y-17108475D01*
X-114346605Y-16224000D01*
X-114360747Y-16209858D01*
X-114181142Y-16030253D01*
X-114167000Y-16044395D01*
X-114152857Y-16030253D01*
X-113973252Y-16209858D01*
X-113987395Y-16224000D01*
X-113102920Y-17108475D01*
X-112848739Y-17024792D01*
X-112717842Y-16752225D01*
X-112642635Y-16459358D01*
X-112641469Y-16438182D01*
X-112595011Y-16671743D01*
X-112479299Y-16951095D01*
X-112311312Y-17202505D01*
X-112097505Y-17416312D01*
X-111846095Y-17584299D01*
X-111566743Y-17700011D01*
X-111270184Y-17759000D01*
X-110967816Y-17759000D01*
X-110671257Y-17700011D01*
X-110391905Y-17584299D01*
X-110140495Y-17416312D01*
X-110012263Y-17288080D01*
X-103570225Y-17288080D01*
X-103486542Y-17542261D01*
X-103213975Y-17673158D01*
X-102921108Y-17748365D01*
X-102619197Y-17764991D01*
X-102319843Y-17722397D01*
X-102034551Y-17622222D01*
X-101884958Y-17542261D01*
X-101801275Y-17288080D01*
X-102685750Y-16403605D01*
X-103570225Y-17288080D01*
X-110012263Y-17288080D01*
X-109926688Y-17202505D01*
X-109758701Y-16951095D01*
X-109642989Y-16671743D01*
X-109584000Y-16375184D01*
X-109584000Y-16072816D01*
X-109603456Y-15975005D01*
X-105617139Y-15973543D01*
X-105518250Y-16054699D01*
X-105330137Y-16155247D01*
X-105126022Y-16217165D01*
X-104913750Y-16238072D01*
X-104223851Y-16238072D01*
X-104226741Y-16290553D01*
X-104184147Y-16589907D01*
X-104083972Y-16875199D01*
X-104004011Y-17024792D01*
X-103749830Y-17108475D01*
X-102865355Y-16224000D01*
X-102879497Y-16209858D01*
X-102699892Y-16030253D01*
X-102685750Y-16044395D01*
X-102671607Y-16030253D01*
X-102492002Y-16209858D01*
X-102506145Y-16224000D01*
X-101621670Y-17108475D01*
X-101367489Y-17024792D01*
X-101236592Y-16752225D01*
X-101161385Y-16459358D01*
X-101160219Y-16438182D01*
X-101113761Y-16671743D01*
X-100998049Y-16951095D01*
X-100830062Y-17202505D01*
X-100616255Y-17416312D01*
X-100364845Y-17584299D01*
X-100085493Y-17700011D01*
X-99788934Y-17759000D01*
X-99486566Y-17759000D01*
X-99190007Y-17700011D01*
X-98910655Y-17584299D01*
X-98659245Y-17416312D01*
X-98531013Y-17288080D01*
X-92088975Y-17288080D01*
X-92005292Y-17542261D01*
X-91732725Y-17673158D01*
X-91439858Y-17748365D01*
X-91137947Y-17764991D01*
X-90838593Y-17722397D01*
X-90553301Y-17622222D01*
X-90403708Y-17542261D01*
X-90320025Y-17288080D01*
X-91204500Y-16403605D01*
X-92088975Y-17288080D01*
X-98531013Y-17288080D01*
X-98445438Y-17202505D01*
X-98277451Y-16951095D01*
X-98161739Y-16671743D01*
X-98102750Y-16375184D01*
X-98102750Y-16072816D01*
X-98123043Y-15970794D01*
X-94141018Y-15969333D01*
X-94037000Y-16054699D01*
X-93848887Y-16155247D01*
X-93644772Y-16217165D01*
X-93432500Y-16238072D01*
X-92742601Y-16238072D01*
X-92745491Y-16290553D01*
X-92702897Y-16589907D01*
X-92602722Y-16875199D01*
X-92522761Y-17024792D01*
X-92268580Y-17108475D01*
X-91384105Y-16224000D01*
X-91398247Y-16209858D01*
X-91218642Y-16030253D01*
X-91204500Y-16044395D01*
X-91190357Y-16030253D01*
X-91010752Y-16209858D01*
X-91024895Y-16224000D01*
X-90140420Y-17108475D01*
X-89886239Y-17024792D01*
X-89755342Y-16752225D01*
X-89680135Y-16459358D01*
X-89678969Y-16438182D01*
X-89632511Y-16671743D01*
X-89516799Y-16951095D01*
X-89348812Y-17202505D01*
X-89135005Y-17416312D01*
X-88883595Y-17584299D01*
X-88604243Y-17700011D01*
X-88307684Y-17759000D01*
X-88005316Y-17759000D01*
X-87708757Y-17700011D01*
X-87429405Y-17584299D01*
X-87177995Y-17416312D01*
X-87049763Y-17288080D01*
X-80607725Y-17288080D01*
X-80524042Y-17542261D01*
X-80251475Y-17673158D01*
X-79958608Y-17748365D01*
X-79656697Y-17764991D01*
X-79357343Y-17722397D01*
X-79072051Y-17622222D01*
X-78922458Y-17542261D01*
X-78838775Y-17288080D01*
X-79723250Y-16403605D01*
X-80607725Y-17288080D01*
X-87049763Y-17288080D01*
X-86964188Y-17202505D01*
X-86796201Y-16951095D01*
X-86680489Y-16671743D01*
X-86621500Y-16375184D01*
X-86621500Y-16072816D01*
X-86642631Y-15966583D01*
X-82664898Y-15965124D01*
X-82555750Y-16054699D01*
X-82367637Y-16155247D01*
X-82163522Y-16217165D01*
X-81951250Y-16238072D01*
X-81261351Y-16238072D01*
X-81264241Y-16290553D01*
X-81221647Y-16589907D01*
X-81121472Y-16875199D01*
X-81041511Y-17024792D01*
X-80787330Y-17108475D01*
X-79902855Y-16224000D01*
X-79916997Y-16209858D01*
X-79737392Y-16030253D01*
X-79723250Y-16044395D01*
X-79709107Y-16030253D01*
X-79529502Y-16209858D01*
X-79543645Y-16224000D01*
X-78659170Y-17108475D01*
X-78404989Y-17024792D01*
X-78274092Y-16752225D01*
X-78198885Y-16459358D01*
X-78197719Y-16438182D01*
X-78151261Y-16671743D01*
X-78035549Y-16951095D01*
X-77867562Y-17202505D01*
X-77653755Y-17416312D01*
X-77402345Y-17584299D01*
X-77122993Y-17700011D01*
X-76826434Y-17759000D01*
X-76524066Y-17759000D01*
X-76227507Y-17700011D01*
X-75948155Y-17584299D01*
X-75696745Y-17416312D01*
X-75568513Y-17288080D01*
X-69126475Y-17288080D01*
X-69042792Y-17542261D01*
X-68770225Y-17673158D01*
X-68477358Y-17748365D01*
X-68175447Y-17764991D01*
X-67876093Y-17722397D01*
X-67590801Y-17622222D01*
X-67441208Y-17542261D01*
X-67357525Y-17288080D01*
X-68242000Y-16403605D01*
X-69126475Y-17288080D01*
X-75568513Y-17288080D01*
X-75482938Y-17202505D01*
X-75314951Y-16951095D01*
X-75199239Y-16671743D01*
X-75140250Y-16375184D01*
X-75140250Y-16072816D01*
X-75162219Y-15962371D01*
X-71188778Y-15960914D01*
X-71074500Y-16054699D01*
X-70886387Y-16155247D01*
X-70682272Y-16217165D01*
X-70470000Y-16238072D01*
X-69780101Y-16238072D01*
X-69782991Y-16290553D01*
X-69740397Y-16589907D01*
X-69640222Y-16875199D01*
X-69560261Y-17024792D01*
X-69306080Y-17108475D01*
X-68421605Y-16224000D01*
X-68435747Y-16209858D01*
X-68256142Y-16030253D01*
X-68242000Y-16044395D01*
X-68227857Y-16030253D01*
X-68048252Y-16209858D01*
X-68062395Y-16224000D01*
X-67177920Y-17108475D01*
X-66923739Y-17024792D01*
X-66792842Y-16752225D01*
X-66717635Y-16459358D01*
X-66716469Y-16438182D01*
X-66670011Y-16671743D01*
X-66554299Y-16951095D01*
X-66386312Y-17202505D01*
X-66172505Y-17416312D01*
X-65921095Y-17584299D01*
X-65641743Y-17700011D01*
X-65345184Y-17759000D01*
X-65042816Y-17759000D01*
X-64746257Y-17700011D01*
X-64466905Y-17584299D01*
X-64215495Y-17416312D01*
X-64087263Y-17288080D01*
X-57645225Y-17288080D01*
X-57561542Y-17542261D01*
X-57288975Y-17673158D01*
X-56996108Y-17748365D01*
X-56694197Y-17764991D01*
X-56394843Y-17722397D01*
X-56109551Y-17622222D01*
X-55959958Y-17542261D01*
X-55876275Y-17288080D01*
X-56760750Y-16403605D01*
X-57645225Y-17288080D01*
X-64087263Y-17288080D01*
X-64001688Y-17202505D01*
X-63833701Y-16951095D01*
X-63717989Y-16671743D01*
X-63659000Y-16375184D01*
X-63659000Y-16072816D01*
X-63681806Y-15958160D01*
X-59712657Y-15956704D01*
X-59593250Y-16054699D01*
X-59405137Y-16155247D01*
X-59201022Y-16217165D01*
X-58988750Y-16238072D01*
X-58298851Y-16238072D01*
X-58301741Y-16290553D01*
X-58259147Y-16589907D01*
X-58158972Y-16875199D01*
X-58079011Y-17024792D01*
X-57824830Y-17108475D01*
X-56940355Y-16224000D01*
X-56954497Y-16209858D01*
X-56774892Y-16030253D01*
X-56760750Y-16044395D01*
X-56746607Y-16030253D01*
X-56567002Y-16209858D01*
X-56581145Y-16224000D01*
X-55696670Y-17108475D01*
X-55442489Y-17024792D01*
X-55311592Y-16752225D01*
X-55236385Y-16459358D01*
X-55235219Y-16438182D01*
X-55188761Y-16671743D01*
X-55073049Y-16951095D01*
X-54905062Y-17202505D01*
X-54691255Y-17416312D01*
X-54439845Y-17584299D01*
X-54160493Y-17700011D01*
X-53863934Y-17759000D01*
X-53561566Y-17759000D01*
X-53265007Y-17700011D01*
X-52985655Y-17584299D01*
X-52734245Y-17416312D01*
X-52606013Y-17288080D01*
X-46163975Y-17288080D01*
X-46080292Y-17542261D01*
X-45807725Y-17673158D01*
X-45514858Y-17748365D01*
X-45212947Y-17764991D01*
X-44913593Y-17722397D01*
X-44628301Y-17622222D01*
X-44478708Y-17542261D01*
X-44395025Y-17288080D01*
X-45279500Y-16403605D01*
X-46163975Y-17288080D01*
X-52606013Y-17288080D01*
X-52520438Y-17202505D01*
X-52352451Y-16951095D01*
X-52236739Y-16671743D01*
X-52177750Y-16375184D01*
X-52177750Y-16072816D01*
X-52201394Y-15953949D01*
X-48236537Y-15952494D01*
X-48112000Y-16054699D01*
X-47923887Y-16155247D01*
X-47719772Y-16217165D01*
X-47507500Y-16238072D01*
X-46817601Y-16238072D01*
X-46820491Y-16290553D01*
X-46777897Y-16589907D01*
X-46677722Y-16875199D01*
X-46597761Y-17024792D01*
X-46343580Y-17108475D01*
X-45459105Y-16224000D01*
X-45473247Y-16209858D01*
X-45293642Y-16030253D01*
X-45279500Y-16044395D01*
X-45265357Y-16030253D01*
X-45085752Y-16209858D01*
X-45099895Y-16224000D01*
X-44215420Y-17108475D01*
X-43961239Y-17024792D01*
X-43830342Y-16752225D01*
X-43755135Y-16459358D01*
X-43753969Y-16438182D01*
X-43707511Y-16671743D01*
X-43591799Y-16951095D01*
X-43423812Y-17202505D01*
X-43210005Y-17416312D01*
X-42958595Y-17584299D01*
X-42679243Y-17700011D01*
X-42382684Y-17759000D01*
X-42080316Y-17759000D01*
X-41783757Y-17700011D01*
X-41504405Y-17584299D01*
X-41252995Y-17416312D01*
X-41124763Y-17288080D01*
X-34682725Y-17288080D01*
X-34599042Y-17542261D01*
X-34326475Y-17673158D01*
X-34033608Y-17748365D01*
X-33731697Y-17764991D01*
X-33432343Y-17722397D01*
X-33147051Y-17622222D01*
X-32997458Y-17542261D01*
X-32913775Y-17288080D01*
X-33798250Y-16403605D01*
X-34682725Y-17288080D01*
X-41124763Y-17288080D01*
X-41039188Y-17202505D01*
X-40871201Y-16951095D01*
X-40755489Y-16671743D01*
X-40696500Y-16375184D01*
X-40696500Y-16072816D01*
X-40720982Y-15949737D01*
X-36760417Y-15948284D01*
X-36630750Y-16054699D01*
X-36442637Y-16155247D01*
X-36238522Y-16217165D01*
X-36026250Y-16238072D01*
X-35336351Y-16238072D01*
X-35339241Y-16290553D01*
X-35296647Y-16589907D01*
X-35196472Y-16875199D01*
X-35116511Y-17024792D01*
X-34862330Y-17108475D01*
X-33977855Y-16224000D01*
X-33991997Y-16209858D01*
X-33812392Y-16030253D01*
X-33798250Y-16044395D01*
X-33784107Y-16030253D01*
X-33604502Y-16209858D01*
X-33618645Y-16224000D01*
X-32734170Y-17108475D01*
X-32479989Y-17024792D01*
X-32349092Y-16752225D01*
X-32273885Y-16459358D01*
X-32272719Y-16438182D01*
X-32226261Y-16671743D01*
X-32110549Y-16951095D01*
X-31942562Y-17202505D01*
X-31728755Y-17416312D01*
X-31477345Y-17584299D01*
X-31197993Y-17700011D01*
X-30901434Y-17759000D01*
X-30599066Y-17759000D01*
X-30302507Y-17700011D01*
X-30023155Y-17584299D01*
X-29771745Y-17416312D01*
X-29643513Y-17288080D01*
X-23201475Y-17288080D01*
X-23117792Y-17542261D01*
X-22845225Y-17673158D01*
X-22552358Y-17748365D01*
X-22250447Y-17764991D01*
X-21951093Y-17722397D01*
X-21665801Y-17622222D01*
X-21516208Y-17542261D01*
X-21432525Y-17288080D01*
X-22317000Y-16403605D01*
X-23201475Y-17288080D01*
X-29643513Y-17288080D01*
X-29557938Y-17202505D01*
X-29389951Y-16951095D01*
X-29274239Y-16671743D01*
X-29215250Y-16375184D01*
X-29215250Y-16072816D01*
X-29240569Y-15945526D01*
X-25284296Y-15944075D01*
X-25149500Y-16054699D01*
X-24961387Y-16155247D01*
X-24757272Y-16217165D01*
X-24545000Y-16238072D01*
X-23855101Y-16238072D01*
X-23857991Y-16290553D01*
X-23815397Y-16589907D01*
X-23715222Y-16875199D01*
X-23635261Y-17024792D01*
X-23381080Y-17108475D01*
X-22496605Y-16224000D01*
X-22510747Y-16209858D01*
X-22331142Y-16030253D01*
X-22317000Y-16044395D01*
X-22302857Y-16030253D01*
X-22123252Y-16209858D01*
X-22137395Y-16224000D01*
X-21252920Y-17108475D01*
X-20998739Y-17024792D01*
X-20867842Y-16752225D01*
X-20792635Y-16459358D01*
X-20791469Y-16438182D01*
X-20745011Y-16671743D01*
X-20629299Y-16951095D01*
X-20461312Y-17202505D01*
X-20247505Y-17416312D01*
X-19996095Y-17584299D01*
X-19716743Y-17700011D01*
X-19420184Y-17759000D01*
X-19117816Y-17759000D01*
X-18821257Y-17700011D01*
X-18541905Y-17584299D01*
X-18290495Y-17416312D01*
X-18162263Y-17288080D01*
X-11720225Y-17288080D01*
X-11636542Y-17542261D01*
X-11363975Y-17673158D01*
X-11071108Y-17748365D01*
X-10769197Y-17764991D01*
X-10469843Y-17722397D01*
X-10184551Y-17622222D01*
X-10034958Y-17542261D01*
X-9951275Y-17288080D01*
X-10835750Y-16403605D01*
X-11720225Y-17288080D01*
X-18162263Y-17288080D01*
X-18076688Y-17202505D01*
X-17908701Y-16951095D01*
X-17792989Y-16671743D01*
X-17734000Y-16375184D01*
X-17734000Y-16072816D01*
X-17760157Y-15941314D01*
X-13808176Y-15939865D01*
X-13668250Y-16054699D01*
G37*
%TD.AperFunction*%
%TD*%
D27*
%TO.N,GND*%
X-2948990Y-717192D02*
X-2418964Y-877216D01*
X-1930121Y-1137140D01*
X-1501069Y-1487065D01*
X-1148156Y-1913664D01*
X-884827Y-2400681D01*
X-721106Y-2929578D01*
X-660000Y-3510960D01*
X-659986Y-27427713D01*
X-717179Y-28011013D01*
X-877204Y-28541040D01*
X-1137128Y-29029886D01*
X-1487054Y-29458939D01*
X-1913655Y-29811854D01*
X-2400674Y-30075184D01*
X-2929577Y-30238907D01*
X-3510827Y-30299999D01*
X-127389453Y-30300001D01*
X-127362066Y-30235865D01*
X-127315000Y-30012000D01*
X-127315000Y-29587000D01*
X-128348000Y-29587000D01*
X-128348000Y-29607000D01*
X-128602000Y-29607000D01*
X-128602000Y-29587000D01*
X-130798000Y-29587000D01*
X-130798000Y-29607000D01*
X-131052000Y-29607000D01*
X-131052000Y-29587000D01*
X-133048000Y-29587000D01*
X-133048000Y-29607000D01*
X-133302000Y-29607000D01*
X-133302000Y-29587000D01*
X-135498000Y-29587000D01*
X-135498000Y-29607000D01*
X-135752000Y-29607000D01*
X-135752000Y-29587000D01*
X-136785000Y-29587000D01*
X-136785000Y-30012000D01*
X-136737934Y-30235865D01*
X-136710547Y-30300001D01*
X-143167711Y-30300001D01*
X-143751010Y-30242808D01*
X-144281036Y-30082783D01*
X-144769880Y-29822860D01*
X-145198931Y-29472935D01*
X-145551845Y-29046335D01*
X-145815173Y-28559320D01*
X-145978894Y-28030422D01*
X-146040000Y-27449040D01*
X-146040000Y-27239872D01*
X-145435000Y-27239872D01*
X-145435000Y-27680128D01*
X-145349110Y-28111925D01*
X-145180631Y-28518669D01*
X-144936038Y-28884729D01*
X-144624729Y-29196038D01*
X-144258669Y-29440631D01*
X-143851925Y-29609110D01*
X-143420128Y-29695000D01*
X-142979872Y-29695000D01*
X-142548075Y-29609110D01*
X-142141331Y-29440631D01*
X-141775271Y-29196038D01*
X-141487233Y-28908000D01*
X-136785000Y-28908000D01*
X-136785000Y-29333000D01*
X-135752000Y-29333000D01*
X-135752000Y-28041837D01*
X-135930810Y-27916036D01*
X-136163864Y-27999937D01*
X-136355441Y-28124953D01*
X-136518947Y-28284941D01*
X-136648099Y-28473754D01*
X-136737934Y-28684135D01*
X-136785000Y-28908000D01*
X-141487233Y-28908000D01*
X-141463962Y-28884729D01*
X-141219369Y-28518669D01*
X-141050890Y-28111925D01*
X-140965000Y-27680128D01*
X-140965000Y-27239872D01*
X-141050890Y-26808075D01*
X-141176427Y-26505000D01*
X-135583072Y-26505000D01*
X-135580000Y-26944250D01*
X-135421250Y-27103000D01*
X-134497000Y-27103000D01*
X-134497000Y-26028750D01*
X-134655750Y-25870000D01*
X-134945000Y-25866928D01*
X-135069482Y-25879188D01*
X-135189180Y-25915498D01*
X-135299494Y-25974463D01*
X-135396185Y-26053815D01*
X-135475537Y-26150506D01*
X-135534502Y-26260820D01*
X-135570812Y-26380518D01*
X-135583072Y-26505000D01*
X-141176427Y-26505000D01*
X-141219369Y-26401331D01*
X-141463962Y-26035271D01*
X-141775271Y-25723962D01*
X-142141331Y-25479369D01*
X-142548075Y-25310890D01*
X-142979872Y-25225000D01*
X-143420128Y-25225000D01*
X-143851925Y-25310890D01*
X-144258669Y-25479369D01*
X-144624729Y-25723962D01*
X-144936038Y-26035271D01*
X-145180631Y-26401331D01*
X-145349110Y-26808075D01*
X-145435000Y-27239872D01*
X-146040000Y-27239872D01*
X-146040000Y-15860000D01*
X-142935000Y-15860000D01*
X-142935000Y-18960000D01*
X-142922753Y-19084111D01*
X-142886574Y-19203219D01*
X-142827854Y-19312981D01*
X-142748848Y-19409177D01*
X-142652593Y-19488113D01*
X-142542789Y-19546753D01*
X-142423654Y-19582844D01*
X-142299767Y-19595000D01*
X-131509999Y-19591042D01*
X-131509999Y-21321928D01*
X-132100001Y-21321928D01*
X-132273255Y-21338992D01*
X-132439851Y-21389528D01*
X-132593387Y-21471595D01*
X-132727962Y-21582038D01*
X-132838405Y-21716613D01*
X-132920472Y-21870149D01*
X-132971008Y-22036745D01*
X-132988072Y-22209999D01*
X-132988072Y-22823271D01*
X-133186012Y-23021211D01*
X-133215010Y-23045009D01*
X-133238808Y-23074007D01*
X-133238809Y-23074008D01*
X-133309984Y-23160734D01*
X-133380556Y-23292764D01*
X-133401180Y-23360755D01*
X-133423920Y-23435723D01*
X-133424012Y-23436025D01*
X-133438686Y-23585010D01*
X-133435009Y-23622342D01*
X-133435010Y-25312665D01*
X-133438686Y-25349988D01*
X-133435010Y-25387310D01*
X-133435010Y-25387320D01*
X-133426374Y-25475000D01*
X-133477002Y-25475000D01*
X-133477002Y-25579748D01*
X-133581750Y-25475000D01*
X-133684229Y-25486206D01*
X-133803346Y-25524379D01*
X-133912727Y-25585057D01*
X-134008169Y-25665908D01*
X-134086003Y-25763826D01*
X-134143239Y-25875046D01*
X-134164887Y-25950637D01*
X-134243000Y-26028750D01*
X-134243000Y-27103000D01*
X-134223000Y-27103000D01*
X-134223000Y-27357000D01*
X-134243000Y-27357000D01*
X-134243000Y-27377000D01*
X-134497000Y-27377000D01*
X-134497000Y-27357000D01*
X-135421250Y-27357000D01*
X-135580000Y-27515750D01*
X-135583072Y-27955000D01*
X-135570812Y-28079482D01*
X-135534502Y-28199180D01*
X-135498000Y-28267469D01*
X-135498000Y-29333000D01*
X-133302000Y-29333000D01*
X-133302000Y-29313000D01*
X-133048000Y-29313000D01*
X-133048000Y-29333000D01*
X-131052000Y-29333000D01*
X-131052000Y-29313000D01*
X-130798000Y-29313000D01*
X-130798000Y-29333000D01*
X-128602000Y-29333000D01*
X-128602000Y-28267469D01*
X-128565498Y-28199180D01*
X-128529188Y-28079482D01*
X-128525481Y-28041837D01*
X-128348000Y-28041837D01*
X-128348000Y-29333000D01*
X-127315000Y-29333000D01*
X-127315000Y-29235000D01*
X-104488072Y-29235000D01*
X-104475812Y-29359482D01*
X-104439502Y-29479180D01*
X-104380537Y-29589494D01*
X-104301185Y-29686185D01*
X-104204494Y-29765537D01*
X-104094180Y-29824502D01*
X-103974482Y-29860812D01*
X-103850000Y-29873072D01*
X-103598250Y-29870000D01*
X-103439500Y-29711250D01*
X-103439500Y-28887000D01*
X-104326250Y-28887000D01*
X-104485000Y-29045750D01*
X-104488072Y-29235000D01*
X-127315000Y-29235000D01*
X-127315000Y-28908000D01*
X-127362066Y-28684135D01*
X-127451901Y-28473754D01*
X-127581053Y-28284941D01*
X-127744559Y-28124953D01*
X-127936136Y-27999937D01*
X-128169190Y-27916036D01*
X-128348000Y-28041837D01*
X-128525481Y-28041837D01*
X-128516928Y-27955000D01*
X-128520000Y-27515750D01*
X-128678750Y-27357000D01*
X-129603000Y-27357000D01*
X-129603000Y-27377000D01*
X-129857000Y-27377000D01*
X-129857000Y-27357000D01*
X-129877000Y-27357000D01*
X-129877000Y-27103000D01*
X-129857000Y-27103000D01*
X-129857000Y-27083000D01*
X-129603000Y-27083000D01*
X-129603000Y-27103000D01*
X-128678750Y-27103000D01*
X-128520000Y-26944250D01*
X-128519360Y-26852702D01*
X-126463097Y-26852702D01*
X-126391514Y-27096671D01*
X-126136004Y-27217571D01*
X-125861816Y-27286300D01*
X-125579488Y-27300217D01*
X-125299870Y-27258787D01*
X-125033708Y-27163603D01*
X-124908486Y-27096671D01*
X-124836903Y-26852702D01*
X-111163097Y-26852702D01*
X-111091514Y-27096671D01*
X-110836004Y-27217571D01*
X-110561816Y-27286300D01*
X-110279488Y-27300217D01*
X-109999870Y-27258787D01*
X-109733708Y-27163603D01*
X-109608486Y-27096671D01*
X-109536903Y-26852702D01*
X-110350000Y-26039605D01*
X-111163097Y-26852702D01*
X-124836903Y-26852702D01*
X-125650000Y-26039605D01*
X-126463097Y-26852702D01*
X-128519360Y-26852702D01*
X-128516928Y-26505000D01*
X-128529188Y-26380518D01*
X-128565498Y-26260820D01*
X-128624463Y-26150506D01*
X-128703815Y-26053815D01*
X-128800506Y-25974463D01*
X-128882731Y-25930512D01*
X-127090217Y-25930512D01*
X-127048787Y-26210130D01*
X-126953603Y-26476292D01*
X-126886671Y-26601514D01*
X-126642702Y-26673097D01*
X-125829605Y-25860000D01*
X-125470395Y-25860000D01*
X-124657298Y-26673097D01*
X-124413329Y-26601514D01*
X-124292429Y-26346004D01*
X-124223700Y-26071816D01*
X-124209783Y-25789488D01*
X-124251213Y-25509870D01*
X-124346397Y-25243708D01*
X-124413329Y-25118486D01*
X-124657298Y-25046903D01*
X-125470395Y-25860000D01*
X-125829605Y-25860000D01*
X-126642702Y-25046903D01*
X-126886671Y-25118486D01*
X-127007571Y-25373996D01*
X-127076300Y-25648184D01*
X-127090217Y-25930512D01*
X-128882731Y-25930512D01*
X-128910820Y-25915498D01*
X-129030518Y-25879188D01*
X-129155000Y-25866928D01*
X-129181248Y-25867207D01*
X-129060149Y-25830472D01*
X-128906613Y-25748405D01*
X-128772038Y-25637962D01*
X-128661595Y-25503387D01*
X-128579528Y-25349851D01*
X-128528992Y-25183255D01*
X-128511928Y-25010001D01*
X-128511928Y-24396729D01*
X-127110197Y-22994999D01*
X-127040509Y-22994999D01*
X-127085000Y-23218665D01*
X-127085000Y-23501335D01*
X-127029853Y-23778574D01*
X-126921680Y-24039727D01*
X-126764637Y-24274759D01*
X-126564759Y-24474637D01*
X-126364131Y-24608692D01*
X-126391514Y-24623329D01*
X-126463097Y-24867298D01*
X-125650000Y-25680395D01*
X-124836903Y-24867298D01*
X-124908486Y-24623329D01*
X-124937341Y-24609676D01*
X-124735241Y-24474637D01*
X-124535363Y-24274759D01*
X-124431957Y-24120000D01*
X-121607909Y-24120000D01*
X-121525799Y-24242886D01*
X-121332886Y-24435799D01*
X-121106043Y-24587371D01*
X-120853989Y-24691775D01*
X-120586411Y-24745000D01*
X-120313589Y-24745000D01*
X-120168635Y-24716167D01*
X-119888799Y-24996003D01*
X-119865000Y-25025002D01*
X-119749275Y-25119975D01*
X-119617246Y-25190547D01*
X-119473985Y-25234004D01*
X-119362332Y-25245001D01*
X-119362324Y-25245001D01*
X-119324999Y-25248677D01*
X-119287674Y-25245001D01*
X-111646534Y-25245001D01*
X-111707571Y-25373996D01*
X-111776300Y-25648184D01*
X-111790217Y-25930512D01*
X-111748787Y-26210130D01*
X-111653603Y-26476292D01*
X-111586671Y-26601514D01*
X-111342702Y-26673097D01*
X-110529605Y-25860000D01*
X-110543747Y-25845858D01*
X-110364142Y-25666253D01*
X-110350000Y-25680395D01*
X-110335857Y-25666253D01*
X-110156252Y-25845858D01*
X-110170395Y-25860000D01*
X-109357298Y-26673097D01*
X-109219039Y-26632530D01*
X-107505553Y-28346018D01*
X-107481759Y-28375011D01*
X-107452766Y-28398805D01*
X-107452762Y-28398809D01*
X-107401903Y-28440547D01*
X-107366034Y-28469984D01*
X-107234005Y-28540556D01*
X-107090744Y-28584013D01*
X-106979091Y-28595010D01*
X-106979082Y-28595010D01*
X-106941759Y-28598686D01*
X-106904436Y-28595010D01*
X-105687332Y-28595010D01*
X-105650010Y-28598686D01*
X-105612688Y-28595010D01*
X-105612677Y-28595010D01*
X-105501024Y-28584013D01*
X-105357763Y-28540556D01*
X-105225734Y-28469984D01*
X-105110009Y-28375011D01*
X-105086206Y-28346007D01*
X-104814003Y-28073804D01*
X-104784999Y-28050001D01*
X-104771580Y-28033650D01*
X-104737171Y-28015258D01*
X-104690000Y-27976546D01*
X-104642829Y-28015258D01*
X-104506582Y-28088084D01*
X-104458284Y-28102735D01*
X-104475812Y-28160518D01*
X-104488072Y-28285000D01*
X-104485000Y-28474250D01*
X-104326250Y-28633000D01*
X-103439500Y-28633000D01*
X-103439500Y-28613000D01*
X-103185500Y-28613000D01*
X-103185500Y-28633000D01*
X-103165500Y-28633000D01*
X-103165500Y-28887000D01*
X-103185500Y-28887000D01*
X-103185500Y-29711250D01*
X-103026750Y-29870000D01*
X-102775000Y-29873072D01*
X-102650518Y-29860812D01*
X-102530820Y-29824502D01*
X-102420506Y-29765537D01*
X-102372606Y-29726226D01*
X-102222567Y-29806423D01*
X-102058316Y-29856248D01*
X-101887500Y-29873072D01*
X-101287500Y-29873072D01*
X-101116684Y-29856248D01*
X-100952433Y-29806423D01*
X-100801058Y-29725512D01*
X-100668377Y-29616623D01*
X-100559488Y-29483942D01*
X-100478577Y-29332567D01*
X-100428752Y-29168316D01*
X-100411928Y-28997500D01*
X-100411928Y-28522500D01*
X-100428752Y-28351684D01*
X-100478577Y-28187433D01*
X-100505429Y-28137195D01*
X-100395000Y-28148072D01*
X-100095000Y-28148072D01*
X-99941255Y-28132929D01*
X-99793418Y-28088084D01*
X-99657171Y-28015258D01*
X-99610000Y-27976546D01*
X-99562829Y-28015258D01*
X-99426582Y-28088084D01*
X-99278745Y-28132929D01*
X-99125000Y-28148072D01*
X-98825000Y-28148072D01*
X-98671255Y-28132929D01*
X-98523418Y-28088084D01*
X-98389064Y-28016270D01*
X-98359494Y-28040537D01*
X-98249180Y-28099502D01*
X-98129482Y-28135812D01*
X-98005000Y-28148072D01*
X-97990750Y-28145000D01*
X-97832000Y-27986250D01*
X-97832000Y-26662000D01*
X-97852000Y-26662000D01*
X-97852000Y-26408000D01*
X-97832000Y-26408000D01*
X-97832000Y-25083750D01*
X-97578000Y-25083750D01*
X-97578000Y-26408000D01*
X-97558000Y-26408000D01*
X-97558000Y-26662000D01*
X-97578000Y-26662000D01*
X-97578000Y-27986250D01*
X-97419250Y-28145000D01*
X-97405000Y-28148072D01*
X-97280518Y-28135812D01*
X-97160820Y-28099502D01*
X-97050506Y-28040537D01*
X-96953815Y-27961185D01*
X-96874463Y-27864494D01*
X-96815498Y-27754180D01*
X-96779188Y-27634482D01*
X-96771134Y-27552702D01*
X-96263097Y-27552702D01*
X-96191514Y-27796671D01*
X-95936004Y-27917571D01*
X-95661816Y-27986300D01*
X-95379488Y-28000217D01*
X-95099870Y-27958787D01*
X-94833708Y-27863603D01*
X-94708486Y-27796671D01*
X-94636903Y-27552702D01*
X-94779605Y-27410000D01*
X-91938072Y-27410000D01*
X-91925812Y-27534482D01*
X-91889502Y-27654180D01*
X-91830537Y-27764494D01*
X-91751185Y-27861185D01*
X-91654494Y-27940537D01*
X-91544180Y-27999502D01*
X-91424482Y-28035812D01*
X-91300000Y-28048072D01*
X-90735750Y-28045000D01*
X-90577000Y-27886250D01*
X-90577000Y-26687000D01*
X-91776250Y-26687000D01*
X-91935000Y-26845750D01*
X-91938072Y-27410000D01*
X-94779605Y-27410000D01*
X-95450000Y-26739605D01*
X-96263097Y-27552702D01*
X-96771134Y-27552702D01*
X-96766928Y-27510000D01*
X-96768602Y-27134350D01*
X-96753603Y-27176292D01*
X-96686671Y-27301514D01*
X-96442702Y-27373097D01*
X-95629605Y-26560000D01*
X-95270395Y-26560000D01*
X-94457298Y-27373097D01*
X-94213329Y-27301514D01*
X-94092429Y-27046004D01*
X-94023700Y-26771816D01*
X-94009783Y-26489488D01*
X-94051213Y-26209870D01*
X-94146397Y-25943708D01*
X-94213329Y-25818486D01*
X-94457298Y-25746903D01*
X-95270395Y-26560000D01*
X-95629605Y-26560000D01*
X-96442702Y-25746903D01*
X-96686671Y-25818486D01*
X-96768854Y-25992172D01*
X-96766961Y-25567298D01*
X-96263097Y-25567298D01*
X-95450000Y-26380395D01*
X-94636903Y-25567298D01*
X-94708486Y-25323329D01*
X-94963996Y-25202429D01*
X-95238184Y-25133700D01*
X-95520512Y-25119783D01*
X-95800130Y-25161213D01*
X-96066292Y-25256397D01*
X-96191514Y-25323329D01*
X-96263097Y-25567298D01*
X-96766961Y-25567298D01*
X-96766928Y-25560000D01*
X-96779188Y-25435518D01*
X-96815498Y-25315820D01*
X-96874463Y-25205506D01*
X-96953815Y-25108815D01*
X-97050506Y-25029463D01*
X-97160820Y-24970498D01*
X-97280518Y-24934188D01*
X-97405000Y-24921928D01*
X-97419250Y-24925000D01*
X-97578000Y-25083750D01*
X-97832000Y-25083750D01*
X-97990750Y-24925000D01*
X-98005000Y-24921928D01*
X-98129482Y-24934188D01*
X-98249180Y-24970498D01*
X-98359494Y-25029463D01*
X-98389064Y-25053730D01*
X-98421580Y-25036350D01*
X-98434999Y-25019999D01*
X-98463996Y-24996202D01*
X-98840198Y-24620000D01*
X-90924801Y-24620000D01*
X-90469802Y-25075000D01*
X-90577002Y-25075000D01*
X-90577002Y-25233748D01*
X-90735750Y-25075000D01*
X-91300000Y-25071928D01*
X-91424482Y-25084188D01*
X-91544180Y-25120498D01*
X-91654494Y-25179463D01*
X-91751185Y-25258815D01*
X-91830537Y-25355506D01*
X-91889502Y-25465820D01*
X-91925812Y-25585518D01*
X-91938072Y-25710000D01*
X-91935000Y-26274250D01*
X-91776250Y-26433000D01*
X-90577000Y-26433000D01*
X-90577000Y-26413000D01*
X-90323000Y-26413000D01*
X-90323000Y-26433000D01*
X-90303000Y-26433000D01*
X-90303000Y-26687000D01*
X-90323000Y-26687000D01*
X-90323000Y-27886250D01*
X-90164250Y-28045000D01*
X-89600000Y-28048072D01*
X-89475518Y-28035812D01*
X-89355820Y-27999502D01*
X-89245506Y-27940537D01*
X-89148815Y-27861185D01*
X-89069463Y-27764494D01*
X-89010498Y-27654180D01*
X-88988487Y-27581620D01*
X-88856632Y-27713475D01*
X-88613411Y-27875990D01*
X-88343158Y-27987932D01*
X-88056260Y-28045000D01*
X-87763740Y-28045000D01*
X-87476842Y-27987932D01*
X-87206589Y-27875990D01*
X-87003508Y-27740296D01*
X-86497796Y-28246009D01*
X-86474002Y-28275002D01*
X-86445009Y-28298796D01*
X-86445005Y-28298800D01*
X-86382473Y-28350118D01*
X-86358277Y-28369975D01*
X-86226248Y-28440547D01*
X-86082987Y-28484004D01*
X-85971334Y-28495001D01*
X-85971325Y-28495001D01*
X-85934002Y-28498677D01*
X-85896679Y-28495001D01*
X-84843321Y-28495001D01*
X-84805999Y-28498677D01*
X-84768677Y-28495001D01*
X-84768666Y-28495001D01*
X-84657013Y-28484004D01*
X-84513752Y-28440547D01*
X-84381723Y-28369975D01*
X-84265998Y-28275002D01*
X-84242196Y-28245999D01*
X-83736492Y-27740296D01*
X-83533411Y-27875990D01*
X-83263158Y-27987932D01*
X-82976260Y-28045000D01*
X-82683740Y-28045000D01*
X-82396842Y-27987932D01*
X-82126589Y-27875990D01*
X-81883368Y-27713475D01*
X-81676525Y-27506632D01*
X-81560000Y-27332240D01*
X-81443475Y-27506632D01*
X-81236632Y-27713475D01*
X-80993411Y-27875990D01*
X-80723158Y-27987932D01*
X-80436260Y-28045000D01*
X-80143740Y-28045000D01*
X-79923592Y-28001210D01*
X-79153788Y-28771014D01*
X-79129990Y-28800012D01*
X-79059141Y-28858156D01*
X-79014265Y-28894985D01*
X-78882236Y-28965557D01*
X-78738975Y-29009014D01*
X-78589989Y-29023688D01*
X-78552656Y-29020011D01*
X-77111920Y-29020011D01*
X-77074598Y-29023687D01*
X-77037276Y-29020011D01*
X-77037265Y-29020011D01*
X-76925612Y-29009014D01*
X-76782351Y-28965557D01*
X-76650322Y-28894985D01*
X-76534597Y-28800012D01*
X-76510794Y-28771009D01*
X-75538985Y-27799200D01*
X-75509988Y-27775403D01*
X-75459425Y-27713792D01*
X-75415015Y-27659679D01*
X-75344443Y-27527649D01*
X-75343440Y-27524343D01*
X-75300986Y-27384388D01*
X-75289989Y-27272735D01*
X-75289989Y-27272725D01*
X-75286313Y-27235402D01*
X-75289989Y-27198079D01*
X-75289989Y-25921920D01*
X-75286313Y-25884597D01*
X-75289989Y-25847274D01*
X-75289989Y-25847265D01*
X-75300986Y-25735612D01*
X-75344443Y-25592351D01*
X-75415015Y-25460322D01*
X-75509988Y-25344597D01*
X-75538986Y-25320799D01*
X-77410804Y-23448982D01*
X-77434607Y-23419978D01*
X-77550332Y-23325005D01*
X-77682361Y-23254433D01*
X-77825622Y-23210976D01*
X-77937275Y-23199979D01*
X-77937286Y-23199979D01*
X-77974608Y-23196303D01*
X-78011930Y-23199979D01*
X-86135219Y-23199979D01*
X-86325198Y-23010000D01*
X-44873072Y-23010000D01*
X-44870000Y-23474250D01*
X-44711250Y-23633000D01*
X-43837000Y-23633000D01*
X-43837000Y-22533750D01*
X-43995750Y-22375000D01*
X-44235000Y-22371928D01*
X-44359482Y-22384188D01*
X-44479180Y-22420498D01*
X-44589494Y-22479463D01*
X-44686185Y-22558815D01*
X-44765537Y-22655506D01*
X-44824502Y-22765820D01*
X-44860812Y-22885518D01*
X-44873072Y-23010000D01*
X-86325198Y-23010000D01*
X-89759473Y-19575726D01*
X-39169457Y-19557168D01*
X-41798659Y-22186370D01*
X-41834344Y-22215656D01*
X-41951186Y-22358029D01*
X-42003184Y-22455311D01*
X-42212601Y-22391785D01*
X-42440000Y-22369388D01*
X-42667400Y-22391785D01*
X-42876098Y-22455093D01*
X-42940820Y-22420498D01*
X-43060518Y-22384188D01*
X-43185000Y-22371928D01*
X-43424250Y-22375000D01*
X-43583000Y-22533750D01*
X-43583000Y-23306892D01*
X-43583215Y-23307601D01*
X-43600000Y-23478022D01*
X-43600000Y-23907000D01*
X-43837000Y-23907000D01*
X-43837000Y-23887000D01*
X-44711250Y-23887000D01*
X-44870000Y-24045750D01*
X-44873072Y-24510000D01*
X-44860812Y-24634482D01*
X-44824502Y-24754180D01*
X-44765537Y-24864494D01*
X-44686185Y-24961185D01*
X-44589494Y-25040537D01*
X-44479180Y-25099502D01*
X-44359482Y-25135812D01*
X-44244430Y-25147143D01*
X-45022287Y-25925000D01*
X-45297025Y-25925000D01*
X-45398987Y-25823038D01*
X-45617641Y-25676939D01*
X-45860595Y-25576304D01*
X-46118514Y-25525000D01*
X-46381486Y-25525000D01*
X-46639405Y-25576304D01*
X-46882359Y-25676939D01*
X-47101013Y-25823038D01*
X-47286962Y-26008987D01*
X-47433061Y-26227641D01*
X-47533696Y-26470595D01*
X-47585000Y-26728514D01*
X-47585000Y-26991486D01*
X-47533696Y-27249405D01*
X-47433061Y-27492359D01*
X-47286962Y-27711013D01*
X-47101013Y-27896962D01*
X-46882359Y-28043061D01*
X-46639405Y-28143696D01*
X-46381486Y-28195000D01*
X-46118514Y-28195000D01*
X-45860595Y-28143696D01*
X-45617641Y-28043061D01*
X-45398987Y-27896962D01*
X-45297025Y-27795000D01*
X-44680930Y-27795000D01*
X-44634998Y-27799524D01*
X-44589066Y-27795000D01*
X-44451706Y-27781471D01*
X-44275458Y-27728007D01*
X-44113026Y-27641186D01*
X-43970654Y-27524344D01*
X-43941368Y-27488659D01*
X-41811340Y-25358631D01*
X-41775656Y-25329346D01*
X-41658814Y-25186974D01*
X-41595316Y-25068177D01*
X-41397399Y-25128215D01*
X-41170000Y-25150612D01*
X-40942600Y-25128215D01*
X-40723940Y-25061885D01*
X-40522421Y-24954171D01*
X-40345788Y-24809212D01*
X-40200829Y-24632579D01*
X-40093115Y-24431059D01*
X-40026785Y-24212399D01*
X-40010000Y-24041978D01*
X-40010000Y-23478021D01*
X-40026785Y-23307600D01*
X-40084628Y-23116917D01*
X-39838072Y-22870361D01*
X-39838072Y-25310000D01*
X-39825812Y-25434482D01*
X-39789502Y-25554180D01*
X-39730537Y-25664494D01*
X-39651185Y-25761185D01*
X-39554494Y-25840537D01*
X-39518012Y-25860037D01*
X-39666962Y-26008987D01*
X-39813061Y-26227641D01*
X-39913696Y-26470595D01*
X-39965000Y-26728514D01*
X-39965000Y-26991486D01*
X-39913696Y-27249405D01*
X-39813061Y-27492359D01*
X-39666962Y-27711013D01*
X-39481013Y-27896962D01*
X-39262359Y-28043061D01*
X-39019405Y-28143696D01*
X-38761486Y-28195000D01*
X-38498514Y-28195000D01*
X-38240595Y-28143696D01*
X-37997641Y-28043061D01*
X-37778987Y-27896962D01*
X-37593038Y-27711013D01*
X-37446939Y-27492359D01*
X-37346304Y-27249405D01*
X-37295000Y-26991486D01*
X-37295000Y-26852012D01*
X-37285656Y-26844344D01*
X-37168814Y-26701972D01*
X-37081993Y-26539540D01*
X-37035422Y-26386015D01*
X-37028529Y-26363293D01*
X-37010476Y-26180001D01*
X-37015000Y-26134069D01*
X-37015000Y-25948072D01*
X-36700000Y-25948072D01*
X-36575518Y-25935812D01*
X-36455820Y-25899502D01*
X-36345506Y-25840537D01*
X-36248815Y-25761185D01*
X-36169463Y-25664494D01*
X-36110498Y-25554180D01*
X-36074188Y-25434482D01*
X-36061928Y-25310000D01*
X-36061928Y-23010000D01*
X-31713072Y-23010000D01*
X-31710000Y-23474250D01*
X-31551250Y-23633000D01*
X-30677000Y-23633000D01*
X-30677000Y-22533750D01*
X-30835750Y-22375000D01*
X-31075000Y-22371928D01*
X-31199482Y-22384188D01*
X-31319180Y-22420498D01*
X-31429494Y-22479463D01*
X-31526185Y-22558815D01*
X-31605537Y-22655506D01*
X-31664502Y-22765820D01*
X-31700812Y-22885518D01*
X-31713072Y-23010000D01*
X-36061928Y-23010000D01*
X-36061928Y-22810000D01*
X-36074188Y-22685518D01*
X-36110498Y-22565820D01*
X-36169463Y-22455506D01*
X-36248815Y-22358815D01*
X-36345506Y-22279463D01*
X-36455820Y-22220498D01*
X-36575518Y-22184188D01*
X-36700000Y-22171928D01*
X-39139639Y-22171928D01*
X-37562711Y-20595000D01*
X-28107289Y-20595000D01*
X-28638659Y-21126370D01*
X-28674344Y-21155656D01*
X-28791186Y-21298029D01*
X-28878007Y-21460461D01*
X-28908202Y-21560001D01*
X-28931471Y-21636709D01*
X-28949524Y-21820000D01*
X-28945000Y-21865932D01*
X-28945000Y-22424426D01*
X-29052601Y-22391785D01*
X-29280000Y-22369388D01*
X-29507400Y-22391785D01*
X-29716098Y-22455093D01*
X-29780820Y-22420498D01*
X-29900518Y-22384188D01*
X-30025000Y-22371928D01*
X-30264250Y-22375000D01*
X-30423000Y-22533750D01*
X-30423000Y-23306892D01*
X-30423215Y-23307601D01*
X-30440000Y-23478022D01*
X-30440000Y-23907000D01*
X-30677000Y-23907000D01*
X-30677000Y-23887000D01*
X-31551250Y-23887000D01*
X-31710000Y-24045750D01*
X-31713072Y-24510000D01*
X-31700812Y-24634482D01*
X-31664502Y-24754180D01*
X-31605537Y-24864494D01*
X-31526185Y-24961185D01*
X-31429494Y-25040537D01*
X-31319180Y-25099502D01*
X-31199482Y-25135812D01*
X-31075000Y-25148072D01*
X-30835750Y-25145000D01*
X-30677002Y-24986252D01*
X-30677002Y-25145000D01*
X-30637289Y-25145000D01*
X-31417289Y-25925000D01*
X-32137025Y-25925000D01*
X-32238987Y-25823038D01*
X-32457641Y-25676939D01*
X-32700595Y-25576304D01*
X-32958514Y-25525000D01*
X-33221486Y-25525000D01*
X-33479405Y-25576304D01*
X-33722359Y-25676939D01*
X-33941013Y-25823038D01*
X-34126962Y-26008987D01*
X-34273061Y-26227641D01*
X-34373696Y-26470595D01*
X-34425000Y-26728514D01*
X-34425000Y-26991486D01*
X-34373696Y-27249405D01*
X-34273061Y-27492359D01*
X-34126962Y-27711013D01*
X-33941013Y-27896962D01*
X-33722359Y-28043061D01*
X-33479405Y-28143696D01*
X-33221486Y-28195000D01*
X-32958514Y-28195000D01*
X-32700595Y-28143696D01*
X-32457641Y-28043061D01*
X-32238987Y-27896962D01*
X-32137025Y-27795000D01*
X-31075932Y-27795000D01*
X-31030000Y-27799524D01*
X-30984068Y-27795000D01*
X-30846708Y-27781471D01*
X-30670460Y-27728007D01*
X-30508028Y-27641186D01*
X-30365656Y-27524344D01*
X-30336370Y-27488659D01*
X-29576225Y-26728514D01*
X-26805000Y-26728514D01*
X-26805000Y-26991486D01*
X-26753696Y-27249405D01*
X-26653061Y-27492359D01*
X-26506962Y-27711013D01*
X-26321013Y-27896962D01*
X-26102359Y-28043061D01*
X-25859405Y-28143696D01*
X-25601486Y-28195000D01*
X-25338514Y-28195000D01*
X-25080595Y-28143696D01*
X-24837641Y-28043061D01*
X-24618987Y-27896962D01*
X-24433038Y-27711013D01*
X-24286939Y-27492359D01*
X-24186304Y-27249405D01*
X-24135000Y-26991486D01*
X-24135000Y-26847289D01*
X-24121341Y-26833630D01*
X-24085656Y-26804344D01*
X-23968814Y-26661972D01*
X-23881993Y-26499540D01*
X-23851578Y-26399274D01*
X-23828528Y-26323292D01*
X-23810476Y-26140000D01*
X-23815000Y-26094065D01*
X-23815000Y-25948072D01*
X-23500000Y-25948072D01*
X-23375518Y-25935812D01*
X-23255820Y-25899502D01*
X-23145506Y-25840537D01*
X-23048815Y-25761185D01*
X-22969463Y-25664494D01*
X-22910498Y-25554180D01*
X-22874188Y-25434482D01*
X-22861928Y-25310000D01*
X-22861928Y-23010000D01*
X-18413072Y-23010000D01*
X-18410000Y-23474250D01*
X-18251250Y-23633000D01*
X-17377000Y-23633000D01*
X-17377000Y-22533750D01*
X-17535750Y-22375000D01*
X-17775000Y-22371928D01*
X-17899482Y-22384188D01*
X-18019180Y-22420498D01*
X-18129494Y-22479463D01*
X-18226185Y-22558815D01*
X-18305537Y-22655506D01*
X-18364502Y-22765820D01*
X-18400812Y-22885518D01*
X-18413072Y-23010000D01*
X-22861928Y-23010000D01*
X-22861928Y-22810000D01*
X-22874188Y-22685518D01*
X-22910498Y-22565820D01*
X-22969463Y-22455506D01*
X-23048815Y-22358815D01*
X-23145506Y-22279463D01*
X-23255820Y-22220498D01*
X-23375518Y-22184188D01*
X-23500000Y-22171928D01*
X-26000000Y-22171928D01*
X-26124482Y-22184188D01*
X-26244180Y-22220498D01*
X-26354494Y-22279463D01*
X-26451185Y-22358815D01*
X-26530537Y-22455506D01*
X-26589502Y-22565820D01*
X-26625812Y-22685518D01*
X-26638072Y-22810000D01*
X-26638072Y-25310000D01*
X-26625812Y-25434482D01*
X-26589502Y-25554180D01*
X-26530537Y-25664494D01*
X-26451185Y-25761185D01*
X-26354494Y-25840537D01*
X-26344079Y-25846104D01*
X-26506962Y-26008987D01*
X-26653061Y-26227641D01*
X-26753696Y-26470595D01*
X-26805000Y-26728514D01*
X-29576225Y-26728514D01*
X-28651340Y-25803629D01*
X-28615656Y-25774344D01*
X-28498814Y-25631972D01*
X-28411993Y-25469540D01*
X-28383010Y-25373996D01*
X-28358528Y-25293292D01*
X-28340476Y-25110000D01*
X-28341801Y-25096545D01*
X-28237399Y-25128215D01*
X-28010000Y-25150612D01*
X-27782600Y-25128215D01*
X-27563940Y-25061885D01*
X-27362421Y-24954171D01*
X-27185788Y-24809212D01*
X-27040829Y-24632579D01*
X-26933115Y-24431059D01*
X-26866785Y-24212399D01*
X-26850000Y-24041978D01*
X-26850000Y-23478021D01*
X-26866785Y-23307600D01*
X-26933115Y-23088940D01*
X-27040829Y-22887421D01*
X-27075000Y-22845784D01*
X-27075000Y-22207289D01*
X-26262710Y-21395000D01*
X-15207289Y-21395000D01*
X-15338659Y-21526370D01*
X-15374344Y-21555656D01*
X-15491186Y-21698029D01*
X-15578007Y-21860461D01*
X-15626402Y-22019999D01*
X-15631471Y-22036709D01*
X-15649524Y-22220000D01*
X-15645000Y-22265932D01*
X-15645000Y-22424426D01*
X-15752601Y-22391785D01*
X-15980000Y-22369388D01*
X-16207400Y-22391785D01*
X-16416098Y-22455093D01*
X-16480820Y-22420498D01*
X-16600518Y-22384188D01*
X-16725000Y-22371928D01*
X-16964250Y-22375000D01*
X-17123000Y-22533750D01*
X-17123000Y-23306892D01*
X-17123215Y-23307601D01*
X-17140000Y-23478022D01*
X-17140000Y-23907000D01*
X-17377000Y-23907000D01*
X-17377000Y-23887000D01*
X-18251250Y-23887000D01*
X-18410000Y-24045750D01*
X-18413072Y-24510000D01*
X-18400812Y-24634482D01*
X-18364502Y-24754180D01*
X-18305537Y-24864494D01*
X-18226185Y-24961185D01*
X-18129494Y-25040537D01*
X-18019180Y-25099502D01*
X-17899482Y-25135812D01*
X-17775000Y-25148072D01*
X-17535750Y-25145000D01*
X-17377002Y-24986252D01*
X-17377002Y-25145000D01*
X-17337289Y-25145000D01*
X-18117289Y-25925000D01*
X-18837025Y-25925000D01*
X-18938987Y-25823038D01*
X-19157641Y-25676939D01*
X-19400595Y-25576304D01*
X-19658514Y-25525000D01*
X-19921486Y-25525000D01*
X-20179405Y-25576304D01*
X-20422359Y-25676939D01*
X-20641013Y-25823038D01*
X-20826962Y-26008987D01*
X-20973061Y-26227641D01*
X-21073696Y-26470595D01*
X-21125000Y-26728514D01*
X-21125000Y-26991486D01*
X-21073696Y-27249405D01*
X-20973061Y-27492359D01*
X-20826962Y-27711013D01*
X-20641013Y-27896962D01*
X-20422359Y-28043061D01*
X-20179405Y-28143696D01*
X-19921486Y-28195000D01*
X-19658514Y-28195000D01*
X-19400595Y-28143696D01*
X-19157641Y-28043061D01*
X-18938987Y-27896962D01*
X-18837025Y-27795000D01*
X-17775932Y-27795000D01*
X-17730000Y-27799524D01*
X-17684068Y-27795000D01*
X-17546708Y-27781471D01*
X-17370460Y-27728007D01*
X-17208028Y-27641186D01*
X-17065656Y-27524344D01*
X-17036370Y-27488659D01*
X-15351340Y-25803629D01*
X-15315656Y-25774344D01*
X-15198814Y-25631972D01*
X-15111993Y-25469540D01*
X-15083010Y-25373996D01*
X-15058528Y-25293292D01*
X-15040476Y-25110000D01*
X-15041801Y-25096545D01*
X-14937399Y-25128215D01*
X-14710000Y-25150612D01*
X-14482600Y-25128215D01*
X-14263940Y-25061885D01*
X-14062421Y-24954171D01*
X-13885788Y-24809212D01*
X-13740829Y-24632579D01*
X-13633115Y-24431059D01*
X-13566785Y-24212399D01*
X-13550000Y-24041978D01*
X-13550000Y-23478021D01*
X-13566785Y-23307600D01*
X-13633115Y-23088940D01*
X-13740829Y-22887421D01*
X-13775000Y-22845784D01*
X-13775000Y-22607289D01*
X-13362710Y-22195000D01*
X-12860124Y-22195000D01*
X-12944180Y-22220498D01*
X-13054494Y-22279463D01*
X-13151185Y-22358815D01*
X-13230537Y-22455506D01*
X-13289502Y-22565820D01*
X-13325812Y-22685518D01*
X-13338072Y-22810000D01*
X-13338072Y-25310000D01*
X-13325812Y-25434482D01*
X-13289502Y-25554180D01*
X-13230537Y-25664494D01*
X-13151185Y-25761185D01*
X-13054494Y-25840537D01*
X-13044079Y-25846104D01*
X-13206962Y-26008987D01*
X-13353061Y-26227641D01*
X-13453696Y-26470595D01*
X-13505000Y-26728514D01*
X-13505000Y-26991486D01*
X-13453696Y-27249405D01*
X-13353061Y-27492359D01*
X-13206962Y-27711013D01*
X-13021013Y-27896962D01*
X-12802359Y-28043061D01*
X-12559405Y-28143696D01*
X-12301486Y-28195000D01*
X-12038514Y-28195000D01*
X-11780595Y-28143696D01*
X-11537641Y-28043061D01*
X-11318987Y-27896962D01*
X-11133038Y-27711013D01*
X-10986939Y-27492359D01*
X-10886304Y-27249405D01*
X-10884408Y-27239872D01*
X-5735000Y-27239872D01*
X-5735000Y-27680128D01*
X-5649110Y-28111925D01*
X-5480631Y-28518669D01*
X-5236038Y-28884729D01*
X-4924729Y-29196038D01*
X-4558669Y-29440631D01*
X-4151925Y-29609110D01*
X-3720128Y-29695000D01*
X-3279872Y-29695000D01*
X-2848075Y-29609110D01*
X-2441331Y-29440631D01*
X-2075271Y-29196038D01*
X-1763962Y-28884729D01*
X-1519369Y-28518669D01*
X-1350890Y-28111925D01*
X-1265000Y-27680128D01*
X-1265000Y-27239872D01*
X-1350890Y-26808075D01*
X-1519369Y-26401331D01*
X-1763962Y-26035271D01*
X-2075271Y-25723962D01*
X-2441331Y-25479369D01*
X-2848075Y-25310890D01*
X-3279872Y-25225000D01*
X-3720128Y-25225000D01*
X-4151925Y-25310890D01*
X-4558669Y-25479369D01*
X-4924729Y-25723962D01*
X-5236038Y-26035271D01*
X-5480631Y-26401331D01*
X-5649110Y-26808075D01*
X-5735000Y-27239872D01*
X-10884408Y-27239872D01*
X-10835000Y-26991486D01*
X-10835000Y-26847289D01*
X-10821341Y-26833630D01*
X-10785656Y-26804344D01*
X-10668814Y-26661972D01*
X-10581993Y-26499540D01*
X-10551578Y-26399274D01*
X-10528528Y-26323292D01*
X-10510476Y-26140000D01*
X-10515000Y-26094065D01*
X-10515000Y-25948072D01*
X-10200000Y-25948072D01*
X-10075518Y-25935812D01*
X-9955820Y-25899502D01*
X-9845506Y-25840537D01*
X-9748815Y-25761185D01*
X-9669463Y-25664494D01*
X-9610498Y-25554180D01*
X-9574188Y-25434482D01*
X-9561928Y-25310000D01*
X-9561928Y-22810000D01*
X-9574188Y-22685518D01*
X-9610498Y-22565820D01*
X-9669463Y-22455506D01*
X-9748815Y-22358815D01*
X-9845506Y-22279463D01*
X-9955820Y-22220498D01*
X-10039876Y-22195000D01*
X-8534912Y-22195000D01*
X-8488980Y-22199524D01*
X-8443048Y-22195000D01*
X-8305688Y-22181471D01*
X-8129440Y-22128007D01*
X-7967008Y-22041186D01*
X-7824636Y-21924344D01*
X-7795350Y-21888659D01*
X-3465074Y-17558383D01*
X-3429389Y-17529097D01*
X-3312547Y-17386725D01*
X-3225726Y-17224293D01*
X-3172262Y-17048045D01*
X-3158733Y-16910685D01*
X-3154209Y-16864753D01*
X-3158733Y-16818821D01*
X-3158733Y-9155948D01*
X-3154209Y-9110016D01*
X-3172262Y-8926724D01*
X-3197571Y-8843291D01*
X-3225726Y-8750477D01*
X-3312547Y-8588045D01*
X-3429389Y-8445673D01*
X-3465067Y-8416393D01*
X-5058750Y-6822711D01*
X-5058750Y-6678514D01*
X-5110054Y-6420595D01*
X-5210689Y-6177641D01*
X-5356788Y-5958987D01*
X-5542737Y-5773038D01*
X-5761391Y-5626939D01*
X-6004345Y-5526304D01*
X-6262264Y-5475000D01*
X-6406461Y-5475000D01*
X-8500139Y-3381322D01*
X-8529425Y-3345637D01*
X-8609559Y-3279872D01*
X-5735000Y-3279872D01*
X-5735000Y-3720128D01*
X-5649110Y-4151925D01*
X-5480631Y-4558669D01*
X-5236038Y-4924729D01*
X-4924729Y-5236038D01*
X-4558669Y-5480631D01*
X-4151925Y-5649110D01*
X-3720128Y-5735000D01*
X-3279872Y-5735000D01*
X-2848075Y-5649110D01*
X-2441331Y-5480631D01*
X-2075271Y-5236038D01*
X-1763962Y-4924729D01*
X-1519369Y-4558669D01*
X-1350890Y-4151925D01*
X-1265000Y-3720128D01*
X-1265000Y-3279872D01*
X-1350890Y-2848075D01*
X-1519369Y-2441331D01*
X-1763962Y-2075271D01*
X-2075271Y-1763962D01*
X-2441331Y-1519369D01*
X-2848075Y-1350890D01*
X-3279872Y-1265000D01*
X-3720128Y-1265000D01*
X-4151925Y-1350890D01*
X-4558669Y-1519369D01*
X-4924729Y-1763962D01*
X-5236038Y-2075271D01*
X-5480631Y-2441331D01*
X-5649110Y-2848075D01*
X-5735000Y-3279872D01*
X-8609559Y-3279872D01*
X-8671797Y-3228795D01*
X-8834229Y-3141974D01*
X-9010477Y-3088510D01*
X-9147837Y-3074981D01*
X-9193769Y-3070457D01*
X-9239701Y-3074981D01*
X-16018995Y-3074981D01*
X-16064930Y-3070457D01*
X-16248222Y-3088509D01*
X-16424471Y-3141974D01*
X-16481050Y-3172216D01*
X-16586902Y-3228795D01*
X-16729274Y-3345637D01*
X-16758560Y-3381322D01*
X-18369974Y-4992737D01*
X-19981391Y-3381320D01*
X-20010677Y-3345635D01*
X-20153049Y-3228793D01*
X-20315481Y-3141972D01*
X-20491729Y-3088508D01*
X-20629089Y-3074979D01*
X-20675021Y-3070455D01*
X-20720953Y-3074979D01*
X-27500247Y-3074979D01*
X-27546179Y-3070455D01*
X-27729471Y-3088508D01*
X-27782469Y-3104585D01*
X-27905718Y-3141972D01*
X-28068150Y-3228793D01*
X-28210522Y-3345635D01*
X-28239804Y-3381315D01*
X-29984914Y-5126426D01*
X-30020593Y-5155707D01*
X-30137435Y-5298079D01*
X-30205275Y-5425000D01*
X-30437577Y-5425000D01*
X-32481257Y-3381320D01*
X-32510543Y-3345635D01*
X-32652915Y-3228793D01*
X-32815347Y-3141972D01*
X-32991595Y-3088508D01*
X-33128955Y-3074979D01*
X-33174887Y-3070455D01*
X-33220819Y-3074979D01*
X-38981497Y-3074979D01*
X-39027429Y-3070455D01*
X-39210721Y-3088508D01*
X-39263719Y-3104585D01*
X-39386968Y-3141972D01*
X-39549400Y-3228793D01*
X-39691772Y-3345635D01*
X-39721054Y-3381315D01*
X-41332475Y-4992736D01*
X-42943891Y-3381320D01*
X-42973177Y-3345635D01*
X-43115549Y-3228793D01*
X-43277981Y-3141972D01*
X-43454229Y-3088508D01*
X-43591589Y-3074979D01*
X-43637521Y-3070455D01*
X-43683453Y-3074979D01*
X-50462747Y-3074979D01*
X-50508679Y-3070455D01*
X-50691971Y-3088508D01*
X-50744969Y-3104585D01*
X-50868218Y-3141972D01*
X-51030650Y-3228793D01*
X-51173022Y-3345635D01*
X-51202304Y-3381315D01*
X-52813725Y-4992736D01*
X-54425141Y-3381320D01*
X-54454427Y-3345635D01*
X-54596799Y-3228793D01*
X-54759231Y-3141972D01*
X-54935479Y-3088508D01*
X-55072839Y-3074979D01*
X-55118771Y-3070455D01*
X-55164703Y-3074979D01*
X-61943997Y-3074979D01*
X-61989929Y-3070455D01*
X-62173221Y-3088508D01*
X-62226219Y-3104585D01*
X-62349468Y-3141972D01*
X-62511900Y-3228793D01*
X-62654272Y-3345635D01*
X-62683554Y-3381315D01*
X-64428664Y-5126426D01*
X-64464343Y-5155707D01*
X-64581185Y-5298079D01*
X-64649938Y-5426708D01*
X-64668006Y-5460511D01*
X-64687569Y-5525000D01*
X-65799943Y-5525000D01*
X-67943623Y-3381320D01*
X-67972909Y-3345635D01*
X-68115281Y-3228793D01*
X-68277713Y-3141972D01*
X-68453961Y-3088508D01*
X-68591321Y-3074979D01*
X-68637253Y-3070455D01*
X-68683185Y-3074979D01*
X-73425247Y-3074979D01*
X-73471179Y-3070455D01*
X-73654471Y-3088508D01*
X-73707469Y-3104585D01*
X-73830718Y-3141972D01*
X-73993150Y-3228793D01*
X-74135522Y-3345635D01*
X-74164804Y-3381315D01*
X-75776225Y-4992736D01*
X-77387639Y-3381322D01*
X-77416925Y-3345637D01*
X-77559297Y-3228795D01*
X-77721729Y-3141974D01*
X-77897977Y-3088510D01*
X-78035337Y-3074981D01*
X-78081269Y-3070457D01*
X-78127201Y-3074981D01*
X-84906495Y-3074981D01*
X-84952430Y-3070457D01*
X-85135722Y-3088509D01*
X-85311971Y-3141974D01*
X-85368550Y-3172216D01*
X-85474402Y-3228795D01*
X-85616774Y-3345637D01*
X-85646060Y-3381322D01*
X-87257474Y-4992737D01*
X-88868889Y-3381322D01*
X-88898175Y-3345637D01*
X-89040547Y-3228795D01*
X-89202979Y-3141974D01*
X-89379227Y-3088510D01*
X-89516587Y-3074981D01*
X-89562519Y-3070457D01*
X-89608451Y-3074981D01*
X-96387745Y-3074981D01*
X-96433680Y-3070457D01*
X-96616972Y-3088509D01*
X-96793221Y-3141974D01*
X-96849800Y-3172216D01*
X-96955652Y-3228795D01*
X-97098024Y-3345637D01*
X-97127310Y-3381322D01*
X-98738724Y-4992737D01*
X-100350139Y-3381322D01*
X-100379425Y-3345637D01*
X-100521797Y-3228795D01*
X-100684229Y-3141974D01*
X-100860477Y-3088510D01*
X-100997837Y-3074981D01*
X-101043769Y-3070457D01*
X-101089701Y-3074981D01*
X-107858995Y-3074981D01*
X-107904930Y-3070457D01*
X-108088222Y-3088509D01*
X-108264471Y-3141974D01*
X-108321050Y-3172216D01*
X-108426902Y-3228795D01*
X-108569274Y-3345637D01*
X-108598560Y-3381322D01*
X-110219974Y-5002737D01*
X-111841391Y-3381320D01*
X-111870677Y-3345635D01*
X-112013049Y-3228793D01*
X-112175481Y-3141972D01*
X-112351729Y-3088508D01*
X-112489089Y-3074979D01*
X-112535021Y-3070455D01*
X-112580953Y-3074979D01*
X-119350247Y-3074979D01*
X-119396179Y-3070455D01*
X-119579471Y-3088508D01*
X-119632469Y-3104585D01*
X-119755718Y-3141972D01*
X-119918150Y-3228793D01*
X-120060522Y-3345635D01*
X-120089804Y-3381315D01*
X-121701225Y-4992736D01*
X-123312641Y-3381320D01*
X-123341927Y-3345635D01*
X-123484299Y-3228793D01*
X-123646731Y-3141972D01*
X-123822979Y-3088508D01*
X-123960339Y-3074979D01*
X-124006271Y-3070455D01*
X-124052203Y-3074979D01*
X-130831493Y-3074979D01*
X-130877428Y-3070455D01*
X-131060720Y-3088507D01*
X-131236969Y-3141972D01*
X-131293548Y-3172214D01*
X-131399400Y-3228793D01*
X-131541772Y-3345635D01*
X-131571054Y-3381315D01*
X-133326164Y-5136426D01*
X-133361843Y-5165707D01*
X-133478685Y-5308079D01*
X-133491450Y-5331961D01*
X-133565506Y-5470511D01*
X-133618971Y-5646760D01*
X-133637024Y-5830051D01*
X-133633303Y-5867828D01*
X-133734462Y-5968987D01*
X-133880561Y-6187641D01*
X-133981196Y-6430595D01*
X-134032500Y-6688514D01*
X-134032500Y-6951486D01*
X-133981196Y-7209405D01*
X-133880561Y-7452359D01*
X-133734462Y-7671013D01*
X-133548513Y-7856962D01*
X-133499068Y-7890000D01*
X-133548513Y-7923038D01*
X-133734462Y-8108987D01*
X-133880561Y-8327641D01*
X-133981196Y-8570595D01*
X-134032500Y-8828514D01*
X-134032500Y-9091486D01*
X-133981196Y-9349405D01*
X-133880561Y-9592359D01*
X-133734462Y-9811013D01*
X-133548513Y-9996962D01*
X-133491585Y-10035000D01*
X-133548513Y-10073038D01*
X-133734462Y-10258987D01*
X-133880561Y-10477641D01*
X-133981196Y-10720595D01*
X-134032500Y-10978514D01*
X-134032500Y-11241486D01*
X-133981196Y-11499405D01*
X-133880561Y-11742359D01*
X-133778129Y-11895660D01*
X-138982500Y-6691290D01*
X-138982500Y-6688514D01*
X-139033804Y-6430595D01*
X-139134439Y-6187641D01*
X-139280538Y-5968987D01*
X-139466487Y-5783038D01*
X-139685141Y-5636939D01*
X-139928095Y-5536304D01*
X-140186014Y-5485000D01*
X-140448986Y-5485000D01*
X-140706905Y-5536304D01*
X-140949859Y-5636939D01*
X-141168513Y-5783038D01*
X-141354462Y-5968987D01*
X-141500561Y-6187641D01*
X-141601196Y-6430595D01*
X-141652500Y-6688514D01*
X-141652500Y-6951486D01*
X-141601196Y-7209405D01*
X-141500561Y-7452359D01*
X-141354462Y-7671013D01*
X-141168513Y-7856962D01*
X-141119068Y-7890000D01*
X-141168513Y-7923038D01*
X-141354462Y-8108987D01*
X-141500561Y-8327641D01*
X-141601196Y-8570595D01*
X-141652500Y-8828514D01*
X-141652500Y-9091486D01*
X-141601196Y-9349405D01*
X-141500561Y-9592359D01*
X-141354462Y-9811013D01*
X-141168513Y-9996962D01*
X-141111585Y-10035000D01*
X-141168513Y-10073038D01*
X-141354462Y-10258987D01*
X-141500561Y-10477641D01*
X-141601196Y-10720595D01*
X-141652500Y-10978514D01*
X-141652500Y-11241486D01*
X-141601196Y-11499405D01*
X-141500561Y-11742359D01*
X-141354462Y-11961013D01*
X-141168513Y-12146962D01*
X-140949859Y-12293061D01*
X-140706905Y-12393696D01*
X-140448986Y-12445000D01*
X-140446210Y-12445000D01*
X-139952499Y-12938712D01*
X-139952499Y-13334878D01*
X-139972000Y-13345301D01*
X-140136883Y-13480617D01*
X-140272199Y-13645500D01*
X-140372747Y-13833613D01*
X-140434665Y-14037728D01*
X-140455572Y-14250000D01*
X-140455572Y-15150000D01*
X-140448252Y-15224321D01*
X-142300233Y-15225000D01*
X-142423882Y-15237201D01*
X-142543004Y-15273336D01*
X-142652787Y-15332017D01*
X-142749013Y-15410987D01*
X-142827983Y-15507213D01*
X-142886664Y-15616996D01*
X-142922799Y-15736118D01*
X-142935000Y-15860000D01*
X-146040000Y-15860000D01*
X-146040000Y-3522279D01*
X-146016232Y-3279872D01*
X-145435000Y-3279872D01*
X-145435000Y-3720128D01*
X-145349110Y-4151925D01*
X-145180631Y-4558669D01*
X-144936038Y-4924729D01*
X-144624729Y-5236038D01*
X-144258669Y-5480631D01*
X-143851925Y-5649110D01*
X-143420128Y-5735000D01*
X-142979872Y-5735000D01*
X-142548075Y-5649110D01*
X-142141331Y-5480631D01*
X-141775271Y-5236038D01*
X-141463962Y-4924729D01*
X-141219369Y-4558669D01*
X-141050890Y-4151925D01*
X-140965000Y-3720128D01*
X-140965000Y-3279872D01*
X-141050890Y-2848075D01*
X-141219369Y-2441331D01*
X-141463962Y-2075271D01*
X-141775271Y-1763962D01*
X-142141331Y-1519369D01*
X-142548075Y-1350890D01*
X-142979872Y-1265000D01*
X-143420128Y-1265000D01*
X-143851925Y-1350890D01*
X-144258669Y-1519369D01*
X-144624729Y-1763962D01*
X-144936038Y-2075271D01*
X-145180631Y-2441331D01*
X-145349110Y-2848075D01*
X-145435000Y-3279872D01*
X-146016232Y-3279872D01*
X-145982998Y-2940931D01*
X-145823540Y-2412777D01*
X-145564531Y-1925654D01*
X-145215842Y-1498119D01*
X-144790744Y-1146447D01*
X-144305440Y-884044D01*
X-143778410Y-720901D01*
X-143198963Y-660000D01*
X-3532279Y-660000D01*
X-2948990Y-717192D01*
%TA.AperFunction,Conductor*%
D28*
G36*
X-2948990Y-717192D02*
G01*
X-2418964Y-877216D01*
X-1930121Y-1137140D01*
X-1501069Y-1487065D01*
X-1148156Y-1913664D01*
X-884827Y-2400681D01*
X-721106Y-2929578D01*
X-660000Y-3510960D01*
X-659986Y-27427713D01*
X-717179Y-28011013D01*
X-877204Y-28541040D01*
X-1137128Y-29029886D01*
X-1487054Y-29458939D01*
X-1913655Y-29811854D01*
X-2400674Y-30075184D01*
X-2929577Y-30238907D01*
X-3510827Y-30299999D01*
X-127389453Y-30300001D01*
X-127362066Y-30235865D01*
X-127315000Y-30012000D01*
X-127315000Y-29587000D01*
X-128348000Y-29587000D01*
X-128348000Y-29607000D01*
X-128602000Y-29607000D01*
X-128602000Y-29587000D01*
X-130798000Y-29587000D01*
X-130798000Y-29607000D01*
X-131052000Y-29607000D01*
X-131052000Y-29587000D01*
X-133048000Y-29587000D01*
X-133048000Y-29607000D01*
X-133302000Y-29607000D01*
X-133302000Y-29587000D01*
X-135498000Y-29587000D01*
X-135498000Y-29607000D01*
X-135752000Y-29607000D01*
X-135752000Y-29587000D01*
X-136785000Y-29587000D01*
X-136785000Y-30012000D01*
X-136737934Y-30235865D01*
X-136710547Y-30300001D01*
X-143167711Y-30300001D01*
X-143751010Y-30242808D01*
X-144281036Y-30082783D01*
X-144769880Y-29822860D01*
X-145198931Y-29472935D01*
X-145551845Y-29046335D01*
X-145815173Y-28559320D01*
X-145978894Y-28030422D01*
X-146040000Y-27449040D01*
X-146040000Y-27239872D01*
X-145435000Y-27239872D01*
X-145435000Y-27680128D01*
X-145349110Y-28111925D01*
X-145180631Y-28518669D01*
X-144936038Y-28884729D01*
X-144624729Y-29196038D01*
X-144258669Y-29440631D01*
X-143851925Y-29609110D01*
X-143420128Y-29695000D01*
X-142979872Y-29695000D01*
X-142548075Y-29609110D01*
X-142141331Y-29440631D01*
X-141775271Y-29196038D01*
X-141487233Y-28908000D01*
X-136785000Y-28908000D01*
X-136785000Y-29333000D01*
X-135752000Y-29333000D01*
X-135752000Y-28041837D01*
X-135930810Y-27916036D01*
X-136163864Y-27999937D01*
X-136355441Y-28124953D01*
X-136518947Y-28284941D01*
X-136648099Y-28473754D01*
X-136737934Y-28684135D01*
X-136785000Y-28908000D01*
X-141487233Y-28908000D01*
X-141463962Y-28884729D01*
X-141219369Y-28518669D01*
X-141050890Y-28111925D01*
X-140965000Y-27680128D01*
X-140965000Y-27239872D01*
X-141050890Y-26808075D01*
X-141176427Y-26505000D01*
X-135583072Y-26505000D01*
X-135580000Y-26944250D01*
X-135421250Y-27103000D01*
X-134497000Y-27103000D01*
X-134497000Y-26028750D01*
X-134655750Y-25870000D01*
X-134945000Y-25866928D01*
X-135069482Y-25879188D01*
X-135189180Y-25915498D01*
X-135299494Y-25974463D01*
X-135396185Y-26053815D01*
X-135475537Y-26150506D01*
X-135534502Y-26260820D01*
X-135570812Y-26380518D01*
X-135583072Y-26505000D01*
X-141176427Y-26505000D01*
X-141219369Y-26401331D01*
X-141463962Y-26035271D01*
X-141775271Y-25723962D01*
X-142141331Y-25479369D01*
X-142548075Y-25310890D01*
X-142979872Y-25225000D01*
X-143420128Y-25225000D01*
X-143851925Y-25310890D01*
X-144258669Y-25479369D01*
X-144624729Y-25723962D01*
X-144936038Y-26035271D01*
X-145180631Y-26401331D01*
X-145349110Y-26808075D01*
X-145435000Y-27239872D01*
X-146040000Y-27239872D01*
X-146040000Y-15860000D01*
X-142935000Y-15860000D01*
X-142935000Y-18960000D01*
X-142922753Y-19084111D01*
X-142886574Y-19203219D01*
X-142827854Y-19312981D01*
X-142748848Y-19409177D01*
X-142652593Y-19488113D01*
X-142542789Y-19546753D01*
X-142423654Y-19582844D01*
X-142299767Y-19595000D01*
X-131509999Y-19591042D01*
X-131509999Y-21321928D01*
X-132100001Y-21321928D01*
X-132273255Y-21338992D01*
X-132439851Y-21389528D01*
X-132593387Y-21471595D01*
X-132727962Y-21582038D01*
X-132838405Y-21716613D01*
X-132920472Y-21870149D01*
X-132971008Y-22036745D01*
X-132988072Y-22209999D01*
X-132988072Y-22823271D01*
X-133186012Y-23021211D01*
X-133215010Y-23045009D01*
X-133238808Y-23074007D01*
X-133238809Y-23074008D01*
X-133309984Y-23160734D01*
X-133380556Y-23292764D01*
X-133401180Y-23360755D01*
X-133423920Y-23435723D01*
X-133424012Y-23436025D01*
X-133438686Y-23585010D01*
X-133435009Y-23622342D01*
X-133435010Y-25312665D01*
X-133438686Y-25349988D01*
X-133435010Y-25387310D01*
X-133435010Y-25387320D01*
X-133426374Y-25475000D01*
X-133477002Y-25475000D01*
X-133477002Y-25579748D01*
X-133581750Y-25475000D01*
X-133684229Y-25486206D01*
X-133803346Y-25524379D01*
X-133912727Y-25585057D01*
X-134008169Y-25665908D01*
X-134086003Y-25763826D01*
X-134143239Y-25875046D01*
X-134164887Y-25950637D01*
X-134243000Y-26028750D01*
X-134243000Y-27103000D01*
X-134223000Y-27103000D01*
X-134223000Y-27357000D01*
X-134243000Y-27357000D01*
X-134243000Y-27377000D01*
X-134497000Y-27377000D01*
X-134497000Y-27357000D01*
X-135421250Y-27357000D01*
X-135580000Y-27515750D01*
X-135583072Y-27955000D01*
X-135570812Y-28079482D01*
X-135534502Y-28199180D01*
X-135498000Y-28267469D01*
X-135498000Y-29333000D01*
X-133302000Y-29333000D01*
X-133302000Y-29313000D01*
X-133048000Y-29313000D01*
X-133048000Y-29333000D01*
X-131052000Y-29333000D01*
X-131052000Y-29313000D01*
X-130798000Y-29313000D01*
X-130798000Y-29333000D01*
X-128602000Y-29333000D01*
X-128602000Y-28267469D01*
X-128565498Y-28199180D01*
X-128529188Y-28079482D01*
X-128525481Y-28041837D01*
X-128348000Y-28041837D01*
X-128348000Y-29333000D01*
X-127315000Y-29333000D01*
X-127315000Y-29235000D01*
X-104488072Y-29235000D01*
X-104475812Y-29359482D01*
X-104439502Y-29479180D01*
X-104380537Y-29589494D01*
X-104301185Y-29686185D01*
X-104204494Y-29765537D01*
X-104094180Y-29824502D01*
X-103974482Y-29860812D01*
X-103850000Y-29873072D01*
X-103598250Y-29870000D01*
X-103439500Y-29711250D01*
X-103439500Y-28887000D01*
X-104326250Y-28887000D01*
X-104485000Y-29045750D01*
X-104488072Y-29235000D01*
X-127315000Y-29235000D01*
X-127315000Y-28908000D01*
X-127362066Y-28684135D01*
X-127451901Y-28473754D01*
X-127581053Y-28284941D01*
X-127744559Y-28124953D01*
X-127936136Y-27999937D01*
X-128169190Y-27916036D01*
X-128348000Y-28041837D01*
X-128525481Y-28041837D01*
X-128516928Y-27955000D01*
X-128520000Y-27515750D01*
X-128678750Y-27357000D01*
X-129603000Y-27357000D01*
X-129603000Y-27377000D01*
X-129857000Y-27377000D01*
X-129857000Y-27357000D01*
X-129877000Y-27357000D01*
X-129877000Y-27103000D01*
X-129857000Y-27103000D01*
X-129857000Y-27083000D01*
X-129603000Y-27083000D01*
X-129603000Y-27103000D01*
X-128678750Y-27103000D01*
X-128520000Y-26944250D01*
X-128519360Y-26852702D01*
X-126463097Y-26852702D01*
X-126391514Y-27096671D01*
X-126136004Y-27217571D01*
X-125861816Y-27286300D01*
X-125579488Y-27300217D01*
X-125299870Y-27258787D01*
X-125033708Y-27163603D01*
X-124908486Y-27096671D01*
X-124836903Y-26852702D01*
X-111163097Y-26852702D01*
X-111091514Y-27096671D01*
X-110836004Y-27217571D01*
X-110561816Y-27286300D01*
X-110279488Y-27300217D01*
X-109999870Y-27258787D01*
X-109733708Y-27163603D01*
X-109608486Y-27096671D01*
X-109536903Y-26852702D01*
X-110350000Y-26039605D01*
X-111163097Y-26852702D01*
X-124836903Y-26852702D01*
X-125650000Y-26039605D01*
X-126463097Y-26852702D01*
X-128519360Y-26852702D01*
X-128516928Y-26505000D01*
X-128529188Y-26380518D01*
X-128565498Y-26260820D01*
X-128624463Y-26150506D01*
X-128703815Y-26053815D01*
X-128800506Y-25974463D01*
X-128882731Y-25930512D01*
X-127090217Y-25930512D01*
X-127048787Y-26210130D01*
X-126953603Y-26476292D01*
X-126886671Y-26601514D01*
X-126642702Y-26673097D01*
X-125829605Y-25860000D01*
X-125470395Y-25860000D01*
X-124657298Y-26673097D01*
X-124413329Y-26601514D01*
X-124292429Y-26346004D01*
X-124223700Y-26071816D01*
X-124209783Y-25789488D01*
X-124251213Y-25509870D01*
X-124346397Y-25243708D01*
X-124413329Y-25118486D01*
X-124657298Y-25046903D01*
X-125470395Y-25860000D01*
X-125829605Y-25860000D01*
X-126642702Y-25046903D01*
X-126886671Y-25118486D01*
X-127007571Y-25373996D01*
X-127076300Y-25648184D01*
X-127090217Y-25930512D01*
X-128882731Y-25930512D01*
X-128910820Y-25915498D01*
X-129030518Y-25879188D01*
X-129155000Y-25866928D01*
X-129181248Y-25867207D01*
X-129060149Y-25830472D01*
X-128906613Y-25748405D01*
X-128772038Y-25637962D01*
X-128661595Y-25503387D01*
X-128579528Y-25349851D01*
X-128528992Y-25183255D01*
X-128511928Y-25010001D01*
X-128511928Y-24396729D01*
X-127110197Y-22994999D01*
X-127040509Y-22994999D01*
X-127085000Y-23218665D01*
X-127085000Y-23501335D01*
X-127029853Y-23778574D01*
X-126921680Y-24039727D01*
X-126764637Y-24274759D01*
X-126564759Y-24474637D01*
X-126364131Y-24608692D01*
X-126391514Y-24623329D01*
X-126463097Y-24867298D01*
X-125650000Y-25680395D01*
X-124836903Y-24867298D01*
X-124908486Y-24623329D01*
X-124937341Y-24609676D01*
X-124735241Y-24474637D01*
X-124535363Y-24274759D01*
X-124431957Y-24120000D01*
X-121607909Y-24120000D01*
X-121525799Y-24242886D01*
X-121332886Y-24435799D01*
X-121106043Y-24587371D01*
X-120853989Y-24691775D01*
X-120586411Y-24745000D01*
X-120313589Y-24745000D01*
X-120168635Y-24716167D01*
X-119888799Y-24996003D01*
X-119865000Y-25025002D01*
X-119749275Y-25119975D01*
X-119617246Y-25190547D01*
X-119473985Y-25234004D01*
X-119362332Y-25245001D01*
X-119362324Y-25245001D01*
X-119324999Y-25248677D01*
X-119287674Y-25245001D01*
X-111646534Y-25245001D01*
X-111707571Y-25373996D01*
X-111776300Y-25648184D01*
X-111790217Y-25930512D01*
X-111748787Y-26210130D01*
X-111653603Y-26476292D01*
X-111586671Y-26601514D01*
X-111342702Y-26673097D01*
X-110529605Y-25860000D01*
X-110543747Y-25845858D01*
X-110364142Y-25666253D01*
X-110350000Y-25680395D01*
X-110335857Y-25666253D01*
X-110156252Y-25845858D01*
X-110170395Y-25860000D01*
X-109357298Y-26673097D01*
X-109219039Y-26632530D01*
X-107505553Y-28346018D01*
X-107481759Y-28375011D01*
X-107452766Y-28398805D01*
X-107452762Y-28398809D01*
X-107401903Y-28440547D01*
X-107366034Y-28469984D01*
X-107234005Y-28540556D01*
X-107090744Y-28584013D01*
X-106979091Y-28595010D01*
X-106979082Y-28595010D01*
X-106941759Y-28598686D01*
X-106904436Y-28595010D01*
X-105687332Y-28595010D01*
X-105650010Y-28598686D01*
X-105612688Y-28595010D01*
X-105612677Y-28595010D01*
X-105501024Y-28584013D01*
X-105357763Y-28540556D01*
X-105225734Y-28469984D01*
X-105110009Y-28375011D01*
X-105086206Y-28346007D01*
X-104814003Y-28073804D01*
X-104784999Y-28050001D01*
X-104771580Y-28033650D01*
X-104737171Y-28015258D01*
X-104690000Y-27976546D01*
X-104642829Y-28015258D01*
X-104506582Y-28088084D01*
X-104458284Y-28102735D01*
X-104475812Y-28160518D01*
X-104488072Y-28285000D01*
X-104485000Y-28474250D01*
X-104326250Y-28633000D01*
X-103439500Y-28633000D01*
X-103439500Y-28613000D01*
X-103185500Y-28613000D01*
X-103185500Y-28633000D01*
X-103165500Y-28633000D01*
X-103165500Y-28887000D01*
X-103185500Y-28887000D01*
X-103185500Y-29711250D01*
X-103026750Y-29870000D01*
X-102775000Y-29873072D01*
X-102650518Y-29860812D01*
X-102530820Y-29824502D01*
X-102420506Y-29765537D01*
X-102372606Y-29726226D01*
X-102222567Y-29806423D01*
X-102058316Y-29856248D01*
X-101887500Y-29873072D01*
X-101287500Y-29873072D01*
X-101116684Y-29856248D01*
X-100952433Y-29806423D01*
X-100801058Y-29725512D01*
X-100668377Y-29616623D01*
X-100559488Y-29483942D01*
X-100478577Y-29332567D01*
X-100428752Y-29168316D01*
X-100411928Y-28997500D01*
X-100411928Y-28522500D01*
X-100428752Y-28351684D01*
X-100478577Y-28187433D01*
X-100505429Y-28137195D01*
X-100395000Y-28148072D01*
X-100095000Y-28148072D01*
X-99941255Y-28132929D01*
X-99793418Y-28088084D01*
X-99657171Y-28015258D01*
X-99610000Y-27976546D01*
X-99562829Y-28015258D01*
X-99426582Y-28088084D01*
X-99278745Y-28132929D01*
X-99125000Y-28148072D01*
X-98825000Y-28148072D01*
X-98671255Y-28132929D01*
X-98523418Y-28088084D01*
X-98389064Y-28016270D01*
X-98359494Y-28040537D01*
X-98249180Y-28099502D01*
X-98129482Y-28135812D01*
X-98005000Y-28148072D01*
X-97990750Y-28145000D01*
X-97832000Y-27986250D01*
X-97832000Y-26662000D01*
X-97852000Y-26662000D01*
X-97852000Y-26408000D01*
X-97832000Y-26408000D01*
X-97832000Y-25083750D01*
X-97578000Y-25083750D01*
X-97578000Y-26408000D01*
X-97558000Y-26408000D01*
X-97558000Y-26662000D01*
X-97578000Y-26662000D01*
X-97578000Y-27986250D01*
X-97419250Y-28145000D01*
X-97405000Y-28148072D01*
X-97280518Y-28135812D01*
X-97160820Y-28099502D01*
X-97050506Y-28040537D01*
X-96953815Y-27961185D01*
X-96874463Y-27864494D01*
X-96815498Y-27754180D01*
X-96779188Y-27634482D01*
X-96771134Y-27552702D01*
X-96263097Y-27552702D01*
X-96191514Y-27796671D01*
X-95936004Y-27917571D01*
X-95661816Y-27986300D01*
X-95379488Y-28000217D01*
X-95099870Y-27958787D01*
X-94833708Y-27863603D01*
X-94708486Y-27796671D01*
X-94636903Y-27552702D01*
X-94779605Y-27410000D01*
X-91938072Y-27410000D01*
X-91925812Y-27534482D01*
X-91889502Y-27654180D01*
X-91830537Y-27764494D01*
X-91751185Y-27861185D01*
X-91654494Y-27940537D01*
X-91544180Y-27999502D01*
X-91424482Y-28035812D01*
X-91300000Y-28048072D01*
X-90735750Y-28045000D01*
X-90577000Y-27886250D01*
X-90577000Y-26687000D01*
X-91776250Y-26687000D01*
X-91935000Y-26845750D01*
X-91938072Y-27410000D01*
X-94779605Y-27410000D01*
X-95450000Y-26739605D01*
X-96263097Y-27552702D01*
X-96771134Y-27552702D01*
X-96766928Y-27510000D01*
X-96768602Y-27134350D01*
X-96753603Y-27176292D01*
X-96686671Y-27301514D01*
X-96442702Y-27373097D01*
X-95629605Y-26560000D01*
X-95270395Y-26560000D01*
X-94457298Y-27373097D01*
X-94213329Y-27301514D01*
X-94092429Y-27046004D01*
X-94023700Y-26771816D01*
X-94009783Y-26489488D01*
X-94051213Y-26209870D01*
X-94146397Y-25943708D01*
X-94213329Y-25818486D01*
X-94457298Y-25746903D01*
X-95270395Y-26560000D01*
X-95629605Y-26560000D01*
X-96442702Y-25746903D01*
X-96686671Y-25818486D01*
X-96768854Y-25992172D01*
X-96766961Y-25567298D01*
X-96263097Y-25567298D01*
X-95450000Y-26380395D01*
X-94636903Y-25567298D01*
X-94708486Y-25323329D01*
X-94963996Y-25202429D01*
X-95238184Y-25133700D01*
X-95520512Y-25119783D01*
X-95800130Y-25161213D01*
X-96066292Y-25256397D01*
X-96191514Y-25323329D01*
X-96263097Y-25567298D01*
X-96766961Y-25567298D01*
X-96766928Y-25560000D01*
X-96779188Y-25435518D01*
X-96815498Y-25315820D01*
X-96874463Y-25205506D01*
X-96953815Y-25108815D01*
X-97050506Y-25029463D01*
X-97160820Y-24970498D01*
X-97280518Y-24934188D01*
X-97405000Y-24921928D01*
X-97419250Y-24925000D01*
X-97578000Y-25083750D01*
X-97832000Y-25083750D01*
X-97990750Y-24925000D01*
X-98005000Y-24921928D01*
X-98129482Y-24934188D01*
X-98249180Y-24970498D01*
X-98359494Y-25029463D01*
X-98389064Y-25053730D01*
X-98421580Y-25036350D01*
X-98434999Y-25019999D01*
X-98463996Y-24996202D01*
X-98840198Y-24620000D01*
X-90924801Y-24620000D01*
X-90469802Y-25075000D01*
X-90577002Y-25075000D01*
X-90577002Y-25233748D01*
X-90735750Y-25075000D01*
X-91300000Y-25071928D01*
X-91424482Y-25084188D01*
X-91544180Y-25120498D01*
X-91654494Y-25179463D01*
X-91751185Y-25258815D01*
X-91830537Y-25355506D01*
X-91889502Y-25465820D01*
X-91925812Y-25585518D01*
X-91938072Y-25710000D01*
X-91935000Y-26274250D01*
X-91776250Y-26433000D01*
X-90577000Y-26433000D01*
X-90577000Y-26413000D01*
X-90323000Y-26413000D01*
X-90323000Y-26433000D01*
X-90303000Y-26433000D01*
X-90303000Y-26687000D01*
X-90323000Y-26687000D01*
X-90323000Y-27886250D01*
X-90164250Y-28045000D01*
X-89600000Y-28048072D01*
X-89475518Y-28035812D01*
X-89355820Y-27999502D01*
X-89245506Y-27940537D01*
X-89148815Y-27861185D01*
X-89069463Y-27764494D01*
X-89010498Y-27654180D01*
X-88988487Y-27581620D01*
X-88856632Y-27713475D01*
X-88613411Y-27875990D01*
X-88343158Y-27987932D01*
X-88056260Y-28045000D01*
X-87763740Y-28045000D01*
X-87476842Y-27987932D01*
X-87206589Y-27875990D01*
X-87003508Y-27740296D01*
X-86497796Y-28246009D01*
X-86474002Y-28275002D01*
X-86445009Y-28298796D01*
X-86445005Y-28298800D01*
X-86382473Y-28350118D01*
X-86358277Y-28369975D01*
X-86226248Y-28440547D01*
X-86082987Y-28484004D01*
X-85971334Y-28495001D01*
X-85971325Y-28495001D01*
X-85934002Y-28498677D01*
X-85896679Y-28495001D01*
X-84843321Y-28495001D01*
X-84805999Y-28498677D01*
X-84768677Y-28495001D01*
X-84768666Y-28495001D01*
X-84657013Y-28484004D01*
X-84513752Y-28440547D01*
X-84381723Y-28369975D01*
X-84265998Y-28275002D01*
X-84242196Y-28245999D01*
X-83736492Y-27740296D01*
X-83533411Y-27875990D01*
X-83263158Y-27987932D01*
X-82976260Y-28045000D01*
X-82683740Y-28045000D01*
X-82396842Y-27987932D01*
X-82126589Y-27875990D01*
X-81883368Y-27713475D01*
X-81676525Y-27506632D01*
X-81560000Y-27332240D01*
X-81443475Y-27506632D01*
X-81236632Y-27713475D01*
X-80993411Y-27875990D01*
X-80723158Y-27987932D01*
X-80436260Y-28045000D01*
X-80143740Y-28045000D01*
X-79923592Y-28001210D01*
X-79153788Y-28771014D01*
X-79129990Y-28800012D01*
X-79059141Y-28858156D01*
X-79014265Y-28894985D01*
X-78882236Y-28965557D01*
X-78738975Y-29009014D01*
X-78589989Y-29023688D01*
X-78552656Y-29020011D01*
X-77111920Y-29020011D01*
X-77074598Y-29023687D01*
X-77037276Y-29020011D01*
X-77037265Y-29020011D01*
X-76925612Y-29009014D01*
X-76782351Y-28965557D01*
X-76650322Y-28894985D01*
X-76534597Y-28800012D01*
X-76510794Y-28771009D01*
X-75538985Y-27799200D01*
X-75509988Y-27775403D01*
X-75459425Y-27713792D01*
X-75415015Y-27659679D01*
X-75344443Y-27527649D01*
X-75343440Y-27524343D01*
X-75300986Y-27384388D01*
X-75289989Y-27272735D01*
X-75289989Y-27272725D01*
X-75286313Y-27235402D01*
X-75289989Y-27198079D01*
X-75289989Y-25921920D01*
X-75286313Y-25884597D01*
X-75289989Y-25847274D01*
X-75289989Y-25847265D01*
X-75300986Y-25735612D01*
X-75344443Y-25592351D01*
X-75415015Y-25460322D01*
X-75509988Y-25344597D01*
X-75538986Y-25320799D01*
X-77410804Y-23448982D01*
X-77434607Y-23419978D01*
X-77550332Y-23325005D01*
X-77682361Y-23254433D01*
X-77825622Y-23210976D01*
X-77937275Y-23199979D01*
X-77937286Y-23199979D01*
X-77974608Y-23196303D01*
X-78011930Y-23199979D01*
X-86135219Y-23199979D01*
X-86325198Y-23010000D01*
X-44873072Y-23010000D01*
X-44870000Y-23474250D01*
X-44711250Y-23633000D01*
X-43837000Y-23633000D01*
X-43837000Y-22533750D01*
X-43995750Y-22375000D01*
X-44235000Y-22371928D01*
X-44359482Y-22384188D01*
X-44479180Y-22420498D01*
X-44589494Y-22479463D01*
X-44686185Y-22558815D01*
X-44765537Y-22655506D01*
X-44824502Y-22765820D01*
X-44860812Y-22885518D01*
X-44873072Y-23010000D01*
X-86325198Y-23010000D01*
X-89759473Y-19575726D01*
X-39169457Y-19557168D01*
X-41798659Y-22186370D01*
X-41834344Y-22215656D01*
X-41951186Y-22358029D01*
X-42003184Y-22455311D01*
X-42212601Y-22391785D01*
X-42440000Y-22369388D01*
X-42667400Y-22391785D01*
X-42876098Y-22455093D01*
X-42940820Y-22420498D01*
X-43060518Y-22384188D01*
X-43185000Y-22371928D01*
X-43424250Y-22375000D01*
X-43583000Y-22533750D01*
X-43583000Y-23306892D01*
X-43583215Y-23307601D01*
X-43600000Y-23478022D01*
X-43600000Y-23907000D01*
X-43837000Y-23907000D01*
X-43837000Y-23887000D01*
X-44711250Y-23887000D01*
X-44870000Y-24045750D01*
X-44873072Y-24510000D01*
X-44860812Y-24634482D01*
X-44824502Y-24754180D01*
X-44765537Y-24864494D01*
X-44686185Y-24961185D01*
X-44589494Y-25040537D01*
X-44479180Y-25099502D01*
X-44359482Y-25135812D01*
X-44244430Y-25147143D01*
X-45022287Y-25925000D01*
X-45297025Y-25925000D01*
X-45398987Y-25823038D01*
X-45617641Y-25676939D01*
X-45860595Y-25576304D01*
X-46118514Y-25525000D01*
X-46381486Y-25525000D01*
X-46639405Y-25576304D01*
X-46882359Y-25676939D01*
X-47101013Y-25823038D01*
X-47286962Y-26008987D01*
X-47433061Y-26227641D01*
X-47533696Y-26470595D01*
X-47585000Y-26728514D01*
X-47585000Y-26991486D01*
X-47533696Y-27249405D01*
X-47433061Y-27492359D01*
X-47286962Y-27711013D01*
X-47101013Y-27896962D01*
X-46882359Y-28043061D01*
X-46639405Y-28143696D01*
X-46381486Y-28195000D01*
X-46118514Y-28195000D01*
X-45860595Y-28143696D01*
X-45617641Y-28043061D01*
X-45398987Y-27896962D01*
X-45297025Y-27795000D01*
X-44680930Y-27795000D01*
X-44634998Y-27799524D01*
X-44589066Y-27795000D01*
X-44451706Y-27781471D01*
X-44275458Y-27728007D01*
X-44113026Y-27641186D01*
X-43970654Y-27524344D01*
X-43941368Y-27488659D01*
X-41811340Y-25358631D01*
X-41775656Y-25329346D01*
X-41658814Y-25186974D01*
X-41595316Y-25068177D01*
X-41397399Y-25128215D01*
X-41170000Y-25150612D01*
X-40942600Y-25128215D01*
X-40723940Y-25061885D01*
X-40522421Y-24954171D01*
X-40345788Y-24809212D01*
X-40200829Y-24632579D01*
X-40093115Y-24431059D01*
X-40026785Y-24212399D01*
X-40010000Y-24041978D01*
X-40010000Y-23478021D01*
X-40026785Y-23307600D01*
X-40084628Y-23116917D01*
X-39838072Y-22870361D01*
X-39838072Y-25310000D01*
X-39825812Y-25434482D01*
X-39789502Y-25554180D01*
X-39730537Y-25664494D01*
X-39651185Y-25761185D01*
X-39554494Y-25840537D01*
X-39518012Y-25860037D01*
X-39666962Y-26008987D01*
X-39813061Y-26227641D01*
X-39913696Y-26470595D01*
X-39965000Y-26728514D01*
X-39965000Y-26991486D01*
X-39913696Y-27249405D01*
X-39813061Y-27492359D01*
X-39666962Y-27711013D01*
X-39481013Y-27896962D01*
X-39262359Y-28043061D01*
X-39019405Y-28143696D01*
X-38761486Y-28195000D01*
X-38498514Y-28195000D01*
X-38240595Y-28143696D01*
X-37997641Y-28043061D01*
X-37778987Y-27896962D01*
X-37593038Y-27711013D01*
X-37446939Y-27492359D01*
X-37346304Y-27249405D01*
X-37295000Y-26991486D01*
X-37295000Y-26852012D01*
X-37285656Y-26844344D01*
X-37168814Y-26701972D01*
X-37081993Y-26539540D01*
X-37035422Y-26386015D01*
X-37028529Y-26363293D01*
X-37010476Y-26180001D01*
X-37015000Y-26134069D01*
X-37015000Y-25948072D01*
X-36700000Y-25948072D01*
X-36575518Y-25935812D01*
X-36455820Y-25899502D01*
X-36345506Y-25840537D01*
X-36248815Y-25761185D01*
X-36169463Y-25664494D01*
X-36110498Y-25554180D01*
X-36074188Y-25434482D01*
X-36061928Y-25310000D01*
X-36061928Y-23010000D01*
X-31713072Y-23010000D01*
X-31710000Y-23474250D01*
X-31551250Y-23633000D01*
X-30677000Y-23633000D01*
X-30677000Y-22533750D01*
X-30835750Y-22375000D01*
X-31075000Y-22371928D01*
X-31199482Y-22384188D01*
X-31319180Y-22420498D01*
X-31429494Y-22479463D01*
X-31526185Y-22558815D01*
X-31605537Y-22655506D01*
X-31664502Y-22765820D01*
X-31700812Y-22885518D01*
X-31713072Y-23010000D01*
X-36061928Y-23010000D01*
X-36061928Y-22810000D01*
X-36074188Y-22685518D01*
X-36110498Y-22565820D01*
X-36169463Y-22455506D01*
X-36248815Y-22358815D01*
X-36345506Y-22279463D01*
X-36455820Y-22220498D01*
X-36575518Y-22184188D01*
X-36700000Y-22171928D01*
X-39139639Y-22171928D01*
X-37562711Y-20595000D01*
X-28107289Y-20595000D01*
X-28638659Y-21126370D01*
X-28674344Y-21155656D01*
X-28791186Y-21298029D01*
X-28878007Y-21460461D01*
X-28908202Y-21560001D01*
X-28931471Y-21636709D01*
X-28949524Y-21820000D01*
X-28945000Y-21865932D01*
X-28945000Y-22424426D01*
X-29052601Y-22391785D01*
X-29280000Y-22369388D01*
X-29507400Y-22391785D01*
X-29716098Y-22455093D01*
X-29780820Y-22420498D01*
X-29900518Y-22384188D01*
X-30025000Y-22371928D01*
X-30264250Y-22375000D01*
X-30423000Y-22533750D01*
X-30423000Y-23306892D01*
X-30423215Y-23307601D01*
X-30440000Y-23478022D01*
X-30440000Y-23907000D01*
X-30677000Y-23907000D01*
X-30677000Y-23887000D01*
X-31551250Y-23887000D01*
X-31710000Y-24045750D01*
X-31713072Y-24510000D01*
X-31700812Y-24634482D01*
X-31664502Y-24754180D01*
X-31605537Y-24864494D01*
X-31526185Y-24961185D01*
X-31429494Y-25040537D01*
X-31319180Y-25099502D01*
X-31199482Y-25135812D01*
X-31075000Y-25148072D01*
X-30835750Y-25145000D01*
X-30677002Y-24986252D01*
X-30677002Y-25145000D01*
X-30637289Y-25145000D01*
X-31417289Y-25925000D01*
X-32137025Y-25925000D01*
X-32238987Y-25823038D01*
X-32457641Y-25676939D01*
X-32700595Y-25576304D01*
X-32958514Y-25525000D01*
X-33221486Y-25525000D01*
X-33479405Y-25576304D01*
X-33722359Y-25676939D01*
X-33941013Y-25823038D01*
X-34126962Y-26008987D01*
X-34273061Y-26227641D01*
X-34373696Y-26470595D01*
X-34425000Y-26728514D01*
X-34425000Y-26991486D01*
X-34373696Y-27249405D01*
X-34273061Y-27492359D01*
X-34126962Y-27711013D01*
X-33941013Y-27896962D01*
X-33722359Y-28043061D01*
X-33479405Y-28143696D01*
X-33221486Y-28195000D01*
X-32958514Y-28195000D01*
X-32700595Y-28143696D01*
X-32457641Y-28043061D01*
X-32238987Y-27896962D01*
X-32137025Y-27795000D01*
X-31075932Y-27795000D01*
X-31030000Y-27799524D01*
X-30984068Y-27795000D01*
X-30846708Y-27781471D01*
X-30670460Y-27728007D01*
X-30508028Y-27641186D01*
X-30365656Y-27524344D01*
X-30336370Y-27488659D01*
X-29576225Y-26728514D01*
X-26805000Y-26728514D01*
X-26805000Y-26991486D01*
X-26753696Y-27249405D01*
X-26653061Y-27492359D01*
X-26506962Y-27711013D01*
X-26321013Y-27896962D01*
X-26102359Y-28043061D01*
X-25859405Y-28143696D01*
X-25601486Y-28195000D01*
X-25338514Y-28195000D01*
X-25080595Y-28143696D01*
X-24837641Y-28043061D01*
X-24618987Y-27896962D01*
X-24433038Y-27711013D01*
X-24286939Y-27492359D01*
X-24186304Y-27249405D01*
X-24135000Y-26991486D01*
X-24135000Y-26847289D01*
X-24121341Y-26833630D01*
X-24085656Y-26804344D01*
X-23968814Y-26661972D01*
X-23881993Y-26499540D01*
X-23851578Y-26399274D01*
X-23828528Y-26323292D01*
X-23810476Y-26140000D01*
X-23815000Y-26094065D01*
X-23815000Y-25948072D01*
X-23500000Y-25948072D01*
X-23375518Y-25935812D01*
X-23255820Y-25899502D01*
X-23145506Y-25840537D01*
X-23048815Y-25761185D01*
X-22969463Y-25664494D01*
X-22910498Y-25554180D01*
X-22874188Y-25434482D01*
X-22861928Y-25310000D01*
X-22861928Y-23010000D01*
X-18413072Y-23010000D01*
X-18410000Y-23474250D01*
X-18251250Y-23633000D01*
X-17377000Y-23633000D01*
X-17377000Y-22533750D01*
X-17535750Y-22375000D01*
X-17775000Y-22371928D01*
X-17899482Y-22384188D01*
X-18019180Y-22420498D01*
X-18129494Y-22479463D01*
X-18226185Y-22558815D01*
X-18305537Y-22655506D01*
X-18364502Y-22765820D01*
X-18400812Y-22885518D01*
X-18413072Y-23010000D01*
X-22861928Y-23010000D01*
X-22861928Y-22810000D01*
X-22874188Y-22685518D01*
X-22910498Y-22565820D01*
X-22969463Y-22455506D01*
X-23048815Y-22358815D01*
X-23145506Y-22279463D01*
X-23255820Y-22220498D01*
X-23375518Y-22184188D01*
X-23500000Y-22171928D01*
X-26000000Y-22171928D01*
X-26124482Y-22184188D01*
X-26244180Y-22220498D01*
X-26354494Y-22279463D01*
X-26451185Y-22358815D01*
X-26530537Y-22455506D01*
X-26589502Y-22565820D01*
X-26625812Y-22685518D01*
X-26638072Y-22810000D01*
X-26638072Y-25310000D01*
X-26625812Y-25434482D01*
X-26589502Y-25554180D01*
X-26530537Y-25664494D01*
X-26451185Y-25761185D01*
X-26354494Y-25840537D01*
X-26344079Y-25846104D01*
X-26506962Y-26008987D01*
X-26653061Y-26227641D01*
X-26753696Y-26470595D01*
X-26805000Y-26728514D01*
X-29576225Y-26728514D01*
X-28651340Y-25803629D01*
X-28615656Y-25774344D01*
X-28498814Y-25631972D01*
X-28411993Y-25469540D01*
X-28383010Y-25373996D01*
X-28358528Y-25293292D01*
X-28340476Y-25110000D01*
X-28341801Y-25096545D01*
X-28237399Y-25128215D01*
X-28010000Y-25150612D01*
X-27782600Y-25128215D01*
X-27563940Y-25061885D01*
X-27362421Y-24954171D01*
X-27185788Y-24809212D01*
X-27040829Y-24632579D01*
X-26933115Y-24431059D01*
X-26866785Y-24212399D01*
X-26850000Y-24041978D01*
X-26850000Y-23478021D01*
X-26866785Y-23307600D01*
X-26933115Y-23088940D01*
X-27040829Y-22887421D01*
X-27075000Y-22845784D01*
X-27075000Y-22207289D01*
X-26262710Y-21395000D01*
X-15207289Y-21395000D01*
X-15338659Y-21526370D01*
X-15374344Y-21555656D01*
X-15491186Y-21698029D01*
X-15578007Y-21860461D01*
X-15626402Y-22019999D01*
X-15631471Y-22036709D01*
X-15649524Y-22220000D01*
X-15645000Y-22265932D01*
X-15645000Y-22424426D01*
X-15752601Y-22391785D01*
X-15980000Y-22369388D01*
X-16207400Y-22391785D01*
X-16416098Y-22455093D01*
X-16480820Y-22420498D01*
X-16600518Y-22384188D01*
X-16725000Y-22371928D01*
X-16964250Y-22375000D01*
X-17123000Y-22533750D01*
X-17123000Y-23306892D01*
X-17123215Y-23307601D01*
X-17140000Y-23478022D01*
X-17140000Y-23907000D01*
X-17377000Y-23907000D01*
X-17377000Y-23887000D01*
X-18251250Y-23887000D01*
X-18410000Y-24045750D01*
X-18413072Y-24510000D01*
X-18400812Y-24634482D01*
X-18364502Y-24754180D01*
X-18305537Y-24864494D01*
X-18226185Y-24961185D01*
X-18129494Y-25040537D01*
X-18019180Y-25099502D01*
X-17899482Y-25135812D01*
X-17775000Y-25148072D01*
X-17535750Y-25145000D01*
X-17377002Y-24986252D01*
X-17377002Y-25145000D01*
X-17337289Y-25145000D01*
X-18117289Y-25925000D01*
X-18837025Y-25925000D01*
X-18938987Y-25823038D01*
X-19157641Y-25676939D01*
X-19400595Y-25576304D01*
X-19658514Y-25525000D01*
X-19921486Y-25525000D01*
X-20179405Y-25576304D01*
X-20422359Y-25676939D01*
X-20641013Y-25823038D01*
X-20826962Y-26008987D01*
X-20973061Y-26227641D01*
X-21073696Y-26470595D01*
X-21125000Y-26728514D01*
X-21125000Y-26991486D01*
X-21073696Y-27249405D01*
X-20973061Y-27492359D01*
X-20826962Y-27711013D01*
X-20641013Y-27896962D01*
X-20422359Y-28043061D01*
X-20179405Y-28143696D01*
X-19921486Y-28195000D01*
X-19658514Y-28195000D01*
X-19400595Y-28143696D01*
X-19157641Y-28043061D01*
X-18938987Y-27896962D01*
X-18837025Y-27795000D01*
X-17775932Y-27795000D01*
X-17730000Y-27799524D01*
X-17684068Y-27795000D01*
X-17546708Y-27781471D01*
X-17370460Y-27728007D01*
X-17208028Y-27641186D01*
X-17065656Y-27524344D01*
X-17036370Y-27488659D01*
X-15351340Y-25803629D01*
X-15315656Y-25774344D01*
X-15198814Y-25631972D01*
X-15111993Y-25469540D01*
X-15083010Y-25373996D01*
X-15058528Y-25293292D01*
X-15040476Y-25110000D01*
X-15041801Y-25096545D01*
X-14937399Y-25128215D01*
X-14710000Y-25150612D01*
X-14482600Y-25128215D01*
X-14263940Y-25061885D01*
X-14062421Y-24954171D01*
X-13885788Y-24809212D01*
X-13740829Y-24632579D01*
X-13633115Y-24431059D01*
X-13566785Y-24212399D01*
X-13550000Y-24041978D01*
X-13550000Y-23478021D01*
X-13566785Y-23307600D01*
X-13633115Y-23088940D01*
X-13740829Y-22887421D01*
X-13775000Y-22845784D01*
X-13775000Y-22607289D01*
X-13362710Y-22195000D01*
X-12860124Y-22195000D01*
X-12944180Y-22220498D01*
X-13054494Y-22279463D01*
X-13151185Y-22358815D01*
X-13230537Y-22455506D01*
X-13289502Y-22565820D01*
X-13325812Y-22685518D01*
X-13338072Y-22810000D01*
X-13338072Y-25310000D01*
X-13325812Y-25434482D01*
X-13289502Y-25554180D01*
X-13230537Y-25664494D01*
X-13151185Y-25761185D01*
X-13054494Y-25840537D01*
X-13044079Y-25846104D01*
X-13206962Y-26008987D01*
X-13353061Y-26227641D01*
X-13453696Y-26470595D01*
X-13505000Y-26728514D01*
X-13505000Y-26991486D01*
X-13453696Y-27249405D01*
X-13353061Y-27492359D01*
X-13206962Y-27711013D01*
X-13021013Y-27896962D01*
X-12802359Y-28043061D01*
X-12559405Y-28143696D01*
X-12301486Y-28195000D01*
X-12038514Y-28195000D01*
X-11780595Y-28143696D01*
X-11537641Y-28043061D01*
X-11318987Y-27896962D01*
X-11133038Y-27711013D01*
X-10986939Y-27492359D01*
X-10886304Y-27249405D01*
X-10884408Y-27239872D01*
X-5735000Y-27239872D01*
X-5735000Y-27680128D01*
X-5649110Y-28111925D01*
X-5480631Y-28518669D01*
X-5236038Y-28884729D01*
X-4924729Y-29196038D01*
X-4558669Y-29440631D01*
X-4151925Y-29609110D01*
X-3720128Y-29695000D01*
X-3279872Y-29695000D01*
X-2848075Y-29609110D01*
X-2441331Y-29440631D01*
X-2075271Y-29196038D01*
X-1763962Y-28884729D01*
X-1519369Y-28518669D01*
X-1350890Y-28111925D01*
X-1265000Y-27680128D01*
X-1265000Y-27239872D01*
X-1350890Y-26808075D01*
X-1519369Y-26401331D01*
X-1763962Y-26035271D01*
X-2075271Y-25723962D01*
X-2441331Y-25479369D01*
X-2848075Y-25310890D01*
X-3279872Y-25225000D01*
X-3720128Y-25225000D01*
X-4151925Y-25310890D01*
X-4558669Y-25479369D01*
X-4924729Y-25723962D01*
X-5236038Y-26035271D01*
X-5480631Y-26401331D01*
X-5649110Y-26808075D01*
X-5735000Y-27239872D01*
X-10884408Y-27239872D01*
X-10835000Y-26991486D01*
X-10835000Y-26847289D01*
X-10821341Y-26833630D01*
X-10785656Y-26804344D01*
X-10668814Y-26661972D01*
X-10581993Y-26499540D01*
X-10551578Y-26399274D01*
X-10528528Y-26323292D01*
X-10510476Y-26140000D01*
X-10515000Y-26094065D01*
X-10515000Y-25948072D01*
X-10200000Y-25948072D01*
X-10075518Y-25935812D01*
X-9955820Y-25899502D01*
X-9845506Y-25840537D01*
X-9748815Y-25761185D01*
X-9669463Y-25664494D01*
X-9610498Y-25554180D01*
X-9574188Y-25434482D01*
X-9561928Y-25310000D01*
X-9561928Y-22810000D01*
X-9574188Y-22685518D01*
X-9610498Y-22565820D01*
X-9669463Y-22455506D01*
X-9748815Y-22358815D01*
X-9845506Y-22279463D01*
X-9955820Y-22220498D01*
X-10039876Y-22195000D01*
X-8534912Y-22195000D01*
X-8488980Y-22199524D01*
X-8443048Y-22195000D01*
X-8305688Y-22181471D01*
X-8129440Y-22128007D01*
X-7967008Y-22041186D01*
X-7824636Y-21924344D01*
X-7795350Y-21888659D01*
X-3465074Y-17558383D01*
X-3429389Y-17529097D01*
X-3312547Y-17386725D01*
X-3225726Y-17224293D01*
X-3172262Y-17048045D01*
X-3158733Y-16910685D01*
X-3154209Y-16864753D01*
X-3158733Y-16818821D01*
X-3158733Y-9155948D01*
X-3154209Y-9110016D01*
X-3172262Y-8926724D01*
X-3197571Y-8843291D01*
X-3225726Y-8750477D01*
X-3312547Y-8588045D01*
X-3429389Y-8445673D01*
X-3465067Y-8416393D01*
X-5058750Y-6822711D01*
X-5058750Y-6678514D01*
X-5110054Y-6420595D01*
X-5210689Y-6177641D01*
X-5356788Y-5958987D01*
X-5542737Y-5773038D01*
X-5761391Y-5626939D01*
X-6004345Y-5526304D01*
X-6262264Y-5475000D01*
X-6406461Y-5475000D01*
X-8500139Y-3381322D01*
X-8529425Y-3345637D01*
X-8609559Y-3279872D01*
X-5735000Y-3279872D01*
X-5735000Y-3720128D01*
X-5649110Y-4151925D01*
X-5480631Y-4558669D01*
X-5236038Y-4924729D01*
X-4924729Y-5236038D01*
X-4558669Y-5480631D01*
X-4151925Y-5649110D01*
X-3720128Y-5735000D01*
X-3279872Y-5735000D01*
X-2848075Y-5649110D01*
X-2441331Y-5480631D01*
X-2075271Y-5236038D01*
X-1763962Y-4924729D01*
X-1519369Y-4558669D01*
X-1350890Y-4151925D01*
X-1265000Y-3720128D01*
X-1265000Y-3279872D01*
X-1350890Y-2848075D01*
X-1519369Y-2441331D01*
X-1763962Y-2075271D01*
X-2075271Y-1763962D01*
X-2441331Y-1519369D01*
X-2848075Y-1350890D01*
X-3279872Y-1265000D01*
X-3720128Y-1265000D01*
X-4151925Y-1350890D01*
X-4558669Y-1519369D01*
X-4924729Y-1763962D01*
X-5236038Y-2075271D01*
X-5480631Y-2441331D01*
X-5649110Y-2848075D01*
X-5735000Y-3279872D01*
X-8609559Y-3279872D01*
X-8671797Y-3228795D01*
X-8834229Y-3141974D01*
X-9010477Y-3088510D01*
X-9147837Y-3074981D01*
X-9193769Y-3070457D01*
X-9239701Y-3074981D01*
X-16018995Y-3074981D01*
X-16064930Y-3070457D01*
X-16248222Y-3088509D01*
X-16424471Y-3141974D01*
X-16481050Y-3172216D01*
X-16586902Y-3228795D01*
X-16729274Y-3345637D01*
X-16758560Y-3381322D01*
X-18369974Y-4992737D01*
X-19981391Y-3381320D01*
X-20010677Y-3345635D01*
X-20153049Y-3228793D01*
X-20315481Y-3141972D01*
X-20491729Y-3088508D01*
X-20629089Y-3074979D01*
X-20675021Y-3070455D01*
X-20720953Y-3074979D01*
X-27500247Y-3074979D01*
X-27546179Y-3070455D01*
X-27729471Y-3088508D01*
X-27782469Y-3104585D01*
X-27905718Y-3141972D01*
X-28068150Y-3228793D01*
X-28210522Y-3345635D01*
X-28239804Y-3381315D01*
X-29984914Y-5126426D01*
X-30020593Y-5155707D01*
X-30137435Y-5298079D01*
X-30205275Y-5425000D01*
X-30437577Y-5425000D01*
X-32481257Y-3381320D01*
X-32510543Y-3345635D01*
X-32652915Y-3228793D01*
X-32815347Y-3141972D01*
X-32991595Y-3088508D01*
X-33128955Y-3074979D01*
X-33174887Y-3070455D01*
X-33220819Y-3074979D01*
X-38981497Y-3074979D01*
X-39027429Y-3070455D01*
X-39210721Y-3088508D01*
X-39263719Y-3104585D01*
X-39386968Y-3141972D01*
X-39549400Y-3228793D01*
X-39691772Y-3345635D01*
X-39721054Y-3381315D01*
X-41332475Y-4992736D01*
X-42943891Y-3381320D01*
X-42973177Y-3345635D01*
X-43115549Y-3228793D01*
X-43277981Y-3141972D01*
X-43454229Y-3088508D01*
X-43591589Y-3074979D01*
X-43637521Y-3070455D01*
X-43683453Y-3074979D01*
X-50462747Y-3074979D01*
X-50508679Y-3070455D01*
X-50691971Y-3088508D01*
X-50744969Y-3104585D01*
X-50868218Y-3141972D01*
X-51030650Y-3228793D01*
X-51173022Y-3345635D01*
X-51202304Y-3381315D01*
X-52813725Y-4992736D01*
X-54425141Y-3381320D01*
X-54454427Y-3345635D01*
X-54596799Y-3228793D01*
X-54759231Y-3141972D01*
X-54935479Y-3088508D01*
X-55072839Y-3074979D01*
X-55118771Y-3070455D01*
X-55164703Y-3074979D01*
X-61943997Y-3074979D01*
X-61989929Y-3070455D01*
X-62173221Y-3088508D01*
X-62226219Y-3104585D01*
X-62349468Y-3141972D01*
X-62511900Y-3228793D01*
X-62654272Y-3345635D01*
X-62683554Y-3381315D01*
X-64428664Y-5126426D01*
X-64464343Y-5155707D01*
X-64581185Y-5298079D01*
X-64649938Y-5426708D01*
X-64668006Y-5460511D01*
X-64687569Y-5525000D01*
X-65799943Y-5525000D01*
X-67943623Y-3381320D01*
X-67972909Y-3345635D01*
X-68115281Y-3228793D01*
X-68277713Y-3141972D01*
X-68453961Y-3088508D01*
X-68591321Y-3074979D01*
X-68637253Y-3070455D01*
X-68683185Y-3074979D01*
X-73425247Y-3074979D01*
X-73471179Y-3070455D01*
X-73654471Y-3088508D01*
X-73707469Y-3104585D01*
X-73830718Y-3141972D01*
X-73993150Y-3228793D01*
X-74135522Y-3345635D01*
X-74164804Y-3381315D01*
X-75776225Y-4992736D01*
X-77387639Y-3381322D01*
X-77416925Y-3345637D01*
X-77559297Y-3228795D01*
X-77721729Y-3141974D01*
X-77897977Y-3088510D01*
X-78035337Y-3074981D01*
X-78081269Y-3070457D01*
X-78127201Y-3074981D01*
X-84906495Y-3074981D01*
X-84952430Y-3070457D01*
X-85135722Y-3088509D01*
X-85311971Y-3141974D01*
X-85368550Y-3172216D01*
X-85474402Y-3228795D01*
X-85616774Y-3345637D01*
X-85646060Y-3381322D01*
X-87257474Y-4992737D01*
X-88868889Y-3381322D01*
X-88898175Y-3345637D01*
X-89040547Y-3228795D01*
X-89202979Y-3141974D01*
X-89379227Y-3088510D01*
X-89516587Y-3074981D01*
X-89562519Y-3070457D01*
X-89608451Y-3074981D01*
X-96387745Y-3074981D01*
X-96433680Y-3070457D01*
X-96616972Y-3088509D01*
X-96793221Y-3141974D01*
X-96849800Y-3172216D01*
X-96955652Y-3228795D01*
X-97098024Y-3345637D01*
X-97127310Y-3381322D01*
X-98738724Y-4992737D01*
X-100350139Y-3381322D01*
X-100379425Y-3345637D01*
X-100521797Y-3228795D01*
X-100684229Y-3141974D01*
X-100860477Y-3088510D01*
X-100997837Y-3074981D01*
X-101043769Y-3070457D01*
X-101089701Y-3074981D01*
X-107858995Y-3074981D01*
X-107904930Y-3070457D01*
X-108088222Y-3088509D01*
X-108264471Y-3141974D01*
X-108321050Y-3172216D01*
X-108426902Y-3228795D01*
X-108569274Y-3345637D01*
X-108598560Y-3381322D01*
X-110219974Y-5002737D01*
X-111841391Y-3381320D01*
X-111870677Y-3345635D01*
X-112013049Y-3228793D01*
X-112175481Y-3141972D01*
X-112351729Y-3088508D01*
X-112489089Y-3074979D01*
X-112535021Y-3070455D01*
X-112580953Y-3074979D01*
X-119350247Y-3074979D01*
X-119396179Y-3070455D01*
X-119579471Y-3088508D01*
X-119632469Y-3104585D01*
X-119755718Y-3141972D01*
X-119918150Y-3228793D01*
X-120060522Y-3345635D01*
X-120089804Y-3381315D01*
X-121701225Y-4992736D01*
X-123312641Y-3381320D01*
X-123341927Y-3345635D01*
X-123484299Y-3228793D01*
X-123646731Y-3141972D01*
X-123822979Y-3088508D01*
X-123960339Y-3074979D01*
X-124006271Y-3070455D01*
X-124052203Y-3074979D01*
X-130831493Y-3074979D01*
X-130877428Y-3070455D01*
X-131060720Y-3088507D01*
X-131236969Y-3141972D01*
X-131293548Y-3172214D01*
X-131399400Y-3228793D01*
X-131541772Y-3345635D01*
X-131571054Y-3381315D01*
X-133326164Y-5136426D01*
X-133361843Y-5165707D01*
X-133478685Y-5308079D01*
X-133491450Y-5331961D01*
X-133565506Y-5470511D01*
X-133618971Y-5646760D01*
X-133637024Y-5830051D01*
X-133633303Y-5867828D01*
X-133734462Y-5968987D01*
X-133880561Y-6187641D01*
X-133981196Y-6430595D01*
X-134032500Y-6688514D01*
X-134032500Y-6951486D01*
X-133981196Y-7209405D01*
X-133880561Y-7452359D01*
X-133734462Y-7671013D01*
X-133548513Y-7856962D01*
X-133499068Y-7890000D01*
X-133548513Y-7923038D01*
X-133734462Y-8108987D01*
X-133880561Y-8327641D01*
X-133981196Y-8570595D01*
X-134032500Y-8828514D01*
X-134032500Y-9091486D01*
X-133981196Y-9349405D01*
X-133880561Y-9592359D01*
X-133734462Y-9811013D01*
X-133548513Y-9996962D01*
X-133491585Y-10035000D01*
X-133548513Y-10073038D01*
X-133734462Y-10258987D01*
X-133880561Y-10477641D01*
X-133981196Y-10720595D01*
X-134032500Y-10978514D01*
X-134032500Y-11241486D01*
X-133981196Y-11499405D01*
X-133880561Y-11742359D01*
X-133778129Y-11895660D01*
X-138982500Y-6691290D01*
X-138982500Y-6688514D01*
X-139033804Y-6430595D01*
X-139134439Y-6187641D01*
X-139280538Y-5968987D01*
X-139466487Y-5783038D01*
X-139685141Y-5636939D01*
X-139928095Y-5536304D01*
X-140186014Y-5485000D01*
X-140448986Y-5485000D01*
X-140706905Y-5536304D01*
X-140949859Y-5636939D01*
X-141168513Y-5783038D01*
X-141354462Y-5968987D01*
X-141500561Y-6187641D01*
X-141601196Y-6430595D01*
X-141652500Y-6688514D01*
X-141652500Y-6951486D01*
X-141601196Y-7209405D01*
X-141500561Y-7452359D01*
X-141354462Y-7671013D01*
X-141168513Y-7856962D01*
X-141119068Y-7890000D01*
X-141168513Y-7923038D01*
X-141354462Y-8108987D01*
X-141500561Y-8327641D01*
X-141601196Y-8570595D01*
X-141652500Y-8828514D01*
X-141652500Y-9091486D01*
X-141601196Y-9349405D01*
X-141500561Y-9592359D01*
X-141354462Y-9811013D01*
X-141168513Y-9996962D01*
X-141111585Y-10035000D01*
X-141168513Y-10073038D01*
X-141354462Y-10258987D01*
X-141500561Y-10477641D01*
X-141601196Y-10720595D01*
X-141652500Y-10978514D01*
X-141652500Y-11241486D01*
X-141601196Y-11499405D01*
X-141500561Y-11742359D01*
X-141354462Y-11961013D01*
X-141168513Y-12146962D01*
X-140949859Y-12293061D01*
X-140706905Y-12393696D01*
X-140448986Y-12445000D01*
X-140446210Y-12445000D01*
X-139952499Y-12938712D01*
X-139952499Y-13334878D01*
X-139972000Y-13345301D01*
X-140136883Y-13480617D01*
X-140272199Y-13645500D01*
X-140372747Y-13833613D01*
X-140434665Y-14037728D01*
X-140455572Y-14250000D01*
X-140455572Y-15150000D01*
X-140448252Y-15224321D01*
X-142300233Y-15225000D01*
X-142423882Y-15237201D01*
X-142543004Y-15273336D01*
X-142652787Y-15332017D01*
X-142749013Y-15410987D01*
X-142827983Y-15507213D01*
X-142886664Y-15616996D01*
X-142922799Y-15736118D01*
X-142935000Y-15860000D01*
X-146040000Y-15860000D01*
X-146040000Y-3522279D01*
X-146016232Y-3279872D01*
X-145435000Y-3279872D01*
X-145435000Y-3720128D01*
X-145349110Y-4151925D01*
X-145180631Y-4558669D01*
X-144936038Y-4924729D01*
X-144624729Y-5236038D01*
X-144258669Y-5480631D01*
X-143851925Y-5649110D01*
X-143420128Y-5735000D01*
X-142979872Y-5735000D01*
X-142548075Y-5649110D01*
X-142141331Y-5480631D01*
X-141775271Y-5236038D01*
X-141463962Y-4924729D01*
X-141219369Y-4558669D01*
X-141050890Y-4151925D01*
X-140965000Y-3720128D01*
X-140965000Y-3279872D01*
X-141050890Y-2848075D01*
X-141219369Y-2441331D01*
X-141463962Y-2075271D01*
X-141775271Y-1763962D01*
X-142141331Y-1519369D01*
X-142548075Y-1350890D01*
X-142979872Y-1265000D01*
X-143420128Y-1265000D01*
X-143851925Y-1350890D01*
X-144258669Y-1519369D01*
X-144624729Y-1763962D01*
X-144936038Y-2075271D01*
X-145180631Y-2441331D01*
X-145349110Y-2848075D01*
X-145435000Y-3279872D01*
X-146016232Y-3279872D01*
X-145982998Y-2940931D01*
X-145823540Y-2412777D01*
X-145564531Y-1925654D01*
X-145215842Y-1498119D01*
X-144790744Y-1146447D01*
X-144305440Y-884044D01*
X-143778410Y-720901D01*
X-143198963Y-660000D01*
X-3532279Y-660000D01*
X-2948990Y-717192D01*
G37*
%TD.AperFunction*%
%TD*%
M02*
