M48
; DRILL file {KiCad 5.1.8} date Sun Nov 22 08:45:41 2020
; FORMAT={-:-/ absolute / inch / decimal}
; #@! TF.CreationDate,2020-11-22T08:45:41-05:00
; #@! TF.GenerationSoftware,Kicad,Pcbnew,5.1.8
FMAT,2
INCH
T1C0.0177
T2C0.0276
T3C0.0295
T4C0.0315
T5C0.0354
T6C0.1260
%
G90
G05
T2
X-3.2638Y-0.4374
X-2.9638Y-0.4374
X-3.2638Y-0.2681
X-2.9638Y-0.2681
X-1.9078Y-0.4374
X-1.6078Y-0.4374
X-4.1679Y-0.437
X-3.8679Y-0.437
X-1.9078Y-0.2681
X-1.6078Y-0.2681
X-1.0037Y-0.2681
X-0.7037Y-0.2681
X-3.7158Y-0.4374
X-3.4158Y-0.4374
X-2.8118Y-0.3528
X-2.5118Y-0.3528
X-4.1679Y-0.2681
X-3.8679Y-0.2681
X-0.7791Y-1.0575
X-0.4791Y-1.0575
X-1.8209Y-1.0575
X-1.5209Y-1.0575
X-1.3028Y-1.0575
X-1.0028Y-1.0575
X-5.5243Y-0.3528
X-5.2243Y-0.3528
X-1.9078Y-0.3528
X-1.6078Y-0.3528
X-1.0037Y-0.3528
X-0.7037Y-0.3528
X-3.7158Y-0.2681
X-3.4158Y-0.2681
X-1.0037Y-0.4374
X-0.7037Y-0.4374
X-5.0719Y-0.4374
X-4.7719Y-0.4374
X-0.5517Y-0.2681
X-0.2517Y-0.2681
X-2.3598Y-0.4374
X-2.0598Y-0.4374
X-5.5243Y-0.4374
X-5.2243Y-0.4374
X-2.8118Y-0.4374
X-2.5118Y-0.4374
X-3.7158Y-0.3528
X-3.4158Y-0.3528
X-0.5517Y-0.4374
X-0.2517Y-0.4374
X-4.6199Y-0.4378
X-4.3199Y-0.4378
X-5.5243Y-0.2685
X-5.2243Y-0.2685
X-1.4558Y-0.2681
X-1.1558Y-0.2681
X-0.5517Y-0.3528
X-0.2517Y-0.3528
X-1.4558Y-0.4374
X-1.1558Y-0.4374
X-5.0719Y-0.2681
X-4.7719Y-0.2681
X-4.6199Y-0.3531
X-4.3199Y-0.3531
X-3.2638Y-0.3528
X-2.9638Y-0.3528
X-2.3598Y-0.2681
X-2.0598Y-0.2681
X-5.0719Y-0.3528
X-4.7719Y-0.3528
X-2.8118Y-0.2681
X-2.5118Y-0.2681
X-4.1679Y-0.3524
X-3.8679Y-0.3524
X-1.4558Y-0.3528
X-1.1558Y-0.3528
X-4.6199Y-0.2685
X-4.3199Y-0.2685
X-2.3598Y-0.3528
X-2.0598Y-0.3528
T3
X-1.2028Y-0.9354
X-1.1528Y-0.9354
X-1.1028Y-0.9354
X-1.7209Y-0.9354
X-1.6709Y-0.9354
X-1.6209Y-0.9354
X-0.6791Y-0.9354
X-0.6291Y-0.9354
X-0.5791Y-0.9354
T4
X-4.9469Y-0.9197
X-4.9469Y-1.0181
X-4.3445Y-0.9197
X-4.3445Y-1.0181
X-3.7579Y-0.8488
X-3.7579Y-1.0457
X-4.7421Y-0.9197
X-4.55Y-0.9197
T5
X-1.4006Y-0.5787
X-1.3306Y-0.6387
X-1.2706Y-0.5787
X-1.2106Y-0.6387
X-4.5648Y-0.5787
X-4.4948Y-0.6387
X-4.4348Y-0.5787
X-4.3748Y-0.6387
X-3.2087Y-0.5787
X-3.1387Y-0.6387
X-3.0787Y-0.5787
X-3.0187Y-0.6387
X-5.4692Y-0.5787
X-5.3992Y-0.6387
X-5.3392Y-0.5787
X-5.2792Y-0.6387
X-0.4966Y-0.5787
X-0.4266Y-0.6387
X-0.3666Y-0.5787
X-0.3066Y-0.6387
X-3.6607Y-0.5787
X-3.5907Y-0.6387
X-3.5307Y-0.5787
X-3.4707Y-0.6387
X-4.1127Y-0.5787
X-4.0427Y-0.6387
X-3.9827Y-0.5787
X-3.9227Y-0.6387
X-5.0168Y-0.5787
X-4.9468Y-0.6387
X-4.8868Y-0.5787
X-4.8268Y-0.6387
X-1.8527Y-0.5787
X-1.7827Y-0.6387
X-1.7227Y-0.5787
X-1.6627Y-0.6387
X-2.3047Y-0.5787
X-2.2347Y-0.6387
X-2.1747Y-0.5787
X-2.1147Y-0.6387
X-0.9486Y-0.5787
X-0.8786Y-0.6387
X-0.8186Y-0.5787
X-0.7586Y-0.6387
X-2.7567Y-0.5787
X-2.6867Y-0.6387
X-2.6267Y-0.5787
X-2.5667Y-0.6387
T6
X-0.1378Y-0.1378
X-0.1378Y-1.0811
X-5.6378Y-1.0811
X-5.6378Y-0.1378
T1
G00X-5.3396Y-1.1756
M15
G01X-5.3396Y-1.1441
M16
G05
G00X-5.0581Y-1.1441
M15
G01X-5.0581Y-1.1756
M16
G05
T0
M30
